<?xml version="1.0" encoding="UTF-8"?>
<!-- 2017-10-11 16:23:18 Generated by QCAD SVG Exporter -->
<svg width="80.00000000000003mm" height="80.00000000000003mm" viewBox="-80.0000000000008 -43.59999999999987 80.00000000000003 80.00000000000003" version="1.1" xmlns="http://www.w3.org/2000/svg" style="stroke-linecap:round;stroke-linejoin:round;fill:none">
    <g transform="scale(1,-1)">
        <!-- Polyligne -->
        <path d="M-42.20000000000077,28.59999999999983 L-42.20000000000077,43.59999999999984 L-80.0000000000008,43.59999999999985 L-80.0000000000008,-36.40000000000015 L-7.638e-13,-36.40000000000016 L-7.727e-13,43.59999999999987 L-37.80000000000077,43.59999999999984 L-37.80000000000077,28.59999999999983 Z" style="stroke:#000000;stroke-width:0;"/>
        <!-- Polyligne -->
        <path d="M-77.65000000000077,18.62499999999984 L-73.25000000000078,18.62499999999984 L-73.25000000000078,9.512499999999841 L-77.65000000000077,9.512499999999841 Z" style="stroke:#000000;stroke-width:0;"/>
        <!-- Polyligne -->
        <path d="M-2.350000000000767,9.512499999999841 L-6.750000000000762,9.512499999999847 L-6.75000000000077,18.62499999999984 L-2.350000000000767,18.62499999999984 Z" style="stroke:#000000;stroke-width:0;"/>
        <!-- Polyligne -->
        <path d="M-68.53750000000078,36.84999999999984 L-73.25000000000078,36.84999999999984 L-73.25000000000078,27.73749999999984 L-77.65000000000077,27.73749999999984 L-77.65000000000077,41.2499999999998 L-68.53750000000078,41.24999999999982 Z" style="stroke:#000000;stroke-width:0;"/>
        <!-- Polyligne -->
        <path d="M-46.47500000000078,36.84999999999984 L-55.58750000000078,36.84999999999984 L-55.58750000000078,41.24999999999982 L-46.47500000000078,41.24999999999982 Z" style="stroke:#000000;stroke-width:0;"/>
        <!-- Polyligne -->
        <path d="M-24.41250000000078,36.84999999999984 L-33.52500000000078,36.84999999999984 L-33.52500000000078,41.24999999999982 L-24.41250000000078,41.24999999999982 Z" style="stroke:#000000;stroke-width:0;"/>
        <!-- Polyligne -->
        <path d="M-77.65000000000077,-34.05000000000015 L-77.65000000000077,-20.53750000000015 L-73.2500000000008,-20.53750000000015 L-73.25000000000078,-29.65000000000016 L-68.53750000000078,-29.65000000000016 L-68.53750000000078,-34.05000000000015 Z" style="stroke:#000000;stroke-width:0;"/>
        <!-- Polyligne -->
        <path d="M-24.41250000000078,-34.05000000000016 L-33.52500000000078,-34.05000000000015 L-33.52500000000078,-29.65000000000014 L-24.41250000000078,-29.65000000000015 Z" style="stroke:#000000;stroke-width:0;"/>
        <!-- Polyligne -->
        <path d="M-11.46250000000077,-29.65000000000014 L-6.75000000000077,-29.65000000000014 L-6.75000000000077,-20.53750000000015 L-2.350000000000767,-20.53750000000015 L-2.350000000000767,-34.05000000000016 L-11.46250000000077,-34.05000000000015 Z" style="stroke:#000000;stroke-width:0;"/>
        <!-- Polyligne -->
        <path d="M-46.47500000000078,-34.05000000000015 L-55.58750000000078,-34.05000000000016 L-55.58750000000078,-29.65000000000015 L-46.47500000000078,-29.65000000000015 Z" style="stroke:#000000;stroke-width:0;"/>
        <!-- Polyligne -->
        <path d="M-2.350000000000775,41.2499999999998 L-2.350000000000767,27.73749999999984 L-6.75000000000077,27.73749999999984 L-6.75000000000077,36.84999999999984 L-11.46250000000077,36.84999999999984 L-11.46250000000077,41.24999999999984 Z" style="stroke:#000000;stroke-width:0;"/>
        <!-- Cercle -->
        <circle cx="-13.74999999999992" cy="-15.75000000000004" r="1.799999999999999" style="stroke:#000000;stroke-width:0;"/>
        <!-- Cercle -->
        <circle cx="-66.25000000000077" cy="-15.75000000000011" r="1.799999999999997" style="stroke:#000000;stroke-width:0;"/>
        <!-- Cercle -->
        <circle cx="-66.25000000000085" cy="3.749999999999888" r="1.799999999999997" style="stroke:#000000;stroke-width:0;"/>
        <!-- Cercle -->
        <circle cx="-13.75000000000002" cy="3.74999999999995" r="1.799999999999999" style="stroke:#000000;stroke-width:0;"/>
        <!-- Cercle -->
        <circle cx="-40.0000000000008" cy="-6.000000000000139" r="4.999999999999999" style="stroke:#000000;stroke-width:0;"/>
    </g>
</svg>
