<?xml version="1.0" encoding="UTF-8"?>
<!-- 2017-10-11 16:23:26 Generated by QCAD SVG Exporter -->
<svg width="84.7mm" height="76.50000000000003mm" viewBox="-4.700000000000021 -14.11250000000003 84.7 76.50000000000003" version="1.1" xmlns="http://www.w3.org/2000/svg" style="stroke-linecap:round;stroke-linejoin:round;fill:none">
    <g transform="scale(1,-1)">
        <!-- Polyligne -->
        <path d="M7.012500000000006,9.26250000000004 L-4.699999999999977,9.26250000000004 L-4.699999999999999,-0.1500000000000101 L-6e-16,-0.1500000000000101 L6e-16,-8.962500000000006 L-4.699999999999982,-8.962500000000002 L-4.699999999999993,-18.375 L3.3e-15,-18.375 L5.6e-15,-25.23749999999984 L14,-25.23749999999983 L14,-42.23749999999982 L4.4e-15,-42.23749999999982 L3.3e-15,-48.125 L-4.700000000000021,-48.125 L-4.700000000000001,-57.5375 L7.012500000000007,-57.53749999999998 L7.012500000000003,-62.38749999999999 L16.725,-62.3875 L16.725,-57.53749999999998 L26.4375,-57.5375 L26.43750000000001,-62.38749999999999 L36.15000000000001,-62.38749999999999 L36.15000000000001,-57.53749999999998 L45.86249999999998,-57.5375 L45.8625,-62.38749999999999 L55.575,-62.38749999999999 L55.57499999999999,-57.53749999999998 L65.28749999999994,-57.5375 L65.28749999999998,-62.38749999999999 L74.99999999999999,-62.38749999999999 L74.99999999999999,-57.5375 L79.99999999999999,-57.53749999999998 L79.99999999999999,-47.99464285714285 L74.99999999999999,-47.99464285714285 L74.99999999999999,-38.4517857142857 L79.99999999999997,-38.4517857142857 L79.99999999999999,-28.90892857142856 L74.99999999999999,-28.90892857142855 L74.99999999999999,-19.36607142857141 L79.99999999999997,-19.36607142857141 L79.99999999999999,-9.823214285714261 L74.99999999999999,-9.823214285714261 L74.99999999999999,-0.280357142857115 L79.99999999999999,-0.280357142857115 L79.99999999999997,9.262500000000031 L74.99999999999999,9.262500000000031 L74.99999999999999,14.11250000000002 L65.28749999999998,14.11250000000002 L65.28749999999998,9.26250000000004 L55.57499999999998,9.262500000000031 L55.575,14.11250000000002 L45.86249999999999,14.11250000000002 L45.86249999999999,9.262500000000031 L36.15000000000001,9.26250000000004 L36.15000000000001,14.11250000000002 L26.4375,14.11250000000003 L26.4375,9.262500000000031 L16.725,9.262500000000031 L16.725,14.11250000000003 L7.012500000000007,14.11250000000003 Z" style="stroke:#000000;stroke-width:0;"/>
    </g>
</svg>
