<?xml version="1.0" encoding="UTF-8"?>
<!-- 2017-10-11 16:23:33 Generated by QCAD SVG Exporter -->
<svg width="80.00000000000003mm" height="84.69999999999997mm" viewBox="-2.350000000000038 2.2e-15 80.00000000000003 84.69999999999997" version="1.1" xmlns="http://www.w3.org/2000/svg" style="stroke-linecap:round;stroke-linejoin:round;fill:none">
    <g transform="scale(1,-1)">
        <!-- Polyligne -->
        <path d="M75.14999999999966,-79.4 L70.74999999999966,-79.4 L70.74999999999967,-70.28750000000001 L75.14999999999968,-70.28750000000001 Z" style="stroke:#000000;stroke-width:0;"/>
        <!-- Polyligne -->
        <path d="M75.1499999999997,-50.86249999999997 L75.1499999999997,-59.97499999999996 L70.74999999999969,-59.97499999999996 L70.74999999999969,-50.86249999999997 Z" style="stroke:#000000;stroke-width:0;"/>
        <!-- Polyligne -->
        <path d="M75.14999999999971,-12.01249999999993 L75.14999999999971,-21.12499999999992 L70.74999999999972,-21.12499999999992 L70.74999999999972,-12.01249999999992 Z" style="stroke:#000000;stroke-width:0;"/>
        <!-- Polyligne -->
        <path d="M75.14999999999971,-31.43749999999994 L75.1499999999997,-40.54999999999995 L70.74999999999969,-40.54999999999995 L70.7499999999997,-31.43749999999994 Z" style="stroke:#000000;stroke-width:0;"/>
        <!-- Polyligne -->
        <path d="M4.549999999999991,-12.01249999999991 L4.549999999999991,-21.1249999999999 L0.1499999999999879,-21.1249999999999 L0.1499999999999879,-12.01249999999991 Z" style="stroke:#000000;stroke-width:0;"/>
        <!-- Polyligne -->
        <path d="M4.549999999999991,-31.43749999999994 L4.549999999999991,-40.54999999999993 L0.1499999999999879,-40.54999999999993 L0.1499999999999879,-31.43749999999992 Z" style="stroke:#000000;stroke-width:0;"/>
        <!-- Polyligne -->
        <path d="M4.549999999999991,-50.86249999999996 L4.549999999999991,-59.97499999999995 L0.1499999999999879,-59.97499999999995 L0.1499999999999879,-50.86249999999996 Z" style="stroke:#000000;stroke-width:0;"/>
        <!-- Polyligne -->
        <path d="M4.549999999999991,-70.2875 L4.549999999999991,-79.39999999999999 L0.1499999999999968,-79.39999999999999 L0.1499999999999968,-70.2875 Z" style="stroke:#000000;stroke-width:0;"/>
        <!-- Polyligne -->
        <path d="M67.9375,-84.69999999999997 L77.64999999999986,-84.69999999999997 L77.64999999999999,-4.700000000000006 L75.6,-4.700000000000006 L75.60000000000001,-1.11e-14 L65.88750000000002,-1e-14 L65.8875,-4.700000000000005 L53.53750000000001,-4.700000000000002 L53.53749999999999,-2.2e-15 L43.825,-2.2e-15 L43.82499999999999,-4.700000000000002 L31.47500000000001,-4.700000000000001 L31.47500000000001,-2.2e-15 L21.7625,-2.2e-15 L21.7625,-4.700000000000001 L9.412499999999984,-4.699999999999999 L9.412499999999993,-6.7e-15 L-0.3000000000000025,-4.4e-15 L-0.3000000000000025,-4.699999999999998 L-2.350000000000012,-4.700000000000008 L-2.350000000000038,-84.69999999999997 L7.362499999999982,-84.69999999999997 L7.362499999999982,-80.14999999999998 L21.07916666666665,-80.14999999999998 L21.07916666666664,-84.69999999999997 L30.79166666666665,-84.69999999999997 L30.79166666666666,-80.14999999999998 L44.50833333333332,-80.14999999999998 L44.50833333333331,-84.69999999999997 L54.22083333333332,-84.69999999999997 L54.22083333333333,-80.14999999999998 L67.9375,-80.14999999999998 Z" style="stroke:#000000;stroke-width:0;"/>
        <!-- Cercle -->
        <circle cx="65.74999999999969" cy="-65.13125000000001" r="3" style="stroke:#000000;stroke-width:0;"/>
        <!-- Cercle -->
        <circle cx="65.74999999999969" cy="-73.13125000000001" r="2.424999999999999" style="stroke:#000000;stroke-width:0;"/>
    </g>
</svg>
