<?xml version="1.0" encoding="UTF-8"?>
<!-- 2017-10-11 16:23:39 Generated by QCAD SVG Exporter -->
<svg width="80.00000000000003mm" height="84.7mm" viewBox="-9.712500000000022 -80.15 80.00000000000003 84.7" version="1.1" xmlns="http://www.w3.org/2000/svg" style="stroke-linecap:round;stroke-linejoin:round;fill:none">
    <g transform="scale(1,-1)">
        <!-- Polyligne -->
        <path d="M28.2375,61.59999999999995 L28.2375,75.44999999999999 L24.11250000000003,75.44999999999999 L24.11250000000003,80.15 L14.40000000000001,80.15 L14.40000000000001,75.44999999999999 L2.049999999999991,75.45 L2.05,80.15 L-7.662499999999994,80.15 L-7.662499999999994,75.45 L-9.712500000000002,75.44999999999999 L-9.712500000000022,-4.549999999999982 L0,-4.55 L0,0 L13.71666666666667,0 L13.71666666666666,-4.55 L23.42916666666667,-4.55 L23.42916666666667,0 L37.14583333333334,0 L37.14583333333334,-4.55 L46.85833333333333,-4.55 L46.85833333333334,0 L60.575,0 L60.575,-4.55 L70.28749999999988,-4.55 L70.28750000000001,75.44999999999999 L68.23750000000001,75.44999999999999 L68.23750000000003,80.14999999999998 L58.52500000000002,80.15 L58.52500000000002,75.44999999999999 L46.17500000000002,75.44999999999999 L46.17500000000001,80.15 L36.46250000000001,80.15 L36.46250000000001,75.44999999999999 L32.6375,75.44999999999999 L32.63750000000001,61.59999999999995 Z" style="stroke:#000000;stroke-width:0;"/>
        <!-- Polyligne -->
        <path d="M67.78749999999968,0.7499999999999662 L63.38749999999969,0.7499999999999662 L63.38749999999969,9.862499999999965 L67.7874999999997,9.862499999999965 Z" style="stroke:#000000;stroke-width:0;"/>
        <!-- Polyligne -->
        <path d="M67.78749999999971,29.28750000000001 L67.78749999999971,20.17500000000001 L63.38749999999969,20.17500000000001 L63.3874999999997,29.28750000000001 Z" style="stroke:#000000;stroke-width:0;"/>
        <!-- Polyligne -->
        <path d="M67.78749999999972,68.13750000000005 L67.78749999999972,59.02500000000006 L63.38749999999972,59.02500000000006 L63.38749999999972,68.13750000000007 Z" style="stroke:#000000;stroke-width:0;"/>
        <!-- Polyligne -->
        <path d="M67.78749999999972,48.71250000000005 L67.78749999999971,39.60000000000004 L63.3874999999997,39.60000000000004 L63.38749999999972,48.71250000000005 Z" style="stroke:#000000;stroke-width:0;"/>
        <!-- Polyligne -->
        <path d="M-2.8125,68.13750000000007 L-2.8125,59.02500000000007 L-7.212500000000003,59.02500000000007 L-7.212500000000003,68.13750000000007 Z" style="stroke:#000000;stroke-width:0;"/>
        <!-- Polyligne -->
        <path d="M-2.8125,48.71250000000006 L-2.8125,39.60000000000006 L-7.212500000000003,39.60000000000006 L-7.212500000000003,48.71250000000006 Z" style="stroke:#000000;stroke-width:0;"/>
        <!-- Polyligne -->
        <path d="M-2.812499999999991,29.28750000000002 L-2.812499999999991,20.17500000000003 L-7.212499999999995,20.17500000000003 L-7.212499999999995,29.28750000000002 Z" style="stroke:#000000;stroke-width:0;"/>
        <!-- Polyligne -->
        <path d="M-2.812499999999991,9.862499999999981 L-2.812499999999991,0.7499999999999841 L-7.212499999999986,0.7499999999999841 L-7.212499999999986,9.862499999999981 Z" style="stroke:#000000;stroke-width:0;"/>
    </g>
</svg>
