<?xml version="1.0" encoding="UTF-8"?>
<!-- 2017-10-11 16:24:01 Generated by QCAD SVG Exporter -->
<svg width="84.69999999999999mm" height="84.69999999999999mm" viewBox="-49.20833333333331 -75.75000000000004 84.69999999999999 84.69999999999999" version="1.1" xmlns="http://www.w3.org/2000/svg" style="stroke-linecap:round;stroke-linejoin:round;fill:none">
    <g transform="scale(1,-1)">
        <!-- Polyligne -->
        <path d="M30.64166666666665,66.94999999999993 L30.64166666666666,57.83749999999994 L26.24166666666666,57.83749999999994 L26.24166666666666,66.94999999999993 L23.72916666666669,66.94999999999987 L23.72916666666669,71.34999999999994 L32.84166666666668,71.34999999999988 L32.84166666666668,66.94999999999993 Z" style="stroke:#000000;stroke-width:0;"/>
        <!-- Polyligne -->
        <path d="M23.72916666666672,-4.549999999999987 L23.72916666666672,-0.1499999999999835 L26.24166666666673,-0.1499999999999702 L26.24166666666668,8.962500000000029 L30.64166666666669,8.962500000000054 L30.64166666666673,-0.1499999999999479 L32.84166666666671,-0.1499999999999835 L32.84166666666672,-4.549999999999987 Z" style="stroke:#000000;stroke-width:0;"/>
        <!-- Polyligne -->
        <path d="M-39.95833333333329,66.94999999999993 L-39.95833333333329,57.83749999999994 L-44.35833333333328,57.83749999999994 L-44.35833333333327,66.94999999999993 L-46.5583333333333,66.94999999999993 L-46.55833333333331,71.34999999999994 L-37.44583333333331,71.34999999999995 L-37.44583333333331,66.94999999999995 Z" style="stroke:#000000;stroke-width:0;"/>
        <!-- Polyligne -->
        <path d="M-37.44583333333334,-0.1499999999999879 L-37.44583333333334,-4.549999999999991 L-46.55833333333334,-4.549999999999982 L-46.55833333333333,-0.149999999999979 L-44.35833333333335,-0.1499999999999435 L-44.35833333333331,8.962500000000054 L-39.95833333333331,8.962500000000027 L-39.95833333333336,-0.1499999999999702 Z" style="stroke:#000000;stroke-width:0;"/>
        <!-- Polyligne -->
        <path d="M9.412500000000017,71.34999999999992 L9.412500000000012,66.9499999999999 L0.3000000000000114,66.9499999999999 L0.3000000000000114,71.34999999999992 Z" style="stroke:#000000;stroke-width:0;"/>
        <!-- Polyligne -->
        <path d="M30.64166666666668,47.49910714285717 L30.64166666666667,38.3866071428571 L26.24166666666666,38.3866071428571 L26.24166666666666,47.49910714285717 Z" style="stroke:#000000;stroke-width:0;"/>
        <!-- Polyligne -->
        <path d="M0.3000000000000469,-4.549999999999996 L0.3000000000000469,-0.1499999999999968 L9.412500000000046,-0.1499999999999879 L9.412500000000046,-4.549999999999991 Z" style="stroke:#000000;stroke-width:0;"/>
        <!-- Polyligne -->
        <path d="M30.64166666666667,28.41339285714286 L30.64166666666667,19.30089285714286 L26.24166666666666,19.3008928571428 L26.24166666666667,28.41339285714286 Z" style="stroke:#000000;stroke-width:0;"/>
        <!-- Polyligne -->
        <path d="M-14.01666666666663,71.34999999999994 L-14.01666666666664,66.94999999999992 L-23.12916666666664,66.94999999999992 L-23.12916666666664,71.34999999999992 Z" style="stroke:#000000;stroke-width:0;"/>
        <!-- Polyligne -->
        <path d="M-39.9583333333333,47.49910714285717 L-39.9583333333333,38.38660714285718 L-44.35833333333328,38.38660714285718 L-44.3583333333333,47.49910714285717 Z" style="stroke:#000000;stroke-width:0;"/>
        <!-- Polyligne -->
        <path d="M-39.9583333333333,28.41339285714286 L-39.9583333333333,19.30089285714286 L-44.35833333333329,19.30089285714286 L-44.35833333333327,28.41339285714286 Z" style="stroke:#000000;stroke-width:0;"/>
        <!-- Polyligne -->
        <path d="M-23.12916666666667,-4.549999999999991 L-23.12916666666667,-0.1499999999999924 L-14.01666666666667,-0.1499999999999924 L-14.01666666666667,-4.549999999999996 Z" style="stroke:#000000;stroke-width:0;"/>
        <!-- Polyligne -->
        <path d="M-49.20833333333331,-8.949999999999951 L35.49166666666669,-8.949999999999944 L35.49166666666669,75.75000000000004 L-49.20833333333331,75.75000000000004 Z" style="stroke:#000000;stroke-width:0;"/>
    </g>
</svg>
