G75*
%MOIN*%
%OFA0B0*%
%FSLAX25Y25*%
%IPPOS*%
%LPD*%
%AMOC8*
5,1,8,0,0,1.08239X$1,22.5*
%
%ADD10R,0.03937X0.04331*%
%ADD11C,0.05200*%
%ADD12C,0.05150*%
%ADD13R,0.04331X0.03937*%
%ADD14OC8,0.10000*%
%ADD15R,0.07400X0.07400*%
%ADD16C,0.07400*%
%ADD17C,0.05937*%
%ADD18R,0.05937X0.05937*%
%ADD19C,0.04756*%
%ADD20R,0.07000X0.07000*%
%ADD21C,0.01600*%
%ADD22C,0.05000*%
%ADD23C,0.04000*%
%ADD24C,0.00600*%
D10*
X0104300Y0146820D03*
X0104300Y0153513D03*
X0126300Y0269820D03*
X0126300Y0276513D03*
X0126300Y0288320D03*
X0126300Y0295013D03*
X0127300Y0309820D03*
X0127300Y0316513D03*
X0072300Y0293513D03*
X0072300Y0286820D03*
X0072300Y0276013D03*
X0072300Y0269320D03*
D11*
X0081700Y0267167D02*
X0086900Y0267167D01*
X0086900Y0277167D02*
X0081700Y0277167D01*
X0081700Y0287167D02*
X0086900Y0287167D01*
X0086900Y0297167D02*
X0081700Y0297167D01*
X0081700Y0307167D02*
X0086900Y0307167D01*
X0086900Y0317167D02*
X0081700Y0317167D01*
X0111700Y0317167D02*
X0116900Y0317167D01*
X0116900Y0307167D02*
X0111700Y0307167D01*
X0111700Y0297167D02*
X0116900Y0297167D01*
X0116900Y0287167D02*
X0111700Y0287167D01*
X0111700Y0277167D02*
X0116900Y0277167D01*
X0116900Y0267167D02*
X0111700Y0267167D01*
X0111700Y0257167D02*
X0116900Y0257167D01*
X0116900Y0247167D02*
X0111700Y0247167D01*
X0086900Y0247167D02*
X0081700Y0247167D01*
X0081700Y0257167D02*
X0086900Y0257167D01*
D12*
X0165068Y0305405D02*
X0165068Y0310554D01*
X0172942Y0310554D02*
X0172942Y0305405D01*
D13*
X0170646Y0251667D03*
X0163954Y0251667D03*
X0163954Y0241667D03*
X0170646Y0241667D03*
D14*
X0115300Y0137667D03*
X0115300Y0107667D03*
D15*
X0014300Y0169167D03*
D16*
X0024300Y0169167D03*
X0034300Y0169167D03*
X0044300Y0169167D03*
X0054300Y0169167D03*
X0064300Y0169167D03*
X0074300Y0169167D03*
X0084300Y0169167D03*
X0094300Y0169167D03*
X0104300Y0169167D03*
X0114300Y0169167D03*
X0124300Y0169167D03*
X0134300Y0169167D03*
X0144300Y0169167D03*
X0154300Y0169167D03*
X0164300Y0169167D03*
X0174300Y0169167D03*
X0184300Y0169167D03*
X0194300Y0169167D03*
X0204300Y0169167D03*
X0204300Y0229167D03*
X0194300Y0229167D03*
X0184300Y0229167D03*
X0174300Y0229167D03*
X0164300Y0229167D03*
X0154300Y0229167D03*
X0144300Y0229167D03*
X0134300Y0229167D03*
X0124300Y0229167D03*
X0114300Y0229167D03*
X0104300Y0229167D03*
X0094300Y0229167D03*
X0084300Y0229167D03*
X0074300Y0229167D03*
X0064300Y0229167D03*
X0054300Y0229167D03*
X0044300Y0229167D03*
X0034300Y0229167D03*
X0024300Y0229167D03*
X0014300Y0229167D03*
D17*
X0155300Y0152667D03*
X0165300Y0152667D03*
X0175300Y0152667D03*
X0185300Y0152667D03*
X0195300Y0152667D03*
D18*
X0205300Y0152667D03*
D19*
X0138418Y0267072D03*
X0138418Y0272978D03*
X0138418Y0278883D03*
X0138418Y0284789D03*
X0138418Y0290694D03*
X0138418Y0296600D03*
X0056418Y0296600D03*
X0056418Y0290694D03*
X0056418Y0284789D03*
X0056418Y0278883D03*
X0056418Y0272978D03*
X0056418Y0267072D03*
D20*
X0057300Y0153167D03*
X0067300Y0153167D03*
X0077300Y0153167D03*
X0047300Y0153167D03*
X0037300Y0153167D03*
X0027300Y0153167D03*
X0017300Y0153167D03*
X0007300Y0153167D03*
D21*
X0024300Y0166167D02*
X0024300Y0169167D01*
X0024300Y0229167D01*
X0044300Y0236167D02*
X0030300Y0250167D01*
X0030300Y0287167D01*
X0059300Y0316167D01*
X0085300Y0316167D01*
X0084300Y0317167D01*
X0084300Y0307167D02*
X0089300Y0307167D01*
X0097300Y0299167D01*
X0097300Y0234167D01*
X0094300Y0231167D01*
X0094300Y0229167D01*
X0101300Y0234167D02*
X0101300Y0299167D01*
X0110300Y0308167D01*
X0113300Y0308167D01*
X0114300Y0307167D01*
X0114300Y0316167D02*
X0121300Y0316167D01*
X0122300Y0317167D01*
X0126300Y0317167D01*
X0127300Y0316167D01*
X0115300Y0316167D01*
X0114300Y0317167D01*
X0114300Y0316167D01*
X0115300Y0317167D02*
X0115954Y0316513D01*
X0127300Y0316513D01*
X0123300Y0296600D02*
X0124887Y0295013D01*
X0126300Y0295013D01*
X0126300Y0288320D02*
X0115454Y0288320D01*
X0114300Y0287167D01*
X0126300Y0288320D02*
X0126300Y0276513D01*
X0126300Y0269820D02*
X0126300Y0268072D01*
X0125300Y0267072D01*
X0114300Y0257167D02*
X0108300Y0257167D01*
X0106300Y0255167D01*
X0106300Y0239167D01*
X0114300Y0231167D01*
X0114300Y0229167D01*
X0104300Y0229167D02*
X0104300Y0231167D01*
X0101300Y0234167D01*
X0093300Y0239167D02*
X0093300Y0254167D01*
X0090300Y0257167D01*
X0084300Y0257167D01*
X0093300Y0239167D02*
X0084300Y0230167D01*
X0084300Y0229167D01*
X0065300Y0230167D02*
X0064300Y0229167D01*
X0065300Y0230167D02*
X0064300Y0231167D01*
X0064300Y0237167D01*
X0043300Y0258167D01*
X0043300Y0274167D01*
X0048017Y0278883D01*
X0056418Y0278883D01*
X0055796Y0284167D02*
X0056418Y0284789D01*
X0055796Y0284167D02*
X0045300Y0284167D01*
X0037300Y0276167D01*
X0037300Y0253167D01*
X0054300Y0236167D01*
X0054300Y0229167D01*
X0044300Y0229167D02*
X0044300Y0236167D01*
X0024300Y0166167D02*
X0029300Y0161167D01*
X0054300Y0161167D01*
X0057300Y0158167D01*
X0057300Y0153167D01*
X0057300Y0146167D01*
X0063300Y0140167D01*
X0082800Y0140167D01*
X0115300Y0107667D01*
X0151800Y0107667D01*
X0175300Y0131167D01*
X0175300Y0153167D01*
X0175300Y0154167D01*
X0171300Y0160167D02*
X0165300Y0154167D01*
X0165300Y0152667D01*
X0171300Y0160167D02*
X0209200Y0160167D01*
X0211200Y0162167D01*
X0211200Y0172267D01*
X0204300Y0179167D01*
X0204300Y0229167D01*
X0180300Y0243167D02*
X0178800Y0241667D01*
X0170646Y0241667D01*
X0164300Y0240320D02*
X0163954Y0251667D01*
X0163954Y0241667D01*
X0164300Y0240320D02*
X0164300Y0229167D01*
X0154300Y0229167D02*
X0154300Y0273167D01*
X0142300Y0285167D01*
X0138796Y0285167D01*
X0138418Y0284789D01*
X0138418Y0278883D02*
X0139135Y0278167D01*
X0142300Y0278167D01*
X0146300Y0274167D01*
X0146300Y0256167D01*
X0144300Y0254167D01*
X0144300Y0229167D01*
X0134300Y0229167D02*
X0134300Y0237167D01*
X0124300Y0247167D01*
X0114300Y0247167D01*
X0165068Y0274167D02*
X0165068Y0307980D01*
X0165255Y0308167D01*
X0165300Y0308167D01*
X0172942Y0307980D02*
X0180300Y0300621D01*
X0180300Y0243167D01*
X0170646Y0251667D02*
X0170646Y0268588D01*
X0165068Y0274167D01*
X0104300Y0169167D02*
X0104300Y0153513D01*
X0104300Y0146820D02*
X0104300Y0142167D01*
X0109300Y0137167D01*
X0114800Y0137167D01*
X0115300Y0137667D01*
D22*
X0114394Y0267072D02*
X0114300Y0267167D01*
X0114394Y0267072D02*
X0125300Y0267072D01*
X0138418Y0267072D01*
X0138418Y0296600D02*
X0123300Y0296600D01*
X0114867Y0296600D01*
X0114300Y0297167D01*
X0084300Y0297167D02*
X0082733Y0296600D01*
X0056418Y0296600D01*
X0056418Y0267072D02*
X0083206Y0267072D01*
X0084300Y0267167D01*
D23*
X0083206Y0267072D02*
X0072394Y0267072D01*
X0072300Y0267167D01*
X0072300Y0269320D01*
X0072300Y0276013D02*
X0083146Y0276013D01*
X0084300Y0277167D01*
X0072300Y0276013D02*
X0072300Y0286820D01*
X0072300Y0287167D01*
X0072300Y0293513D02*
X0072300Y0296167D01*
X0072733Y0296600D01*
X0082733Y0296600D01*
X0114300Y0317167D02*
X0115300Y0317167D01*
X0122300Y0317167D01*
X0144300Y0317167D01*
X0153300Y0308167D01*
X0165300Y0308167D01*
D24*
X0020810Y0092227D02*
X0019967Y0090767D01*
X0070342Y0090767D01*
X0069816Y0090958D01*
X0069530Y0091035D01*
X0069402Y0091109D01*
X0068014Y0091614D01*
X0066883Y0092563D01*
X0066754Y0092638D01*
X0066545Y0092847D01*
X0064707Y0094389D01*
X0064707Y0094389D01*
X0064707Y0094389D01*
X0062548Y0098128D01*
X0062548Y0098128D01*
X0062132Y0100491D01*
X0062055Y0100777D01*
X0062055Y0100925D01*
X0061799Y0102379D01*
X0061799Y0102379D01*
X0062055Y0103834D01*
X0062055Y0103982D01*
X0062132Y0104268D01*
X0062548Y0106631D01*
X0062548Y0106631D01*
X0064707Y0110369D01*
X0064707Y0110369D01*
X0066545Y0111912D01*
X0066754Y0112121D01*
X0066883Y0112195D01*
X0068014Y0113144D01*
X0068014Y0113144D01*
X0069402Y0113649D01*
X0069530Y0113724D01*
X0069816Y0113800D01*
X0072071Y0114621D01*
X0076388Y0114621D01*
X0078643Y0113800D01*
X0078928Y0113724D01*
X0079057Y0113649D01*
X0080444Y0113144D01*
X0080444Y0113144D01*
X0081576Y0112195D01*
X0081704Y0112121D01*
X0081913Y0111912D01*
X0083751Y0110369D01*
X0083751Y0110369D01*
X0083751Y0110369D01*
X0085910Y0106631D01*
X0085910Y0106631D01*
X0086327Y0104268D01*
X0086403Y0103982D01*
X0086403Y0103834D01*
X0086660Y0102379D01*
X0086403Y0100925D01*
X0086403Y0100777D01*
X0086327Y0100491D01*
X0085910Y0098128D01*
X0085910Y0098128D01*
X0083751Y0094389D01*
X0083751Y0094389D01*
X0081913Y0092847D01*
X0081704Y0092638D01*
X0081576Y0092563D01*
X0080444Y0091614D01*
X0080444Y0091614D01*
X0079057Y0091109D01*
X0078928Y0091035D01*
X0078643Y0090958D01*
X0078116Y0090767D01*
X0197633Y0090767D01*
X0196790Y0092227D01*
X0196094Y0094823D01*
X0196094Y0097510D01*
X0196790Y0100106D01*
X0198134Y0102433D01*
X0200034Y0104333D01*
X0202361Y0105677D01*
X0204956Y0106372D01*
X0207644Y0106372D01*
X0210239Y0105677D01*
X0211700Y0104833D01*
X0211700Y0159697D01*
X0211300Y0159297D01*
X0210070Y0158067D01*
X0172170Y0158067D01*
X0168997Y0154894D01*
X0169568Y0153516D01*
X0169568Y0151818D01*
X0168919Y0150249D01*
X0167718Y0149048D01*
X0166149Y0148398D01*
X0164451Y0148398D01*
X0162882Y0149048D01*
X0161681Y0150249D01*
X0161031Y0151818D01*
X0161031Y0153516D01*
X0161681Y0155085D01*
X0162882Y0156285D01*
X0164451Y0156935D01*
X0165099Y0156935D01*
X0170430Y0162267D01*
X0208330Y0162267D01*
X0209100Y0163037D01*
X0209100Y0167689D01*
X0208539Y0166334D01*
X0207132Y0164928D01*
X0205295Y0164167D01*
X0203305Y0164167D01*
X0201468Y0164928D01*
X0200061Y0166334D01*
X0199300Y0168172D01*
X0198539Y0166334D01*
X0197132Y0164928D01*
X0195295Y0164167D01*
X0193305Y0164167D01*
X0191468Y0164928D01*
X0190061Y0166334D01*
X0189300Y0168172D01*
X0188539Y0166334D01*
X0187132Y0164928D01*
X0185295Y0164167D01*
X0183305Y0164167D01*
X0181468Y0164928D01*
X0180061Y0166334D01*
X0179300Y0168172D01*
X0178539Y0166334D01*
X0177132Y0164928D01*
X0175295Y0164167D01*
X0173305Y0164167D01*
X0171468Y0164928D01*
X0170061Y0166334D01*
X0169300Y0168172D01*
X0168539Y0166334D01*
X0167132Y0164928D01*
X0165295Y0164167D01*
X0163305Y0164167D01*
X0161468Y0164928D01*
X0160061Y0166334D01*
X0159300Y0168172D01*
X0158539Y0166334D01*
X0157132Y0164928D01*
X0155295Y0164167D01*
X0153305Y0164167D01*
X0151468Y0164928D01*
X0150061Y0166334D01*
X0149300Y0168172D01*
X0148539Y0166334D01*
X0147132Y0164928D01*
X0145295Y0164167D01*
X0143305Y0164167D01*
X0141468Y0164928D01*
X0140061Y0166334D01*
X0139300Y0168172D01*
X0138539Y0166334D01*
X0137132Y0164928D01*
X0135295Y0164167D01*
X0133305Y0164167D01*
X0131468Y0164928D01*
X0130061Y0166334D01*
X0129300Y0168172D01*
X0128539Y0166334D01*
X0127132Y0164928D01*
X0125295Y0164167D01*
X0123305Y0164167D01*
X0121468Y0164928D01*
X0120061Y0166334D01*
X0119300Y0168172D01*
X0118539Y0166334D01*
X0117132Y0164928D01*
X0115295Y0164167D01*
X0113305Y0164167D01*
X0111468Y0164928D01*
X0110061Y0166334D01*
X0109300Y0168172D01*
X0109300Y0170161D01*
X0108539Y0171999D01*
X0107132Y0173405D01*
X0105295Y0174167D01*
X0103305Y0174167D01*
X0101468Y0173405D01*
X0100061Y0171999D01*
X0099300Y0170161D01*
X0099300Y0168172D01*
X0100061Y0166334D01*
X0101468Y0164928D01*
X0102200Y0164625D01*
X0102200Y0156978D01*
X0101793Y0156978D01*
X0101031Y0156217D01*
X0101031Y0150809D01*
X0101674Y0150167D01*
X0101031Y0149524D01*
X0101031Y0144116D01*
X0101793Y0143355D01*
X0102200Y0143355D01*
X0102200Y0141297D01*
X0107200Y0136297D01*
X0108430Y0135067D01*
X0109000Y0135067D01*
X0109000Y0135057D01*
X0112690Y0131367D01*
X0117910Y0131367D01*
X0121600Y0135057D01*
X0121600Y0140276D01*
X0117910Y0143967D01*
X0112690Y0143967D01*
X0109080Y0140356D01*
X0106400Y0143037D01*
X0106400Y0143355D01*
X0106807Y0143355D01*
X0107568Y0144116D01*
X0107568Y0149524D01*
X0106926Y0150167D01*
X0107568Y0150809D01*
X0107568Y0156217D01*
X0106807Y0156978D01*
X0106400Y0156978D01*
X0106400Y0164625D01*
X0107132Y0164928D01*
X0108539Y0166334D01*
X0109300Y0168172D01*
X0109300Y0170161D01*
X0110061Y0171999D01*
X0111468Y0173405D01*
X0113305Y0174167D01*
X0115295Y0174167D01*
X0117132Y0173405D01*
X0118539Y0171999D01*
X0119300Y0170161D01*
X0119300Y0168172D01*
X0119300Y0170161D01*
X0120061Y0171999D01*
X0121468Y0173405D01*
X0123305Y0174167D01*
X0125295Y0174167D01*
X0127132Y0173405D01*
X0128539Y0171999D01*
X0129300Y0170161D01*
X0129300Y0168172D01*
X0129300Y0170161D01*
X0130061Y0171999D01*
X0131468Y0173405D01*
X0133305Y0174167D01*
X0135295Y0174167D01*
X0137132Y0173405D01*
X0138539Y0171999D01*
X0139300Y0170161D01*
X0139300Y0168172D01*
X0139300Y0170161D01*
X0140061Y0171999D01*
X0141468Y0173405D01*
X0143305Y0174167D01*
X0145295Y0174167D01*
X0147132Y0173405D01*
X0148539Y0171999D01*
X0149300Y0170161D01*
X0149300Y0168172D01*
X0149300Y0170161D01*
X0150061Y0171999D01*
X0151468Y0173405D01*
X0153305Y0174167D01*
X0155295Y0174167D01*
X0157132Y0173405D01*
X0158539Y0171999D01*
X0159300Y0170161D01*
X0159300Y0168172D01*
X0159300Y0170161D01*
X0160061Y0171999D01*
X0161468Y0173405D01*
X0163305Y0174167D01*
X0165295Y0174167D01*
X0167132Y0173405D01*
X0168539Y0171999D01*
X0169300Y0170161D01*
X0169300Y0168172D01*
X0169300Y0170161D01*
X0170061Y0171999D01*
X0171468Y0173405D01*
X0173305Y0174167D01*
X0175295Y0174167D01*
X0177132Y0173405D01*
X0178539Y0171999D01*
X0179300Y0170161D01*
X0179300Y0168172D01*
X0179300Y0170161D01*
X0180061Y0171999D01*
X0181468Y0173405D01*
X0183305Y0174167D01*
X0185295Y0174167D01*
X0187132Y0173405D01*
X0188539Y0171999D01*
X0189300Y0170161D01*
X0189300Y0168172D01*
X0189300Y0170161D01*
X0190061Y0171999D01*
X0191468Y0173405D01*
X0193305Y0174167D01*
X0195295Y0174167D01*
X0197132Y0173405D01*
X0198539Y0171999D01*
X0199300Y0170161D01*
X0199300Y0168172D01*
X0199300Y0170161D01*
X0200061Y0171999D01*
X0201468Y0173405D01*
X0203305Y0174167D01*
X0205295Y0174167D01*
X0207062Y0173434D01*
X0202200Y0178297D01*
X0202200Y0224625D01*
X0201468Y0224928D01*
X0200061Y0226334D01*
X0199300Y0228172D01*
X0198539Y0226334D01*
X0197132Y0224928D01*
X0195295Y0224167D01*
X0193305Y0224167D01*
X0191468Y0224928D01*
X0190061Y0226334D01*
X0189300Y0228172D01*
X0189300Y0230161D01*
X0190061Y0231999D01*
X0191468Y0233405D01*
X0193305Y0234167D01*
X0195295Y0234167D01*
X0197132Y0233405D01*
X0198539Y0231999D01*
X0199300Y0230161D01*
X0199300Y0228172D01*
X0199300Y0230161D01*
X0200061Y0231999D01*
X0201468Y0233405D01*
X0203305Y0234167D01*
X0205295Y0234167D01*
X0207132Y0233405D01*
X0208539Y0231999D01*
X0209300Y0230161D01*
X0209300Y0228172D01*
X0208539Y0226334D01*
X0207132Y0224928D01*
X0206400Y0224625D01*
X0206400Y0180037D01*
X0211700Y0174736D01*
X0211700Y0312500D01*
X0210239Y0311657D01*
X0207644Y0310961D01*
X0204956Y0310961D01*
X0202361Y0311657D01*
X0200034Y0313000D01*
X0198134Y0314900D01*
X0196790Y0317227D01*
X0196094Y0319823D01*
X0196094Y0322510D01*
X0196790Y0325106D01*
X0197633Y0326567D01*
X0019967Y0326567D01*
X0020810Y0325106D01*
X0021505Y0322510D01*
X0021505Y0319823D01*
X0020810Y0317227D01*
X0019466Y0314900D01*
X0017566Y0313000D01*
X0015239Y0311657D01*
X0012644Y0310961D01*
X0009956Y0310961D01*
X0007361Y0311657D01*
X0005900Y0312500D01*
X0005900Y0157967D01*
X0011338Y0157967D01*
X0012100Y0157205D01*
X0012100Y0149128D01*
X0011338Y0148367D01*
X0005900Y0148367D01*
X0005900Y0104833D01*
X0007361Y0105677D01*
X0009956Y0106372D01*
X0012644Y0106372D01*
X0015239Y0105677D01*
X0017566Y0104333D01*
X0019466Y0102433D01*
X0020810Y0100106D01*
X0021505Y0097510D01*
X0021505Y0094823D01*
X0020810Y0092227D01*
X0020766Y0092152D02*
X0067373Y0092152D01*
X0066641Y0092750D02*
X0020950Y0092750D01*
X0021110Y0093349D02*
X0065947Y0093349D01*
X0065233Y0093947D02*
X0021271Y0093947D01*
X0021431Y0094546D02*
X0064616Y0094546D01*
X0064271Y0095144D02*
X0021505Y0095144D01*
X0021505Y0095743D02*
X0063925Y0095743D01*
X0063580Y0096341D02*
X0021505Y0096341D01*
X0021505Y0096940D02*
X0063234Y0096940D01*
X0062889Y0097538D02*
X0021498Y0097538D01*
X0021338Y0098137D02*
X0062547Y0098137D01*
X0062441Y0098735D02*
X0021177Y0098735D01*
X0021017Y0099334D02*
X0062336Y0099334D01*
X0062230Y0099932D02*
X0020856Y0099932D01*
X0020565Y0100531D02*
X0062121Y0100531D01*
X0062019Y0101129D02*
X0020219Y0101129D01*
X0019873Y0101728D02*
X0061914Y0101728D01*
X0061808Y0102326D02*
X0019528Y0102326D01*
X0018974Y0102925D02*
X0061895Y0102925D01*
X0062000Y0103523D02*
X0018376Y0103523D01*
X0017777Y0104122D02*
X0062093Y0104122D01*
X0062212Y0104721D02*
X0016895Y0104721D01*
X0015859Y0105319D02*
X0062317Y0105319D01*
X0062423Y0105918D02*
X0014340Y0105918D01*
X0008260Y0105918D02*
X0005900Y0105918D01*
X0005900Y0106516D02*
X0062528Y0106516D01*
X0062828Y0107115D02*
X0005900Y0107115D01*
X0005900Y0107713D02*
X0063173Y0107713D01*
X0063519Y0108312D02*
X0005900Y0108312D01*
X0005900Y0108910D02*
X0063864Y0108910D01*
X0064210Y0109509D02*
X0005900Y0109509D01*
X0005900Y0110107D02*
X0064555Y0110107D01*
X0065108Y0110706D02*
X0005900Y0110706D01*
X0005900Y0111304D02*
X0065821Y0111304D01*
X0066534Y0111903D02*
X0005900Y0111903D01*
X0005900Y0112501D02*
X0067247Y0112501D01*
X0067961Y0113100D02*
X0005900Y0113100D01*
X0005900Y0113698D02*
X0069486Y0113698D01*
X0071180Y0114297D02*
X0005900Y0114297D01*
X0005900Y0114895D02*
X0211700Y0114895D01*
X0211700Y0114297D02*
X0077278Y0114297D01*
X0078972Y0113698D02*
X0112422Y0113698D01*
X0112690Y0113967D02*
X0109000Y0110276D01*
X0109000Y0107967D01*
X0115000Y0107967D01*
X0115000Y0113967D01*
X0112690Y0113967D01*
X0111823Y0113100D02*
X0080498Y0113100D01*
X0081211Y0112501D02*
X0111225Y0112501D01*
X0110626Y0111903D02*
X0081924Y0111903D01*
X0082637Y0111304D02*
X0110028Y0111304D01*
X0109429Y0110706D02*
X0083351Y0110706D01*
X0083903Y0110107D02*
X0109000Y0110107D01*
X0109000Y0109509D02*
X0084248Y0109509D01*
X0084594Y0108910D02*
X0109000Y0108910D01*
X0109000Y0108312D02*
X0084940Y0108312D01*
X0085285Y0107713D02*
X0115000Y0107713D01*
X0115000Y0107967D02*
X0115000Y0107367D01*
X0109000Y0107367D01*
X0109000Y0105057D01*
X0112690Y0101367D01*
X0115000Y0101367D01*
X0115000Y0107367D01*
X0115600Y0107367D01*
X0115600Y0107967D01*
X0115000Y0107967D01*
X0115000Y0108312D02*
X0115600Y0108312D01*
X0115600Y0107967D02*
X0115600Y0113967D01*
X0117910Y0113967D01*
X0121600Y0110276D01*
X0121600Y0107967D01*
X0115600Y0107967D01*
X0115600Y0107713D02*
X0211700Y0107713D01*
X0211700Y0107115D02*
X0121600Y0107115D01*
X0121600Y0107367D02*
X0115600Y0107367D01*
X0115600Y0101367D01*
X0117910Y0101367D01*
X0121600Y0105057D01*
X0121600Y0107367D01*
X0121600Y0106516D02*
X0211700Y0106516D01*
X0211700Y0105918D02*
X0209340Y0105918D01*
X0210859Y0105319D02*
X0211700Y0105319D01*
X0211700Y0108312D02*
X0121600Y0108312D01*
X0121600Y0108910D02*
X0211700Y0108910D01*
X0211700Y0109509D02*
X0121600Y0109509D01*
X0121600Y0110107D02*
X0211700Y0110107D01*
X0211700Y0110706D02*
X0121171Y0110706D01*
X0120572Y0111304D02*
X0211700Y0111304D01*
X0211700Y0111903D02*
X0119974Y0111903D01*
X0119375Y0112501D02*
X0211700Y0112501D01*
X0211700Y0113100D02*
X0118777Y0113100D01*
X0118178Y0113698D02*
X0211700Y0113698D01*
X0211700Y0115494D02*
X0005900Y0115494D01*
X0005900Y0116092D02*
X0211700Y0116092D01*
X0211700Y0116691D02*
X0005900Y0116691D01*
X0005900Y0117289D02*
X0211700Y0117289D01*
X0211700Y0117888D02*
X0005900Y0117888D01*
X0005900Y0118486D02*
X0211700Y0118486D01*
X0211700Y0119085D02*
X0005900Y0119085D01*
X0005900Y0119683D02*
X0211700Y0119683D01*
X0211700Y0120282D02*
X0005900Y0120282D01*
X0005900Y0120880D02*
X0211700Y0120880D01*
X0211700Y0121479D02*
X0005900Y0121479D01*
X0005900Y0122077D02*
X0211700Y0122077D01*
X0211700Y0122676D02*
X0005900Y0122676D01*
X0005900Y0123274D02*
X0211700Y0123274D01*
X0211700Y0123873D02*
X0005900Y0123873D01*
X0005900Y0124471D02*
X0211700Y0124471D01*
X0211700Y0125070D02*
X0005900Y0125070D01*
X0005900Y0125668D02*
X0211700Y0125668D01*
X0211700Y0126267D02*
X0005900Y0126267D01*
X0005900Y0126865D02*
X0211700Y0126865D01*
X0211700Y0127464D02*
X0005900Y0127464D01*
X0005900Y0128062D02*
X0211700Y0128062D01*
X0211700Y0128661D02*
X0005900Y0128661D01*
X0005900Y0129259D02*
X0211700Y0129259D01*
X0211700Y0129858D02*
X0005900Y0129858D01*
X0005900Y0130456D02*
X0211700Y0130456D01*
X0211700Y0131055D02*
X0005900Y0131055D01*
X0005900Y0131654D02*
X0112404Y0131654D01*
X0111805Y0132252D02*
X0005900Y0132252D01*
X0005900Y0132851D02*
X0111207Y0132851D01*
X0110608Y0133449D02*
X0005900Y0133449D01*
X0005900Y0134048D02*
X0110010Y0134048D01*
X0109411Y0134646D02*
X0005900Y0134646D01*
X0005900Y0135245D02*
X0108252Y0135245D01*
X0107654Y0135843D02*
X0005900Y0135843D01*
X0005900Y0136442D02*
X0107055Y0136442D01*
X0106457Y0137040D02*
X0005900Y0137040D01*
X0005900Y0137639D02*
X0105858Y0137639D01*
X0105260Y0138237D02*
X0005900Y0138237D01*
X0005900Y0138836D02*
X0104661Y0138836D01*
X0104063Y0139434D02*
X0005900Y0139434D01*
X0005900Y0140033D02*
X0103464Y0140033D01*
X0102866Y0140631D02*
X0005900Y0140631D01*
X0005900Y0141230D02*
X0102267Y0141230D01*
X0102200Y0141828D02*
X0005900Y0141828D01*
X0005900Y0142427D02*
X0102200Y0142427D01*
X0102200Y0143025D02*
X0005900Y0143025D01*
X0005900Y0143624D02*
X0101524Y0143624D01*
X0101031Y0144222D02*
X0005900Y0144222D01*
X0005900Y0144821D02*
X0101031Y0144821D01*
X0101031Y0145419D02*
X0005900Y0145419D01*
X0005900Y0146018D02*
X0101031Y0146018D01*
X0101031Y0146616D02*
X0005900Y0146616D01*
X0005900Y0147215D02*
X0101031Y0147215D01*
X0101031Y0147813D02*
X0005900Y0147813D01*
X0011384Y0148412D02*
X0013216Y0148412D01*
X0013262Y0148367D02*
X0012500Y0149128D01*
X0012500Y0157205D01*
X0013262Y0157967D01*
X0021338Y0157967D01*
X0022100Y0157205D01*
X0022100Y0149128D01*
X0021338Y0148367D01*
X0013262Y0148367D01*
X0012618Y0149010D02*
X0011982Y0149010D01*
X0012100Y0149609D02*
X0012500Y0149609D01*
X0012500Y0150207D02*
X0012100Y0150207D01*
X0012100Y0150806D02*
X0012500Y0150806D01*
X0012500Y0151404D02*
X0012100Y0151404D01*
X0012100Y0152003D02*
X0012500Y0152003D01*
X0012500Y0152601D02*
X0012100Y0152601D01*
X0012100Y0153200D02*
X0012500Y0153200D01*
X0012500Y0153798D02*
X0012100Y0153798D01*
X0012100Y0154397D02*
X0012500Y0154397D01*
X0012500Y0154995D02*
X0012100Y0154995D01*
X0012100Y0155594D02*
X0012500Y0155594D01*
X0012500Y0156192D02*
X0012100Y0156192D01*
X0012100Y0156791D02*
X0012500Y0156791D01*
X0012684Y0157390D02*
X0011916Y0157390D01*
X0010062Y0164167D02*
X0009300Y0164928D01*
X0009300Y0173405D01*
X0010062Y0174167D01*
X0018538Y0174167D01*
X0019300Y0173405D01*
X0019300Y0164928D01*
X0018538Y0164167D01*
X0010062Y0164167D01*
X0009657Y0164572D02*
X0005900Y0164572D01*
X0005900Y0165170D02*
X0009300Y0165170D01*
X0009300Y0165769D02*
X0005900Y0165769D01*
X0005900Y0166367D02*
X0009300Y0166367D01*
X0009300Y0166966D02*
X0005900Y0166966D01*
X0005900Y0167564D02*
X0009300Y0167564D01*
X0009300Y0168163D02*
X0005900Y0168163D01*
X0005900Y0168761D02*
X0009300Y0168761D01*
X0009300Y0169360D02*
X0005900Y0169360D01*
X0005900Y0169958D02*
X0009300Y0169958D01*
X0009300Y0170557D02*
X0005900Y0170557D01*
X0005900Y0171155D02*
X0009300Y0171155D01*
X0009300Y0171754D02*
X0005900Y0171754D01*
X0005900Y0172352D02*
X0009300Y0172352D01*
X0009300Y0172951D02*
X0005900Y0172951D01*
X0005900Y0173549D02*
X0009444Y0173549D01*
X0010043Y0174148D02*
X0005900Y0174148D01*
X0005900Y0174746D02*
X0205750Y0174746D01*
X0205340Y0174148D02*
X0206349Y0174148D01*
X0206785Y0173549D02*
X0206947Y0173549D01*
X0205152Y0175345D02*
X0005900Y0175345D01*
X0005900Y0175943D02*
X0204553Y0175943D01*
X0203955Y0176542D02*
X0005900Y0176542D01*
X0005900Y0177140D02*
X0203356Y0177140D01*
X0202758Y0177739D02*
X0005900Y0177739D01*
X0005900Y0178337D02*
X0202200Y0178337D01*
X0202200Y0178936D02*
X0005900Y0178936D01*
X0005900Y0179534D02*
X0202200Y0179534D01*
X0202200Y0180133D02*
X0005900Y0180133D01*
X0005900Y0180731D02*
X0202200Y0180731D01*
X0202200Y0181330D02*
X0005900Y0181330D01*
X0005900Y0181928D02*
X0202200Y0181928D01*
X0202200Y0182527D02*
X0005900Y0182527D01*
X0005900Y0183125D02*
X0202200Y0183125D01*
X0202200Y0183724D02*
X0005900Y0183724D01*
X0005900Y0184323D02*
X0202200Y0184323D01*
X0202200Y0184921D02*
X0005900Y0184921D01*
X0005900Y0185520D02*
X0202200Y0185520D01*
X0202200Y0186118D02*
X0005900Y0186118D01*
X0005900Y0186717D02*
X0202200Y0186717D01*
X0202200Y0187315D02*
X0005900Y0187315D01*
X0005900Y0187914D02*
X0202200Y0187914D01*
X0202200Y0188512D02*
X0005900Y0188512D01*
X0005900Y0189111D02*
X0202200Y0189111D01*
X0202200Y0189709D02*
X0005900Y0189709D01*
X0005900Y0190308D02*
X0202200Y0190308D01*
X0202200Y0190906D02*
X0005900Y0190906D01*
X0005900Y0191505D02*
X0202200Y0191505D01*
X0202200Y0192103D02*
X0005900Y0192103D01*
X0005900Y0192702D02*
X0202200Y0192702D01*
X0202200Y0193300D02*
X0005900Y0193300D01*
X0005900Y0193899D02*
X0202200Y0193899D01*
X0202200Y0194497D02*
X0005900Y0194497D01*
X0005900Y0195096D02*
X0202200Y0195096D01*
X0202200Y0195694D02*
X0005900Y0195694D01*
X0005900Y0196293D02*
X0202200Y0196293D01*
X0202200Y0196891D02*
X0005900Y0196891D01*
X0005900Y0197490D02*
X0202200Y0197490D01*
X0202200Y0198088D02*
X0005900Y0198088D01*
X0005900Y0198687D02*
X0202200Y0198687D01*
X0202200Y0199285D02*
X0005900Y0199285D01*
X0005900Y0199884D02*
X0202200Y0199884D01*
X0202200Y0200482D02*
X0005900Y0200482D01*
X0005900Y0201081D02*
X0202200Y0201081D01*
X0202200Y0201679D02*
X0005900Y0201679D01*
X0005900Y0202278D02*
X0202200Y0202278D01*
X0202200Y0202876D02*
X0005900Y0202876D01*
X0005900Y0203475D02*
X0202200Y0203475D01*
X0202200Y0204073D02*
X0005900Y0204073D01*
X0005900Y0204672D02*
X0202200Y0204672D01*
X0202200Y0205270D02*
X0005900Y0205270D01*
X0005900Y0205869D02*
X0202200Y0205869D01*
X0202200Y0206467D02*
X0005900Y0206467D01*
X0005900Y0207066D02*
X0202200Y0207066D01*
X0202200Y0207664D02*
X0005900Y0207664D01*
X0005900Y0208263D02*
X0202200Y0208263D01*
X0202200Y0208861D02*
X0005900Y0208861D01*
X0005900Y0209460D02*
X0202200Y0209460D01*
X0202200Y0210059D02*
X0005900Y0210059D01*
X0005900Y0210657D02*
X0202200Y0210657D01*
X0202200Y0211256D02*
X0005900Y0211256D01*
X0005900Y0211854D02*
X0202200Y0211854D01*
X0202200Y0212453D02*
X0005900Y0212453D01*
X0005900Y0213051D02*
X0202200Y0213051D01*
X0202200Y0213650D02*
X0005900Y0213650D01*
X0005900Y0214248D02*
X0202200Y0214248D01*
X0202200Y0214847D02*
X0005900Y0214847D01*
X0005900Y0215445D02*
X0202200Y0215445D01*
X0202200Y0216044D02*
X0005900Y0216044D01*
X0005900Y0216642D02*
X0202200Y0216642D01*
X0202200Y0217241D02*
X0005900Y0217241D01*
X0005900Y0217839D02*
X0202200Y0217839D01*
X0202200Y0218438D02*
X0005900Y0218438D01*
X0005900Y0219036D02*
X0202200Y0219036D01*
X0202200Y0219635D02*
X0005900Y0219635D01*
X0005900Y0220233D02*
X0202200Y0220233D01*
X0202200Y0220832D02*
X0005900Y0220832D01*
X0005900Y0221430D02*
X0202200Y0221430D01*
X0202200Y0222029D02*
X0005900Y0222029D01*
X0005900Y0222627D02*
X0202200Y0222627D01*
X0202200Y0223226D02*
X0005900Y0223226D01*
X0005900Y0223824D02*
X0202200Y0223824D01*
X0202200Y0224423D02*
X0195913Y0224423D01*
X0197226Y0225021D02*
X0201374Y0225021D01*
X0200776Y0225620D02*
X0197824Y0225620D01*
X0198423Y0226218D02*
X0200177Y0226218D01*
X0199861Y0226817D02*
X0198739Y0226817D01*
X0198987Y0227415D02*
X0199613Y0227415D01*
X0199366Y0228014D02*
X0199234Y0228014D01*
X0199300Y0228612D02*
X0199300Y0228612D01*
X0199300Y0229211D02*
X0199300Y0229211D01*
X0199300Y0229809D02*
X0199300Y0229809D01*
X0199198Y0230408D02*
X0199402Y0230408D01*
X0199650Y0231006D02*
X0198950Y0231006D01*
X0198702Y0231605D02*
X0199898Y0231605D01*
X0200266Y0232203D02*
X0198334Y0232203D01*
X0197736Y0232802D02*
X0200864Y0232802D01*
X0201463Y0233400D02*
X0197137Y0233400D01*
X0195699Y0233999D02*
X0202901Y0233999D01*
X0205699Y0233999D02*
X0211700Y0233999D01*
X0211700Y0234597D02*
X0166400Y0234597D01*
X0166400Y0233999D02*
X0172901Y0233999D01*
X0173305Y0234167D02*
X0171468Y0233405D01*
X0170061Y0231999D01*
X0169300Y0230161D01*
X0168539Y0231999D01*
X0167132Y0233405D01*
X0166400Y0233709D01*
X0166400Y0238398D01*
X0166657Y0238398D01*
X0167338Y0239079D01*
X0167441Y0238900D01*
X0167683Y0238658D01*
X0167979Y0238487D01*
X0168310Y0238398D01*
X0170346Y0238398D01*
X0170346Y0241367D01*
X0170946Y0241367D01*
X0170946Y0238398D01*
X0172983Y0238398D01*
X0173314Y0238487D01*
X0173610Y0238658D01*
X0173852Y0238900D01*
X0174023Y0239196D01*
X0174112Y0239527D01*
X0174112Y0241367D01*
X0170946Y0241367D01*
X0170946Y0241967D01*
X0170346Y0241967D01*
X0170346Y0244935D01*
X0168310Y0244935D01*
X0167979Y0244847D01*
X0167683Y0244675D01*
X0167441Y0244433D01*
X0167338Y0244255D01*
X0166657Y0244935D01*
X0166260Y0244935D01*
X0166154Y0248398D01*
X0166657Y0248398D01*
X0167300Y0249041D01*
X0167943Y0248398D01*
X0173350Y0248398D01*
X0174112Y0249160D01*
X0174112Y0254174D01*
X0173350Y0254935D01*
X0172746Y0254935D01*
X0172746Y0269458D01*
X0167168Y0275037D01*
X0167168Y0302081D01*
X0167263Y0302120D01*
X0168353Y0303210D01*
X0168943Y0304634D01*
X0168943Y0311325D01*
X0168353Y0312749D01*
X0167263Y0313839D01*
X0165838Y0314429D01*
X0164297Y0314429D01*
X0162873Y0313839D01*
X0161783Y0312749D01*
X0161252Y0311467D01*
X0154667Y0311467D01*
X0146169Y0319964D01*
X0144956Y0320467D01*
X0119115Y0320467D01*
X0119109Y0320473D01*
X0117676Y0321067D01*
X0110924Y0321067D01*
X0109491Y0320473D01*
X0108394Y0319376D01*
X0107800Y0317942D01*
X0107800Y0316391D01*
X0108394Y0314957D01*
X0109491Y0313860D01*
X0110924Y0313267D01*
X0117676Y0313267D01*
X0119109Y0313860D01*
X0119115Y0313867D01*
X0124031Y0313867D01*
X0124031Y0313809D01*
X0124712Y0313129D01*
X0124533Y0313026D01*
X0124291Y0312784D01*
X0124120Y0312487D01*
X0124031Y0312157D01*
X0124031Y0310120D01*
X0127000Y0310120D01*
X0127000Y0309520D01*
X0127600Y0309520D01*
X0127600Y0306355D01*
X0129440Y0306355D01*
X0129770Y0306443D01*
X0130067Y0306615D01*
X0130309Y0306857D01*
X0130480Y0307153D01*
X0130568Y0307484D01*
X0130568Y0309520D01*
X0127600Y0309520D01*
X0127600Y0310120D01*
X0130568Y0310120D01*
X0130568Y0312157D01*
X0130480Y0312487D01*
X0130309Y0312784D01*
X0130067Y0313026D01*
X0129888Y0313129D01*
X0130568Y0313809D01*
X0130568Y0313867D01*
X0142933Y0313867D01*
X0150502Y0306297D01*
X0151431Y0305369D01*
X0152644Y0304867D01*
X0161193Y0304867D01*
X0161193Y0304634D01*
X0161783Y0303210D01*
X0162873Y0302120D01*
X0162968Y0302081D01*
X0162968Y0273297D01*
X0164198Y0272067D01*
X0168546Y0267718D01*
X0168546Y0254935D01*
X0167943Y0254935D01*
X0167300Y0254293D01*
X0166657Y0254935D01*
X0161250Y0254935D01*
X0160488Y0254174D01*
X0160488Y0249160D01*
X0161250Y0248398D01*
X0161854Y0248398D01*
X0161854Y0244935D01*
X0161250Y0244935D01*
X0160488Y0244174D01*
X0156400Y0244174D01*
X0156400Y0244772D02*
X0161087Y0244772D01*
X0160488Y0244174D02*
X0160488Y0239160D01*
X0161250Y0238398D01*
X0162200Y0238398D01*
X0162200Y0233709D01*
X0161468Y0233405D01*
X0160061Y0231999D01*
X0159300Y0230161D01*
X0158539Y0231999D01*
X0157132Y0233405D01*
X0156400Y0233709D01*
X0156400Y0274037D01*
X0144400Y0286037D01*
X0143170Y0287267D01*
X0141142Y0287267D01*
X0140648Y0287761D01*
X0140763Y0287837D01*
X0141275Y0288350D01*
X0141677Y0288952D01*
X0141955Y0289621D01*
X0142096Y0290332D01*
X0142096Y0290394D01*
X0138718Y0290394D01*
X0138718Y0290994D01*
X0142096Y0290994D01*
X0142096Y0291056D01*
X0141955Y0291767D01*
X0141677Y0292436D01*
X0141275Y0293039D01*
X0140763Y0293551D01*
X0140751Y0293559D01*
X0141640Y0294447D01*
X0142218Y0295844D01*
X0142218Y0297356D01*
X0141640Y0298752D01*
X0140571Y0299821D01*
X0139174Y0300400D01*
X0119182Y0300400D01*
X0119109Y0300473D01*
X0117676Y0301067D01*
X0110924Y0301067D01*
X0109491Y0300473D01*
X0108394Y0299376D01*
X0107800Y0297942D01*
X0107800Y0296391D01*
X0108394Y0294957D01*
X0109491Y0293860D01*
X0110924Y0293267D01*
X0112984Y0293267D01*
X0114111Y0292800D01*
X0123031Y0292800D01*
X0123031Y0292309D01*
X0123712Y0291629D01*
X0123533Y0291526D01*
X0123291Y0291284D01*
X0123120Y0290987D01*
X0123031Y0290657D01*
X0123031Y0288620D01*
X0126000Y0288620D01*
X0126000Y0288020D01*
X0126600Y0288020D01*
X0126600Y0284855D01*
X0128440Y0284855D01*
X0128770Y0284943D01*
X0129067Y0285115D01*
X0129309Y0285357D01*
X0129480Y0285653D01*
X0129568Y0285984D01*
X0129568Y0288020D01*
X0126600Y0288020D01*
X0126600Y0288620D01*
X0129568Y0288620D01*
X0129568Y0290657D01*
X0129480Y0290987D01*
X0129309Y0291284D01*
X0129067Y0291526D01*
X0128888Y0291629D01*
X0129568Y0292309D01*
X0129568Y0292800D01*
X0135402Y0292800D01*
X0135159Y0292436D01*
X0134881Y0291767D01*
X0134740Y0291056D01*
X0134740Y0290994D01*
X0138118Y0290994D01*
X0138118Y0290394D01*
X0134740Y0290394D01*
X0134740Y0290332D01*
X0134881Y0289621D01*
X0135159Y0288952D01*
X0135561Y0288350D01*
X0136074Y0287837D01*
X0136189Y0287761D01*
X0135300Y0286872D01*
X0134740Y0285520D01*
X0134740Y0284057D01*
X0135300Y0282705D01*
X0136169Y0281836D01*
X0135300Y0280967D01*
X0134740Y0279615D01*
X0134740Y0278152D01*
X0135300Y0276800D01*
X0136169Y0275930D01*
X0135300Y0275061D01*
X0134740Y0273709D01*
X0134740Y0272246D01*
X0135300Y0270894D01*
X0135322Y0270872D01*
X0129568Y0270872D01*
X0129568Y0272524D01*
X0128888Y0273204D01*
X0129067Y0273308D01*
X0129309Y0273550D01*
X0129480Y0273846D01*
X0129568Y0274177D01*
X0129568Y0276213D01*
X0126600Y0276213D01*
X0126600Y0276813D01*
X0129568Y0276813D01*
X0129568Y0278850D01*
X0129480Y0279180D01*
X0129309Y0279477D01*
X0129067Y0279719D01*
X0128770Y0279890D01*
X0128440Y0279978D01*
X0126600Y0279978D01*
X0126600Y0276813D01*
X0126000Y0276813D01*
X0126000Y0276213D01*
X0123031Y0276213D01*
X0123031Y0274177D01*
X0123120Y0273846D01*
X0123291Y0273550D01*
X0123533Y0273308D01*
X0123712Y0273204D01*
X0123031Y0272524D01*
X0123031Y0270872D01*
X0118145Y0270872D01*
X0117676Y0271067D01*
X0110924Y0271067D01*
X0109491Y0270473D01*
X0108394Y0269376D01*
X0107800Y0267942D01*
X0107800Y0266391D01*
X0108394Y0264957D01*
X0109491Y0263860D01*
X0110924Y0263267D01*
X0117676Y0263267D01*
X0117689Y0263272D01*
X0139174Y0263272D01*
X0140571Y0263851D01*
X0141640Y0264920D01*
X0142218Y0266316D01*
X0142218Y0267828D01*
X0141640Y0269225D01*
X0140753Y0270111D01*
X0141536Y0270894D01*
X0142096Y0272246D01*
X0142096Y0273709D01*
X0141536Y0275061D01*
X0140667Y0275930D01*
X0140803Y0276067D01*
X0141430Y0276067D01*
X0144200Y0273297D01*
X0144200Y0257037D01*
X0142200Y0255037D01*
X0142200Y0233709D01*
X0141468Y0233405D01*
X0140061Y0231999D01*
X0139300Y0230161D01*
X0138539Y0231999D01*
X0137132Y0233405D01*
X0136400Y0233709D01*
X0136400Y0238037D01*
X0126400Y0248036D01*
X0126400Y0248037D01*
X0125170Y0249267D01*
X0120251Y0249267D01*
X0120206Y0249376D01*
X0119109Y0250473D01*
X0117676Y0251067D01*
X0110924Y0251067D01*
X0109491Y0250473D01*
X0108400Y0249382D01*
X0108400Y0254297D01*
X0108727Y0254624D01*
X0109491Y0253860D01*
X0110924Y0253267D01*
X0117676Y0253267D01*
X0119109Y0253860D01*
X0120206Y0254957D01*
X0120800Y0256391D01*
X0120800Y0257942D01*
X0120206Y0259376D01*
X0119109Y0260473D01*
X0117676Y0261067D01*
X0110924Y0261067D01*
X0109491Y0260473D01*
X0108394Y0259376D01*
X0108349Y0259267D01*
X0107430Y0259267D01*
X0106200Y0258037D01*
X0104200Y0256037D01*
X0104200Y0238297D01*
X0105430Y0237067D01*
X0110280Y0232217D01*
X0110061Y0231999D01*
X0109300Y0230161D01*
X0109300Y0228172D01*
X0110061Y0226334D01*
X0111468Y0224928D01*
X0113305Y0224167D01*
X0115295Y0224167D01*
X0117132Y0224928D01*
X0118539Y0226334D01*
X0119300Y0228172D01*
X0119300Y0230161D01*
X0118539Y0231999D01*
X0117132Y0233405D01*
X0115295Y0234167D01*
X0114270Y0234167D01*
X0108400Y0240037D01*
X0108400Y0244951D01*
X0109491Y0243860D01*
X0110924Y0243267D01*
X0117676Y0243267D01*
X0119109Y0243860D01*
X0120206Y0244957D01*
X0120251Y0245067D01*
X0123430Y0245067D01*
X0132200Y0236297D01*
X0132200Y0233709D01*
X0131468Y0233405D01*
X0130061Y0231999D01*
X0129300Y0230161D01*
X0129300Y0228172D01*
X0130061Y0226334D01*
X0131468Y0224928D01*
X0133305Y0224167D01*
X0135295Y0224167D01*
X0137132Y0224928D01*
X0138539Y0226334D01*
X0139300Y0228172D01*
X0139300Y0230161D01*
X0139300Y0228172D01*
X0140061Y0226334D01*
X0141468Y0224928D01*
X0143305Y0224167D01*
X0145295Y0224167D01*
X0147132Y0224928D01*
X0148539Y0226334D01*
X0149300Y0228172D01*
X0150061Y0226334D01*
X0151468Y0224928D01*
X0153305Y0224167D01*
X0155295Y0224167D01*
X0157132Y0224928D01*
X0158539Y0226334D01*
X0159300Y0228172D01*
X0159300Y0230161D01*
X0159300Y0228172D01*
X0160061Y0226334D01*
X0161468Y0224928D01*
X0163305Y0224167D01*
X0165295Y0224167D01*
X0167132Y0224928D01*
X0168539Y0226334D01*
X0169300Y0228172D01*
X0169300Y0230161D01*
X0169300Y0228172D01*
X0170061Y0226334D01*
X0171468Y0224928D01*
X0173305Y0224167D01*
X0175295Y0224167D01*
X0177132Y0224928D01*
X0178539Y0226334D01*
X0179300Y0228172D01*
X0180061Y0226334D01*
X0181468Y0224928D01*
X0183305Y0224167D01*
X0185295Y0224167D01*
X0187132Y0224928D01*
X0188539Y0226334D01*
X0189300Y0228172D01*
X0189300Y0230161D01*
X0188539Y0231999D01*
X0187132Y0233405D01*
X0185295Y0234167D01*
X0183305Y0234167D01*
X0181468Y0233405D01*
X0180061Y0231999D01*
X0179300Y0230161D01*
X0179300Y0228172D01*
X0179300Y0230161D01*
X0178539Y0231999D01*
X0177132Y0233405D01*
X0175295Y0234167D01*
X0173305Y0234167D01*
X0171463Y0233400D02*
X0167137Y0233400D01*
X0167736Y0232802D02*
X0170864Y0232802D01*
X0170266Y0232203D02*
X0168334Y0232203D01*
X0168702Y0231605D02*
X0169898Y0231605D01*
X0169650Y0231006D02*
X0168950Y0231006D01*
X0169198Y0230408D02*
X0169402Y0230408D01*
X0169300Y0229809D02*
X0169300Y0229809D01*
X0169300Y0229211D02*
X0169300Y0229211D01*
X0169300Y0228612D02*
X0169300Y0228612D01*
X0169234Y0228014D02*
X0169366Y0228014D01*
X0169613Y0227415D02*
X0168987Y0227415D01*
X0168739Y0226817D02*
X0169861Y0226817D01*
X0170177Y0226218D02*
X0168423Y0226218D01*
X0167824Y0225620D02*
X0170776Y0225620D01*
X0171374Y0225021D02*
X0167226Y0225021D01*
X0165913Y0224423D02*
X0172687Y0224423D01*
X0175913Y0224423D02*
X0182687Y0224423D01*
X0181374Y0225021D02*
X0177226Y0225021D01*
X0177824Y0225620D02*
X0180776Y0225620D01*
X0180177Y0226218D02*
X0178423Y0226218D01*
X0178739Y0226817D02*
X0179861Y0226817D01*
X0179613Y0227415D02*
X0178987Y0227415D01*
X0179234Y0228014D02*
X0179366Y0228014D01*
X0179300Y0228612D02*
X0179300Y0228612D01*
X0179300Y0229211D02*
X0179300Y0229211D01*
X0179300Y0229809D02*
X0179300Y0229809D01*
X0179198Y0230408D02*
X0179402Y0230408D01*
X0179650Y0231006D02*
X0178950Y0231006D01*
X0178702Y0231605D02*
X0179898Y0231605D01*
X0180266Y0232203D02*
X0178334Y0232203D01*
X0177736Y0232802D02*
X0180864Y0232802D01*
X0181463Y0233400D02*
X0177137Y0233400D01*
X0175699Y0233999D02*
X0182901Y0233999D01*
X0185699Y0233999D02*
X0192901Y0233999D01*
X0191463Y0233400D02*
X0187137Y0233400D01*
X0187736Y0232802D02*
X0190864Y0232802D01*
X0190266Y0232203D02*
X0188334Y0232203D01*
X0188702Y0231605D02*
X0189898Y0231605D01*
X0189650Y0231006D02*
X0188950Y0231006D01*
X0189198Y0230408D02*
X0189402Y0230408D01*
X0189300Y0229809D02*
X0189300Y0229809D01*
X0189300Y0229211D02*
X0189300Y0229211D01*
X0189300Y0228612D02*
X0189300Y0228612D01*
X0189234Y0228014D02*
X0189366Y0228014D01*
X0189613Y0227415D02*
X0188987Y0227415D01*
X0188739Y0226817D02*
X0189861Y0226817D01*
X0190177Y0226218D02*
X0188423Y0226218D01*
X0187824Y0225620D02*
X0190776Y0225620D01*
X0191374Y0225021D02*
X0187226Y0225021D01*
X0185913Y0224423D02*
X0192687Y0224423D01*
X0206400Y0224423D02*
X0211700Y0224423D01*
X0211700Y0225021D02*
X0207226Y0225021D01*
X0207824Y0225620D02*
X0211700Y0225620D01*
X0211700Y0226218D02*
X0208423Y0226218D01*
X0208739Y0226817D02*
X0211700Y0226817D01*
X0211700Y0227415D02*
X0208987Y0227415D01*
X0209234Y0228014D02*
X0211700Y0228014D01*
X0211700Y0228612D02*
X0209300Y0228612D01*
X0209300Y0229211D02*
X0211700Y0229211D01*
X0211700Y0229809D02*
X0209300Y0229809D01*
X0209198Y0230408D02*
X0211700Y0230408D01*
X0211700Y0231006D02*
X0208950Y0231006D01*
X0208702Y0231605D02*
X0211700Y0231605D01*
X0211700Y0232203D02*
X0208334Y0232203D01*
X0207736Y0232802D02*
X0211700Y0232802D01*
X0211700Y0233400D02*
X0207137Y0233400D01*
X0211700Y0235196D02*
X0166400Y0235196D01*
X0166400Y0235794D02*
X0211700Y0235794D01*
X0211700Y0236393D02*
X0166400Y0236393D01*
X0166400Y0236992D02*
X0211700Y0236992D01*
X0211700Y0237590D02*
X0166400Y0237590D01*
X0166400Y0238189D02*
X0211700Y0238189D01*
X0211700Y0238787D02*
X0173739Y0238787D01*
X0174074Y0239386D02*
X0211700Y0239386D01*
X0211700Y0239984D02*
X0174112Y0239984D01*
X0174112Y0240583D02*
X0211700Y0240583D01*
X0211700Y0241181D02*
X0174112Y0241181D01*
X0174112Y0241967D02*
X0174112Y0243806D01*
X0174023Y0244137D01*
X0173852Y0244433D01*
X0173610Y0244675D01*
X0173314Y0244847D01*
X0172983Y0244935D01*
X0170946Y0244935D01*
X0170946Y0241967D01*
X0174112Y0241967D01*
X0174112Y0242378D02*
X0211700Y0242378D01*
X0211700Y0241780D02*
X0170946Y0241780D01*
X0170946Y0242378D02*
X0170346Y0242378D01*
X0170346Y0242977D02*
X0170946Y0242977D01*
X0170946Y0243575D02*
X0170346Y0243575D01*
X0170346Y0244174D02*
X0170946Y0244174D01*
X0170946Y0244772D02*
X0170346Y0244772D01*
X0167850Y0244772D02*
X0166820Y0244772D01*
X0166247Y0245371D02*
X0211700Y0245371D01*
X0211700Y0245969D02*
X0166228Y0245969D01*
X0166210Y0246568D02*
X0211700Y0246568D01*
X0211700Y0247166D02*
X0166192Y0247166D01*
X0166174Y0247765D02*
X0211700Y0247765D01*
X0211700Y0248363D02*
X0166155Y0248363D01*
X0167221Y0248962D02*
X0167379Y0248962D01*
X0167356Y0254348D02*
X0167244Y0254348D01*
X0168546Y0254947D02*
X0156400Y0254947D01*
X0156400Y0255545D02*
X0168546Y0255545D01*
X0168546Y0256144D02*
X0156400Y0256144D01*
X0156400Y0256742D02*
X0168546Y0256742D01*
X0168546Y0257341D02*
X0156400Y0257341D01*
X0156400Y0257939D02*
X0168546Y0257939D01*
X0168546Y0258538D02*
X0156400Y0258538D01*
X0156400Y0259136D02*
X0168546Y0259136D01*
X0168546Y0259735D02*
X0156400Y0259735D01*
X0156400Y0260333D02*
X0168546Y0260333D01*
X0168546Y0260932D02*
X0156400Y0260932D01*
X0156400Y0261530D02*
X0168546Y0261530D01*
X0168546Y0262129D02*
X0156400Y0262129D01*
X0156400Y0262727D02*
X0168546Y0262727D01*
X0168546Y0263326D02*
X0156400Y0263326D01*
X0156400Y0263925D02*
X0168546Y0263925D01*
X0168546Y0264523D02*
X0156400Y0264523D01*
X0156400Y0265122D02*
X0168546Y0265122D01*
X0168546Y0265720D02*
X0156400Y0265720D01*
X0156400Y0266319D02*
X0168546Y0266319D01*
X0168546Y0266917D02*
X0156400Y0266917D01*
X0156400Y0267516D02*
X0168546Y0267516D01*
X0168150Y0268114D02*
X0156400Y0268114D01*
X0156400Y0268713D02*
X0167552Y0268713D01*
X0166953Y0269311D02*
X0156400Y0269311D01*
X0156400Y0269910D02*
X0166355Y0269910D01*
X0165756Y0270508D02*
X0156400Y0270508D01*
X0156400Y0271107D02*
X0165158Y0271107D01*
X0164559Y0271705D02*
X0156400Y0271705D01*
X0156400Y0272304D02*
X0163961Y0272304D01*
X0163362Y0272902D02*
X0156400Y0272902D01*
X0156400Y0273501D02*
X0162968Y0273501D01*
X0162968Y0274099D02*
X0156337Y0274099D01*
X0155739Y0274698D02*
X0162968Y0274698D01*
X0162968Y0275296D02*
X0155140Y0275296D01*
X0154542Y0275895D02*
X0162968Y0275895D01*
X0162968Y0276493D02*
X0153943Y0276493D01*
X0153345Y0277092D02*
X0162968Y0277092D01*
X0162968Y0277690D02*
X0152746Y0277690D01*
X0152148Y0278289D02*
X0162968Y0278289D01*
X0162968Y0278887D02*
X0151549Y0278887D01*
X0150951Y0279486D02*
X0162968Y0279486D01*
X0162968Y0280084D02*
X0150352Y0280084D01*
X0149754Y0280683D02*
X0162968Y0280683D01*
X0162968Y0281281D02*
X0149155Y0281281D01*
X0148557Y0281880D02*
X0162968Y0281880D01*
X0162968Y0282478D02*
X0147958Y0282478D01*
X0147360Y0283077D02*
X0162968Y0283077D01*
X0162968Y0283675D02*
X0146761Y0283675D01*
X0146163Y0284274D02*
X0162968Y0284274D01*
X0162968Y0284872D02*
X0145564Y0284872D01*
X0144966Y0285471D02*
X0162968Y0285471D01*
X0162968Y0286069D02*
X0144367Y0286069D01*
X0143769Y0286668D02*
X0162968Y0286668D01*
X0162968Y0287266D02*
X0143170Y0287266D01*
X0141351Y0288463D02*
X0162968Y0288463D01*
X0162968Y0287865D02*
X0140790Y0287865D01*
X0141723Y0289062D02*
X0162968Y0289062D01*
X0162968Y0289661D02*
X0141962Y0289661D01*
X0142082Y0290259D02*
X0162968Y0290259D01*
X0162968Y0290858D02*
X0138718Y0290858D01*
X0138118Y0290858D02*
X0129515Y0290858D01*
X0129568Y0290259D02*
X0134755Y0290259D01*
X0134874Y0289661D02*
X0129568Y0289661D01*
X0129568Y0289062D02*
X0135113Y0289062D01*
X0135485Y0288463D02*
X0126600Y0288463D01*
X0126600Y0287865D02*
X0126000Y0287865D01*
X0126000Y0288020D02*
X0126000Y0284855D01*
X0124160Y0284855D01*
X0123830Y0284943D01*
X0123533Y0285115D01*
X0123291Y0285357D01*
X0123120Y0285653D01*
X0123031Y0285984D01*
X0123031Y0288020D01*
X0126000Y0288020D01*
X0126000Y0288463D02*
X0120584Y0288463D01*
X0120650Y0288304D02*
X0120356Y0289014D01*
X0119929Y0289653D01*
X0119386Y0290196D01*
X0118747Y0290623D01*
X0118038Y0290917D01*
X0117284Y0291067D01*
X0114600Y0291067D01*
X0114600Y0287467D01*
X0114000Y0287467D01*
X0114000Y0291067D01*
X0111316Y0291067D01*
X0110562Y0290917D01*
X0109853Y0290623D01*
X0109214Y0290196D01*
X0108671Y0289653D01*
X0108244Y0289014D01*
X0107950Y0288304D01*
X0107800Y0287551D01*
X0107800Y0287467D01*
X0114000Y0287467D01*
X0114000Y0286867D01*
X0107800Y0286867D01*
X0107800Y0286783D01*
X0107950Y0286029D01*
X0108244Y0285319D01*
X0108671Y0284681D01*
X0109214Y0284137D01*
X0109853Y0283711D01*
X0110562Y0283417D01*
X0111316Y0283267D01*
X0114000Y0283267D01*
X0114000Y0286867D01*
X0114600Y0286867D01*
X0114600Y0287467D01*
X0120800Y0287467D01*
X0120800Y0287551D01*
X0120650Y0288304D01*
X0120737Y0287865D02*
X0123031Y0287865D01*
X0123031Y0287266D02*
X0114600Y0287266D01*
X0114600Y0286867D02*
X0120800Y0286867D01*
X0120800Y0286783D01*
X0120650Y0286029D01*
X0120356Y0285319D01*
X0119929Y0284681D01*
X0119386Y0284137D01*
X0118747Y0283711D01*
X0118038Y0283417D01*
X0117284Y0283267D01*
X0114600Y0283267D01*
X0114600Y0286867D01*
X0114600Y0286668D02*
X0114000Y0286668D01*
X0114000Y0287266D02*
X0103400Y0287266D01*
X0103400Y0286668D02*
X0107823Y0286668D01*
X0107942Y0286069D02*
X0103400Y0286069D01*
X0103400Y0285471D02*
X0108181Y0285471D01*
X0108542Y0284872D02*
X0103400Y0284872D01*
X0103400Y0284274D02*
X0109077Y0284274D01*
X0109937Y0283675D02*
X0103400Y0283675D01*
X0103400Y0283077D02*
X0135146Y0283077D01*
X0134898Y0283675D02*
X0118663Y0283675D01*
X0119523Y0284274D02*
X0134740Y0284274D01*
X0134740Y0284872D02*
X0128505Y0284872D01*
X0129375Y0285471D02*
X0134740Y0285471D01*
X0134968Y0286069D02*
X0129568Y0286069D01*
X0129568Y0286668D02*
X0135216Y0286668D01*
X0135694Y0287266D02*
X0129568Y0287266D01*
X0129568Y0287865D02*
X0136046Y0287865D01*
X0134820Y0291456D02*
X0129136Y0291456D01*
X0129314Y0292055D02*
X0135001Y0292055D01*
X0135304Y0292653D02*
X0129568Y0292653D01*
X0126600Y0287266D02*
X0126000Y0287266D01*
X0126000Y0286668D02*
X0126600Y0286668D01*
X0126600Y0286069D02*
X0126000Y0286069D01*
X0126000Y0285471D02*
X0126600Y0285471D01*
X0126600Y0284872D02*
X0126000Y0284872D01*
X0124095Y0284872D02*
X0120058Y0284872D01*
X0120419Y0285471D02*
X0123225Y0285471D01*
X0123031Y0286069D02*
X0120658Y0286069D01*
X0120777Y0286668D02*
X0123031Y0286668D01*
X0123031Y0289062D02*
X0120324Y0289062D01*
X0119922Y0289661D02*
X0123031Y0289661D01*
X0123031Y0290259D02*
X0119292Y0290259D01*
X0118181Y0290858D02*
X0123085Y0290858D01*
X0123464Y0291456D02*
X0103400Y0291456D01*
X0103400Y0290858D02*
X0110419Y0290858D01*
X0109308Y0290259D02*
X0103400Y0290259D01*
X0103400Y0289661D02*
X0108678Y0289661D01*
X0108276Y0289062D02*
X0103400Y0289062D01*
X0103400Y0288463D02*
X0108016Y0288463D01*
X0107862Y0287865D02*
X0103400Y0287865D01*
X0103400Y0292055D02*
X0123286Y0292055D01*
X0123031Y0292653D02*
X0103400Y0292653D01*
X0103400Y0293252D02*
X0113020Y0293252D01*
X0114000Y0290858D02*
X0114600Y0290858D01*
X0114600Y0290259D02*
X0114000Y0290259D01*
X0114000Y0289661D02*
X0114600Y0289661D01*
X0114600Y0289062D02*
X0114000Y0289062D01*
X0114000Y0288463D02*
X0114600Y0288463D01*
X0114600Y0287865D02*
X0114000Y0287865D01*
X0114000Y0286069D02*
X0114600Y0286069D01*
X0114600Y0285471D02*
X0114000Y0285471D01*
X0114000Y0284872D02*
X0114600Y0284872D01*
X0114600Y0284274D02*
X0114000Y0284274D01*
X0114000Y0283675D02*
X0114600Y0283675D01*
X0114600Y0281067D02*
X0114600Y0277467D01*
X0114000Y0277467D01*
X0114000Y0281067D01*
X0111316Y0281067D01*
X0110562Y0280917D01*
X0109853Y0280623D01*
X0109214Y0280196D01*
X0108671Y0279653D01*
X0108244Y0279014D01*
X0107950Y0278304D01*
X0107800Y0277551D01*
X0107800Y0277467D01*
X0114000Y0277467D01*
X0114000Y0276867D01*
X0107800Y0276867D01*
X0107800Y0276783D01*
X0107950Y0276029D01*
X0108244Y0275319D01*
X0108671Y0274681D01*
X0109214Y0274137D01*
X0109853Y0273711D01*
X0110562Y0273417D01*
X0111316Y0273267D01*
X0114000Y0273267D01*
X0114000Y0276867D01*
X0114600Y0276867D01*
X0114600Y0277467D01*
X0120800Y0277467D01*
X0120800Y0277551D01*
X0120650Y0278304D01*
X0120356Y0279014D01*
X0119929Y0279653D01*
X0119386Y0280196D01*
X0118747Y0280623D01*
X0118038Y0280917D01*
X0117284Y0281067D01*
X0114600Y0281067D01*
X0114600Y0280683D02*
X0114000Y0280683D01*
X0114000Y0280084D02*
X0114600Y0280084D01*
X0114600Y0279486D02*
X0114000Y0279486D01*
X0114000Y0278887D02*
X0114600Y0278887D01*
X0114600Y0278289D02*
X0114000Y0278289D01*
X0114000Y0277690D02*
X0114600Y0277690D01*
X0114600Y0277092D02*
X0123031Y0277092D01*
X0123031Y0276813D02*
X0126000Y0276813D01*
X0126000Y0279978D01*
X0124160Y0279978D01*
X0123830Y0279890D01*
X0123533Y0279719D01*
X0123291Y0279477D01*
X0123120Y0279180D01*
X0123031Y0278850D01*
X0123031Y0276813D01*
X0123031Y0277690D02*
X0120772Y0277690D01*
X0120653Y0278289D02*
X0123031Y0278289D01*
X0123042Y0278887D02*
X0120409Y0278887D01*
X0120041Y0279486D02*
X0123300Y0279486D01*
X0120800Y0276867D02*
X0114600Y0276867D01*
X0114600Y0273267D01*
X0117284Y0273267D01*
X0118038Y0273417D01*
X0118747Y0273711D01*
X0119386Y0274137D01*
X0119929Y0274681D01*
X0120356Y0275319D01*
X0120650Y0276029D01*
X0120800Y0276783D01*
X0120800Y0276867D01*
X0120742Y0276493D02*
X0126000Y0276493D01*
X0126000Y0277092D02*
X0126600Y0277092D01*
X0126600Y0277690D02*
X0126000Y0277690D01*
X0126000Y0278289D02*
X0126600Y0278289D01*
X0126600Y0278887D02*
X0126000Y0278887D01*
X0126000Y0279486D02*
X0126600Y0279486D01*
X0129300Y0279486D02*
X0134740Y0279486D01*
X0134740Y0278887D02*
X0129558Y0278887D01*
X0129568Y0278289D02*
X0134740Y0278289D01*
X0134931Y0277690D02*
X0129568Y0277690D01*
X0129568Y0277092D02*
X0135179Y0277092D01*
X0135607Y0276493D02*
X0126600Y0276493D01*
X0129568Y0275895D02*
X0136134Y0275895D01*
X0135535Y0275296D02*
X0129568Y0275296D01*
X0129568Y0274698D02*
X0135150Y0274698D01*
X0134902Y0274099D02*
X0129548Y0274099D01*
X0129260Y0273501D02*
X0134740Y0273501D01*
X0134740Y0272902D02*
X0129190Y0272902D01*
X0129568Y0272304D02*
X0134740Y0272304D01*
X0134964Y0271705D02*
X0129568Y0271705D01*
X0129568Y0271107D02*
X0135212Y0271107D01*
X0139304Y0263326D02*
X0144200Y0263326D01*
X0144200Y0262727D02*
X0103400Y0262727D01*
X0103400Y0262129D02*
X0144200Y0262129D01*
X0144200Y0261530D02*
X0103400Y0261530D01*
X0103400Y0260932D02*
X0110599Y0260932D01*
X0109351Y0260333D02*
X0103400Y0260333D01*
X0103400Y0259735D02*
X0108753Y0259735D01*
X0107300Y0259136D02*
X0103400Y0259136D01*
X0103400Y0258538D02*
X0106701Y0258538D01*
X0106103Y0257939D02*
X0103400Y0257939D01*
X0103400Y0257341D02*
X0105504Y0257341D01*
X0104906Y0256742D02*
X0103400Y0256742D01*
X0103400Y0256144D02*
X0104307Y0256144D01*
X0104200Y0255545D02*
X0103400Y0255545D01*
X0103400Y0254947D02*
X0104200Y0254947D01*
X0104200Y0254348D02*
X0103400Y0254348D01*
X0103400Y0253750D02*
X0104200Y0253750D01*
X0104200Y0253151D02*
X0103400Y0253151D01*
X0103400Y0252553D02*
X0104200Y0252553D01*
X0104200Y0251954D02*
X0103400Y0251954D01*
X0103400Y0251356D02*
X0104200Y0251356D01*
X0104200Y0250757D02*
X0103400Y0250757D01*
X0103400Y0250159D02*
X0104200Y0250159D01*
X0104200Y0249560D02*
X0103400Y0249560D01*
X0103400Y0248962D02*
X0104200Y0248962D01*
X0104200Y0248363D02*
X0103400Y0248363D01*
X0103400Y0247765D02*
X0104200Y0247765D01*
X0104200Y0247166D02*
X0103400Y0247166D01*
X0103400Y0246568D02*
X0104200Y0246568D01*
X0104200Y0245969D02*
X0103400Y0245969D01*
X0103400Y0245371D02*
X0104200Y0245371D01*
X0104200Y0244772D02*
X0103400Y0244772D01*
X0103400Y0244174D02*
X0104200Y0244174D01*
X0104200Y0243575D02*
X0103400Y0243575D01*
X0103400Y0242977D02*
X0104200Y0242977D01*
X0104200Y0242378D02*
X0103400Y0242378D01*
X0103400Y0241780D02*
X0104200Y0241780D01*
X0104200Y0241181D02*
X0103400Y0241181D01*
X0103400Y0240583D02*
X0104200Y0240583D01*
X0104200Y0239984D02*
X0103400Y0239984D01*
X0103400Y0239386D02*
X0104200Y0239386D01*
X0104200Y0238787D02*
X0103400Y0238787D01*
X0103400Y0238189D02*
X0104308Y0238189D01*
X0104907Y0237590D02*
X0103400Y0237590D01*
X0103400Y0236992D02*
X0105505Y0236992D01*
X0106104Y0236393D02*
X0103400Y0236393D01*
X0103400Y0235794D02*
X0106702Y0235794D01*
X0107301Y0235196D02*
X0103400Y0235196D01*
X0103400Y0235037D02*
X0103400Y0298297D01*
X0109227Y0304124D01*
X0109491Y0303860D01*
X0110924Y0303267D01*
X0117676Y0303267D01*
X0119109Y0303860D01*
X0120206Y0304957D01*
X0120800Y0306391D01*
X0120800Y0307942D01*
X0120206Y0309376D01*
X0119109Y0310473D01*
X0117676Y0311067D01*
X0110924Y0311067D01*
X0109491Y0310473D01*
X0108394Y0309376D01*
X0108291Y0309127D01*
X0108200Y0309037D01*
X0099300Y0300136D01*
X0091400Y0308036D01*
X0091400Y0308037D01*
X0090309Y0309127D01*
X0090206Y0309376D01*
X0089109Y0310473D01*
X0087676Y0311067D01*
X0080924Y0311067D01*
X0079491Y0310473D01*
X0078394Y0309376D01*
X0077800Y0307942D01*
X0077800Y0306391D01*
X0078394Y0304957D01*
X0079491Y0303860D01*
X0080924Y0303267D01*
X0087676Y0303267D01*
X0089109Y0303860D01*
X0089373Y0304124D01*
X0095200Y0298297D01*
X0095200Y0255236D01*
X0092400Y0258037D01*
X0091170Y0259267D01*
X0090251Y0259267D01*
X0090206Y0259376D01*
X0089109Y0260473D01*
X0087676Y0261067D01*
X0080924Y0261067D01*
X0079491Y0260473D01*
X0078394Y0259376D01*
X0077800Y0257942D01*
X0077800Y0256391D01*
X0078394Y0254957D01*
X0079491Y0253860D01*
X0080924Y0253267D01*
X0087676Y0253267D01*
X0089109Y0253860D01*
X0089873Y0254624D01*
X0091200Y0253297D01*
X0091200Y0240037D01*
X0085320Y0234156D01*
X0085295Y0234167D01*
X0083305Y0234167D01*
X0081468Y0233405D01*
X0080061Y0231999D01*
X0079300Y0230161D01*
X0079300Y0228172D01*
X0080061Y0226334D01*
X0081468Y0224928D01*
X0083305Y0224167D01*
X0085295Y0224167D01*
X0087132Y0224928D01*
X0088539Y0226334D01*
X0089300Y0228172D01*
X0090061Y0226334D01*
X0091468Y0224928D01*
X0093305Y0224167D01*
X0095295Y0224167D01*
X0097132Y0224928D01*
X0098539Y0226334D01*
X0099300Y0228172D01*
X0100061Y0226334D01*
X0101468Y0224928D01*
X0103305Y0224167D01*
X0105295Y0224167D01*
X0107132Y0224928D01*
X0108539Y0226334D01*
X0109300Y0228172D01*
X0109300Y0230161D01*
X0108539Y0231999D01*
X0107132Y0233405D01*
X0105295Y0234167D01*
X0104270Y0234167D01*
X0103400Y0235037D01*
X0103839Y0234597D02*
X0107899Y0234597D01*
X0108498Y0233999D02*
X0105699Y0233999D01*
X0107137Y0233400D02*
X0109096Y0233400D01*
X0109695Y0232802D02*
X0107736Y0232802D01*
X0108334Y0232203D02*
X0110266Y0232203D01*
X0109898Y0231605D02*
X0108702Y0231605D01*
X0108950Y0231006D02*
X0109650Y0231006D01*
X0109402Y0230408D02*
X0109198Y0230408D01*
X0109300Y0229809D02*
X0109300Y0229809D01*
X0109300Y0229211D02*
X0109300Y0229211D01*
X0109300Y0228612D02*
X0109300Y0228612D01*
X0109234Y0228014D02*
X0109366Y0228014D01*
X0109613Y0227415D02*
X0108987Y0227415D01*
X0108739Y0226817D02*
X0109861Y0226817D01*
X0110177Y0226218D02*
X0108423Y0226218D01*
X0107824Y0225620D02*
X0110776Y0225620D01*
X0111374Y0225021D02*
X0107226Y0225021D01*
X0105913Y0224423D02*
X0112687Y0224423D01*
X0115913Y0224423D02*
X0122687Y0224423D01*
X0123305Y0224167D02*
X0125295Y0224167D01*
X0127132Y0224928D01*
X0128539Y0226334D01*
X0129300Y0228172D01*
X0129300Y0230161D01*
X0128539Y0231999D01*
X0127132Y0233405D01*
X0125295Y0234167D01*
X0123305Y0234167D01*
X0121468Y0233405D01*
X0120061Y0231999D01*
X0119300Y0230161D01*
X0119300Y0228172D01*
X0120061Y0226334D01*
X0121468Y0224928D01*
X0123305Y0224167D01*
X0121374Y0225021D02*
X0117226Y0225021D01*
X0117824Y0225620D02*
X0120776Y0225620D01*
X0120177Y0226218D02*
X0118423Y0226218D01*
X0118739Y0226817D02*
X0119861Y0226817D01*
X0119613Y0227415D02*
X0118987Y0227415D01*
X0119234Y0228014D02*
X0119366Y0228014D01*
X0119300Y0228612D02*
X0119300Y0228612D01*
X0119300Y0229211D02*
X0119300Y0229211D01*
X0119300Y0229809D02*
X0119300Y0229809D01*
X0119198Y0230408D02*
X0119402Y0230408D01*
X0119650Y0231006D02*
X0118950Y0231006D01*
X0118702Y0231605D02*
X0119898Y0231605D01*
X0120266Y0232203D02*
X0118334Y0232203D01*
X0117736Y0232802D02*
X0120864Y0232802D01*
X0121463Y0233400D02*
X0117137Y0233400D01*
X0115699Y0233999D02*
X0122901Y0233999D01*
X0125699Y0233999D02*
X0132200Y0233999D01*
X0132200Y0234597D02*
X0113839Y0234597D01*
X0113241Y0235196D02*
X0132200Y0235196D01*
X0132200Y0235794D02*
X0112642Y0235794D01*
X0112043Y0236393D02*
X0132104Y0236393D01*
X0131505Y0236992D02*
X0111445Y0236992D01*
X0110846Y0237590D02*
X0130907Y0237590D01*
X0130308Y0238189D02*
X0110248Y0238189D01*
X0109649Y0238787D02*
X0129710Y0238787D01*
X0129111Y0239386D02*
X0109051Y0239386D01*
X0108452Y0239984D02*
X0128513Y0239984D01*
X0127914Y0240583D02*
X0108400Y0240583D01*
X0108400Y0241181D02*
X0127316Y0241181D01*
X0126717Y0241780D02*
X0108400Y0241780D01*
X0108400Y0242378D02*
X0126119Y0242378D01*
X0125520Y0242977D02*
X0108400Y0242977D01*
X0108400Y0243575D02*
X0110180Y0243575D01*
X0109178Y0244174D02*
X0108400Y0244174D01*
X0108400Y0244772D02*
X0108579Y0244772D01*
X0108578Y0249560D02*
X0108400Y0249560D01*
X0108400Y0250159D02*
X0109177Y0250159D01*
X0108400Y0250757D02*
X0110177Y0250757D01*
X0108400Y0251356D02*
X0142200Y0251356D01*
X0142200Y0251954D02*
X0108400Y0251954D01*
X0108400Y0252553D02*
X0142200Y0252553D01*
X0142200Y0253151D02*
X0108400Y0253151D01*
X0108400Y0253750D02*
X0109758Y0253750D01*
X0109003Y0254348D02*
X0108452Y0254348D01*
X0110781Y0263326D02*
X0103400Y0263326D01*
X0103400Y0263925D02*
X0109427Y0263925D01*
X0108828Y0264523D02*
X0103400Y0264523D01*
X0103400Y0265122D02*
X0108326Y0265122D01*
X0108078Y0265720D02*
X0103400Y0265720D01*
X0103400Y0266319D02*
X0107830Y0266319D01*
X0107800Y0266917D02*
X0103400Y0266917D01*
X0103400Y0267516D02*
X0107800Y0267516D01*
X0107871Y0268114D02*
X0103400Y0268114D01*
X0103400Y0268713D02*
X0108119Y0268713D01*
X0108367Y0269311D02*
X0103400Y0269311D01*
X0103400Y0269910D02*
X0108928Y0269910D01*
X0109576Y0270508D02*
X0103400Y0270508D01*
X0103400Y0271107D02*
X0123031Y0271107D01*
X0123031Y0271705D02*
X0103400Y0271705D01*
X0103400Y0272304D02*
X0123031Y0272304D01*
X0123410Y0272902D02*
X0103400Y0272902D01*
X0103400Y0273501D02*
X0110359Y0273501D01*
X0109271Y0274099D02*
X0103400Y0274099D01*
X0103400Y0274698D02*
X0108659Y0274698D01*
X0108259Y0275296D02*
X0103400Y0275296D01*
X0103400Y0275895D02*
X0108005Y0275895D01*
X0107858Y0276493D02*
X0103400Y0276493D01*
X0103400Y0277092D02*
X0114000Y0277092D01*
X0114000Y0276493D02*
X0114600Y0276493D01*
X0114600Y0275895D02*
X0114000Y0275895D01*
X0114000Y0275296D02*
X0114600Y0275296D01*
X0114600Y0274698D02*
X0114000Y0274698D01*
X0114000Y0274099D02*
X0114600Y0274099D01*
X0114600Y0273501D02*
X0114000Y0273501D01*
X0118241Y0273501D02*
X0123340Y0273501D01*
X0123052Y0274099D02*
X0119329Y0274099D01*
X0119941Y0274698D02*
X0123031Y0274698D01*
X0123031Y0275296D02*
X0120341Y0275296D01*
X0120594Y0275895D02*
X0123031Y0275895D01*
X0119498Y0280084D02*
X0134935Y0280084D01*
X0135183Y0280683D02*
X0118602Y0280683D01*
X0109998Y0280683D02*
X0103400Y0280683D01*
X0103400Y0281281D02*
X0135615Y0281281D01*
X0136126Y0281880D02*
X0103400Y0281880D01*
X0103400Y0282478D02*
X0135527Y0282478D01*
X0140667Y0281836D02*
X0141536Y0282705D01*
X0141611Y0282886D01*
X0152200Y0272297D01*
X0152200Y0233709D01*
X0151468Y0233405D01*
X0150061Y0231999D01*
X0149300Y0230161D01*
X0149300Y0228172D01*
X0149300Y0230161D01*
X0148539Y0231999D01*
X0147132Y0233405D01*
X0146400Y0233709D01*
X0146400Y0253297D01*
X0147170Y0254067D01*
X0148400Y0255297D01*
X0148400Y0275037D01*
X0144400Y0279037D01*
X0143170Y0280267D01*
X0141826Y0280267D01*
X0141536Y0280967D01*
X0140667Y0281836D01*
X0140711Y0281880D02*
X0142617Y0281880D01*
X0142018Y0282478D02*
X0141309Y0282478D01*
X0141221Y0281281D02*
X0143215Y0281281D01*
X0143814Y0280683D02*
X0141654Y0280683D01*
X0143352Y0280084D02*
X0144412Y0280084D01*
X0143951Y0279486D02*
X0145011Y0279486D01*
X0144549Y0278887D02*
X0145609Y0278887D01*
X0145148Y0278289D02*
X0146208Y0278289D01*
X0145746Y0277690D02*
X0146807Y0277690D01*
X0146345Y0277092D02*
X0147405Y0277092D01*
X0146943Y0276493D02*
X0148004Y0276493D01*
X0147542Y0275895D02*
X0148602Y0275895D01*
X0148140Y0275296D02*
X0149201Y0275296D01*
X0149799Y0274698D02*
X0148400Y0274698D01*
X0148400Y0274099D02*
X0150398Y0274099D01*
X0150996Y0273501D02*
X0148400Y0273501D01*
X0148400Y0272902D02*
X0151595Y0272902D01*
X0152193Y0272304D02*
X0148400Y0272304D01*
X0148400Y0271705D02*
X0152200Y0271705D01*
X0152200Y0271107D02*
X0148400Y0271107D01*
X0148400Y0270508D02*
X0152200Y0270508D01*
X0152200Y0269910D02*
X0148400Y0269910D01*
X0148400Y0269311D02*
X0152200Y0269311D01*
X0152200Y0268713D02*
X0148400Y0268713D01*
X0148400Y0268114D02*
X0152200Y0268114D01*
X0152200Y0267516D02*
X0148400Y0267516D01*
X0148400Y0266917D02*
X0152200Y0266917D01*
X0152200Y0266319D02*
X0148400Y0266319D01*
X0148400Y0265720D02*
X0152200Y0265720D01*
X0152200Y0265122D02*
X0148400Y0265122D01*
X0148400Y0264523D02*
X0152200Y0264523D01*
X0152200Y0263925D02*
X0148400Y0263925D01*
X0148400Y0263326D02*
X0152200Y0263326D01*
X0152200Y0262727D02*
X0148400Y0262727D01*
X0148400Y0262129D02*
X0152200Y0262129D01*
X0152200Y0261530D02*
X0148400Y0261530D01*
X0148400Y0260932D02*
X0152200Y0260932D01*
X0152200Y0260333D02*
X0148400Y0260333D01*
X0148400Y0259735D02*
X0152200Y0259735D01*
X0152200Y0259136D02*
X0148400Y0259136D01*
X0148400Y0258538D02*
X0152200Y0258538D01*
X0152200Y0257939D02*
X0148400Y0257939D01*
X0148400Y0257341D02*
X0152200Y0257341D01*
X0152200Y0256742D02*
X0148400Y0256742D01*
X0148400Y0256144D02*
X0152200Y0256144D01*
X0152200Y0255545D02*
X0148400Y0255545D01*
X0148050Y0254947D02*
X0152200Y0254947D01*
X0152200Y0254348D02*
X0147452Y0254348D01*
X0146853Y0253750D02*
X0152200Y0253750D01*
X0152200Y0253151D02*
X0146400Y0253151D01*
X0146400Y0252553D02*
X0152200Y0252553D01*
X0152200Y0251954D02*
X0146400Y0251954D01*
X0146400Y0251356D02*
X0152200Y0251356D01*
X0152200Y0250757D02*
X0146400Y0250757D01*
X0146400Y0250159D02*
X0152200Y0250159D01*
X0152200Y0249560D02*
X0146400Y0249560D01*
X0146400Y0248962D02*
X0152200Y0248962D01*
X0152200Y0248363D02*
X0146400Y0248363D01*
X0146400Y0247765D02*
X0152200Y0247765D01*
X0152200Y0247166D02*
X0146400Y0247166D01*
X0146400Y0246568D02*
X0152200Y0246568D01*
X0152200Y0245969D02*
X0146400Y0245969D01*
X0146400Y0245371D02*
X0152200Y0245371D01*
X0152200Y0244772D02*
X0146400Y0244772D01*
X0146400Y0244174D02*
X0152200Y0244174D01*
X0152200Y0243575D02*
X0146400Y0243575D01*
X0146400Y0242977D02*
X0152200Y0242977D01*
X0152200Y0242378D02*
X0146400Y0242378D01*
X0146400Y0241780D02*
X0152200Y0241780D01*
X0152200Y0241181D02*
X0146400Y0241181D01*
X0146400Y0240583D02*
X0152200Y0240583D01*
X0152200Y0239984D02*
X0146400Y0239984D01*
X0146400Y0239386D02*
X0152200Y0239386D01*
X0152200Y0238787D02*
X0146400Y0238787D01*
X0146400Y0238189D02*
X0152200Y0238189D01*
X0152200Y0237590D02*
X0146400Y0237590D01*
X0146400Y0236992D02*
X0152200Y0236992D01*
X0152200Y0236393D02*
X0146400Y0236393D01*
X0146400Y0235794D02*
X0152200Y0235794D01*
X0152200Y0235196D02*
X0146400Y0235196D01*
X0146400Y0234597D02*
X0152200Y0234597D01*
X0152200Y0233999D02*
X0146400Y0233999D01*
X0147137Y0233400D02*
X0151463Y0233400D01*
X0150864Y0232802D02*
X0147736Y0232802D01*
X0148334Y0232203D02*
X0150266Y0232203D01*
X0149898Y0231605D02*
X0148702Y0231605D01*
X0148950Y0231006D02*
X0149650Y0231006D01*
X0149402Y0230408D02*
X0149198Y0230408D01*
X0149300Y0229809D02*
X0149300Y0229809D01*
X0149300Y0229211D02*
X0149300Y0229211D01*
X0149300Y0228612D02*
X0149300Y0228612D01*
X0149234Y0228014D02*
X0149366Y0228014D01*
X0149613Y0227415D02*
X0148987Y0227415D01*
X0148739Y0226817D02*
X0149861Y0226817D01*
X0150177Y0226218D02*
X0148423Y0226218D01*
X0147824Y0225620D02*
X0150776Y0225620D01*
X0151374Y0225021D02*
X0147226Y0225021D01*
X0145913Y0224423D02*
X0152687Y0224423D01*
X0155913Y0224423D02*
X0162687Y0224423D01*
X0161374Y0225021D02*
X0157226Y0225021D01*
X0157824Y0225620D02*
X0160776Y0225620D01*
X0160177Y0226218D02*
X0158423Y0226218D01*
X0158739Y0226817D02*
X0159861Y0226817D01*
X0159613Y0227415D02*
X0158987Y0227415D01*
X0159234Y0228014D02*
X0159366Y0228014D01*
X0159300Y0228612D02*
X0159300Y0228612D01*
X0159300Y0229211D02*
X0159300Y0229211D01*
X0159300Y0229809D02*
X0159300Y0229809D01*
X0159198Y0230408D02*
X0159402Y0230408D01*
X0159650Y0231006D02*
X0158950Y0231006D01*
X0158702Y0231605D02*
X0159898Y0231605D01*
X0160266Y0232203D02*
X0158334Y0232203D01*
X0157736Y0232802D02*
X0160864Y0232802D01*
X0161463Y0233400D02*
X0157137Y0233400D01*
X0156400Y0233999D02*
X0162200Y0233999D01*
X0162200Y0234597D02*
X0156400Y0234597D01*
X0156400Y0235196D02*
X0162200Y0235196D01*
X0162200Y0235794D02*
X0156400Y0235794D01*
X0156400Y0236393D02*
X0162200Y0236393D01*
X0162200Y0236992D02*
X0156400Y0236992D01*
X0156400Y0237590D02*
X0162200Y0237590D01*
X0162200Y0238189D02*
X0156400Y0238189D01*
X0156400Y0238787D02*
X0160861Y0238787D01*
X0160488Y0239386D02*
X0156400Y0239386D01*
X0156400Y0239984D02*
X0160488Y0239984D01*
X0160488Y0240583D02*
X0156400Y0240583D01*
X0156400Y0241181D02*
X0160488Y0241181D01*
X0160488Y0241780D02*
X0156400Y0241780D01*
X0156400Y0242378D02*
X0160488Y0242378D01*
X0160488Y0242977D02*
X0156400Y0242977D01*
X0156400Y0243575D02*
X0160488Y0243575D01*
X0161854Y0245371D02*
X0156400Y0245371D01*
X0156400Y0245969D02*
X0161854Y0245969D01*
X0161854Y0246568D02*
X0156400Y0246568D01*
X0156400Y0247166D02*
X0161854Y0247166D01*
X0161854Y0247765D02*
X0156400Y0247765D01*
X0156400Y0248363D02*
X0161854Y0248363D01*
X0160686Y0248962D02*
X0156400Y0248962D01*
X0156400Y0249560D02*
X0160488Y0249560D01*
X0160488Y0250159D02*
X0156400Y0250159D01*
X0156400Y0250757D02*
X0160488Y0250757D01*
X0160488Y0251356D02*
X0156400Y0251356D01*
X0156400Y0251954D02*
X0160488Y0251954D01*
X0160488Y0252553D02*
X0156400Y0252553D01*
X0156400Y0253151D02*
X0160488Y0253151D01*
X0160488Y0253750D02*
X0156400Y0253750D01*
X0156400Y0254348D02*
X0160663Y0254348D01*
X0170346Y0241181D02*
X0170946Y0241181D01*
X0170946Y0240583D02*
X0170346Y0240583D01*
X0170346Y0239984D02*
X0170946Y0239984D01*
X0170946Y0239386D02*
X0170346Y0239386D01*
X0170346Y0238787D02*
X0170946Y0238787D01*
X0167554Y0238787D02*
X0167046Y0238787D01*
X0174112Y0242977D02*
X0211700Y0242977D01*
X0211700Y0243575D02*
X0174112Y0243575D01*
X0174002Y0244174D02*
X0211700Y0244174D01*
X0211700Y0244772D02*
X0173442Y0244772D01*
X0173914Y0248962D02*
X0211700Y0248962D01*
X0211700Y0249560D02*
X0174112Y0249560D01*
X0174112Y0250159D02*
X0211700Y0250159D01*
X0211700Y0250757D02*
X0174112Y0250757D01*
X0174112Y0251356D02*
X0211700Y0251356D01*
X0211700Y0251954D02*
X0174112Y0251954D01*
X0174112Y0252553D02*
X0211700Y0252553D01*
X0211700Y0253151D02*
X0174112Y0253151D01*
X0174112Y0253750D02*
X0211700Y0253750D01*
X0211700Y0254348D02*
X0173937Y0254348D01*
X0172746Y0254947D02*
X0211700Y0254947D01*
X0211700Y0255545D02*
X0172746Y0255545D01*
X0172746Y0256144D02*
X0211700Y0256144D01*
X0211700Y0256742D02*
X0172746Y0256742D01*
X0172746Y0257341D02*
X0211700Y0257341D01*
X0211700Y0257939D02*
X0172746Y0257939D01*
X0172746Y0258538D02*
X0211700Y0258538D01*
X0211700Y0259136D02*
X0172746Y0259136D01*
X0172746Y0259735D02*
X0211700Y0259735D01*
X0211700Y0260333D02*
X0172746Y0260333D01*
X0172746Y0260932D02*
X0211700Y0260932D01*
X0211700Y0261530D02*
X0172746Y0261530D01*
X0172746Y0262129D02*
X0211700Y0262129D01*
X0211700Y0262727D02*
X0172746Y0262727D01*
X0172746Y0263326D02*
X0211700Y0263326D01*
X0211700Y0263925D02*
X0172746Y0263925D01*
X0172746Y0264523D02*
X0211700Y0264523D01*
X0211700Y0265122D02*
X0172746Y0265122D01*
X0172746Y0265720D02*
X0211700Y0265720D01*
X0211700Y0266319D02*
X0172746Y0266319D01*
X0172746Y0266917D02*
X0211700Y0266917D01*
X0211700Y0267516D02*
X0172746Y0267516D01*
X0172746Y0268114D02*
X0211700Y0268114D01*
X0211700Y0268713D02*
X0172746Y0268713D01*
X0172746Y0269311D02*
X0211700Y0269311D01*
X0211700Y0269910D02*
X0172295Y0269910D01*
X0171696Y0270508D02*
X0211700Y0270508D01*
X0211700Y0271107D02*
X0171098Y0271107D01*
X0170499Y0271705D02*
X0211700Y0271705D01*
X0211700Y0272304D02*
X0169901Y0272304D01*
X0169302Y0272902D02*
X0211700Y0272902D01*
X0211700Y0273501D02*
X0168704Y0273501D01*
X0168105Y0274099D02*
X0211700Y0274099D01*
X0211700Y0274698D02*
X0167506Y0274698D01*
X0167168Y0275296D02*
X0211700Y0275296D01*
X0211700Y0275895D02*
X0167168Y0275895D01*
X0167168Y0276493D02*
X0211700Y0276493D01*
X0211700Y0277092D02*
X0167168Y0277092D01*
X0167168Y0277690D02*
X0211700Y0277690D01*
X0211700Y0278289D02*
X0167168Y0278289D01*
X0167168Y0278887D02*
X0211700Y0278887D01*
X0211700Y0279486D02*
X0167168Y0279486D01*
X0167168Y0280084D02*
X0211700Y0280084D01*
X0211700Y0280683D02*
X0167168Y0280683D01*
X0167168Y0281281D02*
X0211700Y0281281D01*
X0211700Y0281880D02*
X0167168Y0281880D01*
X0167168Y0282478D02*
X0211700Y0282478D01*
X0211700Y0283077D02*
X0167168Y0283077D01*
X0167168Y0283675D02*
X0211700Y0283675D01*
X0211700Y0284274D02*
X0167168Y0284274D01*
X0167168Y0284872D02*
X0211700Y0284872D01*
X0211700Y0285471D02*
X0167168Y0285471D01*
X0167168Y0286069D02*
X0211700Y0286069D01*
X0211700Y0286668D02*
X0167168Y0286668D01*
X0167168Y0287266D02*
X0211700Y0287266D01*
X0211700Y0287865D02*
X0167168Y0287865D01*
X0167168Y0288463D02*
X0211700Y0288463D01*
X0211700Y0289062D02*
X0167168Y0289062D01*
X0167168Y0289661D02*
X0211700Y0289661D01*
X0211700Y0290259D02*
X0167168Y0290259D01*
X0167168Y0290858D02*
X0211700Y0290858D01*
X0211700Y0291456D02*
X0167168Y0291456D01*
X0167168Y0292055D02*
X0211700Y0292055D01*
X0211700Y0292653D02*
X0167168Y0292653D01*
X0167168Y0293252D02*
X0211700Y0293252D01*
X0211700Y0293850D02*
X0167168Y0293850D01*
X0167168Y0294449D02*
X0211700Y0294449D01*
X0211700Y0295047D02*
X0167168Y0295047D01*
X0167168Y0295646D02*
X0211700Y0295646D01*
X0211700Y0296244D02*
X0167168Y0296244D01*
X0167168Y0296843D02*
X0211700Y0296843D01*
X0211700Y0297441D02*
X0167168Y0297441D01*
X0167168Y0298040D02*
X0211700Y0298040D01*
X0211700Y0298638D02*
X0167168Y0298638D01*
X0167168Y0299237D02*
X0211700Y0299237D01*
X0211700Y0299835D02*
X0167168Y0299835D01*
X0167168Y0300434D02*
X0211700Y0300434D01*
X0211700Y0301032D02*
X0167168Y0301032D01*
X0167168Y0301631D02*
X0172054Y0301631D01*
X0171811Y0301679D02*
X0172560Y0301530D01*
X0172642Y0301530D01*
X0172642Y0307680D01*
X0169067Y0307680D01*
X0169067Y0305023D01*
X0169216Y0304275D01*
X0169508Y0303569D01*
X0169932Y0302935D01*
X0170472Y0302395D01*
X0171106Y0301971D01*
X0171811Y0301679D01*
X0172642Y0301631D02*
X0173242Y0301631D01*
X0173242Y0301530D02*
X0173323Y0301530D01*
X0174072Y0301679D01*
X0174777Y0301971D01*
X0175412Y0302395D01*
X0175951Y0302935D01*
X0176376Y0303569D01*
X0176668Y0304275D01*
X0176817Y0305023D01*
X0176817Y0307680D01*
X0173242Y0307680D01*
X0173242Y0308280D01*
X0172642Y0308280D01*
X0172642Y0314429D01*
X0172560Y0314429D01*
X0171811Y0314280D01*
X0171106Y0313988D01*
X0170472Y0313564D01*
X0169932Y0313024D01*
X0169508Y0312390D01*
X0169216Y0311685D01*
X0169067Y0310936D01*
X0169067Y0308280D01*
X0172642Y0308280D01*
X0172642Y0307680D01*
X0173242Y0307680D01*
X0173242Y0301530D01*
X0173830Y0301631D02*
X0211700Y0301631D01*
X0211700Y0302229D02*
X0175164Y0302229D01*
X0175844Y0302828D02*
X0211700Y0302828D01*
X0211700Y0303426D02*
X0176280Y0303426D01*
X0176564Y0304025D02*
X0211700Y0304025D01*
X0211700Y0304623D02*
X0176737Y0304623D01*
X0176817Y0305222D02*
X0211700Y0305222D01*
X0211700Y0305820D02*
X0176817Y0305820D01*
X0176817Y0306419D02*
X0211700Y0306419D01*
X0211700Y0307017D02*
X0176817Y0307017D01*
X0176817Y0307616D02*
X0211700Y0307616D01*
X0211700Y0308214D02*
X0173242Y0308214D01*
X0173242Y0308280D02*
X0176817Y0308280D01*
X0176817Y0310936D01*
X0176668Y0311685D01*
X0176376Y0312390D01*
X0175951Y0313024D01*
X0175412Y0313564D01*
X0174777Y0313988D01*
X0174072Y0314280D01*
X0173323Y0314429D01*
X0173242Y0314429D01*
X0173242Y0308280D01*
X0173242Y0308813D02*
X0172642Y0308813D01*
X0172642Y0309411D02*
X0173242Y0309411D01*
X0173242Y0310010D02*
X0172642Y0310010D01*
X0172642Y0310608D02*
X0173242Y0310608D01*
X0173242Y0311207D02*
X0172642Y0311207D01*
X0172642Y0311805D02*
X0173242Y0311805D01*
X0173242Y0312404D02*
X0172642Y0312404D01*
X0172642Y0313002D02*
X0173242Y0313002D01*
X0173242Y0313601D02*
X0172642Y0313601D01*
X0172642Y0314199D02*
X0173242Y0314199D01*
X0174267Y0314199D02*
X0198834Y0314199D01*
X0199433Y0313601D02*
X0175357Y0313601D01*
X0175966Y0313002D02*
X0200031Y0313002D01*
X0201066Y0312404D02*
X0176366Y0312404D01*
X0176618Y0311805D02*
X0202103Y0311805D01*
X0204039Y0311207D02*
X0176763Y0311207D01*
X0176817Y0310608D02*
X0211700Y0310608D01*
X0211700Y0310010D02*
X0176817Y0310010D01*
X0176817Y0309411D02*
X0211700Y0309411D01*
X0211700Y0308813D02*
X0176817Y0308813D01*
X0173242Y0307616D02*
X0172642Y0307616D01*
X0172642Y0308214D02*
X0168943Y0308214D01*
X0168943Y0307616D02*
X0169067Y0307616D01*
X0169067Y0307017D02*
X0168943Y0307017D01*
X0168943Y0306419D02*
X0169067Y0306419D01*
X0169067Y0305820D02*
X0168943Y0305820D01*
X0168943Y0305222D02*
X0169067Y0305222D01*
X0169146Y0304623D02*
X0168938Y0304623D01*
X0168690Y0304025D02*
X0169319Y0304025D01*
X0169604Y0303426D02*
X0168442Y0303426D01*
X0167970Y0302828D02*
X0170039Y0302828D01*
X0170720Y0302229D02*
X0167372Y0302229D01*
X0162968Y0301631D02*
X0106734Y0301631D01*
X0107332Y0302229D02*
X0162764Y0302229D01*
X0162165Y0302828D02*
X0107931Y0302828D01*
X0108529Y0303426D02*
X0110539Y0303426D01*
X0109326Y0304025D02*
X0109128Y0304025D01*
X0110841Y0301032D02*
X0106135Y0301032D01*
X0105537Y0300434D02*
X0109452Y0300434D01*
X0108853Y0299835D02*
X0104938Y0299835D01*
X0104340Y0299237D02*
X0108336Y0299237D01*
X0108088Y0298638D02*
X0103741Y0298638D01*
X0103400Y0298040D02*
X0107840Y0298040D01*
X0107800Y0297441D02*
X0103400Y0297441D01*
X0103400Y0296843D02*
X0107800Y0296843D01*
X0107861Y0296244D02*
X0103400Y0296244D01*
X0103400Y0295646D02*
X0108109Y0295646D01*
X0108357Y0295047D02*
X0103400Y0295047D01*
X0103400Y0294449D02*
X0108903Y0294449D01*
X0109516Y0293850D02*
X0103400Y0293850D01*
X0099597Y0300434D02*
X0099003Y0300434D01*
X0098404Y0301032D02*
X0100196Y0301032D01*
X0100794Y0301631D02*
X0097806Y0301631D01*
X0097207Y0302229D02*
X0101393Y0302229D01*
X0101991Y0302828D02*
X0096609Y0302828D01*
X0096010Y0303426D02*
X0102590Y0303426D01*
X0103188Y0304025D02*
X0095412Y0304025D01*
X0094813Y0304623D02*
X0103787Y0304623D01*
X0104385Y0305222D02*
X0094215Y0305222D01*
X0093616Y0305820D02*
X0104984Y0305820D01*
X0105582Y0306419D02*
X0093018Y0306419D01*
X0092419Y0307017D02*
X0106181Y0307017D01*
X0106779Y0307616D02*
X0091821Y0307616D01*
X0091222Y0308214D02*
X0107378Y0308214D01*
X0107976Y0308813D02*
X0090624Y0308813D01*
X0090171Y0309411D02*
X0108429Y0309411D01*
X0109028Y0310010D02*
X0089572Y0310010D01*
X0088782Y0310608D02*
X0109818Y0310608D01*
X0110117Y0313601D02*
X0088483Y0313601D01*
X0089109Y0313860D02*
X0090206Y0314957D01*
X0090800Y0316391D01*
X0090800Y0317942D01*
X0090206Y0319376D01*
X0089109Y0320473D01*
X0087676Y0321067D01*
X0080924Y0321067D01*
X0079491Y0320473D01*
X0078394Y0319376D01*
X0077934Y0318267D01*
X0058430Y0318267D01*
X0057200Y0317037D01*
X0029430Y0289267D01*
X0028200Y0288037D01*
X0028200Y0249297D01*
X0029430Y0248067D01*
X0042200Y0235297D01*
X0042200Y0233709D01*
X0041468Y0233405D01*
X0040061Y0231999D01*
X0039300Y0230161D01*
X0039300Y0228172D01*
X0040061Y0226334D01*
X0041468Y0224928D01*
X0043305Y0224167D01*
X0045295Y0224167D01*
X0047132Y0224928D01*
X0048539Y0226334D01*
X0049300Y0228172D01*
X0050061Y0226334D01*
X0051468Y0224928D01*
X0053305Y0224167D01*
X0055295Y0224167D01*
X0057132Y0224928D01*
X0058539Y0226334D01*
X0059300Y0228172D01*
X0060061Y0226334D01*
X0061468Y0224928D01*
X0063305Y0224167D01*
X0065295Y0224167D01*
X0067132Y0224928D01*
X0068539Y0226334D01*
X0069300Y0228172D01*
X0069300Y0230161D01*
X0068539Y0231999D01*
X0067132Y0233405D01*
X0066400Y0233709D01*
X0066400Y0238037D01*
X0065170Y0239267D01*
X0045400Y0259037D01*
X0045400Y0273297D01*
X0048886Y0276783D01*
X0053317Y0276783D01*
X0054169Y0275930D01*
X0053300Y0275061D01*
X0052740Y0273709D01*
X0052740Y0272246D01*
X0053300Y0270894D01*
X0054083Y0270111D01*
X0053197Y0269225D01*
X0052618Y0267828D01*
X0052618Y0266316D01*
X0053197Y0264920D01*
X0054266Y0263851D01*
X0055662Y0263272D01*
X0080911Y0263272D01*
X0080924Y0263267D01*
X0082636Y0263267D01*
X0082779Y0263221D01*
X0083305Y0263267D01*
X0087676Y0263267D01*
X0089109Y0263860D01*
X0090206Y0264957D01*
X0090800Y0266391D01*
X0090800Y0267942D01*
X0090206Y0269376D01*
X0089109Y0270473D01*
X0087676Y0271067D01*
X0080924Y0271067D01*
X0080455Y0270872D01*
X0075568Y0270872D01*
X0075568Y0272024D01*
X0074888Y0272704D01*
X0075067Y0272808D01*
X0075309Y0273050D01*
X0075480Y0273346D01*
X0075568Y0273677D01*
X0075568Y0275713D01*
X0072600Y0275713D01*
X0072600Y0276313D01*
X0075568Y0276313D01*
X0075568Y0278350D01*
X0075480Y0278680D01*
X0075309Y0278977D01*
X0075067Y0279219D01*
X0074770Y0279390D01*
X0074440Y0279478D01*
X0072600Y0279478D01*
X0072600Y0276313D01*
X0072000Y0276313D01*
X0072000Y0275713D01*
X0069031Y0275713D01*
X0069031Y0273677D01*
X0069120Y0273346D01*
X0069291Y0273050D01*
X0069533Y0272808D01*
X0069712Y0272704D01*
X0069031Y0272024D01*
X0069031Y0270872D01*
X0059514Y0270872D01*
X0059536Y0270894D01*
X0060096Y0272246D01*
X0060096Y0273709D01*
X0059536Y0275061D01*
X0058667Y0275930D01*
X0059536Y0276800D01*
X0060096Y0278152D01*
X0060096Y0279615D01*
X0059536Y0280967D01*
X0058667Y0281836D01*
X0059536Y0282705D01*
X0060096Y0284057D01*
X0060096Y0285520D01*
X0059536Y0286872D01*
X0058648Y0287761D01*
X0058763Y0287837D01*
X0059275Y0288350D01*
X0059677Y0288952D01*
X0059955Y0289621D01*
X0060096Y0290332D01*
X0060096Y0290394D01*
X0056718Y0290394D01*
X0056718Y0290994D01*
X0060096Y0290994D01*
X0060096Y0291056D01*
X0059955Y0291767D01*
X0059677Y0292436D01*
X0059435Y0292800D01*
X0069024Y0292800D01*
X0069031Y0292781D01*
X0069031Y0290809D01*
X0069712Y0290129D01*
X0069533Y0290026D01*
X0069291Y0289784D01*
X0069120Y0289487D01*
X0069031Y0289157D01*
X0069031Y0287120D01*
X0072000Y0287120D01*
X0072000Y0286520D01*
X0072600Y0286520D01*
X0072600Y0283355D01*
X0074440Y0283355D01*
X0074770Y0283443D01*
X0075067Y0283615D01*
X0075309Y0283857D01*
X0075480Y0284153D01*
X0075568Y0284484D01*
X0075568Y0286520D01*
X0072600Y0286520D01*
X0072600Y0287120D01*
X0075568Y0287120D01*
X0075568Y0289157D01*
X0075480Y0289487D01*
X0075309Y0289784D01*
X0075067Y0290026D01*
X0074888Y0290129D01*
X0075568Y0290809D01*
X0075568Y0292781D01*
X0075576Y0292800D01*
X0082646Y0292800D01*
X0083315Y0292769D01*
X0083399Y0292800D01*
X0083489Y0292800D01*
X0084107Y0293056D01*
X0084690Y0293267D01*
X0087676Y0293267D01*
X0089109Y0293860D01*
X0090206Y0294957D01*
X0090800Y0296391D01*
X0090800Y0297942D01*
X0090206Y0299376D01*
X0089109Y0300473D01*
X0087676Y0301067D01*
X0080924Y0301067D01*
X0079491Y0300473D01*
X0079418Y0300400D01*
X0055662Y0300400D01*
X0054266Y0299821D01*
X0053197Y0298752D01*
X0052618Y0297356D01*
X0052618Y0295844D01*
X0053197Y0294447D01*
X0054085Y0293559D01*
X0054074Y0293551D01*
X0053561Y0293039D01*
X0053159Y0292436D01*
X0052881Y0291767D01*
X0052740Y0291056D01*
X0052740Y0290994D01*
X0056118Y0290994D01*
X0056118Y0290394D01*
X0052740Y0290394D01*
X0052740Y0290332D01*
X0052881Y0289621D01*
X0053159Y0288952D01*
X0053561Y0288350D01*
X0054074Y0287837D01*
X0054189Y0287761D01*
X0053300Y0286872D01*
X0053049Y0286267D01*
X0044430Y0286267D01*
X0043200Y0285037D01*
X0035200Y0277037D01*
X0035200Y0252297D01*
X0036430Y0251067D01*
X0052200Y0235297D01*
X0052200Y0233709D01*
X0051468Y0233405D01*
X0050061Y0231999D01*
X0049300Y0230161D01*
X0049300Y0228172D01*
X0049300Y0230161D01*
X0048539Y0231999D01*
X0047132Y0233405D01*
X0046400Y0233709D01*
X0046400Y0237037D01*
X0032400Y0251037D01*
X0032400Y0286297D01*
X0060170Y0314067D01*
X0079285Y0314067D01*
X0079491Y0313860D01*
X0080924Y0313267D01*
X0087676Y0313267D01*
X0089109Y0313860D01*
X0089448Y0314199D02*
X0109152Y0314199D01*
X0108553Y0314798D02*
X0090047Y0314798D01*
X0090388Y0315396D02*
X0108212Y0315396D01*
X0107964Y0315995D02*
X0090636Y0315995D01*
X0090800Y0316594D02*
X0107800Y0316594D01*
X0107800Y0317192D02*
X0090800Y0317192D01*
X0090800Y0317791D02*
X0107800Y0317791D01*
X0107985Y0318389D02*
X0090615Y0318389D01*
X0090367Y0318988D02*
X0108233Y0318988D01*
X0108604Y0319586D02*
X0089996Y0319586D01*
X0089397Y0320185D02*
X0109202Y0320185D01*
X0110240Y0320783D02*
X0088360Y0320783D01*
X0080240Y0320783D02*
X0021505Y0320783D01*
X0021505Y0320185D02*
X0079202Y0320185D01*
X0078604Y0319586D02*
X0021442Y0319586D01*
X0021282Y0318988D02*
X0078233Y0318988D01*
X0077985Y0318389D02*
X0021121Y0318389D01*
X0020961Y0317791D02*
X0057954Y0317791D01*
X0057356Y0317192D02*
X0020790Y0317192D01*
X0020444Y0316594D02*
X0056757Y0316594D01*
X0056159Y0315995D02*
X0020098Y0315995D01*
X0019753Y0315396D02*
X0055560Y0315396D01*
X0054961Y0314798D02*
X0019364Y0314798D01*
X0018766Y0314199D02*
X0054363Y0314199D01*
X0053764Y0313601D02*
X0018167Y0313601D01*
X0017569Y0313002D02*
X0053166Y0313002D01*
X0052567Y0312404D02*
X0016534Y0312404D01*
X0015497Y0311805D02*
X0051969Y0311805D01*
X0051370Y0311207D02*
X0013561Y0311207D01*
X0009039Y0311207D02*
X0005900Y0311207D01*
X0005900Y0311805D02*
X0007103Y0311805D01*
X0006066Y0312404D02*
X0005900Y0312404D01*
X0005900Y0310608D02*
X0050772Y0310608D01*
X0050173Y0310010D02*
X0005900Y0310010D01*
X0005900Y0309411D02*
X0049575Y0309411D01*
X0048976Y0308813D02*
X0005900Y0308813D01*
X0005900Y0308214D02*
X0048378Y0308214D01*
X0047779Y0307616D02*
X0005900Y0307616D01*
X0005900Y0307017D02*
X0047181Y0307017D01*
X0046582Y0306419D02*
X0005900Y0306419D01*
X0005900Y0305820D02*
X0045984Y0305820D01*
X0045385Y0305222D02*
X0005900Y0305222D01*
X0005900Y0304623D02*
X0044787Y0304623D01*
X0044188Y0304025D02*
X0005900Y0304025D01*
X0005900Y0303426D02*
X0043590Y0303426D01*
X0042991Y0302828D02*
X0005900Y0302828D01*
X0005900Y0302229D02*
X0042393Y0302229D01*
X0041794Y0301631D02*
X0005900Y0301631D01*
X0005900Y0301032D02*
X0041196Y0301032D01*
X0040597Y0300434D02*
X0005900Y0300434D01*
X0005900Y0299835D02*
X0039999Y0299835D01*
X0039400Y0299237D02*
X0005900Y0299237D01*
X0005900Y0298638D02*
X0038802Y0298638D01*
X0038203Y0298040D02*
X0005900Y0298040D01*
X0005900Y0297441D02*
X0037605Y0297441D01*
X0037006Y0296843D02*
X0005900Y0296843D01*
X0005900Y0296244D02*
X0036408Y0296244D01*
X0035809Y0295646D02*
X0005900Y0295646D01*
X0005900Y0295047D02*
X0035211Y0295047D01*
X0034612Y0294449D02*
X0005900Y0294449D01*
X0005900Y0293850D02*
X0034014Y0293850D01*
X0033415Y0293252D02*
X0005900Y0293252D01*
X0005900Y0292653D02*
X0032817Y0292653D01*
X0032218Y0292055D02*
X0005900Y0292055D01*
X0005900Y0291456D02*
X0031620Y0291456D01*
X0031021Y0290858D02*
X0005900Y0290858D01*
X0005900Y0290259D02*
X0030423Y0290259D01*
X0029824Y0289661D02*
X0005900Y0289661D01*
X0005900Y0289062D02*
X0029225Y0289062D01*
X0028627Y0288463D02*
X0005900Y0288463D01*
X0005900Y0287865D02*
X0028200Y0287865D01*
X0028200Y0287266D02*
X0005900Y0287266D01*
X0005900Y0286668D02*
X0028200Y0286668D01*
X0028200Y0286069D02*
X0005900Y0286069D01*
X0005900Y0285471D02*
X0028200Y0285471D01*
X0028200Y0284872D02*
X0005900Y0284872D01*
X0005900Y0284274D02*
X0028200Y0284274D01*
X0028200Y0283675D02*
X0005900Y0283675D01*
X0005900Y0283077D02*
X0028200Y0283077D01*
X0028200Y0282478D02*
X0005900Y0282478D01*
X0005900Y0281880D02*
X0028200Y0281880D01*
X0028200Y0281281D02*
X0005900Y0281281D01*
X0005900Y0280683D02*
X0028200Y0280683D01*
X0028200Y0280084D02*
X0005900Y0280084D01*
X0005900Y0279486D02*
X0028200Y0279486D01*
X0028200Y0278887D02*
X0005900Y0278887D01*
X0005900Y0278289D02*
X0028200Y0278289D01*
X0028200Y0277690D02*
X0005900Y0277690D01*
X0005900Y0277092D02*
X0028200Y0277092D01*
X0028200Y0276493D02*
X0005900Y0276493D01*
X0005900Y0275895D02*
X0028200Y0275895D01*
X0028200Y0275296D02*
X0005900Y0275296D01*
X0005900Y0274698D02*
X0028200Y0274698D01*
X0028200Y0274099D02*
X0005900Y0274099D01*
X0005900Y0273501D02*
X0028200Y0273501D01*
X0028200Y0272902D02*
X0005900Y0272902D01*
X0005900Y0272304D02*
X0028200Y0272304D01*
X0028200Y0271705D02*
X0005900Y0271705D01*
X0005900Y0271107D02*
X0028200Y0271107D01*
X0028200Y0270508D02*
X0005900Y0270508D01*
X0005900Y0269910D02*
X0028200Y0269910D01*
X0028200Y0269311D02*
X0005900Y0269311D01*
X0005900Y0268713D02*
X0028200Y0268713D01*
X0028200Y0268114D02*
X0005900Y0268114D01*
X0005900Y0267516D02*
X0028200Y0267516D01*
X0028200Y0266917D02*
X0005900Y0266917D01*
X0005900Y0266319D02*
X0028200Y0266319D01*
X0028200Y0265720D02*
X0005900Y0265720D01*
X0005900Y0265122D02*
X0028200Y0265122D01*
X0028200Y0264523D02*
X0005900Y0264523D01*
X0005900Y0263925D02*
X0028200Y0263925D01*
X0028200Y0263326D02*
X0005900Y0263326D01*
X0005900Y0262727D02*
X0028200Y0262727D01*
X0028200Y0262129D02*
X0005900Y0262129D01*
X0005900Y0261530D02*
X0028200Y0261530D01*
X0028200Y0260932D02*
X0005900Y0260932D01*
X0005900Y0260333D02*
X0028200Y0260333D01*
X0028200Y0259735D02*
X0005900Y0259735D01*
X0005900Y0259136D02*
X0028200Y0259136D01*
X0028200Y0258538D02*
X0005900Y0258538D01*
X0005900Y0257939D02*
X0028200Y0257939D01*
X0028200Y0257341D02*
X0005900Y0257341D01*
X0005900Y0256742D02*
X0028200Y0256742D01*
X0028200Y0256144D02*
X0005900Y0256144D01*
X0005900Y0255545D02*
X0028200Y0255545D01*
X0028200Y0254947D02*
X0005900Y0254947D01*
X0005900Y0254348D02*
X0028200Y0254348D01*
X0028200Y0253750D02*
X0005900Y0253750D01*
X0005900Y0253151D02*
X0028200Y0253151D01*
X0028200Y0252553D02*
X0005900Y0252553D01*
X0005900Y0251954D02*
X0028200Y0251954D01*
X0028200Y0251356D02*
X0005900Y0251356D01*
X0005900Y0250757D02*
X0028200Y0250757D01*
X0028200Y0250159D02*
X0005900Y0250159D01*
X0005900Y0249560D02*
X0028200Y0249560D01*
X0028535Y0248962D02*
X0005900Y0248962D01*
X0005900Y0248363D02*
X0029134Y0248363D01*
X0029732Y0247765D02*
X0005900Y0247765D01*
X0005900Y0247166D02*
X0030331Y0247166D01*
X0030929Y0246568D02*
X0005900Y0246568D01*
X0005900Y0245969D02*
X0031528Y0245969D01*
X0032126Y0245371D02*
X0005900Y0245371D01*
X0005900Y0244772D02*
X0032725Y0244772D01*
X0033323Y0244174D02*
X0005900Y0244174D01*
X0005900Y0243575D02*
X0033922Y0243575D01*
X0034520Y0242977D02*
X0005900Y0242977D01*
X0005900Y0242378D02*
X0035119Y0242378D01*
X0035717Y0241780D02*
X0005900Y0241780D01*
X0005900Y0241181D02*
X0036316Y0241181D01*
X0036914Y0240583D02*
X0005900Y0240583D01*
X0005900Y0239984D02*
X0037513Y0239984D01*
X0038111Y0239386D02*
X0005900Y0239386D01*
X0005900Y0238787D02*
X0038710Y0238787D01*
X0039308Y0238189D02*
X0005900Y0238189D01*
X0005900Y0237590D02*
X0039907Y0237590D01*
X0040505Y0236992D02*
X0005900Y0236992D01*
X0005900Y0236393D02*
X0041104Y0236393D01*
X0041702Y0235794D02*
X0005900Y0235794D01*
X0005900Y0235196D02*
X0042200Y0235196D01*
X0042200Y0234597D02*
X0005900Y0234597D01*
X0005900Y0233999D02*
X0012901Y0233999D01*
X0013305Y0234167D02*
X0011468Y0233405D01*
X0010061Y0231999D01*
X0009300Y0230161D01*
X0009300Y0228172D01*
X0010061Y0226334D01*
X0011468Y0224928D01*
X0013305Y0224167D01*
X0015295Y0224167D01*
X0017132Y0224928D01*
X0018539Y0226334D01*
X0019300Y0228172D01*
X0019300Y0230161D01*
X0018539Y0231999D01*
X0017132Y0233405D01*
X0015295Y0234167D01*
X0013305Y0234167D01*
X0011463Y0233400D02*
X0005900Y0233400D01*
X0005900Y0232802D02*
X0010864Y0232802D01*
X0010266Y0232203D02*
X0005900Y0232203D01*
X0005900Y0231605D02*
X0009898Y0231605D01*
X0009650Y0231006D02*
X0005900Y0231006D01*
X0005900Y0230408D02*
X0009402Y0230408D01*
X0009300Y0229809D02*
X0005900Y0229809D01*
X0005900Y0229211D02*
X0009300Y0229211D01*
X0009300Y0228612D02*
X0005900Y0228612D01*
X0005900Y0228014D02*
X0009366Y0228014D01*
X0009613Y0227415D02*
X0005900Y0227415D01*
X0005900Y0226817D02*
X0009861Y0226817D01*
X0010177Y0226218D02*
X0005900Y0226218D01*
X0005900Y0225620D02*
X0010776Y0225620D01*
X0011374Y0225021D02*
X0005900Y0225021D01*
X0005900Y0224423D02*
X0012687Y0224423D01*
X0015913Y0224423D02*
X0022720Y0224423D01*
X0022381Y0224533D02*
X0023129Y0224290D01*
X0023906Y0224167D01*
X0024000Y0224167D01*
X0024000Y0228867D01*
X0019300Y0228867D01*
X0019300Y0228773D01*
X0019423Y0227996D01*
X0019666Y0227247D01*
X0020024Y0226546D01*
X0020486Y0225909D01*
X0021043Y0225353D01*
X0021679Y0224890D01*
X0022381Y0224533D01*
X0021499Y0225021D02*
X0017226Y0225021D01*
X0017824Y0225620D02*
X0020776Y0225620D01*
X0020262Y0226218D02*
X0018423Y0226218D01*
X0018739Y0226817D02*
X0019886Y0226817D01*
X0019612Y0227415D02*
X0018987Y0227415D01*
X0019234Y0228014D02*
X0019420Y0228014D01*
X0019325Y0228612D02*
X0019300Y0228612D01*
X0019300Y0229211D02*
X0024000Y0229211D01*
X0024000Y0229467D02*
X0024000Y0228867D01*
X0024600Y0228867D01*
X0024600Y0229467D01*
X0024000Y0229467D01*
X0024000Y0234167D01*
X0023906Y0234167D01*
X0023129Y0234044D01*
X0022381Y0233800D01*
X0021679Y0233443D01*
X0021043Y0232980D01*
X0020486Y0232424D01*
X0020024Y0231787D01*
X0019666Y0231086D01*
X0019423Y0230337D01*
X0019300Y0229560D01*
X0019300Y0229467D01*
X0024000Y0229467D01*
X0024000Y0229809D02*
X0024600Y0229809D01*
X0024600Y0229467D02*
X0024600Y0234167D01*
X0024694Y0234167D01*
X0025471Y0234044D01*
X0026219Y0233800D01*
X0026921Y0233443D01*
X0027557Y0232980D01*
X0028114Y0232424D01*
X0028576Y0231787D01*
X0028934Y0231086D01*
X0029177Y0230337D01*
X0029300Y0229560D01*
X0029300Y0229467D01*
X0024600Y0229467D01*
X0024600Y0229211D02*
X0029300Y0229211D01*
X0029300Y0228867D02*
X0024600Y0228867D01*
X0024600Y0224167D01*
X0024694Y0224167D01*
X0025471Y0224290D01*
X0026219Y0224533D01*
X0026921Y0224890D01*
X0027557Y0225353D01*
X0028114Y0225909D01*
X0028576Y0226546D01*
X0028934Y0227247D01*
X0029177Y0227996D01*
X0029300Y0228773D01*
X0029300Y0228867D01*
X0029300Y0228612D02*
X0029275Y0228612D01*
X0029300Y0228172D02*
X0030061Y0226334D01*
X0031468Y0224928D01*
X0033305Y0224167D01*
X0035295Y0224167D01*
X0037132Y0224928D01*
X0038539Y0226334D01*
X0039300Y0228172D01*
X0039300Y0230161D01*
X0038539Y0231999D01*
X0037132Y0233405D01*
X0035295Y0234167D01*
X0033305Y0234167D01*
X0031468Y0233405D01*
X0030061Y0231999D01*
X0029300Y0230161D01*
X0029300Y0228172D01*
X0029366Y0228014D02*
X0029180Y0228014D01*
X0028988Y0227415D02*
X0029613Y0227415D01*
X0029861Y0226817D02*
X0028714Y0226817D01*
X0028338Y0226218D02*
X0030177Y0226218D01*
X0030776Y0225620D02*
X0027824Y0225620D01*
X0027101Y0225021D02*
X0031374Y0225021D01*
X0032687Y0224423D02*
X0025880Y0224423D01*
X0024600Y0224423D02*
X0024000Y0224423D01*
X0024000Y0225021D02*
X0024600Y0225021D01*
X0024600Y0225620D02*
X0024000Y0225620D01*
X0024000Y0226218D02*
X0024600Y0226218D01*
X0024600Y0226817D02*
X0024000Y0226817D01*
X0024000Y0227415D02*
X0024600Y0227415D01*
X0024600Y0228014D02*
X0024000Y0228014D01*
X0024000Y0228612D02*
X0024600Y0228612D01*
X0024600Y0230408D02*
X0024000Y0230408D01*
X0024000Y0231006D02*
X0024600Y0231006D01*
X0024600Y0231605D02*
X0024000Y0231605D01*
X0024000Y0232203D02*
X0024600Y0232203D01*
X0024600Y0232802D02*
X0024000Y0232802D01*
X0024000Y0233400D02*
X0024600Y0233400D01*
X0024600Y0233999D02*
X0024000Y0233999D01*
X0022992Y0233999D02*
X0015699Y0233999D01*
X0017137Y0233400D02*
X0021621Y0233400D01*
X0020864Y0232802D02*
X0017736Y0232802D01*
X0018334Y0232203D02*
X0020326Y0232203D01*
X0019931Y0231605D02*
X0018702Y0231605D01*
X0018950Y0231006D02*
X0019640Y0231006D01*
X0019446Y0230408D02*
X0019198Y0230408D01*
X0019300Y0229809D02*
X0019339Y0229809D01*
X0025608Y0233999D02*
X0032901Y0233999D01*
X0031463Y0233400D02*
X0026979Y0233400D01*
X0027736Y0232802D02*
X0030864Y0232802D01*
X0030266Y0232203D02*
X0028274Y0232203D01*
X0028669Y0231605D02*
X0029898Y0231605D01*
X0029650Y0231006D02*
X0028960Y0231006D01*
X0029154Y0230408D02*
X0029402Y0230408D01*
X0029300Y0229809D02*
X0029261Y0229809D01*
X0035699Y0233999D02*
X0042200Y0233999D01*
X0041463Y0233400D02*
X0037137Y0233400D01*
X0037736Y0232802D02*
X0040864Y0232802D01*
X0040266Y0232203D02*
X0038334Y0232203D01*
X0038702Y0231605D02*
X0039898Y0231605D01*
X0039650Y0231006D02*
X0038950Y0231006D01*
X0039198Y0230408D02*
X0039402Y0230408D01*
X0039300Y0229809D02*
X0039300Y0229809D01*
X0039300Y0229211D02*
X0039300Y0229211D01*
X0039300Y0228612D02*
X0039300Y0228612D01*
X0039234Y0228014D02*
X0039366Y0228014D01*
X0039613Y0227415D02*
X0038987Y0227415D01*
X0038739Y0226817D02*
X0039861Y0226817D01*
X0040177Y0226218D02*
X0038423Y0226218D01*
X0037824Y0225620D02*
X0040776Y0225620D01*
X0041374Y0225021D02*
X0037226Y0225021D01*
X0035913Y0224423D02*
X0042687Y0224423D01*
X0045913Y0224423D02*
X0052687Y0224423D01*
X0051374Y0225021D02*
X0047226Y0225021D01*
X0047824Y0225620D02*
X0050776Y0225620D01*
X0050177Y0226218D02*
X0048423Y0226218D01*
X0048739Y0226817D02*
X0049861Y0226817D01*
X0049613Y0227415D02*
X0048987Y0227415D01*
X0049234Y0228014D02*
X0049366Y0228014D01*
X0049300Y0228612D02*
X0049300Y0228612D01*
X0049300Y0229211D02*
X0049300Y0229211D01*
X0049300Y0229809D02*
X0049300Y0229809D01*
X0049198Y0230408D02*
X0049402Y0230408D01*
X0049650Y0231006D02*
X0048950Y0231006D01*
X0048702Y0231605D02*
X0049898Y0231605D01*
X0050266Y0232203D02*
X0048334Y0232203D01*
X0047736Y0232802D02*
X0050864Y0232802D01*
X0051463Y0233400D02*
X0047137Y0233400D01*
X0046400Y0233999D02*
X0052200Y0233999D01*
X0052200Y0234597D02*
X0046400Y0234597D01*
X0046400Y0235196D02*
X0052200Y0235196D01*
X0051702Y0235794D02*
X0046400Y0235794D01*
X0046400Y0236393D02*
X0051104Y0236393D01*
X0050505Y0236992D02*
X0046400Y0236992D01*
X0045846Y0237590D02*
X0049907Y0237590D01*
X0049308Y0238189D02*
X0045248Y0238189D01*
X0044649Y0238787D02*
X0048710Y0238787D01*
X0048111Y0239386D02*
X0044051Y0239386D01*
X0043452Y0239984D02*
X0047513Y0239984D01*
X0046914Y0240583D02*
X0042854Y0240583D01*
X0042255Y0241181D02*
X0046316Y0241181D01*
X0045717Y0241780D02*
X0041657Y0241780D01*
X0041058Y0242378D02*
X0045119Y0242378D01*
X0044520Y0242977D02*
X0040460Y0242977D01*
X0039861Y0243575D02*
X0043922Y0243575D01*
X0043323Y0244174D02*
X0039263Y0244174D01*
X0038664Y0244772D02*
X0042725Y0244772D01*
X0042126Y0245371D02*
X0038066Y0245371D01*
X0037467Y0245969D02*
X0041528Y0245969D01*
X0040929Y0246568D02*
X0036869Y0246568D01*
X0036270Y0247166D02*
X0040331Y0247166D01*
X0039732Y0247765D02*
X0035672Y0247765D01*
X0035073Y0248363D02*
X0039134Y0248363D01*
X0038535Y0248962D02*
X0034475Y0248962D01*
X0033876Y0249560D02*
X0037937Y0249560D01*
X0037338Y0250159D02*
X0033278Y0250159D01*
X0032679Y0250757D02*
X0036740Y0250757D01*
X0036141Y0251356D02*
X0032400Y0251356D01*
X0032400Y0251954D02*
X0035543Y0251954D01*
X0035200Y0252553D02*
X0032400Y0252553D01*
X0032400Y0253151D02*
X0035200Y0253151D01*
X0035200Y0253750D02*
X0032400Y0253750D01*
X0032400Y0254348D02*
X0035200Y0254348D01*
X0035200Y0254947D02*
X0032400Y0254947D01*
X0032400Y0255545D02*
X0035200Y0255545D01*
X0035200Y0256144D02*
X0032400Y0256144D01*
X0032400Y0256742D02*
X0035200Y0256742D01*
X0035200Y0257341D02*
X0032400Y0257341D01*
X0032400Y0257939D02*
X0035200Y0257939D01*
X0035200Y0258538D02*
X0032400Y0258538D01*
X0032400Y0259136D02*
X0035200Y0259136D01*
X0035200Y0259735D02*
X0032400Y0259735D01*
X0032400Y0260333D02*
X0035200Y0260333D01*
X0035200Y0260932D02*
X0032400Y0260932D01*
X0032400Y0261530D02*
X0035200Y0261530D01*
X0035200Y0262129D02*
X0032400Y0262129D01*
X0032400Y0262727D02*
X0035200Y0262727D01*
X0035200Y0263326D02*
X0032400Y0263326D01*
X0032400Y0263925D02*
X0035200Y0263925D01*
X0035200Y0264523D02*
X0032400Y0264523D01*
X0032400Y0265122D02*
X0035200Y0265122D01*
X0035200Y0265720D02*
X0032400Y0265720D01*
X0032400Y0266319D02*
X0035200Y0266319D01*
X0035200Y0266917D02*
X0032400Y0266917D01*
X0032400Y0267516D02*
X0035200Y0267516D01*
X0035200Y0268114D02*
X0032400Y0268114D01*
X0032400Y0268713D02*
X0035200Y0268713D01*
X0035200Y0269311D02*
X0032400Y0269311D01*
X0032400Y0269910D02*
X0035200Y0269910D01*
X0035200Y0270508D02*
X0032400Y0270508D01*
X0032400Y0271107D02*
X0035200Y0271107D01*
X0035200Y0271705D02*
X0032400Y0271705D01*
X0032400Y0272304D02*
X0035200Y0272304D01*
X0035200Y0272902D02*
X0032400Y0272902D01*
X0032400Y0273501D02*
X0035200Y0273501D01*
X0035200Y0274099D02*
X0032400Y0274099D01*
X0032400Y0274698D02*
X0035200Y0274698D01*
X0035200Y0275296D02*
X0032400Y0275296D01*
X0032400Y0275895D02*
X0035200Y0275895D01*
X0035200Y0276493D02*
X0032400Y0276493D01*
X0032400Y0277092D02*
X0035255Y0277092D01*
X0035854Y0277690D02*
X0032400Y0277690D01*
X0032400Y0278289D02*
X0036452Y0278289D01*
X0037051Y0278887D02*
X0032400Y0278887D01*
X0032400Y0279486D02*
X0037649Y0279486D01*
X0038248Y0280084D02*
X0032400Y0280084D01*
X0032400Y0280683D02*
X0038846Y0280683D01*
X0039445Y0281281D02*
X0032400Y0281281D01*
X0032400Y0281880D02*
X0040043Y0281880D01*
X0040642Y0282478D02*
X0032400Y0282478D01*
X0032400Y0283077D02*
X0041240Y0283077D01*
X0041839Y0283675D02*
X0032400Y0283675D01*
X0032400Y0284274D02*
X0042437Y0284274D01*
X0043036Y0284872D02*
X0032400Y0284872D01*
X0032400Y0285471D02*
X0043634Y0285471D01*
X0044233Y0286069D02*
X0032400Y0286069D01*
X0032771Y0286668D02*
X0053216Y0286668D01*
X0053694Y0287266D02*
X0033370Y0287266D01*
X0033968Y0287865D02*
X0054046Y0287865D01*
X0053485Y0288463D02*
X0034567Y0288463D01*
X0035165Y0289062D02*
X0053113Y0289062D01*
X0052874Y0289661D02*
X0035764Y0289661D01*
X0036362Y0290259D02*
X0052755Y0290259D01*
X0052820Y0291456D02*
X0037559Y0291456D01*
X0036961Y0290858D02*
X0056118Y0290858D01*
X0056718Y0290858D02*
X0069031Y0290858D01*
X0069031Y0291456D02*
X0060017Y0291456D01*
X0059836Y0292055D02*
X0069031Y0292055D01*
X0069031Y0292653D02*
X0059533Y0292653D01*
X0060082Y0290259D02*
X0069582Y0290259D01*
X0069220Y0289661D02*
X0059962Y0289661D01*
X0059723Y0289062D02*
X0069031Y0289062D01*
X0069031Y0288463D02*
X0059351Y0288463D01*
X0058790Y0287865D02*
X0069031Y0287865D01*
X0069031Y0287266D02*
X0059142Y0287266D01*
X0059621Y0286668D02*
X0072000Y0286668D01*
X0072000Y0286520D02*
X0069031Y0286520D01*
X0069031Y0284484D01*
X0069120Y0284153D01*
X0069291Y0283857D01*
X0069533Y0283615D01*
X0069830Y0283443D01*
X0070160Y0283355D01*
X0072000Y0283355D01*
X0072000Y0286520D01*
X0072000Y0286069D02*
X0072600Y0286069D01*
X0072600Y0285471D02*
X0072000Y0285471D01*
X0072000Y0284872D02*
X0072600Y0284872D01*
X0072600Y0284274D02*
X0072000Y0284274D01*
X0072000Y0283675D02*
X0072600Y0283675D01*
X0075128Y0283675D02*
X0079937Y0283675D01*
X0079853Y0283711D02*
X0080562Y0283417D01*
X0081316Y0283267D01*
X0084000Y0283267D01*
X0084000Y0286867D01*
X0077800Y0286867D01*
X0077800Y0286783D01*
X0077950Y0286029D01*
X0078244Y0285319D01*
X0078671Y0284681D01*
X0079214Y0284137D01*
X0079853Y0283711D01*
X0079077Y0284274D02*
X0075512Y0284274D01*
X0075568Y0284872D02*
X0078542Y0284872D01*
X0078181Y0285471D02*
X0075568Y0285471D01*
X0075568Y0286069D02*
X0077942Y0286069D01*
X0077823Y0286668D02*
X0072600Y0286668D01*
X0072600Y0287120D02*
X0072000Y0287120D01*
X0072000Y0290048D01*
X0072600Y0290048D01*
X0072600Y0287120D01*
X0072600Y0287266D02*
X0072000Y0287266D01*
X0072000Y0287865D02*
X0072600Y0287865D01*
X0072600Y0288463D02*
X0072000Y0288463D01*
X0072000Y0289062D02*
X0072600Y0289062D01*
X0072600Y0289661D02*
X0072000Y0289661D01*
X0075018Y0290259D02*
X0079308Y0290259D01*
X0079214Y0290196D02*
X0078671Y0289653D01*
X0078244Y0289014D01*
X0077950Y0288304D01*
X0077800Y0287551D01*
X0077800Y0287467D01*
X0084000Y0287467D01*
X0084000Y0291067D01*
X0081316Y0291067D01*
X0080562Y0290917D01*
X0079853Y0290623D01*
X0079214Y0290196D01*
X0078678Y0289661D02*
X0075380Y0289661D01*
X0075568Y0289062D02*
X0078276Y0289062D01*
X0078016Y0288463D02*
X0075568Y0288463D01*
X0075568Y0287865D02*
X0077863Y0287865D01*
X0075568Y0287266D02*
X0084000Y0287266D01*
X0084000Y0287467D02*
X0084000Y0286867D01*
X0084600Y0286867D01*
X0084600Y0287467D01*
X0084000Y0287467D01*
X0084000Y0287865D02*
X0084600Y0287865D01*
X0084600Y0287467D02*
X0084600Y0291067D01*
X0087284Y0291067D01*
X0088038Y0290917D01*
X0088747Y0290623D01*
X0089386Y0290196D01*
X0089929Y0289653D01*
X0090356Y0289014D01*
X0090650Y0288304D01*
X0090800Y0287551D01*
X0090800Y0287467D01*
X0084600Y0287467D01*
X0084600Y0287266D02*
X0095200Y0287266D01*
X0095200Y0286668D02*
X0090777Y0286668D01*
X0090800Y0286783D02*
X0090650Y0286029D01*
X0090356Y0285319D01*
X0089929Y0284681D01*
X0089386Y0284137D01*
X0088747Y0283711D01*
X0088038Y0283417D01*
X0087284Y0283267D01*
X0084600Y0283267D01*
X0084600Y0286867D01*
X0090800Y0286867D01*
X0090800Y0286783D01*
X0090658Y0286069D02*
X0095200Y0286069D01*
X0095200Y0285471D02*
X0090419Y0285471D01*
X0090058Y0284872D02*
X0095200Y0284872D01*
X0095200Y0284274D02*
X0089523Y0284274D01*
X0088663Y0283675D02*
X0095200Y0283675D01*
X0095200Y0283077D02*
X0059690Y0283077D01*
X0059938Y0283675D02*
X0069472Y0283675D01*
X0069088Y0284274D02*
X0060096Y0284274D01*
X0060096Y0284872D02*
X0069031Y0284872D01*
X0069031Y0285471D02*
X0060096Y0285471D01*
X0059869Y0286069D02*
X0069031Y0286069D01*
X0070160Y0279478D02*
X0069830Y0279390D01*
X0069533Y0279219D01*
X0069291Y0278977D01*
X0069120Y0278680D01*
X0069031Y0278350D01*
X0069031Y0276313D01*
X0072000Y0276313D01*
X0072000Y0279478D01*
X0070160Y0279478D01*
X0069240Y0278887D02*
X0060096Y0278887D01*
X0060096Y0278289D02*
X0069031Y0278289D01*
X0069031Y0277690D02*
X0059905Y0277690D01*
X0059657Y0277092D02*
X0069031Y0277092D01*
X0069031Y0276493D02*
X0059230Y0276493D01*
X0058702Y0275895D02*
X0072000Y0275895D01*
X0072000Y0276493D02*
X0072600Y0276493D01*
X0072600Y0275895D02*
X0078005Y0275895D01*
X0077950Y0276029D02*
X0078244Y0275319D01*
X0078671Y0274681D01*
X0079214Y0274137D01*
X0079853Y0273711D01*
X0080562Y0273417D01*
X0081316Y0273267D01*
X0084000Y0273267D01*
X0084000Y0276867D01*
X0077800Y0276867D01*
X0077800Y0276783D01*
X0077950Y0276029D01*
X0077858Y0276493D02*
X0075568Y0276493D01*
X0075568Y0277092D02*
X0084000Y0277092D01*
X0084000Y0276867D02*
X0084000Y0277467D01*
X0084000Y0281067D01*
X0081316Y0281067D01*
X0080562Y0280917D01*
X0079853Y0280623D01*
X0079214Y0280196D01*
X0078671Y0279653D01*
X0078244Y0279014D01*
X0077950Y0278304D01*
X0077800Y0277551D01*
X0077800Y0277467D01*
X0084000Y0277467D01*
X0084600Y0277467D01*
X0084600Y0281067D01*
X0087284Y0281067D01*
X0088038Y0280917D01*
X0088747Y0280623D01*
X0089386Y0280196D01*
X0089929Y0279653D01*
X0090356Y0279014D01*
X0090650Y0278304D01*
X0090800Y0277551D01*
X0090800Y0277467D01*
X0084600Y0277467D01*
X0084600Y0276867D01*
X0090800Y0276867D01*
X0090800Y0276783D01*
X0090650Y0276029D01*
X0090356Y0275319D01*
X0089929Y0274681D01*
X0089386Y0274137D01*
X0088747Y0273711D01*
X0088038Y0273417D01*
X0087284Y0273267D01*
X0084600Y0273267D01*
X0084600Y0276867D01*
X0084000Y0276867D01*
X0084000Y0276493D02*
X0084600Y0276493D01*
X0084600Y0275895D02*
X0084000Y0275895D01*
X0084000Y0275296D02*
X0084600Y0275296D01*
X0084600Y0274698D02*
X0084000Y0274698D01*
X0084000Y0274099D02*
X0084600Y0274099D01*
X0084600Y0273501D02*
X0084000Y0273501D01*
X0084600Y0277092D02*
X0095200Y0277092D01*
X0095200Y0277690D02*
X0090772Y0277690D01*
X0090653Y0278289D02*
X0095200Y0278289D01*
X0095200Y0278887D02*
X0090409Y0278887D01*
X0090041Y0279486D02*
X0095200Y0279486D01*
X0095200Y0280084D02*
X0089498Y0280084D01*
X0088602Y0280683D02*
X0095200Y0280683D01*
X0095200Y0281281D02*
X0059221Y0281281D01*
X0059654Y0280683D02*
X0079998Y0280683D01*
X0079102Y0280084D02*
X0059902Y0280084D01*
X0060096Y0279486D02*
X0078559Y0279486D01*
X0078191Y0278887D02*
X0075360Y0278887D01*
X0075568Y0278289D02*
X0077947Y0278289D01*
X0077828Y0277690D02*
X0075568Y0277690D01*
X0075568Y0275296D02*
X0078259Y0275296D01*
X0078659Y0274698D02*
X0075568Y0274698D01*
X0075568Y0274099D02*
X0079271Y0274099D01*
X0080359Y0273501D02*
X0075521Y0273501D01*
X0075161Y0272902D02*
X0095200Y0272902D01*
X0095200Y0272304D02*
X0075289Y0272304D01*
X0075568Y0271705D02*
X0095200Y0271705D01*
X0095200Y0271107D02*
X0075568Y0271107D01*
X0069311Y0272304D02*
X0060096Y0272304D01*
X0060096Y0272902D02*
X0069439Y0272902D01*
X0069079Y0273501D02*
X0060096Y0273501D01*
X0059935Y0274099D02*
X0069031Y0274099D01*
X0069031Y0274698D02*
X0059687Y0274698D01*
X0059301Y0275296D02*
X0069031Y0275296D01*
X0072000Y0277092D02*
X0072600Y0277092D01*
X0072600Y0277690D02*
X0072000Y0277690D01*
X0072000Y0278289D02*
X0072600Y0278289D01*
X0072600Y0278887D02*
X0072000Y0278887D01*
X0069031Y0271705D02*
X0059872Y0271705D01*
X0059624Y0271107D02*
X0069031Y0271107D01*
X0079351Y0260333D02*
X0045400Y0260333D01*
X0045400Y0259735D02*
X0078753Y0259735D01*
X0078295Y0259136D02*
X0045400Y0259136D01*
X0045899Y0258538D02*
X0078047Y0258538D01*
X0077800Y0257939D02*
X0046497Y0257939D01*
X0047096Y0257341D02*
X0077800Y0257341D01*
X0077800Y0256742D02*
X0047694Y0256742D01*
X0048293Y0256144D02*
X0077902Y0256144D01*
X0078150Y0255545D02*
X0048891Y0255545D01*
X0049490Y0254947D02*
X0078404Y0254947D01*
X0079003Y0254348D02*
X0050088Y0254348D01*
X0050687Y0253750D02*
X0079758Y0253750D01*
X0080924Y0251067D02*
X0079491Y0250473D01*
X0078394Y0249376D01*
X0077800Y0247942D01*
X0077800Y0246391D01*
X0078394Y0244957D01*
X0079491Y0243860D01*
X0080924Y0243267D01*
X0087676Y0243267D01*
X0089109Y0243860D01*
X0090206Y0244957D01*
X0090800Y0246391D01*
X0090800Y0247942D01*
X0090206Y0249376D01*
X0089109Y0250473D01*
X0087676Y0251067D01*
X0080924Y0251067D01*
X0080177Y0250757D02*
X0053679Y0250757D01*
X0054278Y0250159D02*
X0079177Y0250159D01*
X0078578Y0249560D02*
X0054876Y0249560D01*
X0055475Y0248962D02*
X0078222Y0248962D01*
X0077974Y0248363D02*
X0056073Y0248363D01*
X0056672Y0247765D02*
X0077800Y0247765D01*
X0077800Y0247166D02*
X0057270Y0247166D01*
X0057869Y0246568D02*
X0077800Y0246568D01*
X0077975Y0245969D02*
X0058467Y0245969D01*
X0059066Y0245371D02*
X0078223Y0245371D01*
X0078579Y0244772D02*
X0059664Y0244772D01*
X0060263Y0244174D02*
X0079178Y0244174D01*
X0080180Y0243575D02*
X0060861Y0243575D01*
X0061460Y0242977D02*
X0091200Y0242977D01*
X0091200Y0243575D02*
X0088420Y0243575D01*
X0089422Y0244174D02*
X0091200Y0244174D01*
X0091200Y0244772D02*
X0090021Y0244772D01*
X0090377Y0245371D02*
X0091200Y0245371D01*
X0091200Y0245969D02*
X0090625Y0245969D01*
X0090800Y0246568D02*
X0091200Y0246568D01*
X0091200Y0247166D02*
X0090800Y0247166D01*
X0090800Y0247765D02*
X0091200Y0247765D01*
X0091200Y0248363D02*
X0090626Y0248363D01*
X0090378Y0248962D02*
X0091200Y0248962D01*
X0091200Y0249560D02*
X0090022Y0249560D01*
X0089423Y0250159D02*
X0091200Y0250159D01*
X0091200Y0250757D02*
X0088423Y0250757D01*
X0091200Y0251356D02*
X0053081Y0251356D01*
X0052482Y0251954D02*
X0091200Y0251954D01*
X0091200Y0252553D02*
X0051884Y0252553D01*
X0051285Y0253151D02*
X0091200Y0253151D01*
X0090747Y0253750D02*
X0088842Y0253750D01*
X0089597Y0254348D02*
X0090148Y0254348D01*
X0092497Y0257939D02*
X0095200Y0257939D01*
X0095200Y0257341D02*
X0093096Y0257341D01*
X0093694Y0256742D02*
X0095200Y0256742D01*
X0095200Y0256144D02*
X0094293Y0256144D01*
X0094891Y0255545D02*
X0095200Y0255545D01*
X0095200Y0258538D02*
X0091899Y0258538D01*
X0091300Y0259136D02*
X0095200Y0259136D01*
X0095200Y0259735D02*
X0089847Y0259735D01*
X0089249Y0260333D02*
X0095200Y0260333D01*
X0095200Y0260932D02*
X0088001Y0260932D01*
X0087819Y0263326D02*
X0095200Y0263326D01*
X0095200Y0262727D02*
X0045400Y0262727D01*
X0045400Y0262129D02*
X0095200Y0262129D01*
X0095200Y0261530D02*
X0045400Y0261530D01*
X0045400Y0260932D02*
X0080599Y0260932D01*
X0089173Y0263925D02*
X0095200Y0263925D01*
X0095200Y0264523D02*
X0089772Y0264523D01*
X0090274Y0265122D02*
X0095200Y0265122D01*
X0095200Y0265720D02*
X0090522Y0265720D01*
X0090770Y0266319D02*
X0095200Y0266319D01*
X0095200Y0266917D02*
X0090800Y0266917D01*
X0090800Y0267516D02*
X0095200Y0267516D01*
X0095200Y0268114D02*
X0090729Y0268114D01*
X0090481Y0268713D02*
X0095200Y0268713D01*
X0095200Y0269311D02*
X0090233Y0269311D01*
X0089672Y0269910D02*
X0095200Y0269910D01*
X0095200Y0270508D02*
X0089024Y0270508D01*
X0088241Y0273501D02*
X0095200Y0273501D01*
X0095200Y0274099D02*
X0089329Y0274099D01*
X0089941Y0274698D02*
X0095200Y0274698D01*
X0095200Y0275296D02*
X0090341Y0275296D01*
X0090594Y0275895D02*
X0095200Y0275895D01*
X0095200Y0276493D02*
X0090742Y0276493D01*
X0095200Y0281880D02*
X0058711Y0281880D01*
X0059309Y0282478D02*
X0095200Y0282478D01*
X0095200Y0287865D02*
X0090737Y0287865D01*
X0090584Y0288463D02*
X0095200Y0288463D01*
X0095200Y0289062D02*
X0090324Y0289062D01*
X0089922Y0289661D02*
X0095200Y0289661D01*
X0095200Y0290259D02*
X0089292Y0290259D01*
X0088181Y0290858D02*
X0095200Y0290858D01*
X0095200Y0291456D02*
X0075568Y0291456D01*
X0075568Y0290858D02*
X0080419Y0290858D01*
X0084000Y0290858D02*
X0084600Y0290858D01*
X0084600Y0290259D02*
X0084000Y0290259D01*
X0084000Y0289661D02*
X0084600Y0289661D01*
X0084600Y0289062D02*
X0084000Y0289062D01*
X0084000Y0288463D02*
X0084600Y0288463D01*
X0084600Y0286668D02*
X0084000Y0286668D01*
X0084000Y0286069D02*
X0084600Y0286069D01*
X0084600Y0285471D02*
X0084000Y0285471D01*
X0084000Y0284872D02*
X0084600Y0284872D01*
X0084600Y0284274D02*
X0084000Y0284274D01*
X0084000Y0283675D02*
X0084600Y0283675D01*
X0084600Y0280683D02*
X0084000Y0280683D01*
X0084000Y0280084D02*
X0084600Y0280084D01*
X0084600Y0279486D02*
X0084000Y0279486D01*
X0084000Y0278887D02*
X0084600Y0278887D01*
X0084600Y0278289D02*
X0084000Y0278289D01*
X0084000Y0277690D02*
X0084600Y0277690D01*
X0075568Y0292055D02*
X0095200Y0292055D01*
X0095200Y0292653D02*
X0075568Y0292653D01*
X0079452Y0300434D02*
X0046537Y0300434D01*
X0047135Y0301032D02*
X0080841Y0301032D01*
X0080539Y0303426D02*
X0049529Y0303426D01*
X0048931Y0302828D02*
X0090669Y0302828D01*
X0090071Y0303426D02*
X0088061Y0303426D01*
X0089274Y0304025D02*
X0089472Y0304025D01*
X0091268Y0302229D02*
X0048332Y0302229D01*
X0047734Y0301631D02*
X0091866Y0301631D01*
X0092465Y0301032D02*
X0087759Y0301032D01*
X0089148Y0300434D02*
X0093063Y0300434D01*
X0093662Y0299835D02*
X0089747Y0299835D01*
X0090264Y0299237D02*
X0094260Y0299237D01*
X0094859Y0298638D02*
X0090512Y0298638D01*
X0090760Y0298040D02*
X0095200Y0298040D01*
X0095200Y0297441D02*
X0090800Y0297441D01*
X0090800Y0296843D02*
X0095200Y0296843D01*
X0095200Y0296244D02*
X0090739Y0296244D01*
X0090491Y0295646D02*
X0095200Y0295646D01*
X0095200Y0295047D02*
X0090243Y0295047D01*
X0089697Y0294449D02*
X0095200Y0294449D01*
X0095200Y0293850D02*
X0089084Y0293850D01*
X0084648Y0293252D02*
X0095200Y0293252D01*
X0103400Y0280084D02*
X0109102Y0280084D01*
X0108559Y0279486D02*
X0103400Y0279486D01*
X0103400Y0278887D02*
X0108191Y0278887D01*
X0107947Y0278289D02*
X0103400Y0278289D01*
X0103400Y0277690D02*
X0107828Y0277690D01*
X0118001Y0260932D02*
X0144200Y0260932D01*
X0144200Y0260333D02*
X0119249Y0260333D01*
X0119847Y0259735D02*
X0144200Y0259735D01*
X0144200Y0259136D02*
X0120305Y0259136D01*
X0120553Y0258538D02*
X0144200Y0258538D01*
X0144200Y0257939D02*
X0120800Y0257939D01*
X0120800Y0257341D02*
X0144200Y0257341D01*
X0143906Y0256742D02*
X0120800Y0256742D01*
X0120698Y0256144D02*
X0143307Y0256144D01*
X0142709Y0255545D02*
X0120450Y0255545D01*
X0120196Y0254947D02*
X0142200Y0254947D01*
X0142200Y0254348D02*
X0119597Y0254348D01*
X0118842Y0253750D02*
X0142200Y0253750D01*
X0142200Y0250757D02*
X0118423Y0250757D01*
X0119423Y0250159D02*
X0142200Y0250159D01*
X0142200Y0249560D02*
X0120022Y0249560D01*
X0120021Y0244772D02*
X0123725Y0244772D01*
X0124323Y0244174D02*
X0119422Y0244174D01*
X0118420Y0243575D02*
X0124922Y0243575D01*
X0127869Y0246568D02*
X0142200Y0246568D01*
X0142200Y0247166D02*
X0127270Y0247166D01*
X0126672Y0247765D02*
X0142200Y0247765D01*
X0142200Y0248363D02*
X0126073Y0248363D01*
X0125475Y0248962D02*
X0142200Y0248962D01*
X0142200Y0245969D02*
X0128467Y0245969D01*
X0129066Y0245371D02*
X0142200Y0245371D01*
X0142200Y0244772D02*
X0129664Y0244772D01*
X0130263Y0244174D02*
X0142200Y0244174D01*
X0142200Y0243575D02*
X0130861Y0243575D01*
X0131460Y0242977D02*
X0142200Y0242977D01*
X0142200Y0242378D02*
X0132058Y0242378D01*
X0132657Y0241780D02*
X0142200Y0241780D01*
X0142200Y0241181D02*
X0133255Y0241181D01*
X0133854Y0240583D02*
X0142200Y0240583D01*
X0142200Y0239984D02*
X0134452Y0239984D01*
X0135051Y0239386D02*
X0142200Y0239386D01*
X0142200Y0238787D02*
X0135649Y0238787D01*
X0136248Y0238189D02*
X0142200Y0238189D01*
X0142200Y0237590D02*
X0136400Y0237590D01*
X0136400Y0236992D02*
X0142200Y0236992D01*
X0142200Y0236393D02*
X0136400Y0236393D01*
X0136400Y0235794D02*
X0142200Y0235794D01*
X0142200Y0235196D02*
X0136400Y0235196D01*
X0136400Y0234597D02*
X0142200Y0234597D01*
X0142200Y0233999D02*
X0136400Y0233999D01*
X0137137Y0233400D02*
X0141463Y0233400D01*
X0140864Y0232802D02*
X0137736Y0232802D01*
X0138334Y0232203D02*
X0140266Y0232203D01*
X0139898Y0231605D02*
X0138702Y0231605D01*
X0138950Y0231006D02*
X0139650Y0231006D01*
X0139402Y0230408D02*
X0139198Y0230408D01*
X0139300Y0229809D02*
X0139300Y0229809D01*
X0139300Y0229211D02*
X0139300Y0229211D01*
X0139300Y0228612D02*
X0139300Y0228612D01*
X0139234Y0228014D02*
X0139366Y0228014D01*
X0139613Y0227415D02*
X0138987Y0227415D01*
X0138739Y0226817D02*
X0139861Y0226817D01*
X0140177Y0226218D02*
X0138423Y0226218D01*
X0137824Y0225620D02*
X0140776Y0225620D01*
X0141374Y0225021D02*
X0137226Y0225021D01*
X0135913Y0224423D02*
X0142687Y0224423D01*
X0132687Y0224423D02*
X0125913Y0224423D01*
X0127226Y0225021D02*
X0131374Y0225021D01*
X0130776Y0225620D02*
X0127824Y0225620D01*
X0128423Y0226218D02*
X0130177Y0226218D01*
X0129861Y0226817D02*
X0128739Y0226817D01*
X0128987Y0227415D02*
X0129613Y0227415D01*
X0129366Y0228014D02*
X0129234Y0228014D01*
X0129300Y0228612D02*
X0129300Y0228612D01*
X0129300Y0229211D02*
X0129300Y0229211D01*
X0129300Y0229809D02*
X0129300Y0229809D01*
X0129198Y0230408D02*
X0129402Y0230408D01*
X0129650Y0231006D02*
X0128950Y0231006D01*
X0128702Y0231605D02*
X0129898Y0231605D01*
X0130266Y0232203D02*
X0128334Y0232203D01*
X0127736Y0232802D02*
X0130864Y0232802D01*
X0131463Y0233400D02*
X0127137Y0233400D01*
X0140644Y0263925D02*
X0144200Y0263925D01*
X0144200Y0264523D02*
X0141243Y0264523D01*
X0141723Y0265122D02*
X0144200Y0265122D01*
X0144200Y0265720D02*
X0141971Y0265720D01*
X0142218Y0266319D02*
X0144200Y0266319D01*
X0144200Y0266917D02*
X0142218Y0266917D01*
X0142218Y0267516D02*
X0144200Y0267516D01*
X0144200Y0268114D02*
X0142100Y0268114D01*
X0141852Y0268713D02*
X0144200Y0268713D01*
X0144200Y0269311D02*
X0141553Y0269311D01*
X0140955Y0269910D02*
X0144200Y0269910D01*
X0144200Y0270508D02*
X0141150Y0270508D01*
X0141624Y0271107D02*
X0144200Y0271107D01*
X0144200Y0271705D02*
X0141872Y0271705D01*
X0142096Y0272304D02*
X0144200Y0272304D01*
X0144200Y0272902D02*
X0142096Y0272902D01*
X0142096Y0273501D02*
X0143996Y0273501D01*
X0143398Y0274099D02*
X0141935Y0274099D01*
X0141687Y0274698D02*
X0142799Y0274698D01*
X0142201Y0275296D02*
X0141301Y0275296D01*
X0141602Y0275895D02*
X0140702Y0275895D01*
X0142017Y0291456D02*
X0162968Y0291456D01*
X0162968Y0292055D02*
X0141836Y0292055D01*
X0141533Y0292653D02*
X0162968Y0292653D01*
X0162968Y0293252D02*
X0141062Y0293252D01*
X0141042Y0293850D02*
X0162968Y0293850D01*
X0162968Y0294449D02*
X0141640Y0294449D01*
X0141888Y0295047D02*
X0162968Y0295047D01*
X0162968Y0295646D02*
X0142136Y0295646D01*
X0142218Y0296244D02*
X0162968Y0296244D01*
X0162968Y0296843D02*
X0142218Y0296843D01*
X0142183Y0297441D02*
X0162968Y0297441D01*
X0162968Y0298040D02*
X0141935Y0298040D01*
X0141687Y0298638D02*
X0162968Y0298638D01*
X0162968Y0299237D02*
X0141155Y0299237D01*
X0140537Y0299835D02*
X0162968Y0299835D01*
X0162968Y0300434D02*
X0119148Y0300434D01*
X0117759Y0301032D02*
X0162968Y0301032D01*
X0161693Y0303426D02*
X0118061Y0303426D01*
X0119274Y0304025D02*
X0161445Y0304025D01*
X0161197Y0304623D02*
X0119872Y0304623D01*
X0120316Y0305222D02*
X0151786Y0305222D01*
X0150979Y0305820D02*
X0120564Y0305820D01*
X0120800Y0306419D02*
X0124922Y0306419D01*
X0124830Y0306443D02*
X0125160Y0306355D01*
X0127000Y0306355D01*
X0127000Y0309520D01*
X0124031Y0309520D01*
X0124031Y0307484D01*
X0124120Y0307153D01*
X0124291Y0306857D01*
X0124533Y0306615D01*
X0124830Y0306443D01*
X0124198Y0307017D02*
X0120800Y0307017D01*
X0120800Y0307616D02*
X0124031Y0307616D01*
X0124031Y0308214D02*
X0120687Y0308214D01*
X0120439Y0308813D02*
X0124031Y0308813D01*
X0124031Y0309411D02*
X0120171Y0309411D01*
X0119572Y0310010D02*
X0127000Y0310010D01*
X0127000Y0309411D02*
X0127600Y0309411D01*
X0127600Y0308813D02*
X0127000Y0308813D01*
X0127000Y0308214D02*
X0127600Y0308214D01*
X0127600Y0307616D02*
X0127000Y0307616D01*
X0127000Y0307017D02*
X0127600Y0307017D01*
X0127600Y0306419D02*
X0127000Y0306419D01*
X0129678Y0306419D02*
X0150381Y0306419D01*
X0149782Y0307017D02*
X0130402Y0307017D01*
X0130568Y0307616D02*
X0149184Y0307616D01*
X0148585Y0308214D02*
X0130568Y0308214D01*
X0130568Y0308813D02*
X0147987Y0308813D01*
X0147388Y0309411D02*
X0130568Y0309411D01*
X0130568Y0310608D02*
X0146191Y0310608D01*
X0146790Y0310010D02*
X0127600Y0310010D01*
X0130568Y0311207D02*
X0145593Y0311207D01*
X0144994Y0311805D02*
X0130568Y0311805D01*
X0130502Y0312404D02*
X0144396Y0312404D01*
X0143797Y0313002D02*
X0130090Y0313002D01*
X0130360Y0313601D02*
X0143199Y0313601D01*
X0147146Y0318988D02*
X0196318Y0318988D01*
X0196158Y0319586D02*
X0146547Y0319586D01*
X0145637Y0320185D02*
X0196094Y0320185D01*
X0196094Y0320783D02*
X0118360Y0320783D01*
X0118483Y0313601D02*
X0124240Y0313601D01*
X0124510Y0313002D02*
X0059106Y0313002D01*
X0058507Y0312404D02*
X0124098Y0312404D01*
X0124031Y0311805D02*
X0057909Y0311805D01*
X0057310Y0311207D02*
X0124031Y0311207D01*
X0124031Y0310608D02*
X0118782Y0310608D01*
X0147744Y0318389D02*
X0196479Y0318389D01*
X0196639Y0317791D02*
X0148343Y0317791D01*
X0148942Y0317192D02*
X0196810Y0317192D01*
X0197156Y0316594D02*
X0149540Y0316594D01*
X0150139Y0315995D02*
X0197502Y0315995D01*
X0197847Y0315396D02*
X0150737Y0315396D01*
X0151336Y0314798D02*
X0198236Y0314798D01*
X0196094Y0321382D02*
X0021505Y0321382D01*
X0021505Y0321980D02*
X0196094Y0321980D01*
X0196113Y0322579D02*
X0021487Y0322579D01*
X0021327Y0323177D02*
X0196273Y0323177D01*
X0196434Y0323776D02*
X0021166Y0323776D01*
X0021006Y0324374D02*
X0196594Y0324374D01*
X0196754Y0324973D02*
X0020846Y0324973D01*
X0020541Y0325571D02*
X0197059Y0325571D01*
X0197404Y0326170D02*
X0020196Y0326170D01*
X0042347Y0296244D02*
X0052618Y0296244D01*
X0052618Y0296843D02*
X0042946Y0296843D01*
X0043544Y0297441D02*
X0052654Y0297441D01*
X0052901Y0298040D02*
X0044143Y0298040D01*
X0044741Y0298638D02*
X0053149Y0298638D01*
X0053681Y0299237D02*
X0045340Y0299237D01*
X0045938Y0299835D02*
X0054299Y0299835D01*
X0050128Y0304025D02*
X0079326Y0304025D01*
X0078728Y0304623D02*
X0050726Y0304623D01*
X0051325Y0305222D02*
X0078284Y0305222D01*
X0078036Y0305820D02*
X0051923Y0305820D01*
X0052522Y0306419D02*
X0077800Y0306419D01*
X0077800Y0307017D02*
X0053121Y0307017D01*
X0053719Y0307616D02*
X0077800Y0307616D01*
X0077913Y0308214D02*
X0054318Y0308214D01*
X0054916Y0308813D02*
X0078161Y0308813D01*
X0078429Y0309411D02*
X0055515Y0309411D01*
X0056113Y0310010D02*
X0079028Y0310010D01*
X0079818Y0310608D02*
X0056712Y0310608D01*
X0059704Y0313601D02*
X0080117Y0313601D01*
X0052700Y0295646D02*
X0041749Y0295646D01*
X0041150Y0295047D02*
X0052948Y0295047D01*
X0053196Y0294449D02*
X0040552Y0294449D01*
X0039953Y0293850D02*
X0053794Y0293850D01*
X0053774Y0293252D02*
X0039355Y0293252D01*
X0038756Y0292653D02*
X0053304Y0292653D01*
X0053001Y0292055D02*
X0038158Y0292055D01*
X0046170Y0282067D02*
X0053939Y0282067D01*
X0054169Y0281836D01*
X0053317Y0280983D01*
X0047147Y0280983D01*
X0042430Y0276267D01*
X0041200Y0275037D01*
X0041200Y0257297D01*
X0062200Y0236297D01*
X0062200Y0233709D01*
X0061468Y0233405D01*
X0060061Y0231999D01*
X0059300Y0230161D01*
X0059300Y0228172D01*
X0059300Y0230161D01*
X0058539Y0231999D01*
X0057132Y0233405D01*
X0056400Y0233709D01*
X0056400Y0237037D01*
X0039400Y0254037D01*
X0039400Y0275297D01*
X0046170Y0282067D01*
X0045983Y0281880D02*
X0054126Y0281880D01*
X0053615Y0281281D02*
X0045385Y0281281D01*
X0044786Y0280683D02*
X0046846Y0280683D01*
X0046248Y0280084D02*
X0044188Y0280084D01*
X0043589Y0279486D02*
X0045649Y0279486D01*
X0045051Y0278887D02*
X0042990Y0278887D01*
X0042392Y0278289D02*
X0044452Y0278289D01*
X0043854Y0277690D02*
X0041793Y0277690D01*
X0041195Y0277092D02*
X0043255Y0277092D01*
X0042657Y0276493D02*
X0040596Y0276493D01*
X0039998Y0275895D02*
X0042058Y0275895D01*
X0041460Y0275296D02*
X0039400Y0275296D01*
X0039400Y0274698D02*
X0041200Y0274698D01*
X0041200Y0274099D02*
X0039400Y0274099D01*
X0039400Y0273501D02*
X0041200Y0273501D01*
X0041200Y0272902D02*
X0039400Y0272902D01*
X0039400Y0272304D02*
X0041200Y0272304D01*
X0041200Y0271705D02*
X0039400Y0271705D01*
X0039400Y0271107D02*
X0041200Y0271107D01*
X0041200Y0270508D02*
X0039400Y0270508D01*
X0039400Y0269910D02*
X0041200Y0269910D01*
X0041200Y0269311D02*
X0039400Y0269311D01*
X0039400Y0268713D02*
X0041200Y0268713D01*
X0041200Y0268114D02*
X0039400Y0268114D01*
X0039400Y0267516D02*
X0041200Y0267516D01*
X0041200Y0266917D02*
X0039400Y0266917D01*
X0039400Y0266319D02*
X0041200Y0266319D01*
X0041200Y0265720D02*
X0039400Y0265720D01*
X0039400Y0265122D02*
X0041200Y0265122D01*
X0041200Y0264523D02*
X0039400Y0264523D01*
X0039400Y0263925D02*
X0041200Y0263925D01*
X0041200Y0263326D02*
X0039400Y0263326D01*
X0039400Y0262727D02*
X0041200Y0262727D01*
X0041200Y0262129D02*
X0039400Y0262129D01*
X0039400Y0261530D02*
X0041200Y0261530D01*
X0041200Y0260932D02*
X0039400Y0260932D01*
X0039400Y0260333D02*
X0041200Y0260333D01*
X0041200Y0259735D02*
X0039400Y0259735D01*
X0039400Y0259136D02*
X0041200Y0259136D01*
X0041200Y0258538D02*
X0039400Y0258538D01*
X0039400Y0257939D02*
X0041200Y0257939D01*
X0041200Y0257341D02*
X0039400Y0257341D01*
X0039400Y0256742D02*
X0041754Y0256742D01*
X0042353Y0256144D02*
X0039400Y0256144D01*
X0039400Y0255545D02*
X0042951Y0255545D01*
X0043550Y0254947D02*
X0039400Y0254947D01*
X0039400Y0254348D02*
X0044148Y0254348D01*
X0044747Y0253750D02*
X0039687Y0253750D01*
X0040285Y0253151D02*
X0045345Y0253151D01*
X0045944Y0252553D02*
X0040884Y0252553D01*
X0041482Y0251954D02*
X0046543Y0251954D01*
X0047141Y0251356D02*
X0042081Y0251356D01*
X0042679Y0250757D02*
X0047740Y0250757D01*
X0048338Y0250159D02*
X0043278Y0250159D01*
X0043876Y0249560D02*
X0048937Y0249560D01*
X0049535Y0248962D02*
X0044475Y0248962D01*
X0045073Y0248363D02*
X0050134Y0248363D01*
X0050732Y0247765D02*
X0045672Y0247765D01*
X0046270Y0247166D02*
X0051331Y0247166D01*
X0051929Y0246568D02*
X0046869Y0246568D01*
X0047467Y0245969D02*
X0052528Y0245969D01*
X0053126Y0245371D02*
X0048066Y0245371D01*
X0048664Y0244772D02*
X0053725Y0244772D01*
X0054323Y0244174D02*
X0049263Y0244174D01*
X0049861Y0243575D02*
X0054922Y0243575D01*
X0055520Y0242977D02*
X0050460Y0242977D01*
X0051058Y0242378D02*
X0056119Y0242378D01*
X0056717Y0241780D02*
X0051657Y0241780D01*
X0052255Y0241181D02*
X0057316Y0241181D01*
X0057914Y0240583D02*
X0052854Y0240583D01*
X0053452Y0239984D02*
X0058513Y0239984D01*
X0059111Y0239386D02*
X0054051Y0239386D01*
X0054649Y0238787D02*
X0059710Y0238787D01*
X0060308Y0238189D02*
X0055248Y0238189D01*
X0055846Y0237590D02*
X0060907Y0237590D01*
X0061505Y0236992D02*
X0056400Y0236992D01*
X0056400Y0236393D02*
X0062104Y0236393D01*
X0062200Y0235794D02*
X0056400Y0235794D01*
X0056400Y0235196D02*
X0062200Y0235196D01*
X0062200Y0234597D02*
X0056400Y0234597D01*
X0056400Y0233999D02*
X0062200Y0233999D01*
X0061463Y0233400D02*
X0057137Y0233400D01*
X0057736Y0232802D02*
X0060864Y0232802D01*
X0060266Y0232203D02*
X0058334Y0232203D01*
X0058702Y0231605D02*
X0059898Y0231605D01*
X0059650Y0231006D02*
X0058950Y0231006D01*
X0059198Y0230408D02*
X0059402Y0230408D01*
X0059300Y0229809D02*
X0059300Y0229809D01*
X0059300Y0229211D02*
X0059300Y0229211D01*
X0059300Y0228612D02*
X0059300Y0228612D01*
X0059234Y0228014D02*
X0059366Y0228014D01*
X0059613Y0227415D02*
X0058987Y0227415D01*
X0058739Y0226817D02*
X0059861Y0226817D01*
X0060177Y0226218D02*
X0058423Y0226218D01*
X0057824Y0225620D02*
X0060776Y0225620D01*
X0061374Y0225021D02*
X0057226Y0225021D01*
X0055913Y0224423D02*
X0062687Y0224423D01*
X0065913Y0224423D02*
X0072687Y0224423D01*
X0073305Y0224167D02*
X0075295Y0224167D01*
X0077132Y0224928D01*
X0078539Y0226334D01*
X0079300Y0228172D01*
X0079300Y0230161D01*
X0078539Y0231999D01*
X0077132Y0233405D01*
X0075295Y0234167D01*
X0073305Y0234167D01*
X0071468Y0233405D01*
X0070061Y0231999D01*
X0069300Y0230161D01*
X0069300Y0228172D01*
X0070061Y0226334D01*
X0071468Y0224928D01*
X0073305Y0224167D01*
X0071374Y0225021D02*
X0067226Y0225021D01*
X0067824Y0225620D02*
X0070776Y0225620D01*
X0070177Y0226218D02*
X0068423Y0226218D01*
X0068739Y0226817D02*
X0069861Y0226817D01*
X0069613Y0227415D02*
X0068987Y0227415D01*
X0069234Y0228014D02*
X0069366Y0228014D01*
X0069300Y0228612D02*
X0069300Y0228612D01*
X0069300Y0229211D02*
X0069300Y0229211D01*
X0069300Y0229809D02*
X0069300Y0229809D01*
X0069198Y0230408D02*
X0069402Y0230408D01*
X0069650Y0231006D02*
X0068950Y0231006D01*
X0068702Y0231605D02*
X0069898Y0231605D01*
X0070266Y0232203D02*
X0068334Y0232203D01*
X0067736Y0232802D02*
X0070864Y0232802D01*
X0071463Y0233400D02*
X0067137Y0233400D01*
X0066400Y0233999D02*
X0072901Y0233999D01*
X0075699Y0233999D02*
X0082901Y0233999D01*
X0081463Y0233400D02*
X0077137Y0233400D01*
X0077736Y0232802D02*
X0080864Y0232802D01*
X0080266Y0232203D02*
X0078334Y0232203D01*
X0078702Y0231605D02*
X0079898Y0231605D01*
X0079650Y0231006D02*
X0078950Y0231006D01*
X0079198Y0230408D02*
X0079402Y0230408D01*
X0079300Y0229809D02*
X0079300Y0229809D01*
X0079300Y0229211D02*
X0079300Y0229211D01*
X0079300Y0228612D02*
X0079300Y0228612D01*
X0079234Y0228014D02*
X0079366Y0228014D01*
X0079613Y0227415D02*
X0078987Y0227415D01*
X0078739Y0226817D02*
X0079861Y0226817D01*
X0080177Y0226218D02*
X0078423Y0226218D01*
X0077824Y0225620D02*
X0080776Y0225620D01*
X0081374Y0225021D02*
X0077226Y0225021D01*
X0075913Y0224423D02*
X0082687Y0224423D01*
X0085913Y0224423D02*
X0092687Y0224423D01*
X0091374Y0225021D02*
X0087226Y0225021D01*
X0087824Y0225620D02*
X0090776Y0225620D01*
X0090177Y0226218D02*
X0088423Y0226218D01*
X0088739Y0226817D02*
X0089861Y0226817D01*
X0089613Y0227415D02*
X0088987Y0227415D01*
X0089234Y0228014D02*
X0089366Y0228014D01*
X0089300Y0228172D02*
X0089300Y0230161D01*
X0090061Y0231999D01*
X0091468Y0233405D01*
X0093305Y0234167D01*
X0094330Y0234167D01*
X0095200Y0235037D01*
X0095200Y0238097D01*
X0094170Y0237067D01*
X0088704Y0231601D01*
X0089300Y0230161D01*
X0089300Y0228172D01*
X0089300Y0228612D02*
X0089300Y0228612D01*
X0089300Y0229211D02*
X0089300Y0229211D01*
X0089300Y0229809D02*
X0089300Y0229809D01*
X0089198Y0230408D02*
X0089402Y0230408D01*
X0089650Y0231006D02*
X0088950Y0231006D01*
X0088708Y0231605D02*
X0089898Y0231605D01*
X0090266Y0232203D02*
X0089307Y0232203D01*
X0089905Y0232802D02*
X0090864Y0232802D01*
X0090504Y0233400D02*
X0091463Y0233400D01*
X0091102Y0233999D02*
X0092901Y0233999D01*
X0092299Y0235196D02*
X0095200Y0235196D01*
X0095200Y0235794D02*
X0092898Y0235794D01*
X0093496Y0236393D02*
X0095200Y0236393D01*
X0095200Y0236992D02*
X0094095Y0236992D01*
X0094693Y0237590D02*
X0095200Y0237590D01*
X0094761Y0234597D02*
X0091701Y0234597D01*
X0088754Y0237590D02*
X0066400Y0237590D01*
X0066400Y0236992D02*
X0088155Y0236992D01*
X0087557Y0236393D02*
X0066400Y0236393D01*
X0066400Y0235794D02*
X0086958Y0235794D01*
X0086359Y0235196D02*
X0066400Y0235196D01*
X0066400Y0234597D02*
X0085761Y0234597D01*
X0089352Y0238189D02*
X0066248Y0238189D01*
X0065649Y0238787D02*
X0089951Y0238787D01*
X0090549Y0239386D02*
X0065051Y0239386D01*
X0064452Y0239984D02*
X0091148Y0239984D01*
X0091200Y0240583D02*
X0063854Y0240583D01*
X0063255Y0241181D02*
X0091200Y0241181D01*
X0091200Y0241780D02*
X0062657Y0241780D01*
X0062058Y0242378D02*
X0091200Y0242378D01*
X0099300Y0233197D02*
X0098320Y0232217D01*
X0098539Y0231999D01*
X0099300Y0230161D01*
X0099300Y0228172D01*
X0099300Y0230161D01*
X0100061Y0231999D01*
X0100280Y0232217D01*
X0099300Y0233197D01*
X0098905Y0232802D02*
X0099695Y0232802D01*
X0100266Y0232203D02*
X0098334Y0232203D01*
X0098702Y0231605D02*
X0099898Y0231605D01*
X0099650Y0231006D02*
X0098950Y0231006D01*
X0099198Y0230408D02*
X0099402Y0230408D01*
X0099300Y0229809D02*
X0099300Y0229809D01*
X0099300Y0229211D02*
X0099300Y0229211D01*
X0099300Y0228612D02*
X0099300Y0228612D01*
X0099234Y0228014D02*
X0099366Y0228014D01*
X0099613Y0227415D02*
X0098987Y0227415D01*
X0098739Y0226817D02*
X0099861Y0226817D01*
X0100177Y0226218D02*
X0098423Y0226218D01*
X0097824Y0225620D02*
X0100776Y0225620D01*
X0101374Y0225021D02*
X0097226Y0225021D01*
X0095913Y0224423D02*
X0102687Y0224423D01*
X0103260Y0174148D02*
X0095340Y0174148D01*
X0095295Y0174167D02*
X0093305Y0174167D01*
X0091468Y0173405D01*
X0090061Y0171999D01*
X0089300Y0170161D01*
X0088539Y0171999D01*
X0087132Y0173405D01*
X0085295Y0174167D01*
X0083305Y0174167D01*
X0081468Y0173405D01*
X0080061Y0171999D01*
X0079300Y0170161D01*
X0078539Y0171999D01*
X0077132Y0173405D01*
X0075295Y0174167D01*
X0073305Y0174167D01*
X0071468Y0173405D01*
X0070061Y0171999D01*
X0069300Y0170161D01*
X0068539Y0171999D01*
X0067132Y0173405D01*
X0065295Y0174167D01*
X0063305Y0174167D01*
X0061468Y0173405D01*
X0060061Y0171999D01*
X0059300Y0170161D01*
X0058539Y0171999D01*
X0057132Y0173405D01*
X0055295Y0174167D01*
X0053305Y0174167D01*
X0051468Y0173405D01*
X0050061Y0171999D01*
X0049300Y0170161D01*
X0048539Y0171999D01*
X0047132Y0173405D01*
X0045295Y0174167D01*
X0043305Y0174167D01*
X0041468Y0173405D01*
X0040061Y0171999D01*
X0039300Y0170161D01*
X0038539Y0171999D01*
X0037132Y0173405D01*
X0035295Y0174167D01*
X0033305Y0174167D01*
X0031468Y0173405D01*
X0030061Y0171999D01*
X0029300Y0170161D01*
X0029300Y0168172D01*
X0030061Y0166334D01*
X0031468Y0164928D01*
X0033305Y0164167D01*
X0035295Y0164167D01*
X0037132Y0164928D01*
X0038539Y0166334D01*
X0039300Y0168172D01*
X0039300Y0170161D01*
X0039300Y0168172D01*
X0040061Y0166334D01*
X0041468Y0164928D01*
X0043305Y0164167D01*
X0045295Y0164167D01*
X0047132Y0164928D01*
X0048539Y0166334D01*
X0049300Y0168172D01*
X0049300Y0170161D01*
X0049300Y0168172D01*
X0050061Y0166334D01*
X0051468Y0164928D01*
X0053305Y0164167D01*
X0055295Y0164167D01*
X0057132Y0164928D01*
X0058539Y0166334D01*
X0059300Y0168172D01*
X0059300Y0170161D01*
X0059300Y0168172D01*
X0060061Y0166334D01*
X0061468Y0164928D01*
X0063305Y0164167D01*
X0065295Y0164167D01*
X0067132Y0164928D01*
X0068539Y0166334D01*
X0069300Y0168172D01*
X0069300Y0170161D01*
X0069300Y0168172D01*
X0070061Y0166334D01*
X0071468Y0164928D01*
X0073305Y0164167D01*
X0075295Y0164167D01*
X0077132Y0164928D01*
X0078539Y0166334D01*
X0079300Y0168172D01*
X0079300Y0170161D01*
X0079300Y0168172D01*
X0080061Y0166334D01*
X0081468Y0164928D01*
X0083305Y0164167D01*
X0085295Y0164167D01*
X0087132Y0164928D01*
X0088539Y0166334D01*
X0089300Y0168172D01*
X0089300Y0170161D01*
X0089300Y0168172D01*
X0090061Y0166334D01*
X0091468Y0164928D01*
X0093305Y0164167D01*
X0095295Y0164167D01*
X0097132Y0164928D01*
X0098539Y0166334D01*
X0099300Y0168172D01*
X0099300Y0170161D01*
X0098539Y0171999D01*
X0097132Y0173405D01*
X0095295Y0174167D01*
X0096785Y0173549D02*
X0101815Y0173549D01*
X0101013Y0172951D02*
X0097587Y0172951D01*
X0098185Y0172352D02*
X0100415Y0172352D01*
X0099960Y0171754D02*
X0098640Y0171754D01*
X0098888Y0171155D02*
X0099712Y0171155D01*
X0099464Y0170557D02*
X0099136Y0170557D01*
X0099300Y0169958D02*
X0099300Y0169958D01*
X0099300Y0169360D02*
X0099300Y0169360D01*
X0099300Y0168761D02*
X0099300Y0168761D01*
X0099296Y0168163D02*
X0099304Y0168163D01*
X0099552Y0167564D02*
X0099048Y0167564D01*
X0098800Y0166966D02*
X0099800Y0166966D01*
X0100048Y0166367D02*
X0098552Y0166367D01*
X0097973Y0165769D02*
X0100627Y0165769D01*
X0101225Y0165170D02*
X0097375Y0165170D01*
X0096272Y0164572D02*
X0102200Y0164572D01*
X0102200Y0163973D02*
X0005900Y0163973D01*
X0005900Y0163375D02*
X0102200Y0163375D01*
X0102200Y0162776D02*
X0005900Y0162776D01*
X0005900Y0162178D02*
X0102200Y0162178D01*
X0102200Y0161579D02*
X0005900Y0161579D01*
X0005900Y0160981D02*
X0102200Y0160981D01*
X0102200Y0160382D02*
X0005900Y0160382D01*
X0005900Y0159784D02*
X0102200Y0159784D01*
X0102200Y0159185D02*
X0005900Y0159185D01*
X0005900Y0158587D02*
X0102200Y0158587D01*
X0102200Y0157988D02*
X0005900Y0157988D01*
X0018943Y0164572D02*
X0022305Y0164572D01*
X0022381Y0164533D02*
X0023129Y0164290D01*
X0023906Y0164167D01*
X0024000Y0164167D01*
X0024000Y0168867D01*
X0019300Y0168867D01*
X0019300Y0168773D01*
X0019423Y0167996D01*
X0019666Y0167247D01*
X0020024Y0166546D01*
X0020486Y0165909D01*
X0021043Y0165353D01*
X0021679Y0164890D01*
X0022381Y0164533D01*
X0021294Y0165170D02*
X0019300Y0165170D01*
X0019300Y0165769D02*
X0020627Y0165769D01*
X0020154Y0166367D02*
X0019300Y0166367D01*
X0019300Y0166966D02*
X0019810Y0166966D01*
X0019563Y0167564D02*
X0019300Y0167564D01*
X0019300Y0168163D02*
X0019397Y0168163D01*
X0019300Y0168761D02*
X0019302Y0168761D01*
X0019300Y0169360D02*
X0024000Y0169360D01*
X0024000Y0169467D02*
X0024000Y0168867D01*
X0024600Y0168867D01*
X0024600Y0169467D01*
X0024000Y0169467D01*
X0024000Y0174167D01*
X0023906Y0174167D01*
X0023129Y0174044D01*
X0022381Y0173800D01*
X0021679Y0173443D01*
X0021043Y0172980D01*
X0020486Y0172424D01*
X0020024Y0171787D01*
X0019666Y0171086D01*
X0019423Y0170337D01*
X0019300Y0169560D01*
X0019300Y0169467D01*
X0024000Y0169467D01*
X0024000Y0169958D02*
X0024600Y0169958D01*
X0024600Y0169467D02*
X0024600Y0174167D01*
X0024694Y0174167D01*
X0025471Y0174044D01*
X0026219Y0173800D01*
X0026921Y0173443D01*
X0027557Y0172980D01*
X0028114Y0172424D01*
X0028576Y0171787D01*
X0028934Y0171086D01*
X0029177Y0170337D01*
X0029300Y0169560D01*
X0029300Y0169467D01*
X0024600Y0169467D01*
X0024600Y0169360D02*
X0029300Y0169360D01*
X0029300Y0168867D02*
X0024600Y0168867D01*
X0024600Y0164167D01*
X0024694Y0164167D01*
X0025471Y0164290D01*
X0026219Y0164533D01*
X0026921Y0164890D01*
X0027557Y0165353D01*
X0028114Y0165909D01*
X0028576Y0166546D01*
X0028934Y0167247D01*
X0029177Y0167996D01*
X0029300Y0168773D01*
X0029300Y0168867D01*
X0029298Y0168761D02*
X0029300Y0168761D01*
X0029304Y0168163D02*
X0029203Y0168163D01*
X0029037Y0167564D02*
X0029552Y0167564D01*
X0029800Y0166966D02*
X0028790Y0166966D01*
X0028446Y0166367D02*
X0030048Y0166367D01*
X0030627Y0165769D02*
X0027973Y0165769D01*
X0027306Y0165170D02*
X0031225Y0165170D01*
X0032328Y0164572D02*
X0026295Y0164572D01*
X0024600Y0164572D02*
X0024000Y0164572D01*
X0024000Y0165170D02*
X0024600Y0165170D01*
X0024600Y0165769D02*
X0024000Y0165769D01*
X0024000Y0166367D02*
X0024600Y0166367D01*
X0024600Y0166966D02*
X0024000Y0166966D01*
X0024000Y0167564D02*
X0024600Y0167564D01*
X0024600Y0168163D02*
X0024000Y0168163D01*
X0024000Y0168761D02*
X0024600Y0168761D01*
X0024600Y0170557D02*
X0024000Y0170557D01*
X0024000Y0171155D02*
X0024600Y0171155D01*
X0024600Y0171754D02*
X0024000Y0171754D01*
X0024000Y0172352D02*
X0024600Y0172352D01*
X0024600Y0172951D02*
X0024000Y0172951D01*
X0024000Y0173549D02*
X0024600Y0173549D01*
X0024600Y0174148D02*
X0024000Y0174148D01*
X0023788Y0174148D02*
X0018557Y0174148D01*
X0019156Y0173549D02*
X0021888Y0173549D01*
X0021013Y0172951D02*
X0019300Y0172951D01*
X0019300Y0172352D02*
X0020434Y0172352D01*
X0020007Y0171754D02*
X0019300Y0171754D01*
X0019300Y0171155D02*
X0019702Y0171155D01*
X0019494Y0170557D02*
X0019300Y0170557D01*
X0019300Y0169958D02*
X0019363Y0169958D01*
X0024812Y0174148D02*
X0033260Y0174148D01*
X0031815Y0173549D02*
X0026712Y0173549D01*
X0027587Y0172951D02*
X0031013Y0172951D01*
X0030415Y0172352D02*
X0028166Y0172352D01*
X0028593Y0171754D02*
X0029960Y0171754D01*
X0029712Y0171155D02*
X0028898Y0171155D01*
X0029106Y0170557D02*
X0029464Y0170557D01*
X0029300Y0169958D02*
X0029237Y0169958D01*
X0035340Y0174148D02*
X0043260Y0174148D01*
X0041815Y0173549D02*
X0036785Y0173549D01*
X0037587Y0172951D02*
X0041013Y0172951D01*
X0040415Y0172352D02*
X0038185Y0172352D01*
X0038640Y0171754D02*
X0039960Y0171754D01*
X0039712Y0171155D02*
X0038888Y0171155D01*
X0039136Y0170557D02*
X0039464Y0170557D01*
X0039300Y0169958D02*
X0039300Y0169958D01*
X0039300Y0169360D02*
X0039300Y0169360D01*
X0039300Y0168761D02*
X0039300Y0168761D01*
X0039296Y0168163D02*
X0039304Y0168163D01*
X0039552Y0167564D02*
X0039048Y0167564D01*
X0038800Y0166966D02*
X0039800Y0166966D01*
X0040048Y0166367D02*
X0038552Y0166367D01*
X0037973Y0165769D02*
X0040627Y0165769D01*
X0041225Y0165170D02*
X0037375Y0165170D01*
X0036272Y0164572D02*
X0042328Y0164572D01*
X0046272Y0164572D02*
X0052328Y0164572D01*
X0051225Y0165170D02*
X0047375Y0165170D01*
X0047973Y0165769D02*
X0050627Y0165769D01*
X0050048Y0166367D02*
X0048552Y0166367D01*
X0048800Y0166966D02*
X0049800Y0166966D01*
X0049552Y0167564D02*
X0049048Y0167564D01*
X0049296Y0168163D02*
X0049304Y0168163D01*
X0049300Y0168761D02*
X0049300Y0168761D01*
X0049300Y0169360D02*
X0049300Y0169360D01*
X0049300Y0169958D02*
X0049300Y0169958D01*
X0049136Y0170557D02*
X0049464Y0170557D01*
X0049712Y0171155D02*
X0048888Y0171155D01*
X0048640Y0171754D02*
X0049960Y0171754D01*
X0050415Y0172352D02*
X0048185Y0172352D01*
X0047587Y0172951D02*
X0051013Y0172951D01*
X0051815Y0173549D02*
X0046785Y0173549D01*
X0045340Y0174148D02*
X0053260Y0174148D01*
X0055340Y0174148D02*
X0063260Y0174148D01*
X0061815Y0173549D02*
X0056785Y0173549D01*
X0057587Y0172951D02*
X0061013Y0172951D01*
X0060415Y0172352D02*
X0058185Y0172352D01*
X0058640Y0171754D02*
X0059960Y0171754D01*
X0059712Y0171155D02*
X0058888Y0171155D01*
X0059136Y0170557D02*
X0059464Y0170557D01*
X0059300Y0169958D02*
X0059300Y0169958D01*
X0059300Y0169360D02*
X0059300Y0169360D01*
X0059300Y0168761D02*
X0059300Y0168761D01*
X0059296Y0168163D02*
X0059304Y0168163D01*
X0059552Y0167564D02*
X0059048Y0167564D01*
X0058800Y0166966D02*
X0059800Y0166966D01*
X0060048Y0166367D02*
X0058552Y0166367D01*
X0057973Y0165769D02*
X0060627Y0165769D01*
X0061225Y0165170D02*
X0057375Y0165170D01*
X0056272Y0164572D02*
X0062328Y0164572D01*
X0066272Y0164572D02*
X0072328Y0164572D01*
X0071225Y0165170D02*
X0067375Y0165170D01*
X0067973Y0165769D02*
X0070627Y0165769D01*
X0070048Y0166367D02*
X0068552Y0166367D01*
X0068800Y0166966D02*
X0069800Y0166966D01*
X0069552Y0167564D02*
X0069048Y0167564D01*
X0069296Y0168163D02*
X0069304Y0168163D01*
X0069300Y0168761D02*
X0069300Y0168761D01*
X0069300Y0169360D02*
X0069300Y0169360D01*
X0069300Y0169958D02*
X0069300Y0169958D01*
X0069136Y0170557D02*
X0069464Y0170557D01*
X0069712Y0171155D02*
X0068888Y0171155D01*
X0068640Y0171754D02*
X0069960Y0171754D01*
X0070415Y0172352D02*
X0068185Y0172352D01*
X0067587Y0172951D02*
X0071013Y0172951D01*
X0071815Y0173549D02*
X0066785Y0173549D01*
X0065340Y0174148D02*
X0073260Y0174148D01*
X0075340Y0174148D02*
X0083260Y0174148D01*
X0081815Y0173549D02*
X0076785Y0173549D01*
X0077587Y0172951D02*
X0081013Y0172951D01*
X0080415Y0172352D02*
X0078185Y0172352D01*
X0078640Y0171754D02*
X0079960Y0171754D01*
X0079712Y0171155D02*
X0078888Y0171155D01*
X0079136Y0170557D02*
X0079464Y0170557D01*
X0079300Y0169958D02*
X0079300Y0169958D01*
X0079300Y0169360D02*
X0079300Y0169360D01*
X0079300Y0168761D02*
X0079300Y0168761D01*
X0079296Y0168163D02*
X0079304Y0168163D01*
X0079552Y0167564D02*
X0079048Y0167564D01*
X0078800Y0166966D02*
X0079800Y0166966D01*
X0080048Y0166367D02*
X0078552Y0166367D01*
X0077973Y0165769D02*
X0080627Y0165769D01*
X0081225Y0165170D02*
X0077375Y0165170D01*
X0076272Y0164572D02*
X0082328Y0164572D01*
X0086272Y0164572D02*
X0092328Y0164572D01*
X0091225Y0165170D02*
X0087375Y0165170D01*
X0087973Y0165769D02*
X0090627Y0165769D01*
X0090048Y0166367D02*
X0088552Y0166367D01*
X0088800Y0166966D02*
X0089800Y0166966D01*
X0089552Y0167564D02*
X0089048Y0167564D01*
X0089296Y0168163D02*
X0089304Y0168163D01*
X0089300Y0168761D02*
X0089300Y0168761D01*
X0089300Y0169360D02*
X0089300Y0169360D01*
X0089300Y0169958D02*
X0089300Y0169958D01*
X0089136Y0170557D02*
X0089464Y0170557D01*
X0089712Y0171155D02*
X0088888Y0171155D01*
X0088640Y0171754D02*
X0089960Y0171754D01*
X0090415Y0172352D02*
X0088185Y0172352D01*
X0087587Y0172951D02*
X0091013Y0172951D01*
X0091815Y0173549D02*
X0086785Y0173549D01*
X0085340Y0174148D02*
X0093260Y0174148D01*
X0105340Y0174148D02*
X0113260Y0174148D01*
X0111815Y0173549D02*
X0106785Y0173549D01*
X0107587Y0172951D02*
X0111013Y0172951D01*
X0110415Y0172352D02*
X0108185Y0172352D01*
X0108640Y0171754D02*
X0109960Y0171754D01*
X0109712Y0171155D02*
X0108888Y0171155D01*
X0109136Y0170557D02*
X0109464Y0170557D01*
X0109300Y0169958D02*
X0109300Y0169958D01*
X0109300Y0169360D02*
X0109300Y0169360D01*
X0109300Y0168761D02*
X0109300Y0168761D01*
X0109296Y0168163D02*
X0109304Y0168163D01*
X0109552Y0167564D02*
X0109048Y0167564D01*
X0108800Y0166966D02*
X0109800Y0166966D01*
X0110048Y0166367D02*
X0108552Y0166367D01*
X0107973Y0165769D02*
X0110627Y0165769D01*
X0111225Y0165170D02*
X0107375Y0165170D01*
X0106400Y0164572D02*
X0112328Y0164572D01*
X0116272Y0164572D02*
X0122328Y0164572D01*
X0121225Y0165170D02*
X0117375Y0165170D01*
X0117973Y0165769D02*
X0120627Y0165769D01*
X0120048Y0166367D02*
X0118552Y0166367D01*
X0118800Y0166966D02*
X0119800Y0166966D01*
X0119552Y0167564D02*
X0119048Y0167564D01*
X0119296Y0168163D02*
X0119304Y0168163D01*
X0119300Y0168761D02*
X0119300Y0168761D01*
X0119300Y0169360D02*
X0119300Y0169360D01*
X0119300Y0169958D02*
X0119300Y0169958D01*
X0119136Y0170557D02*
X0119464Y0170557D01*
X0119712Y0171155D02*
X0118888Y0171155D01*
X0118640Y0171754D02*
X0119960Y0171754D01*
X0120415Y0172352D02*
X0118185Y0172352D01*
X0117587Y0172951D02*
X0121013Y0172951D01*
X0121815Y0173549D02*
X0116785Y0173549D01*
X0115340Y0174148D02*
X0123260Y0174148D01*
X0125340Y0174148D02*
X0133260Y0174148D01*
X0131815Y0173549D02*
X0126785Y0173549D01*
X0127587Y0172951D02*
X0131013Y0172951D01*
X0130415Y0172352D02*
X0128185Y0172352D01*
X0128640Y0171754D02*
X0129960Y0171754D01*
X0129712Y0171155D02*
X0128888Y0171155D01*
X0129136Y0170557D02*
X0129464Y0170557D01*
X0129300Y0169958D02*
X0129300Y0169958D01*
X0129300Y0169360D02*
X0129300Y0169360D01*
X0129300Y0168761D02*
X0129300Y0168761D01*
X0129296Y0168163D02*
X0129304Y0168163D01*
X0129552Y0167564D02*
X0129048Y0167564D01*
X0128800Y0166966D02*
X0129800Y0166966D01*
X0130048Y0166367D02*
X0128552Y0166367D01*
X0127973Y0165769D02*
X0130627Y0165769D01*
X0131225Y0165170D02*
X0127375Y0165170D01*
X0126272Y0164572D02*
X0132328Y0164572D01*
X0136272Y0164572D02*
X0142328Y0164572D01*
X0141225Y0165170D02*
X0137375Y0165170D01*
X0137973Y0165769D02*
X0140627Y0165769D01*
X0140048Y0166367D02*
X0138552Y0166367D01*
X0138800Y0166966D02*
X0139800Y0166966D01*
X0139552Y0167564D02*
X0139048Y0167564D01*
X0139296Y0168163D02*
X0139304Y0168163D01*
X0139300Y0168761D02*
X0139300Y0168761D01*
X0139300Y0169360D02*
X0139300Y0169360D01*
X0139300Y0169958D02*
X0139300Y0169958D01*
X0139136Y0170557D02*
X0139464Y0170557D01*
X0139712Y0171155D02*
X0138888Y0171155D01*
X0138640Y0171754D02*
X0139960Y0171754D01*
X0140415Y0172352D02*
X0138185Y0172352D01*
X0137587Y0172951D02*
X0141013Y0172951D01*
X0141815Y0173549D02*
X0136785Y0173549D01*
X0135340Y0174148D02*
X0143260Y0174148D01*
X0145340Y0174148D02*
X0153260Y0174148D01*
X0151815Y0173549D02*
X0146785Y0173549D01*
X0147587Y0172951D02*
X0151013Y0172951D01*
X0150415Y0172352D02*
X0148185Y0172352D01*
X0148640Y0171754D02*
X0149960Y0171754D01*
X0149712Y0171155D02*
X0148888Y0171155D01*
X0149136Y0170557D02*
X0149464Y0170557D01*
X0149300Y0169958D02*
X0149300Y0169958D01*
X0149300Y0169360D02*
X0149300Y0169360D01*
X0149300Y0168761D02*
X0149300Y0168761D01*
X0149296Y0168163D02*
X0149304Y0168163D01*
X0149552Y0167564D02*
X0149048Y0167564D01*
X0148800Y0166966D02*
X0149800Y0166966D01*
X0150048Y0166367D02*
X0148552Y0166367D01*
X0147973Y0165769D02*
X0150627Y0165769D01*
X0151225Y0165170D02*
X0147375Y0165170D01*
X0146272Y0164572D02*
X0152328Y0164572D01*
X0156272Y0164572D02*
X0162328Y0164572D01*
X0161225Y0165170D02*
X0157375Y0165170D01*
X0157973Y0165769D02*
X0160627Y0165769D01*
X0160048Y0166367D02*
X0158552Y0166367D01*
X0158800Y0166966D02*
X0159800Y0166966D01*
X0159552Y0167564D02*
X0159048Y0167564D01*
X0159296Y0168163D02*
X0159304Y0168163D01*
X0159300Y0168761D02*
X0159300Y0168761D01*
X0159300Y0169360D02*
X0159300Y0169360D01*
X0159300Y0169958D02*
X0159300Y0169958D01*
X0159136Y0170557D02*
X0159464Y0170557D01*
X0159712Y0171155D02*
X0158888Y0171155D01*
X0158640Y0171754D02*
X0159960Y0171754D01*
X0160415Y0172352D02*
X0158185Y0172352D01*
X0157587Y0172951D02*
X0161013Y0172951D01*
X0161815Y0173549D02*
X0156785Y0173549D01*
X0155340Y0174148D02*
X0163260Y0174148D01*
X0165340Y0174148D02*
X0173260Y0174148D01*
X0171815Y0173549D02*
X0166785Y0173549D01*
X0167587Y0172951D02*
X0171013Y0172951D01*
X0170415Y0172352D02*
X0168185Y0172352D01*
X0168640Y0171754D02*
X0169960Y0171754D01*
X0169712Y0171155D02*
X0168888Y0171155D01*
X0169136Y0170557D02*
X0169464Y0170557D01*
X0169300Y0169958D02*
X0169300Y0169958D01*
X0169300Y0169360D02*
X0169300Y0169360D01*
X0169300Y0168761D02*
X0169300Y0168761D01*
X0169296Y0168163D02*
X0169304Y0168163D01*
X0169552Y0167564D02*
X0169048Y0167564D01*
X0168800Y0166966D02*
X0169800Y0166966D01*
X0170048Y0166367D02*
X0168552Y0166367D01*
X0167973Y0165769D02*
X0170627Y0165769D01*
X0171225Y0165170D02*
X0167375Y0165170D01*
X0166272Y0164572D02*
X0172328Y0164572D01*
X0170341Y0162178D02*
X0106400Y0162178D01*
X0106400Y0162776D02*
X0208840Y0162776D01*
X0209100Y0163375D02*
X0106400Y0163375D01*
X0106400Y0163973D02*
X0209100Y0163973D01*
X0209100Y0164572D02*
X0206272Y0164572D01*
X0207375Y0165170D02*
X0209100Y0165170D01*
X0209100Y0165769D02*
X0207973Y0165769D01*
X0208552Y0166367D02*
X0209100Y0166367D01*
X0209100Y0166966D02*
X0208800Y0166966D01*
X0209048Y0167564D02*
X0209100Y0167564D01*
X0211690Y0174746D02*
X0211700Y0174746D01*
X0211700Y0175345D02*
X0211092Y0175345D01*
X0210493Y0175943D02*
X0211700Y0175943D01*
X0211700Y0176542D02*
X0209895Y0176542D01*
X0209296Y0177140D02*
X0211700Y0177140D01*
X0211700Y0177739D02*
X0208698Y0177739D01*
X0208099Y0178337D02*
X0211700Y0178337D01*
X0211700Y0178936D02*
X0207501Y0178936D01*
X0206902Y0179534D02*
X0211700Y0179534D01*
X0211700Y0180133D02*
X0206400Y0180133D01*
X0206400Y0180731D02*
X0211700Y0180731D01*
X0211700Y0181330D02*
X0206400Y0181330D01*
X0206400Y0181928D02*
X0211700Y0181928D01*
X0211700Y0182527D02*
X0206400Y0182527D01*
X0206400Y0183125D02*
X0211700Y0183125D01*
X0211700Y0183724D02*
X0206400Y0183724D01*
X0206400Y0184323D02*
X0211700Y0184323D01*
X0211700Y0184921D02*
X0206400Y0184921D01*
X0206400Y0185520D02*
X0211700Y0185520D01*
X0211700Y0186118D02*
X0206400Y0186118D01*
X0206400Y0186717D02*
X0211700Y0186717D01*
X0211700Y0187315D02*
X0206400Y0187315D01*
X0206400Y0187914D02*
X0211700Y0187914D01*
X0211700Y0188512D02*
X0206400Y0188512D01*
X0206400Y0189111D02*
X0211700Y0189111D01*
X0211700Y0189709D02*
X0206400Y0189709D01*
X0206400Y0190308D02*
X0211700Y0190308D01*
X0211700Y0190906D02*
X0206400Y0190906D01*
X0206400Y0191505D02*
X0211700Y0191505D01*
X0211700Y0192103D02*
X0206400Y0192103D01*
X0206400Y0192702D02*
X0211700Y0192702D01*
X0211700Y0193300D02*
X0206400Y0193300D01*
X0206400Y0193899D02*
X0211700Y0193899D01*
X0211700Y0194497D02*
X0206400Y0194497D01*
X0206400Y0195096D02*
X0211700Y0195096D01*
X0211700Y0195694D02*
X0206400Y0195694D01*
X0206400Y0196293D02*
X0211700Y0196293D01*
X0211700Y0196891D02*
X0206400Y0196891D01*
X0206400Y0197490D02*
X0211700Y0197490D01*
X0211700Y0198088D02*
X0206400Y0198088D01*
X0206400Y0198687D02*
X0211700Y0198687D01*
X0211700Y0199285D02*
X0206400Y0199285D01*
X0206400Y0199884D02*
X0211700Y0199884D01*
X0211700Y0200482D02*
X0206400Y0200482D01*
X0206400Y0201081D02*
X0211700Y0201081D01*
X0211700Y0201679D02*
X0206400Y0201679D01*
X0206400Y0202278D02*
X0211700Y0202278D01*
X0211700Y0202876D02*
X0206400Y0202876D01*
X0206400Y0203475D02*
X0211700Y0203475D01*
X0211700Y0204073D02*
X0206400Y0204073D01*
X0206400Y0204672D02*
X0211700Y0204672D01*
X0211700Y0205270D02*
X0206400Y0205270D01*
X0206400Y0205869D02*
X0211700Y0205869D01*
X0211700Y0206467D02*
X0206400Y0206467D01*
X0206400Y0207066D02*
X0211700Y0207066D01*
X0211700Y0207664D02*
X0206400Y0207664D01*
X0206400Y0208263D02*
X0211700Y0208263D01*
X0211700Y0208861D02*
X0206400Y0208861D01*
X0206400Y0209460D02*
X0211700Y0209460D01*
X0211700Y0210059D02*
X0206400Y0210059D01*
X0206400Y0210657D02*
X0211700Y0210657D01*
X0211700Y0211256D02*
X0206400Y0211256D01*
X0206400Y0211854D02*
X0211700Y0211854D01*
X0211700Y0212453D02*
X0206400Y0212453D01*
X0206400Y0213051D02*
X0211700Y0213051D01*
X0211700Y0213650D02*
X0206400Y0213650D01*
X0206400Y0214248D02*
X0211700Y0214248D01*
X0211700Y0214847D02*
X0206400Y0214847D01*
X0206400Y0215445D02*
X0211700Y0215445D01*
X0211700Y0216044D02*
X0206400Y0216044D01*
X0206400Y0216642D02*
X0211700Y0216642D01*
X0211700Y0217241D02*
X0206400Y0217241D01*
X0206400Y0217839D02*
X0211700Y0217839D01*
X0211700Y0218438D02*
X0206400Y0218438D01*
X0206400Y0219036D02*
X0211700Y0219036D01*
X0211700Y0219635D02*
X0206400Y0219635D01*
X0206400Y0220233D02*
X0211700Y0220233D01*
X0211700Y0220832D02*
X0206400Y0220832D01*
X0206400Y0221430D02*
X0211700Y0221430D01*
X0211700Y0222029D02*
X0206400Y0222029D01*
X0206400Y0222627D02*
X0211700Y0222627D01*
X0211700Y0223226D02*
X0206400Y0223226D01*
X0206400Y0223824D02*
X0211700Y0223824D01*
X0203260Y0174148D02*
X0195340Y0174148D01*
X0196785Y0173549D02*
X0201815Y0173549D01*
X0201013Y0172951D02*
X0197587Y0172951D01*
X0198185Y0172352D02*
X0200415Y0172352D01*
X0199960Y0171754D02*
X0198640Y0171754D01*
X0198888Y0171155D02*
X0199712Y0171155D01*
X0199464Y0170557D02*
X0199136Y0170557D01*
X0199300Y0169958D02*
X0199300Y0169958D01*
X0199300Y0169360D02*
X0199300Y0169360D01*
X0199300Y0168761D02*
X0199300Y0168761D01*
X0199296Y0168163D02*
X0199304Y0168163D01*
X0199552Y0167564D02*
X0199048Y0167564D01*
X0198800Y0166966D02*
X0199800Y0166966D01*
X0200048Y0166367D02*
X0198552Y0166367D01*
X0197973Y0165769D02*
X0200627Y0165769D01*
X0201225Y0165170D02*
X0197375Y0165170D01*
X0196272Y0164572D02*
X0202328Y0164572D01*
X0201793Y0156935D02*
X0201031Y0156174D01*
X0201031Y0149160D01*
X0201793Y0148398D01*
X0208807Y0148398D01*
X0209568Y0149160D01*
X0209568Y0156174D01*
X0208807Y0156935D01*
X0201793Y0156935D01*
X0201649Y0156791D02*
X0196497Y0156791D01*
X0196149Y0156935D02*
X0194451Y0156935D01*
X0192882Y0156285D01*
X0191681Y0155085D01*
X0191031Y0153516D01*
X0191031Y0151818D01*
X0191681Y0150249D01*
X0192882Y0149048D01*
X0194451Y0148398D01*
X0196149Y0148398D01*
X0197718Y0149048D01*
X0198919Y0150249D01*
X0199568Y0151818D01*
X0199568Y0153516D01*
X0198919Y0155085D01*
X0197718Y0156285D01*
X0196149Y0156935D01*
X0197811Y0156192D02*
X0201050Y0156192D01*
X0201031Y0155594D02*
X0198409Y0155594D01*
X0198956Y0154995D02*
X0201031Y0154995D01*
X0201031Y0154397D02*
X0199203Y0154397D01*
X0199451Y0153798D02*
X0201031Y0153798D01*
X0201031Y0153200D02*
X0199568Y0153200D01*
X0199568Y0152601D02*
X0201031Y0152601D01*
X0201031Y0152003D02*
X0199568Y0152003D01*
X0199397Y0151404D02*
X0201031Y0151404D01*
X0201031Y0150806D02*
X0199149Y0150806D01*
X0198877Y0150207D02*
X0201031Y0150207D01*
X0201031Y0149609D02*
X0198279Y0149609D01*
X0197627Y0149010D02*
X0201181Y0149010D01*
X0201779Y0148412D02*
X0196182Y0148412D01*
X0194418Y0148412D02*
X0186182Y0148412D01*
X0186149Y0148398D02*
X0187718Y0149048D01*
X0188919Y0150249D01*
X0189568Y0151818D01*
X0189568Y0153516D01*
X0188919Y0155085D01*
X0187718Y0156285D01*
X0186149Y0156935D01*
X0184451Y0156935D01*
X0182882Y0156285D01*
X0181681Y0155085D01*
X0181031Y0153516D01*
X0181031Y0151818D01*
X0181681Y0150249D01*
X0182882Y0149048D01*
X0184451Y0148398D01*
X0186149Y0148398D01*
X0187627Y0149010D02*
X0192973Y0149010D01*
X0192321Y0149609D02*
X0188279Y0149609D01*
X0188877Y0150207D02*
X0191723Y0150207D01*
X0191451Y0150806D02*
X0189149Y0150806D01*
X0189397Y0151404D02*
X0191203Y0151404D01*
X0191031Y0152003D02*
X0189568Y0152003D01*
X0189568Y0152601D02*
X0191031Y0152601D01*
X0191031Y0153200D02*
X0189568Y0153200D01*
X0189451Y0153798D02*
X0191149Y0153798D01*
X0191397Y0154397D02*
X0189203Y0154397D01*
X0188956Y0154995D02*
X0191644Y0154995D01*
X0192191Y0155594D02*
X0188409Y0155594D01*
X0187811Y0156192D02*
X0192789Y0156192D01*
X0194103Y0156791D02*
X0186497Y0156791D01*
X0184103Y0156791D02*
X0176420Y0156791D01*
X0176300Y0156830D02*
X0175636Y0156935D01*
X0175600Y0156935D01*
X0175600Y0152967D01*
X0175000Y0152967D01*
X0175000Y0156935D01*
X0174964Y0156935D01*
X0174300Y0156830D01*
X0173661Y0156622D01*
X0173063Y0156317D01*
X0172519Y0155922D01*
X0172044Y0155447D01*
X0171649Y0154904D01*
X0171344Y0154305D01*
X0171137Y0153666D01*
X0171031Y0153003D01*
X0171031Y0152967D01*
X0175000Y0152967D01*
X0175000Y0152367D01*
X0171031Y0152367D01*
X0171031Y0152331D01*
X0171137Y0151667D01*
X0171344Y0151028D01*
X0171649Y0150429D01*
X0172044Y0149886D01*
X0172519Y0149411D01*
X0173063Y0149016D01*
X0173661Y0148711D01*
X0174300Y0148503D01*
X0174964Y0148398D01*
X0175000Y0148398D01*
X0175000Y0152367D01*
X0175600Y0152367D01*
X0175600Y0152967D01*
X0179568Y0152967D01*
X0179568Y0153003D01*
X0179463Y0153666D01*
X0179256Y0154305D01*
X0178951Y0154904D01*
X0178556Y0155447D01*
X0178081Y0155922D01*
X0177537Y0156317D01*
X0176939Y0156622D01*
X0176300Y0156830D01*
X0175600Y0156791D02*
X0175000Y0156791D01*
X0175000Y0156192D02*
X0175600Y0156192D01*
X0175600Y0155594D02*
X0175000Y0155594D01*
X0175000Y0154995D02*
X0175600Y0154995D01*
X0175600Y0154397D02*
X0175000Y0154397D01*
X0175000Y0153798D02*
X0175600Y0153798D01*
X0175600Y0153200D02*
X0175000Y0153200D01*
X0175000Y0152601D02*
X0169568Y0152601D01*
X0169568Y0152003D02*
X0171083Y0152003D01*
X0171222Y0151404D02*
X0169397Y0151404D01*
X0169149Y0150806D02*
X0171457Y0150806D01*
X0171811Y0150207D02*
X0168877Y0150207D01*
X0168279Y0149609D02*
X0172321Y0149609D01*
X0173074Y0149010D02*
X0167627Y0149010D01*
X0166182Y0148412D02*
X0174878Y0148412D01*
X0175000Y0148412D02*
X0175600Y0148412D01*
X0175600Y0148398D02*
X0175636Y0148398D01*
X0176300Y0148503D01*
X0176939Y0148711D01*
X0177537Y0149016D01*
X0178081Y0149411D01*
X0178556Y0149886D01*
X0178951Y0150429D01*
X0179256Y0151028D01*
X0179463Y0151667D01*
X0179568Y0152331D01*
X0179568Y0152367D01*
X0175600Y0152367D01*
X0175600Y0148398D01*
X0175722Y0148412D02*
X0184418Y0148412D01*
X0182973Y0149010D02*
X0177526Y0149010D01*
X0178279Y0149609D02*
X0182321Y0149609D01*
X0181723Y0150207D02*
X0178789Y0150207D01*
X0179143Y0150806D02*
X0181451Y0150806D01*
X0181203Y0151404D02*
X0179378Y0151404D01*
X0179517Y0152003D02*
X0181031Y0152003D01*
X0181031Y0152601D02*
X0175600Y0152601D01*
X0175600Y0152003D02*
X0175000Y0152003D01*
X0175000Y0151404D02*
X0175600Y0151404D01*
X0175600Y0150806D02*
X0175000Y0150806D01*
X0175000Y0150207D02*
X0175600Y0150207D01*
X0175600Y0149609D02*
X0175000Y0149609D01*
X0175000Y0149010D02*
X0175600Y0149010D01*
X0179537Y0153200D02*
X0181031Y0153200D01*
X0181149Y0153798D02*
X0179420Y0153798D01*
X0179209Y0154397D02*
X0181397Y0154397D01*
X0181644Y0154995D02*
X0178884Y0154995D01*
X0178409Y0155594D02*
X0182191Y0155594D01*
X0182789Y0156192D02*
X0177709Y0156192D01*
X0174180Y0156791D02*
X0170894Y0156791D01*
X0170296Y0156192D02*
X0172891Y0156192D01*
X0172191Y0155594D02*
X0169697Y0155594D01*
X0169099Y0154995D02*
X0171716Y0154995D01*
X0171391Y0154397D02*
X0169203Y0154397D01*
X0169451Y0153798D02*
X0171180Y0153798D01*
X0171063Y0153200D02*
X0169568Y0153200D01*
X0171493Y0157390D02*
X0211700Y0157390D01*
X0211700Y0157988D02*
X0172091Y0157988D01*
X0169144Y0160981D02*
X0106400Y0160981D01*
X0106400Y0161579D02*
X0169743Y0161579D01*
X0168546Y0160382D02*
X0106400Y0160382D01*
X0106400Y0159784D02*
X0167947Y0159784D01*
X0167349Y0159185D02*
X0106400Y0159185D01*
X0106400Y0158587D02*
X0166750Y0158587D01*
X0166152Y0157988D02*
X0106400Y0157988D01*
X0106400Y0157390D02*
X0165553Y0157390D01*
X0164103Y0156791D02*
X0156497Y0156791D01*
X0156149Y0156935D02*
X0154451Y0156935D01*
X0152882Y0156285D01*
X0151681Y0155085D01*
X0151031Y0153516D01*
X0151031Y0151818D01*
X0151681Y0150249D01*
X0152882Y0149048D01*
X0154451Y0148398D01*
X0156149Y0148398D01*
X0157718Y0149048D01*
X0158919Y0150249D01*
X0159568Y0151818D01*
X0159568Y0153516D01*
X0158919Y0155085D01*
X0157718Y0156285D01*
X0156149Y0156935D01*
X0157811Y0156192D02*
X0162789Y0156192D01*
X0162191Y0155594D02*
X0158409Y0155594D01*
X0158956Y0154995D02*
X0161644Y0154995D01*
X0161397Y0154397D02*
X0159203Y0154397D01*
X0159451Y0153798D02*
X0161149Y0153798D01*
X0161031Y0153200D02*
X0159568Y0153200D01*
X0159568Y0152601D02*
X0161031Y0152601D01*
X0161031Y0152003D02*
X0159568Y0152003D01*
X0159397Y0151404D02*
X0161203Y0151404D01*
X0161451Y0150806D02*
X0159149Y0150806D01*
X0158877Y0150207D02*
X0161723Y0150207D01*
X0162321Y0149609D02*
X0158279Y0149609D01*
X0157627Y0149010D02*
X0162973Y0149010D01*
X0164418Y0148412D02*
X0156182Y0148412D01*
X0154418Y0148412D02*
X0107568Y0148412D01*
X0107568Y0149010D02*
X0152973Y0149010D01*
X0152321Y0149609D02*
X0107484Y0149609D01*
X0106967Y0150207D02*
X0151723Y0150207D01*
X0151451Y0150806D02*
X0107565Y0150806D01*
X0107568Y0151404D02*
X0151203Y0151404D01*
X0151031Y0152003D02*
X0107568Y0152003D01*
X0107568Y0152601D02*
X0151031Y0152601D01*
X0151031Y0153200D02*
X0107568Y0153200D01*
X0107568Y0153798D02*
X0151149Y0153798D01*
X0151397Y0154397D02*
X0107568Y0154397D01*
X0107568Y0154995D02*
X0151644Y0154995D01*
X0152191Y0155594D02*
X0107568Y0155594D01*
X0107568Y0156192D02*
X0152789Y0156192D01*
X0154103Y0156791D02*
X0106994Y0156791D01*
X0102200Y0157390D02*
X0081916Y0157390D01*
X0082100Y0157205D02*
X0081338Y0157967D01*
X0073262Y0157967D01*
X0072500Y0157205D01*
X0072500Y0149128D01*
X0073262Y0148367D01*
X0081338Y0148367D01*
X0082100Y0149128D01*
X0082100Y0157205D01*
X0082100Y0156791D02*
X0101606Y0156791D01*
X0101031Y0156192D02*
X0082100Y0156192D01*
X0082100Y0155594D02*
X0101031Y0155594D01*
X0101031Y0154995D02*
X0082100Y0154995D01*
X0082100Y0154397D02*
X0101031Y0154397D01*
X0101031Y0153798D02*
X0082100Y0153798D01*
X0082100Y0153200D02*
X0101031Y0153200D01*
X0101031Y0152601D02*
X0082100Y0152601D01*
X0082100Y0152003D02*
X0101031Y0152003D01*
X0101031Y0151404D02*
X0082100Y0151404D01*
X0082100Y0150806D02*
X0101035Y0150806D01*
X0101633Y0150207D02*
X0082100Y0150207D01*
X0082100Y0149609D02*
X0101116Y0149609D01*
X0101031Y0149010D02*
X0081982Y0149010D01*
X0081384Y0148412D02*
X0101031Y0148412D01*
X0106411Y0143025D02*
X0111749Y0143025D01*
X0111151Y0142427D02*
X0107010Y0142427D01*
X0107608Y0141828D02*
X0110552Y0141828D01*
X0109954Y0141230D02*
X0108207Y0141230D01*
X0108805Y0140631D02*
X0109355Y0140631D01*
X0107076Y0143624D02*
X0112348Y0143624D01*
X0107568Y0144222D02*
X0211700Y0144222D01*
X0211700Y0143624D02*
X0118252Y0143624D01*
X0118851Y0143025D02*
X0211700Y0143025D01*
X0211700Y0142427D02*
X0119449Y0142427D01*
X0120048Y0141828D02*
X0211700Y0141828D01*
X0211700Y0141230D02*
X0120646Y0141230D01*
X0121245Y0140631D02*
X0211700Y0140631D01*
X0211700Y0140033D02*
X0121600Y0140033D01*
X0121600Y0139434D02*
X0211700Y0139434D01*
X0211700Y0138836D02*
X0121600Y0138836D01*
X0121600Y0138237D02*
X0211700Y0138237D01*
X0211700Y0137639D02*
X0121600Y0137639D01*
X0121600Y0137040D02*
X0211700Y0137040D01*
X0211700Y0136442D02*
X0121600Y0136442D01*
X0121600Y0135843D02*
X0211700Y0135843D01*
X0211700Y0135245D02*
X0121600Y0135245D01*
X0121189Y0134646D02*
X0211700Y0134646D01*
X0211700Y0134048D02*
X0120590Y0134048D01*
X0119992Y0133449D02*
X0211700Y0133449D01*
X0211700Y0132851D02*
X0119393Y0132851D01*
X0118795Y0132252D02*
X0211700Y0132252D01*
X0211700Y0131654D02*
X0118196Y0131654D01*
X0107568Y0144821D02*
X0211700Y0144821D01*
X0211700Y0145419D02*
X0107568Y0145419D01*
X0107568Y0146018D02*
X0211700Y0146018D01*
X0211700Y0146616D02*
X0107568Y0146616D01*
X0107568Y0147215D02*
X0211700Y0147215D01*
X0211700Y0147813D02*
X0107568Y0147813D01*
X0115000Y0113698D02*
X0115600Y0113698D01*
X0115600Y0113100D02*
X0115000Y0113100D01*
X0115000Y0112501D02*
X0115600Y0112501D01*
X0115600Y0111903D02*
X0115000Y0111903D01*
X0115000Y0111304D02*
X0115600Y0111304D01*
X0115600Y0110706D02*
X0115000Y0110706D01*
X0115000Y0110107D02*
X0115600Y0110107D01*
X0115600Y0109509D02*
X0115000Y0109509D01*
X0115000Y0108910D02*
X0115600Y0108910D01*
X0115600Y0107115D02*
X0115000Y0107115D01*
X0115000Y0106516D02*
X0115600Y0106516D01*
X0115600Y0105918D02*
X0115000Y0105918D01*
X0115000Y0105319D02*
X0115600Y0105319D01*
X0115600Y0104721D02*
X0115000Y0104721D01*
X0115000Y0104122D02*
X0115600Y0104122D01*
X0115600Y0103523D02*
X0115000Y0103523D01*
X0115000Y0102925D02*
X0115600Y0102925D01*
X0115600Y0102326D02*
X0115000Y0102326D01*
X0115000Y0101728D02*
X0115600Y0101728D01*
X0118271Y0101728D02*
X0197727Y0101728D01*
X0198072Y0102326D02*
X0118869Y0102326D01*
X0119468Y0102925D02*
X0198626Y0102925D01*
X0199224Y0103523D02*
X0120066Y0103523D01*
X0120665Y0104122D02*
X0199823Y0104122D01*
X0200705Y0104721D02*
X0121263Y0104721D01*
X0121600Y0105319D02*
X0201741Y0105319D01*
X0203260Y0105918D02*
X0121600Y0105918D01*
X0112329Y0101728D02*
X0086545Y0101728D01*
X0086650Y0102326D02*
X0111731Y0102326D01*
X0111132Y0102925D02*
X0086563Y0102925D01*
X0086458Y0103523D02*
X0110534Y0103523D01*
X0109935Y0104122D02*
X0086366Y0104122D01*
X0086247Y0104721D02*
X0109337Y0104721D01*
X0109000Y0105319D02*
X0086141Y0105319D01*
X0086036Y0105918D02*
X0109000Y0105918D01*
X0109000Y0106516D02*
X0085930Y0106516D01*
X0085631Y0107115D02*
X0109000Y0107115D01*
X0086439Y0101129D02*
X0197381Y0101129D01*
X0197035Y0100531D02*
X0086337Y0100531D01*
X0086228Y0099932D02*
X0196744Y0099932D01*
X0196583Y0099334D02*
X0086123Y0099334D01*
X0086017Y0098735D02*
X0196423Y0098735D01*
X0196262Y0098137D02*
X0085912Y0098137D01*
X0085570Y0097538D02*
X0196102Y0097538D01*
X0196094Y0096940D02*
X0085224Y0096940D01*
X0084879Y0096341D02*
X0196094Y0096341D01*
X0196094Y0095743D02*
X0084533Y0095743D01*
X0084187Y0095144D02*
X0196094Y0095144D01*
X0196169Y0094546D02*
X0083842Y0094546D01*
X0083225Y0093947D02*
X0196329Y0093947D01*
X0196490Y0093349D02*
X0082512Y0093349D01*
X0081817Y0092750D02*
X0196650Y0092750D01*
X0196834Y0092152D02*
X0081085Y0092152D01*
X0080277Y0091553D02*
X0197179Y0091553D01*
X0197525Y0090955D02*
X0078633Y0090955D01*
X0069826Y0090955D02*
X0020075Y0090955D01*
X0020421Y0091553D02*
X0068181Y0091553D01*
X0071338Y0148367D02*
X0063262Y0148367D01*
X0062500Y0149128D01*
X0062500Y0157205D01*
X0063262Y0157967D01*
X0071338Y0157967D01*
X0072100Y0157205D01*
X0072100Y0149128D01*
X0071338Y0148367D01*
X0071384Y0148412D02*
X0073216Y0148412D01*
X0072618Y0149010D02*
X0071982Y0149010D01*
X0072100Y0149609D02*
X0072500Y0149609D01*
X0072500Y0150207D02*
X0072100Y0150207D01*
X0072100Y0150806D02*
X0072500Y0150806D01*
X0072500Y0151404D02*
X0072100Y0151404D01*
X0072100Y0152003D02*
X0072500Y0152003D01*
X0072500Y0152601D02*
X0072100Y0152601D01*
X0072100Y0153200D02*
X0072500Y0153200D01*
X0072500Y0153798D02*
X0072100Y0153798D01*
X0072100Y0154397D02*
X0072500Y0154397D01*
X0072500Y0154995D02*
X0072100Y0154995D01*
X0072100Y0155594D02*
X0072500Y0155594D01*
X0072500Y0156192D02*
X0072100Y0156192D01*
X0072100Y0156791D02*
X0072500Y0156791D01*
X0072684Y0157390D02*
X0071916Y0157390D01*
X0062684Y0157390D02*
X0061884Y0157390D01*
X0061840Y0157465D02*
X0061598Y0157707D01*
X0061302Y0157878D01*
X0060971Y0157967D01*
X0057600Y0157967D01*
X0057600Y0153467D01*
X0057000Y0153467D01*
X0057000Y0157967D01*
X0053629Y0157967D01*
X0053298Y0157878D01*
X0053002Y0157707D01*
X0052760Y0157465D01*
X0052589Y0157168D01*
X0052500Y0156838D01*
X0052500Y0153467D01*
X0057000Y0153467D01*
X0057000Y0152867D01*
X0052500Y0152867D01*
X0052500Y0149495D01*
X0052589Y0149165D01*
X0052760Y0148868D01*
X0053002Y0148626D01*
X0053298Y0148455D01*
X0053629Y0148367D01*
X0057000Y0148367D01*
X0057000Y0152867D01*
X0057600Y0152867D01*
X0057600Y0153467D01*
X0062100Y0153467D01*
X0062100Y0156838D01*
X0062011Y0157168D01*
X0061840Y0157465D01*
X0062100Y0156791D02*
X0062500Y0156791D01*
X0062500Y0156192D02*
X0062100Y0156192D01*
X0062100Y0155594D02*
X0062500Y0155594D01*
X0062500Y0154995D02*
X0062100Y0154995D01*
X0062100Y0154397D02*
X0062500Y0154397D01*
X0062500Y0153798D02*
X0062100Y0153798D01*
X0062500Y0153200D02*
X0057600Y0153200D01*
X0057600Y0152867D02*
X0062100Y0152867D01*
X0062100Y0149495D01*
X0062011Y0149165D01*
X0061840Y0148868D01*
X0061598Y0148626D01*
X0061302Y0148455D01*
X0060971Y0148367D01*
X0057600Y0148367D01*
X0057600Y0152867D01*
X0057600Y0152601D02*
X0057000Y0152601D01*
X0057000Y0152003D02*
X0057600Y0152003D01*
X0057600Y0151404D02*
X0057000Y0151404D01*
X0057000Y0150806D02*
X0057600Y0150806D01*
X0057600Y0150207D02*
X0057000Y0150207D01*
X0057000Y0149609D02*
X0057600Y0149609D01*
X0057600Y0149010D02*
X0057000Y0149010D01*
X0057000Y0148412D02*
X0057600Y0148412D01*
X0061140Y0148412D02*
X0063216Y0148412D01*
X0062618Y0149010D02*
X0061922Y0149010D01*
X0062100Y0149609D02*
X0062500Y0149609D01*
X0062500Y0150207D02*
X0062100Y0150207D01*
X0062100Y0150806D02*
X0062500Y0150806D01*
X0062500Y0151404D02*
X0062100Y0151404D01*
X0062100Y0152003D02*
X0062500Y0152003D01*
X0062500Y0152601D02*
X0062100Y0152601D01*
X0057600Y0153798D02*
X0057000Y0153798D01*
X0057000Y0153200D02*
X0052100Y0153200D01*
X0052100Y0153798D02*
X0052500Y0153798D01*
X0052500Y0154397D02*
X0052100Y0154397D01*
X0052100Y0154995D02*
X0052500Y0154995D01*
X0052500Y0155594D02*
X0052100Y0155594D01*
X0052100Y0156192D02*
X0052500Y0156192D01*
X0052500Y0156791D02*
X0052100Y0156791D01*
X0052100Y0157205D02*
X0051338Y0157967D01*
X0043262Y0157967D01*
X0042500Y0157205D01*
X0042500Y0149128D01*
X0043262Y0148367D01*
X0051338Y0148367D01*
X0052100Y0149128D01*
X0052100Y0157205D01*
X0051916Y0157390D02*
X0052716Y0157390D01*
X0057000Y0157390D02*
X0057600Y0157390D01*
X0057600Y0156791D02*
X0057000Y0156791D01*
X0057000Y0156192D02*
X0057600Y0156192D01*
X0057600Y0155594D02*
X0057000Y0155594D01*
X0057000Y0154995D02*
X0057600Y0154995D01*
X0057600Y0154397D02*
X0057000Y0154397D01*
X0052500Y0152601D02*
X0052100Y0152601D01*
X0052100Y0152003D02*
X0052500Y0152003D01*
X0052500Y0151404D02*
X0052100Y0151404D01*
X0052100Y0150806D02*
X0052500Y0150806D01*
X0052500Y0150207D02*
X0052100Y0150207D01*
X0052100Y0149609D02*
X0052500Y0149609D01*
X0052678Y0149010D02*
X0051982Y0149010D01*
X0051384Y0148412D02*
X0053460Y0148412D01*
X0043216Y0148412D02*
X0041384Y0148412D01*
X0041338Y0148367D02*
X0042100Y0149128D01*
X0042100Y0157205D01*
X0041338Y0157967D01*
X0033262Y0157967D01*
X0032500Y0157205D01*
X0032500Y0149128D01*
X0033262Y0148367D01*
X0041338Y0148367D01*
X0041982Y0149010D02*
X0042618Y0149010D01*
X0042500Y0149609D02*
X0042100Y0149609D01*
X0042100Y0150207D02*
X0042500Y0150207D01*
X0042500Y0150806D02*
X0042100Y0150806D01*
X0042100Y0151404D02*
X0042500Y0151404D01*
X0042500Y0152003D02*
X0042100Y0152003D01*
X0042100Y0152601D02*
X0042500Y0152601D01*
X0042500Y0153200D02*
X0042100Y0153200D01*
X0042100Y0153798D02*
X0042500Y0153798D01*
X0042500Y0154397D02*
X0042100Y0154397D01*
X0042100Y0154995D02*
X0042500Y0154995D01*
X0042500Y0155594D02*
X0042100Y0155594D01*
X0042100Y0156192D02*
X0042500Y0156192D01*
X0042500Y0156791D02*
X0042100Y0156791D01*
X0041916Y0157390D02*
X0042684Y0157390D01*
X0032684Y0157390D02*
X0031916Y0157390D01*
X0032100Y0157205D02*
X0031338Y0157967D01*
X0023262Y0157967D01*
X0022500Y0157205D01*
X0022500Y0149128D01*
X0023262Y0148367D01*
X0031338Y0148367D01*
X0032100Y0149128D01*
X0032100Y0157205D01*
X0032100Y0156791D02*
X0032500Y0156791D01*
X0032500Y0156192D02*
X0032100Y0156192D01*
X0032100Y0155594D02*
X0032500Y0155594D01*
X0032500Y0154995D02*
X0032100Y0154995D01*
X0032100Y0154397D02*
X0032500Y0154397D01*
X0032500Y0153798D02*
X0032100Y0153798D01*
X0032100Y0153200D02*
X0032500Y0153200D01*
X0032500Y0152601D02*
X0032100Y0152601D01*
X0032100Y0152003D02*
X0032500Y0152003D01*
X0032500Y0151404D02*
X0032100Y0151404D01*
X0032100Y0150806D02*
X0032500Y0150806D01*
X0032500Y0150207D02*
X0032100Y0150207D01*
X0032100Y0149609D02*
X0032500Y0149609D01*
X0032618Y0149010D02*
X0031982Y0149010D01*
X0031384Y0148412D02*
X0033216Y0148412D01*
X0023216Y0148412D02*
X0021384Y0148412D01*
X0021982Y0149010D02*
X0022618Y0149010D01*
X0022500Y0149609D02*
X0022100Y0149609D01*
X0022100Y0150207D02*
X0022500Y0150207D01*
X0022500Y0150806D02*
X0022100Y0150806D01*
X0022100Y0151404D02*
X0022500Y0151404D01*
X0022500Y0152003D02*
X0022100Y0152003D01*
X0022100Y0152601D02*
X0022500Y0152601D01*
X0022500Y0153200D02*
X0022100Y0153200D01*
X0022100Y0153798D02*
X0022500Y0153798D01*
X0022500Y0154397D02*
X0022100Y0154397D01*
X0022100Y0154995D02*
X0022500Y0154995D01*
X0022500Y0155594D02*
X0022100Y0155594D01*
X0022100Y0156192D02*
X0022500Y0156192D01*
X0022500Y0156791D02*
X0022100Y0156791D01*
X0021916Y0157390D02*
X0022684Y0157390D01*
X0006741Y0105319D02*
X0005900Y0105319D01*
X0045400Y0263326D02*
X0055532Y0263326D01*
X0054192Y0263925D02*
X0045400Y0263925D01*
X0045400Y0264523D02*
X0053593Y0264523D01*
X0053113Y0265122D02*
X0045400Y0265122D01*
X0045400Y0265720D02*
X0052865Y0265720D01*
X0052618Y0266319D02*
X0045400Y0266319D01*
X0045400Y0266917D02*
X0052618Y0266917D01*
X0052618Y0267516D02*
X0045400Y0267516D01*
X0045400Y0268114D02*
X0052737Y0268114D01*
X0052985Y0268713D02*
X0045400Y0268713D01*
X0045400Y0269311D02*
X0053283Y0269311D01*
X0053882Y0269910D02*
X0045400Y0269910D01*
X0045400Y0270508D02*
X0053686Y0270508D01*
X0053212Y0271107D02*
X0045400Y0271107D01*
X0045400Y0271705D02*
X0052964Y0271705D01*
X0052740Y0272304D02*
X0045400Y0272304D01*
X0045400Y0272902D02*
X0052740Y0272902D01*
X0052740Y0273501D02*
X0045604Y0273501D01*
X0046202Y0274099D02*
X0052902Y0274099D01*
X0053150Y0274698D02*
X0046801Y0274698D01*
X0047399Y0275296D02*
X0053535Y0275296D01*
X0054134Y0275895D02*
X0047998Y0275895D01*
X0048596Y0276493D02*
X0053607Y0276493D01*
X0151934Y0314199D02*
X0163742Y0314199D01*
X0162634Y0313601D02*
X0152533Y0313601D01*
X0153131Y0313002D02*
X0162036Y0313002D01*
X0161640Y0312404D02*
X0153730Y0312404D01*
X0154328Y0311805D02*
X0161392Y0311805D01*
X0166393Y0314199D02*
X0171616Y0314199D01*
X0170527Y0313601D02*
X0167501Y0313601D01*
X0168100Y0313002D02*
X0169917Y0313002D01*
X0169517Y0312404D02*
X0168496Y0312404D01*
X0168744Y0311805D02*
X0169266Y0311805D01*
X0169121Y0311207D02*
X0168943Y0311207D01*
X0168943Y0310608D02*
X0169067Y0310608D01*
X0169067Y0310010D02*
X0168943Y0310010D01*
X0168943Y0309411D02*
X0169067Y0309411D01*
X0169067Y0308813D02*
X0168943Y0308813D01*
X0172642Y0307017D02*
X0173242Y0307017D01*
X0173242Y0306419D02*
X0172642Y0306419D01*
X0172642Y0305820D02*
X0173242Y0305820D01*
X0173242Y0305222D02*
X0172642Y0305222D01*
X0172642Y0304623D02*
X0173242Y0304623D01*
X0173242Y0304025D02*
X0172642Y0304025D01*
X0172642Y0303426D02*
X0173242Y0303426D01*
X0173242Y0302828D02*
X0172642Y0302828D01*
X0172642Y0302229D02*
X0173242Y0302229D01*
X0208561Y0311207D02*
X0211700Y0311207D01*
X0211700Y0311805D02*
X0210497Y0311805D01*
X0211534Y0312404D02*
X0211700Y0312404D01*
X0193260Y0174148D02*
X0185340Y0174148D01*
X0186785Y0173549D02*
X0191815Y0173549D01*
X0191013Y0172951D02*
X0187587Y0172951D01*
X0188185Y0172352D02*
X0190415Y0172352D01*
X0189960Y0171754D02*
X0188640Y0171754D01*
X0188888Y0171155D02*
X0189712Y0171155D01*
X0189464Y0170557D02*
X0189136Y0170557D01*
X0189300Y0169958D02*
X0189300Y0169958D01*
X0189300Y0169360D02*
X0189300Y0169360D01*
X0189300Y0168761D02*
X0189300Y0168761D01*
X0189296Y0168163D02*
X0189304Y0168163D01*
X0189552Y0167564D02*
X0189048Y0167564D01*
X0188800Y0166966D02*
X0189800Y0166966D01*
X0190048Y0166367D02*
X0188552Y0166367D01*
X0187973Y0165769D02*
X0190627Y0165769D01*
X0191225Y0165170D02*
X0187375Y0165170D01*
X0186272Y0164572D02*
X0192328Y0164572D01*
X0183260Y0174148D02*
X0175340Y0174148D01*
X0176785Y0173549D02*
X0181815Y0173549D01*
X0181013Y0172951D02*
X0177587Y0172951D01*
X0178185Y0172352D02*
X0180415Y0172352D01*
X0179960Y0171754D02*
X0178640Y0171754D01*
X0178888Y0171155D02*
X0179712Y0171155D01*
X0179464Y0170557D02*
X0179136Y0170557D01*
X0179300Y0169958D02*
X0179300Y0169958D01*
X0179300Y0169360D02*
X0179300Y0169360D01*
X0179300Y0168761D02*
X0179300Y0168761D01*
X0179296Y0168163D02*
X0179304Y0168163D01*
X0179552Y0167564D02*
X0179048Y0167564D01*
X0178800Y0166966D02*
X0179800Y0166966D01*
X0180048Y0166367D02*
X0178552Y0166367D01*
X0177973Y0165769D02*
X0180627Y0165769D01*
X0181225Y0165170D02*
X0177375Y0165170D01*
X0176272Y0164572D02*
X0182328Y0164572D01*
X0208951Y0156791D02*
X0211700Y0156791D01*
X0211700Y0156192D02*
X0209550Y0156192D01*
X0209568Y0155594D02*
X0211700Y0155594D01*
X0211700Y0154995D02*
X0209568Y0154995D01*
X0209568Y0154397D02*
X0211700Y0154397D01*
X0211700Y0153798D02*
X0209568Y0153798D01*
X0209568Y0153200D02*
X0211700Y0153200D01*
X0211700Y0152601D02*
X0209568Y0152601D01*
X0209568Y0152003D02*
X0211700Y0152003D01*
X0211700Y0151404D02*
X0209568Y0151404D01*
X0209568Y0150806D02*
X0211700Y0150806D01*
X0211700Y0150207D02*
X0209568Y0150207D01*
X0209568Y0149609D02*
X0211700Y0149609D01*
X0211700Y0149010D02*
X0209419Y0149010D01*
X0208821Y0148412D02*
X0211700Y0148412D01*
X0211700Y0158587D02*
X0210590Y0158587D01*
X0211188Y0159185D02*
X0211700Y0159185D01*
M02*
