G75*
%MOIN*%
%OFA0B0*%
%FSLAX25Y25*%
%IPPOS*%
%LPD*%
%AMOC8*
5,1,8,0,0,1.08239X$1,22.5*
%
%ADD10C,0.00600*%
%ADD11C,0.00800*%
%ADD12C,0.00500*%
%ADD13C,0.00300*%
%ADD14R,0.02500X0.02500*%
%ADD15C,0.01000*%
%ADD16C,0.00400*%
%ADD17R,0.03000X0.03400*%
D10*
X0098300Y0137667D02*
X0098302Y0137808D01*
X0098308Y0137949D01*
X0098318Y0138089D01*
X0098332Y0138229D01*
X0098350Y0138369D01*
X0098371Y0138508D01*
X0098397Y0138647D01*
X0098426Y0138785D01*
X0098460Y0138921D01*
X0098497Y0139057D01*
X0098538Y0139192D01*
X0098583Y0139326D01*
X0098632Y0139458D01*
X0098684Y0139589D01*
X0098740Y0139718D01*
X0098800Y0139845D01*
X0098863Y0139971D01*
X0098929Y0140095D01*
X0099000Y0140218D01*
X0099073Y0140338D01*
X0099150Y0140456D01*
X0099230Y0140572D01*
X0099314Y0140685D01*
X0099400Y0140796D01*
X0099490Y0140905D01*
X0099583Y0141011D01*
X0099678Y0141114D01*
X0099777Y0141215D01*
X0099878Y0141313D01*
X0099982Y0141408D01*
X0100089Y0141500D01*
X0100198Y0141589D01*
X0100310Y0141674D01*
X0100424Y0141757D01*
X0100540Y0141837D01*
X0100659Y0141913D01*
X0100780Y0141985D01*
X0100902Y0142055D01*
X0101027Y0142120D01*
X0101153Y0142183D01*
X0101281Y0142241D01*
X0101411Y0142296D01*
X0101542Y0142348D01*
X0101675Y0142395D01*
X0101809Y0142439D01*
X0101944Y0142480D01*
X0102080Y0142516D01*
X0102217Y0142548D01*
X0102355Y0142577D01*
X0102493Y0142602D01*
X0102633Y0142622D01*
X0102773Y0142639D01*
X0102913Y0142652D01*
X0103054Y0142661D01*
X0103194Y0142666D01*
X0103335Y0142667D01*
X0103476Y0142664D01*
X0103617Y0142657D01*
X0103757Y0142646D01*
X0103897Y0142631D01*
X0104037Y0142612D01*
X0104176Y0142590D01*
X0104314Y0142563D01*
X0104452Y0142533D01*
X0104588Y0142498D01*
X0104724Y0142460D01*
X0104858Y0142418D01*
X0104992Y0142372D01*
X0105124Y0142323D01*
X0105254Y0142269D01*
X0105383Y0142212D01*
X0105510Y0142152D01*
X0105636Y0142088D01*
X0105759Y0142020D01*
X0105881Y0141949D01*
X0106001Y0141875D01*
X0106118Y0141797D01*
X0106233Y0141716D01*
X0106346Y0141632D01*
X0106457Y0141545D01*
X0106565Y0141454D01*
X0106670Y0141361D01*
X0106773Y0141264D01*
X0106873Y0141165D01*
X0106970Y0141063D01*
X0107064Y0140958D01*
X0107155Y0140851D01*
X0107243Y0140741D01*
X0107328Y0140629D01*
X0107410Y0140514D01*
X0107489Y0140397D01*
X0107564Y0140278D01*
X0107636Y0140157D01*
X0107704Y0140034D01*
X0107769Y0139909D01*
X0107831Y0139782D01*
X0107888Y0139653D01*
X0107943Y0139523D01*
X0107993Y0139392D01*
X0108040Y0139259D01*
X0108083Y0139125D01*
X0108122Y0138989D01*
X0108157Y0138853D01*
X0108189Y0138716D01*
X0108216Y0138578D01*
X0108240Y0138439D01*
X0108260Y0138299D01*
X0108276Y0138159D01*
X0108288Y0138019D01*
X0108296Y0137878D01*
X0108300Y0137737D01*
X0108300Y0137597D01*
X0108296Y0137456D01*
X0108288Y0137315D01*
X0108276Y0137175D01*
X0108260Y0137035D01*
X0108240Y0136895D01*
X0108216Y0136756D01*
X0108189Y0136618D01*
X0108157Y0136481D01*
X0108122Y0136345D01*
X0108083Y0136209D01*
X0108040Y0136075D01*
X0107993Y0135942D01*
X0107943Y0135811D01*
X0107888Y0135681D01*
X0107831Y0135552D01*
X0107769Y0135425D01*
X0107704Y0135300D01*
X0107636Y0135177D01*
X0107564Y0135056D01*
X0107489Y0134937D01*
X0107410Y0134820D01*
X0107328Y0134705D01*
X0107243Y0134593D01*
X0107155Y0134483D01*
X0107064Y0134376D01*
X0106970Y0134271D01*
X0106873Y0134169D01*
X0106773Y0134070D01*
X0106670Y0133973D01*
X0106565Y0133880D01*
X0106457Y0133789D01*
X0106346Y0133702D01*
X0106233Y0133618D01*
X0106118Y0133537D01*
X0106001Y0133459D01*
X0105881Y0133385D01*
X0105759Y0133314D01*
X0105636Y0133246D01*
X0105510Y0133182D01*
X0105383Y0133122D01*
X0105254Y0133065D01*
X0105124Y0133011D01*
X0104992Y0132962D01*
X0104858Y0132916D01*
X0104724Y0132874D01*
X0104588Y0132836D01*
X0104452Y0132801D01*
X0104314Y0132771D01*
X0104176Y0132744D01*
X0104037Y0132722D01*
X0103897Y0132703D01*
X0103757Y0132688D01*
X0103617Y0132677D01*
X0103476Y0132670D01*
X0103335Y0132667D01*
X0103194Y0132668D01*
X0103054Y0132673D01*
X0102913Y0132682D01*
X0102773Y0132695D01*
X0102633Y0132712D01*
X0102493Y0132732D01*
X0102355Y0132757D01*
X0102217Y0132786D01*
X0102080Y0132818D01*
X0101944Y0132854D01*
X0101809Y0132895D01*
X0101675Y0132939D01*
X0101542Y0132986D01*
X0101411Y0133038D01*
X0101281Y0133093D01*
X0101153Y0133151D01*
X0101027Y0133214D01*
X0100902Y0133279D01*
X0100780Y0133349D01*
X0100659Y0133421D01*
X0100540Y0133497D01*
X0100424Y0133577D01*
X0100310Y0133660D01*
X0100198Y0133745D01*
X0100089Y0133834D01*
X0099982Y0133926D01*
X0099878Y0134021D01*
X0099777Y0134119D01*
X0099678Y0134220D01*
X0099583Y0134323D01*
X0099490Y0134429D01*
X0099400Y0134538D01*
X0099314Y0134649D01*
X0099230Y0134762D01*
X0099150Y0134878D01*
X0099073Y0134996D01*
X0099000Y0135116D01*
X0098929Y0135239D01*
X0098863Y0135363D01*
X0098800Y0135489D01*
X0098740Y0135616D01*
X0098684Y0135745D01*
X0098632Y0135876D01*
X0098583Y0136008D01*
X0098538Y0136142D01*
X0098497Y0136277D01*
X0098460Y0136413D01*
X0098426Y0136549D01*
X0098397Y0136687D01*
X0098371Y0136826D01*
X0098350Y0136965D01*
X0098332Y0137105D01*
X0098318Y0137245D01*
X0098308Y0137385D01*
X0098302Y0137526D01*
X0098300Y0137667D01*
X0110300Y0122667D02*
X0110302Y0122808D01*
X0110308Y0122949D01*
X0110318Y0123089D01*
X0110332Y0123229D01*
X0110350Y0123369D01*
X0110371Y0123508D01*
X0110397Y0123647D01*
X0110426Y0123785D01*
X0110460Y0123921D01*
X0110497Y0124057D01*
X0110538Y0124192D01*
X0110583Y0124326D01*
X0110632Y0124458D01*
X0110684Y0124589D01*
X0110740Y0124718D01*
X0110800Y0124845D01*
X0110863Y0124971D01*
X0110929Y0125095D01*
X0111000Y0125218D01*
X0111073Y0125338D01*
X0111150Y0125456D01*
X0111230Y0125572D01*
X0111314Y0125685D01*
X0111400Y0125796D01*
X0111490Y0125905D01*
X0111583Y0126011D01*
X0111678Y0126114D01*
X0111777Y0126215D01*
X0111878Y0126313D01*
X0111982Y0126408D01*
X0112089Y0126500D01*
X0112198Y0126589D01*
X0112310Y0126674D01*
X0112424Y0126757D01*
X0112540Y0126837D01*
X0112659Y0126913D01*
X0112780Y0126985D01*
X0112902Y0127055D01*
X0113027Y0127120D01*
X0113153Y0127183D01*
X0113281Y0127241D01*
X0113411Y0127296D01*
X0113542Y0127348D01*
X0113675Y0127395D01*
X0113809Y0127439D01*
X0113944Y0127480D01*
X0114080Y0127516D01*
X0114217Y0127548D01*
X0114355Y0127577D01*
X0114493Y0127602D01*
X0114633Y0127622D01*
X0114773Y0127639D01*
X0114913Y0127652D01*
X0115054Y0127661D01*
X0115194Y0127666D01*
X0115335Y0127667D01*
X0115476Y0127664D01*
X0115617Y0127657D01*
X0115757Y0127646D01*
X0115897Y0127631D01*
X0116037Y0127612D01*
X0116176Y0127590D01*
X0116314Y0127563D01*
X0116452Y0127533D01*
X0116588Y0127498D01*
X0116724Y0127460D01*
X0116858Y0127418D01*
X0116992Y0127372D01*
X0117124Y0127323D01*
X0117254Y0127269D01*
X0117383Y0127212D01*
X0117510Y0127152D01*
X0117636Y0127088D01*
X0117759Y0127020D01*
X0117881Y0126949D01*
X0118001Y0126875D01*
X0118118Y0126797D01*
X0118233Y0126716D01*
X0118346Y0126632D01*
X0118457Y0126545D01*
X0118565Y0126454D01*
X0118670Y0126361D01*
X0118773Y0126264D01*
X0118873Y0126165D01*
X0118970Y0126063D01*
X0119064Y0125958D01*
X0119155Y0125851D01*
X0119243Y0125741D01*
X0119328Y0125629D01*
X0119410Y0125514D01*
X0119489Y0125397D01*
X0119564Y0125278D01*
X0119636Y0125157D01*
X0119704Y0125034D01*
X0119769Y0124909D01*
X0119831Y0124782D01*
X0119888Y0124653D01*
X0119943Y0124523D01*
X0119993Y0124392D01*
X0120040Y0124259D01*
X0120083Y0124125D01*
X0120122Y0123989D01*
X0120157Y0123853D01*
X0120189Y0123716D01*
X0120216Y0123578D01*
X0120240Y0123439D01*
X0120260Y0123299D01*
X0120276Y0123159D01*
X0120288Y0123019D01*
X0120296Y0122878D01*
X0120300Y0122737D01*
X0120300Y0122597D01*
X0120296Y0122456D01*
X0120288Y0122315D01*
X0120276Y0122175D01*
X0120260Y0122035D01*
X0120240Y0121895D01*
X0120216Y0121756D01*
X0120189Y0121618D01*
X0120157Y0121481D01*
X0120122Y0121345D01*
X0120083Y0121209D01*
X0120040Y0121075D01*
X0119993Y0120942D01*
X0119943Y0120811D01*
X0119888Y0120681D01*
X0119831Y0120552D01*
X0119769Y0120425D01*
X0119704Y0120300D01*
X0119636Y0120177D01*
X0119564Y0120056D01*
X0119489Y0119937D01*
X0119410Y0119820D01*
X0119328Y0119705D01*
X0119243Y0119593D01*
X0119155Y0119483D01*
X0119064Y0119376D01*
X0118970Y0119271D01*
X0118873Y0119169D01*
X0118773Y0119070D01*
X0118670Y0118973D01*
X0118565Y0118880D01*
X0118457Y0118789D01*
X0118346Y0118702D01*
X0118233Y0118618D01*
X0118118Y0118537D01*
X0118001Y0118459D01*
X0117881Y0118385D01*
X0117759Y0118314D01*
X0117636Y0118246D01*
X0117510Y0118182D01*
X0117383Y0118122D01*
X0117254Y0118065D01*
X0117124Y0118011D01*
X0116992Y0117962D01*
X0116858Y0117916D01*
X0116724Y0117874D01*
X0116588Y0117836D01*
X0116452Y0117801D01*
X0116314Y0117771D01*
X0116176Y0117744D01*
X0116037Y0117722D01*
X0115897Y0117703D01*
X0115757Y0117688D01*
X0115617Y0117677D01*
X0115476Y0117670D01*
X0115335Y0117667D01*
X0115194Y0117668D01*
X0115054Y0117673D01*
X0114913Y0117682D01*
X0114773Y0117695D01*
X0114633Y0117712D01*
X0114493Y0117732D01*
X0114355Y0117757D01*
X0114217Y0117786D01*
X0114080Y0117818D01*
X0113944Y0117854D01*
X0113809Y0117895D01*
X0113675Y0117939D01*
X0113542Y0117986D01*
X0113411Y0118038D01*
X0113281Y0118093D01*
X0113153Y0118151D01*
X0113027Y0118214D01*
X0112902Y0118279D01*
X0112780Y0118349D01*
X0112659Y0118421D01*
X0112540Y0118497D01*
X0112424Y0118577D01*
X0112310Y0118660D01*
X0112198Y0118745D01*
X0112089Y0118834D01*
X0111982Y0118926D01*
X0111878Y0119021D01*
X0111777Y0119119D01*
X0111678Y0119220D01*
X0111583Y0119323D01*
X0111490Y0119429D01*
X0111400Y0119538D01*
X0111314Y0119649D01*
X0111230Y0119762D01*
X0111150Y0119878D01*
X0111073Y0119996D01*
X0111000Y0120116D01*
X0110929Y0120239D01*
X0110863Y0120363D01*
X0110800Y0120489D01*
X0110740Y0120616D01*
X0110684Y0120745D01*
X0110632Y0120876D01*
X0110583Y0121008D01*
X0110538Y0121142D01*
X0110497Y0121277D01*
X0110460Y0121413D01*
X0110426Y0121549D01*
X0110397Y0121687D01*
X0110371Y0121826D01*
X0110350Y0121965D01*
X0110332Y0122105D01*
X0110318Y0122245D01*
X0110308Y0122385D01*
X0110302Y0122526D01*
X0110300Y0122667D01*
X0087800Y0122667D02*
X0087808Y0123342D01*
X0087833Y0124016D01*
X0087875Y0124690D01*
X0087932Y0125362D01*
X0088007Y0126033D01*
X0088098Y0126702D01*
X0088205Y0127368D01*
X0088328Y0128032D01*
X0088468Y0128692D01*
X0088624Y0129349D01*
X0088796Y0130002D01*
X0088984Y0130650D01*
X0089188Y0131293D01*
X0089408Y0131931D01*
X0089643Y0132564D01*
X0089893Y0133191D01*
X0090159Y0133811D01*
X0090440Y0134425D01*
X0090736Y0135031D01*
X0091047Y0135630D01*
X0091373Y0136222D01*
X0091712Y0136805D01*
X0092067Y0137379D01*
X0092435Y0137945D01*
X0092816Y0138502D01*
X0093212Y0139049D01*
X0093620Y0139586D01*
X0094042Y0140113D01*
X0094477Y0140629D01*
X0094924Y0141135D01*
X0095383Y0141629D01*
X0095855Y0142112D01*
X0096338Y0142584D01*
X0096832Y0143043D01*
X0097338Y0143490D01*
X0097854Y0143925D01*
X0098381Y0144347D01*
X0098918Y0144755D01*
X0099465Y0145151D01*
X0100022Y0145532D01*
X0100588Y0145900D01*
X0101162Y0146255D01*
X0101745Y0146594D01*
X0102337Y0146920D01*
X0102936Y0147231D01*
X0103542Y0147527D01*
X0104156Y0147808D01*
X0104776Y0148074D01*
X0105403Y0148324D01*
X0106036Y0148559D01*
X0106674Y0148779D01*
X0107317Y0148983D01*
X0107965Y0149171D01*
X0108618Y0149343D01*
X0109275Y0149499D01*
X0109935Y0149639D01*
X0110599Y0149762D01*
X0111265Y0149869D01*
X0111934Y0149960D01*
X0112605Y0150035D01*
X0113277Y0150092D01*
X0113951Y0150134D01*
X0114625Y0150159D01*
X0115300Y0150167D01*
X0115975Y0150159D01*
X0116649Y0150134D01*
X0117323Y0150092D01*
X0117995Y0150035D01*
X0118666Y0149960D01*
X0119335Y0149869D01*
X0120001Y0149762D01*
X0120665Y0149639D01*
X0121325Y0149499D01*
X0121982Y0149343D01*
X0122635Y0149171D01*
X0123283Y0148983D01*
X0123926Y0148779D01*
X0124564Y0148559D01*
X0125197Y0148324D01*
X0125824Y0148074D01*
X0126444Y0147808D01*
X0127058Y0147527D01*
X0127664Y0147231D01*
X0128263Y0146920D01*
X0128855Y0146594D01*
X0129438Y0146255D01*
X0130012Y0145900D01*
X0130578Y0145532D01*
X0131135Y0145151D01*
X0131682Y0144755D01*
X0132219Y0144347D01*
X0132746Y0143925D01*
X0133262Y0143490D01*
X0133768Y0143043D01*
X0134262Y0142584D01*
X0134745Y0142112D01*
X0135217Y0141629D01*
X0135676Y0141135D01*
X0136123Y0140629D01*
X0136558Y0140113D01*
X0136980Y0139586D01*
X0137388Y0139049D01*
X0137784Y0138502D01*
X0138165Y0137945D01*
X0138533Y0137379D01*
X0138888Y0136805D01*
X0139227Y0136222D01*
X0139553Y0135630D01*
X0139864Y0135031D01*
X0140160Y0134425D01*
X0140441Y0133811D01*
X0140707Y0133191D01*
X0140957Y0132564D01*
X0141192Y0131931D01*
X0141412Y0131293D01*
X0141616Y0130650D01*
X0141804Y0130002D01*
X0141976Y0129349D01*
X0142132Y0128692D01*
X0142272Y0128032D01*
X0142395Y0127368D01*
X0142502Y0126702D01*
X0142593Y0126033D01*
X0142668Y0125362D01*
X0142725Y0124690D01*
X0142767Y0124016D01*
X0142792Y0123342D01*
X0142800Y0122667D01*
X0142792Y0121992D01*
X0142767Y0121318D01*
X0142725Y0120644D01*
X0142668Y0119972D01*
X0142593Y0119301D01*
X0142502Y0118632D01*
X0142395Y0117966D01*
X0142272Y0117302D01*
X0142132Y0116642D01*
X0141976Y0115985D01*
X0141804Y0115332D01*
X0141616Y0114684D01*
X0141412Y0114041D01*
X0141192Y0113403D01*
X0140957Y0112770D01*
X0140707Y0112143D01*
X0140441Y0111523D01*
X0140160Y0110909D01*
X0139864Y0110303D01*
X0139553Y0109704D01*
X0139227Y0109112D01*
X0138888Y0108529D01*
X0138533Y0107955D01*
X0138165Y0107389D01*
X0137784Y0106832D01*
X0137388Y0106285D01*
X0136980Y0105748D01*
X0136558Y0105221D01*
X0136123Y0104705D01*
X0135676Y0104199D01*
X0135217Y0103705D01*
X0134745Y0103222D01*
X0134262Y0102750D01*
X0133768Y0102291D01*
X0133262Y0101844D01*
X0132746Y0101409D01*
X0132219Y0100987D01*
X0131682Y0100579D01*
X0131135Y0100183D01*
X0130578Y0099802D01*
X0130012Y0099434D01*
X0129438Y0099079D01*
X0128855Y0098740D01*
X0128263Y0098414D01*
X0127664Y0098103D01*
X0127058Y0097807D01*
X0126444Y0097526D01*
X0125824Y0097260D01*
X0125197Y0097010D01*
X0124564Y0096775D01*
X0123926Y0096555D01*
X0123283Y0096351D01*
X0122635Y0096163D01*
X0121982Y0095991D01*
X0121325Y0095835D01*
X0120665Y0095695D01*
X0120001Y0095572D01*
X0119335Y0095465D01*
X0118666Y0095374D01*
X0117995Y0095299D01*
X0117323Y0095242D01*
X0116649Y0095200D01*
X0115975Y0095175D01*
X0115300Y0095167D01*
X0114625Y0095175D01*
X0113951Y0095200D01*
X0113277Y0095242D01*
X0112605Y0095299D01*
X0111934Y0095374D01*
X0111265Y0095465D01*
X0110599Y0095572D01*
X0109935Y0095695D01*
X0109275Y0095835D01*
X0108618Y0095991D01*
X0107965Y0096163D01*
X0107317Y0096351D01*
X0106674Y0096555D01*
X0106036Y0096775D01*
X0105403Y0097010D01*
X0104776Y0097260D01*
X0104156Y0097526D01*
X0103542Y0097807D01*
X0102936Y0098103D01*
X0102337Y0098414D01*
X0101745Y0098740D01*
X0101162Y0099079D01*
X0100588Y0099434D01*
X0100022Y0099802D01*
X0099465Y0100183D01*
X0098918Y0100579D01*
X0098381Y0100987D01*
X0097854Y0101409D01*
X0097338Y0101844D01*
X0096832Y0102291D01*
X0096338Y0102750D01*
X0095855Y0103222D01*
X0095383Y0103705D01*
X0094924Y0104199D01*
X0094477Y0104705D01*
X0094042Y0105221D01*
X0093620Y0105748D01*
X0093212Y0106285D01*
X0092816Y0106832D01*
X0092435Y0107389D01*
X0092067Y0107955D01*
X0091712Y0108529D01*
X0091373Y0109112D01*
X0091047Y0109704D01*
X0090736Y0110303D01*
X0090440Y0110909D01*
X0090159Y0111523D01*
X0089893Y0112143D01*
X0089643Y0112770D01*
X0089408Y0113403D01*
X0089188Y0114041D01*
X0088984Y0114684D01*
X0088796Y0115332D01*
X0088624Y0115985D01*
X0088468Y0116642D01*
X0088328Y0117302D01*
X0088205Y0117966D01*
X0088098Y0118632D01*
X0088007Y0119301D01*
X0087932Y0119972D01*
X0087875Y0120644D01*
X0087833Y0121318D01*
X0087808Y0121992D01*
X0087800Y0122667D01*
X0087800Y0242167D02*
X0110800Y0242167D01*
X0110800Y0322167D01*
X0103300Y0322167D01*
X0103298Y0322041D01*
X0103292Y0321916D01*
X0103282Y0321791D01*
X0103268Y0321666D01*
X0103251Y0321541D01*
X0103229Y0321417D01*
X0103204Y0321294D01*
X0103174Y0321172D01*
X0103141Y0321051D01*
X0103104Y0320931D01*
X0103064Y0320812D01*
X0103019Y0320695D01*
X0102971Y0320578D01*
X0102919Y0320464D01*
X0102864Y0320351D01*
X0102805Y0320240D01*
X0102743Y0320131D01*
X0102677Y0320024D01*
X0102608Y0319919D01*
X0102536Y0319816D01*
X0102461Y0319715D01*
X0102382Y0319617D01*
X0102300Y0319522D01*
X0102216Y0319429D01*
X0102128Y0319339D01*
X0102038Y0319251D01*
X0101945Y0319167D01*
X0101850Y0319085D01*
X0101752Y0319006D01*
X0101651Y0318931D01*
X0101548Y0318859D01*
X0101443Y0318790D01*
X0101336Y0318724D01*
X0101227Y0318662D01*
X0101116Y0318603D01*
X0101003Y0318548D01*
X0100889Y0318496D01*
X0100772Y0318448D01*
X0100655Y0318403D01*
X0100536Y0318363D01*
X0100416Y0318326D01*
X0100295Y0318293D01*
X0100173Y0318263D01*
X0100050Y0318238D01*
X0099926Y0318216D01*
X0099801Y0318199D01*
X0099676Y0318185D01*
X0099551Y0318175D01*
X0099426Y0318169D01*
X0099300Y0318167D01*
X0099174Y0318169D01*
X0099049Y0318175D01*
X0098924Y0318185D01*
X0098799Y0318199D01*
X0098674Y0318216D01*
X0098550Y0318238D01*
X0098427Y0318263D01*
X0098305Y0318293D01*
X0098184Y0318326D01*
X0098064Y0318363D01*
X0097945Y0318403D01*
X0097828Y0318448D01*
X0097711Y0318496D01*
X0097597Y0318548D01*
X0097484Y0318603D01*
X0097373Y0318662D01*
X0097264Y0318724D01*
X0097157Y0318790D01*
X0097052Y0318859D01*
X0096949Y0318931D01*
X0096848Y0319006D01*
X0096750Y0319085D01*
X0096655Y0319167D01*
X0096562Y0319251D01*
X0096472Y0319339D01*
X0096384Y0319429D01*
X0096300Y0319522D01*
X0096218Y0319617D01*
X0096139Y0319715D01*
X0096064Y0319816D01*
X0095992Y0319919D01*
X0095923Y0320024D01*
X0095857Y0320131D01*
X0095795Y0320240D01*
X0095736Y0320351D01*
X0095681Y0320464D01*
X0095629Y0320578D01*
X0095581Y0320695D01*
X0095536Y0320812D01*
X0095496Y0320931D01*
X0095459Y0321051D01*
X0095426Y0321172D01*
X0095396Y0321294D01*
X0095371Y0321417D01*
X0095349Y0321541D01*
X0095332Y0321666D01*
X0095318Y0321791D01*
X0095308Y0321916D01*
X0095302Y0322041D01*
X0095300Y0322167D01*
X0087800Y0322167D01*
X0087800Y0242167D01*
X0061357Y0305967D02*
X0059222Y0305967D01*
X0058154Y0307034D01*
X0062425Y0311305D01*
X0062425Y0307034D01*
X0061357Y0305967D01*
X0058154Y0307034D02*
X0058154Y0311305D01*
X0059222Y0312372D01*
X0061357Y0312372D01*
X0062425Y0311305D01*
X0053844Y0316467D02*
X0051709Y0316467D01*
X0052777Y0316467D02*
X0052777Y0322872D01*
X0053844Y0322872D02*
X0051709Y0322872D01*
X0049534Y0321805D02*
X0049534Y0320737D01*
X0048466Y0319669D01*
X0045263Y0319669D01*
X0043088Y0317534D02*
X0043088Y0322872D01*
X0045263Y0322872D02*
X0048466Y0322872D01*
X0049534Y0321805D01*
X0048466Y0319669D02*
X0049534Y0318602D01*
X0049534Y0317534D01*
X0048466Y0316467D01*
X0045263Y0316467D01*
X0045263Y0322872D01*
X0043088Y0317534D02*
X0042021Y0316467D01*
X0039886Y0316467D01*
X0038818Y0317534D01*
X0038818Y0322872D01*
X0036643Y0321805D02*
X0035575Y0322872D01*
X0033440Y0322872D01*
X0032372Y0321805D01*
X0032372Y0317534D01*
X0033440Y0316467D01*
X0035575Y0316467D01*
X0036643Y0317534D01*
X0035575Y0312372D02*
X0032372Y0312372D01*
X0032372Y0305967D01*
X0032372Y0308102D02*
X0035575Y0308102D01*
X0036643Y0309169D01*
X0036643Y0311305D01*
X0035575Y0312372D01*
X0034508Y0308102D02*
X0036643Y0305967D01*
X0038818Y0305967D02*
X0038818Y0312372D01*
X0043088Y0312372D01*
X0045263Y0312372D02*
X0045263Y0308102D01*
X0047399Y0305967D01*
X0049534Y0308102D01*
X0049534Y0312372D01*
X0043088Y0305967D02*
X0038818Y0305967D01*
X0038818Y0309169D02*
X0040953Y0309169D01*
X0131600Y0316669D02*
X0135870Y0316669D01*
X0138045Y0312399D02*
X0142316Y0312399D01*
X0144491Y0316669D02*
X0148761Y0316669D01*
X0150936Y0317737D02*
X0152004Y0318805D01*
X0152004Y0320940D01*
X0188595Y0314546D02*
X0191797Y0318816D01*
X0195000Y0314546D01*
X0195000Y0312397D02*
X0188595Y0312397D01*
X0189662Y0310222D02*
X0188595Y0309154D01*
X0188595Y0307019D01*
X0189662Y0305952D01*
X0193932Y0305952D01*
X0195000Y0307019D01*
X0195000Y0309154D01*
X0193932Y0310222D01*
X0189662Y0310222D01*
X0196068Y0303776D02*
X0196068Y0299506D01*
X0193932Y0297331D02*
X0189662Y0297331D01*
X0188595Y0296263D01*
X0188595Y0294128D01*
X0189662Y0293061D01*
X0193932Y0293061D01*
X0195000Y0294128D01*
X0195000Y0296263D01*
X0193932Y0297331D01*
X0195000Y0290912D02*
X0188595Y0290912D01*
X0188595Y0288737D02*
X0191797Y0284467D01*
X0195000Y0288737D01*
D11*
X0201400Y0280067D02*
X0177800Y0280068D01*
X0177800Y0254265D01*
X0201400Y0254267D01*
X0181300Y0133917D02*
X0181300Y0126417D01*
X0024050Y0275167D02*
X0016550Y0275167D01*
D12*
X0002300Y0158167D02*
X0002300Y0088167D01*
X0082300Y0088167D01*
X0082300Y0158167D01*
X0002300Y0158167D01*
X0051024Y0261167D02*
X0064804Y0261167D01*
X0064804Y0302505D01*
X0051024Y0302505D01*
X0051024Y0261167D01*
X0133024Y0261167D02*
X0146804Y0261167D01*
X0146804Y0302505D01*
X0133024Y0302505D01*
X0133024Y0261167D01*
X0157587Y0298787D02*
X0157587Y0316503D01*
X0180619Y0316503D01*
X0180619Y0298787D01*
X0157587Y0298787D01*
X0157800Y0157667D02*
X0160300Y0155167D01*
X0162800Y0157667D01*
X0167800Y0157667D02*
X0170300Y0155167D01*
X0172800Y0157667D01*
X0177800Y0157667D02*
X0180300Y0155167D01*
X0182800Y0157667D01*
X0147800Y0157667D01*
X0147800Y0012667D01*
X0154300Y0012667D01*
X0154300Y0027667D01*
X0206300Y0027667D01*
X0206300Y0117667D01*
X0154300Y0117667D01*
X0154300Y0027667D01*
X0161213Y0021086D02*
X0161213Y0017417D01*
X0161213Y0020169D02*
X0164883Y0020169D01*
X0164883Y0021086D02*
X0164883Y0017417D01*
X0166738Y0017417D02*
X0166738Y0022921D01*
X0170408Y0017417D01*
X0170408Y0022921D01*
X0172263Y0022921D02*
X0175933Y0022921D01*
X0174098Y0022921D02*
X0174098Y0017417D01*
X0177788Y0017417D02*
X0177788Y0022921D01*
X0181457Y0022921D01*
X0183312Y0022921D02*
X0183312Y0017417D01*
X0181457Y0017417D02*
X0177788Y0017417D01*
X0177788Y0020169D02*
X0179623Y0020169D01*
X0183312Y0022921D02*
X0186982Y0017417D01*
X0186982Y0022921D01*
X0188837Y0022921D02*
X0188837Y0017417D01*
X0192507Y0017417D02*
X0188837Y0022921D01*
X0192507Y0022921D02*
X0192507Y0017417D01*
X0194362Y0017417D02*
X0194362Y0021086D01*
X0196197Y0022921D01*
X0198032Y0021086D01*
X0198032Y0017417D01*
X0198032Y0020169D02*
X0194362Y0020169D01*
X0206300Y0027667D02*
X0206300Y0012667D01*
X0212800Y0012667D01*
X0212800Y0157667D01*
X0207800Y0157667D01*
X0210300Y0155167D01*
X0210300Y0150167D01*
X0207800Y0147667D01*
X0202800Y0147667D01*
X0200300Y0150167D01*
X0197800Y0147667D01*
X0192800Y0147667D01*
X0190300Y0150167D01*
X0187800Y0147667D01*
X0182800Y0147667D01*
X0180300Y0150167D01*
X0177800Y0147667D01*
X0172800Y0147667D01*
X0170300Y0150167D01*
X0167800Y0147667D01*
X0162800Y0147667D01*
X0160300Y0150167D01*
X0157800Y0147667D01*
X0152800Y0147667D01*
X0150300Y0150167D01*
X0150300Y0155167D01*
X0152800Y0157667D01*
X0182800Y0157667D02*
X0187800Y0157667D01*
X0190300Y0155167D01*
X0192800Y0157667D01*
X0187800Y0157667D01*
X0192800Y0157667D02*
X0197800Y0157667D01*
X0200300Y0155167D01*
X0202800Y0157667D01*
X0197800Y0157667D01*
X0202800Y0157667D02*
X0207800Y0157667D01*
X0163048Y0022921D02*
X0161213Y0021086D01*
X0163048Y0022921D02*
X0164883Y0021086D01*
X0154300Y0012667D02*
X0206300Y0012667D01*
D13*
X0164994Y0311554D02*
X0163059Y0311554D01*
X0164026Y0311554D02*
X0164026Y0314456D01*
X0163059Y0313489D01*
D14*
X0169300Y0315029D03*
D15*
X0103300Y0140167D02*
X0103300Y0135167D01*
X0100800Y0137667D02*
X0105800Y0137667D01*
D16*
X0082867Y0134159D02*
X0082867Y0131089D01*
X0081333Y0129555D02*
X0082100Y0128787D01*
X0082100Y0127253D01*
X0081333Y0126486D01*
X0078263Y0126486D01*
X0077496Y0127253D01*
X0077496Y0128787D01*
X0078263Y0129555D01*
X0078263Y0124951D02*
X0077496Y0124184D01*
X0077496Y0122649D01*
X0078263Y0121882D01*
X0081333Y0121882D01*
X0082100Y0122649D01*
X0082100Y0124184D01*
X0081333Y0124951D01*
X0080565Y0120347D02*
X0077496Y0120347D01*
X0077496Y0117278D02*
X0080565Y0117278D01*
X0082100Y0118812D01*
X0080565Y0120347D01*
X0072100Y0128020D02*
X0071333Y0127253D01*
X0072100Y0128020D02*
X0072100Y0129555D01*
X0071333Y0130322D01*
X0070565Y0130322D01*
X0069798Y0129555D01*
X0069798Y0128788D01*
X0069798Y0129555D02*
X0069031Y0130322D01*
X0068263Y0130322D01*
X0067496Y0129555D01*
X0067496Y0128020D01*
X0068263Y0127253D01*
X0071333Y0131857D02*
X0071333Y0132624D01*
X0072100Y0132624D01*
X0072100Y0131857D01*
X0071333Y0131857D01*
X0071333Y0134159D02*
X0072100Y0134926D01*
X0072100Y0136461D01*
X0071333Y0137228D01*
X0070565Y0137228D01*
X0069798Y0136461D01*
X0069798Y0135693D01*
X0069798Y0136461D02*
X0069031Y0137228D01*
X0068263Y0137228D01*
X0067496Y0136461D01*
X0067496Y0134926D01*
X0068263Y0134159D01*
X0067496Y0138763D02*
X0070565Y0138763D01*
X0072100Y0140297D01*
X0070565Y0141832D01*
X0067496Y0141832D01*
X0062100Y0141065D02*
X0062100Y0138763D01*
X0057496Y0138763D01*
X0057496Y0141065D01*
X0058263Y0141832D01*
X0061333Y0141832D01*
X0062100Y0141065D01*
X0062100Y0137228D02*
X0057496Y0137228D01*
X0057496Y0134159D02*
X0062100Y0137228D01*
X0062100Y0134159D02*
X0057496Y0134159D01*
X0058263Y0132624D02*
X0057496Y0131857D01*
X0057496Y0130322D01*
X0058263Y0129555D01*
X0061333Y0129555D01*
X0062100Y0130322D01*
X0062100Y0131857D01*
X0061333Y0132624D01*
X0059798Y0132624D01*
X0059798Y0131089D01*
X0052100Y0130322D02*
X0051333Y0129555D01*
X0052100Y0130322D02*
X0052100Y0131857D01*
X0051333Y0132624D01*
X0050565Y0132624D01*
X0049798Y0131857D01*
X0049798Y0130322D01*
X0049031Y0129555D01*
X0048263Y0129555D01*
X0047496Y0130322D01*
X0047496Y0131857D01*
X0048263Y0132624D01*
X0048263Y0134159D02*
X0051333Y0134159D01*
X0052100Y0134926D01*
X0052100Y0136461D01*
X0051333Y0137228D01*
X0052100Y0138763D02*
X0052100Y0141832D01*
X0052100Y0138763D02*
X0047496Y0138763D01*
X0048263Y0137228D02*
X0047496Y0136461D01*
X0047496Y0134926D01*
X0048263Y0134159D01*
X0042100Y0134159D02*
X0042100Y0136461D01*
X0041333Y0137228D01*
X0038263Y0137228D01*
X0037496Y0136461D01*
X0037496Y0134159D01*
X0042100Y0134159D01*
X0041333Y0132624D02*
X0042100Y0131857D01*
X0042100Y0130322D01*
X0041333Y0129555D01*
X0039798Y0130322D02*
X0039798Y0131857D01*
X0040565Y0132624D01*
X0041333Y0132624D01*
X0039798Y0130322D02*
X0039031Y0129555D01*
X0038263Y0129555D01*
X0037496Y0130322D01*
X0037496Y0131857D01*
X0038263Y0132624D01*
X0039031Y0138763D02*
X0037496Y0140297D01*
X0039031Y0141832D01*
X0042100Y0141832D01*
X0039798Y0141832D02*
X0039798Y0138763D01*
X0039031Y0138763D02*
X0042100Y0138763D01*
X0032100Y0140297D02*
X0029798Y0140297D01*
X0028263Y0141832D01*
X0027496Y0141832D01*
X0029798Y0140297D02*
X0028263Y0138763D01*
X0027496Y0138763D01*
X0028263Y0137228D02*
X0027496Y0136461D01*
X0027496Y0134159D01*
X0032100Y0134159D01*
X0032100Y0136461D01*
X0031333Y0137228D01*
X0028263Y0137228D01*
X0028263Y0132624D02*
X0029798Y0132624D01*
X0030565Y0131857D01*
X0030565Y0129555D01*
X0030565Y0131089D02*
X0032100Y0132624D01*
X0032100Y0129555D02*
X0027496Y0129555D01*
X0027496Y0131857D01*
X0028263Y0132624D01*
X0028263Y0128020D02*
X0027496Y0127253D01*
X0027496Y0124951D01*
X0032100Y0124951D01*
X0032100Y0127253D01*
X0031333Y0128020D01*
X0028263Y0128020D01*
X0022100Y0128020D02*
X0022100Y0126486D01*
X0022100Y0127253D02*
X0017496Y0127253D01*
X0017496Y0126486D02*
X0017496Y0128020D01*
X0017496Y0129555D02*
X0022100Y0132624D01*
X0017496Y0132624D01*
X0017496Y0134159D02*
X0017496Y0137228D01*
X0017496Y0135693D02*
X0022100Y0135693D01*
X0022100Y0138763D02*
X0022100Y0141832D01*
X0022100Y0140297D02*
X0017496Y0140297D01*
X0019031Y0138763D01*
X0012100Y0140297D02*
X0007496Y0140297D01*
X0007496Y0138763D02*
X0007496Y0141832D01*
X0007496Y0137228D02*
X0012100Y0137228D01*
X0007496Y0134159D01*
X0012100Y0134159D01*
X0012100Y0132624D02*
X0012100Y0131089D01*
X0012100Y0131857D02*
X0007496Y0131857D01*
X0007496Y0132624D02*
X0007496Y0131089D01*
X0012867Y0129555D02*
X0012867Y0126486D01*
X0011333Y0124951D02*
X0009798Y0124951D01*
X0009798Y0123416D01*
X0008263Y0121882D02*
X0011333Y0121882D01*
X0012100Y0122649D01*
X0012100Y0124184D01*
X0011333Y0124951D01*
X0008263Y0124951D02*
X0007496Y0124184D01*
X0007496Y0122649D01*
X0008263Y0121882D01*
X0017496Y0118812D02*
X0019031Y0120347D01*
X0022100Y0120347D01*
X0022867Y0121882D02*
X0022867Y0124951D01*
X0022100Y0129555D02*
X0017496Y0129555D01*
X0019798Y0120347D02*
X0019798Y0117278D01*
X0019031Y0117278D02*
X0017496Y0118812D01*
X0019031Y0117278D02*
X0022100Y0117278D01*
X0027496Y0118812D02*
X0032100Y0118812D01*
X0032867Y0120347D02*
X0032867Y0123416D01*
X0027496Y0118812D02*
X0029031Y0117278D01*
X0027496Y0115743D01*
X0032100Y0115743D01*
X0077496Y0135693D02*
X0077496Y0137228D01*
X0077496Y0136461D02*
X0082100Y0136461D01*
X0082100Y0137228D02*
X0082100Y0135693D01*
X0082100Y0138763D02*
X0077496Y0138763D01*
X0082100Y0141832D01*
X0077496Y0141832D01*
X0152996Y0140763D02*
X0157600Y0143832D01*
X0152996Y0143832D01*
X0152996Y0140763D02*
X0157600Y0140763D01*
X0157600Y0139228D02*
X0157600Y0136159D01*
X0152996Y0136159D01*
X0152996Y0139228D01*
X0155298Y0137693D02*
X0155298Y0136159D01*
X0162996Y0136159D02*
X0165298Y0136159D01*
X0164531Y0137693D01*
X0164531Y0138461D01*
X0165298Y0139228D01*
X0166833Y0139228D01*
X0167600Y0138461D01*
X0167600Y0136926D01*
X0166833Y0136159D01*
X0165298Y0134624D02*
X0165298Y0131555D01*
X0163763Y0133089D02*
X0166833Y0133089D01*
X0162996Y0136159D02*
X0162996Y0139228D01*
X0162996Y0140763D02*
X0166065Y0140763D01*
X0167600Y0142297D01*
X0166065Y0143832D01*
X0162996Y0143832D01*
X0172996Y0143065D02*
X0172996Y0140763D01*
X0177600Y0140763D01*
X0177600Y0143065D01*
X0176833Y0143832D01*
X0173763Y0143832D01*
X0172996Y0143065D01*
X0172996Y0139228D02*
X0177600Y0139228D01*
X0172996Y0136159D01*
X0177600Y0136159D01*
X0176833Y0134624D02*
X0175298Y0134624D01*
X0175298Y0133089D01*
X0173763Y0131555D02*
X0172996Y0132322D01*
X0172996Y0133857D01*
X0173763Y0134624D01*
X0173763Y0131555D02*
X0176833Y0131555D01*
X0177600Y0132322D01*
X0177600Y0133857D01*
X0176833Y0134624D01*
X0182996Y0136159D02*
X0182996Y0139228D01*
X0182996Y0137693D02*
X0187600Y0137693D01*
X0187600Y0140763D02*
X0182996Y0143832D01*
X0182996Y0140763D02*
X0187600Y0143832D01*
X0192996Y0143832D02*
X0197600Y0140763D01*
X0197600Y0139228D02*
X0196065Y0137693D01*
X0196065Y0138461D02*
X0196065Y0136159D01*
X0197600Y0136159D02*
X0192996Y0136159D01*
X0192996Y0138461D01*
X0193763Y0139228D01*
X0195298Y0139228D01*
X0196065Y0138461D01*
X0192996Y0140763D02*
X0197600Y0143832D01*
X0202996Y0143832D02*
X0202996Y0140763D01*
X0207600Y0140763D01*
X0207600Y0143832D01*
X0205298Y0142297D02*
X0205298Y0140763D01*
X0202996Y0139228D02*
X0202996Y0136159D01*
X0202996Y0137693D02*
X0207600Y0137693D01*
X0207600Y0134624D02*
X0204531Y0134624D01*
X0202996Y0133089D01*
X0204531Y0131555D01*
X0207600Y0131555D01*
X0205298Y0131555D02*
X0205298Y0134624D01*
X0202996Y0130020D02*
X0202996Y0126951D01*
X0202996Y0128486D02*
X0207600Y0128486D01*
X0206833Y0125416D02*
X0206065Y0125416D01*
X0205298Y0124649D01*
X0205298Y0123114D01*
X0204531Y0122347D01*
X0203763Y0122347D01*
X0202996Y0123114D01*
X0202996Y0124649D01*
X0203763Y0125416D01*
X0206833Y0125416D02*
X0207600Y0124649D01*
X0207600Y0123114D01*
X0206833Y0122347D01*
D17*
X0175900Y0267167D03*
M02*
