%
M48
M72
T01C0.02756
T02C0.03150
T03C0.03200
T04C0.03937
T05C0.04000
T06C0.11811
T07C0.15748
%
T01
X56418Y267072
X56418Y272978
X56418Y278883
X56418Y284789
X56418Y290694
X56418Y296600
X138418Y296600
X138418Y290694
X138418Y284789
X138418Y278883
X138418Y272978
X138418Y267072
T02
X165068Y307980
X172942Y307980
T03
X114300Y307167
X114300Y317167
X114300Y297167
X114300Y287167
X114300Y277167
X114300Y267167
X114300Y257167
X114300Y247167
X84300Y247167
X84300Y257167
X84300Y267167
X84300Y277167
X84300Y287167
X84300Y297167
X84300Y307167
X84300Y317167
T04
X155300Y152667
X165300Y152667
X175300Y152667
X185300Y152667
X195300Y152667
X205300Y152667
T05
X204300Y169167
X194300Y169167
X184300Y169167
X174300Y169167
X164300Y169167
X154300Y169167
X144300Y169167
X134300Y169167
X124300Y169167
X114300Y169167
X104300Y169167
X94300Y169167
X84300Y169167
X74300Y169167
X64300Y169167
X67300Y153167
X57300Y153167
X54300Y169167
X44300Y169167
X34300Y169167
X24300Y169167
X14300Y169167
X17300Y153167
X7300Y153167
X27300Y153167
X37300Y153167
X47300Y153167
X77300Y153167
X115300Y137667
X115300Y107667
X114300Y229167
X124300Y229167
X134300Y229167
X144300Y229167
X154300Y229167
X164300Y229167
X174300Y229167
X184300Y229167
X194300Y229167
X204300Y229167
X104300Y229167
X94300Y229167
X84300Y229167
X74300Y229167
X64300Y229167
X54300Y229167
X44300Y229167
X34300Y229167
X24300Y229167
X14300Y229167
T06
X11300Y96167
X11300Y321167
X206300Y321167
X206300Y96167
T07
X74229Y102379
M30
