G75*
%MOIN*%
%OFA0B0*%
%FSLAX25Y25*%
%IPPOS*%
%LPD*%
%AMOC8*
5,1,8,0,0,1.08239X$1,22.5*
%
%ADD10C,0.12611*%
%ADD11R,0.04737X0.05131*%
%ADD12C,0.06000*%
%ADD13C,0.05950*%
%ADD14R,0.05131X0.04737*%
%ADD15OC8,0.10800*%
%ADD16R,0.08200X0.08200*%
%ADD17C,0.08200*%
%ADD18C,0.06737*%
%ADD19R,0.06737X0.06737*%
%ADD20C,0.05556*%
%ADD21R,0.07800X0.07800*%
%ADD22C,0.16548*%
D10*
X0011300Y0096167D03*
X0011300Y0321167D03*
X0206300Y0321167D03*
X0206300Y0096167D03*
D11*
X0104300Y0146820D03*
X0104300Y0153513D03*
X0126300Y0269820D03*
X0126300Y0276513D03*
X0126300Y0288320D03*
X0126300Y0295013D03*
X0127300Y0309820D03*
X0127300Y0316513D03*
X0072300Y0293513D03*
X0072300Y0286820D03*
X0072300Y0276013D03*
X0072300Y0269320D03*
D12*
X0081700Y0267167D02*
X0086900Y0267167D01*
X0086900Y0277167D02*
X0081700Y0277167D01*
X0081700Y0287167D02*
X0086900Y0287167D01*
X0086900Y0297167D02*
X0081700Y0297167D01*
X0081700Y0307167D02*
X0086900Y0307167D01*
X0086900Y0317167D02*
X0081700Y0317167D01*
X0111700Y0317167D02*
X0116900Y0317167D01*
X0116900Y0307167D02*
X0111700Y0307167D01*
X0111700Y0297167D02*
X0116900Y0297167D01*
X0116900Y0287167D02*
X0111700Y0287167D01*
X0111700Y0277167D02*
X0116900Y0277167D01*
X0116900Y0267167D02*
X0111700Y0267167D01*
X0111700Y0257167D02*
X0116900Y0257167D01*
X0116900Y0247167D02*
X0111700Y0247167D01*
X0086900Y0247167D02*
X0081700Y0247167D01*
X0081700Y0257167D02*
X0086900Y0257167D01*
D13*
X0165068Y0305405D02*
X0165068Y0310554D01*
X0172942Y0310554D02*
X0172942Y0305405D01*
D14*
X0170646Y0251667D03*
X0163954Y0251667D03*
X0163954Y0241667D03*
X0170646Y0241667D03*
D15*
X0115300Y0137667D03*
X0115300Y0107667D03*
D16*
X0014300Y0169167D03*
D17*
X0024300Y0169167D03*
X0034300Y0169167D03*
X0044300Y0169167D03*
X0054300Y0169167D03*
X0064300Y0169167D03*
X0074300Y0169167D03*
X0084300Y0169167D03*
X0094300Y0169167D03*
X0104300Y0169167D03*
X0114300Y0169167D03*
X0124300Y0169167D03*
X0134300Y0169167D03*
X0144300Y0169167D03*
X0154300Y0169167D03*
X0164300Y0169167D03*
X0174300Y0169167D03*
X0184300Y0169167D03*
X0194300Y0169167D03*
X0204300Y0169167D03*
X0204300Y0229167D03*
X0194300Y0229167D03*
X0184300Y0229167D03*
X0174300Y0229167D03*
X0164300Y0229167D03*
X0154300Y0229167D03*
X0144300Y0229167D03*
X0134300Y0229167D03*
X0124300Y0229167D03*
X0114300Y0229167D03*
X0104300Y0229167D03*
X0094300Y0229167D03*
X0084300Y0229167D03*
X0074300Y0229167D03*
X0064300Y0229167D03*
X0054300Y0229167D03*
X0044300Y0229167D03*
X0034300Y0229167D03*
X0024300Y0229167D03*
X0014300Y0229167D03*
D18*
X0155300Y0152667D03*
X0165300Y0152667D03*
X0175300Y0152667D03*
X0185300Y0152667D03*
X0195300Y0152667D03*
D19*
X0205300Y0152667D03*
D20*
X0138418Y0267072D03*
X0138418Y0272978D03*
X0138418Y0278883D03*
X0138418Y0284789D03*
X0138418Y0290694D03*
X0138418Y0296600D03*
X0056418Y0296600D03*
X0056418Y0290694D03*
X0056418Y0284789D03*
X0056418Y0278883D03*
X0056418Y0272978D03*
X0056418Y0267072D03*
D21*
X0057300Y0153167D03*
X0067300Y0153167D03*
X0077300Y0153167D03*
X0047300Y0153167D03*
X0037300Y0153167D03*
X0027300Y0153167D03*
X0017300Y0153167D03*
X0007300Y0153167D03*
D22*
X0074229Y0102379D03*
M02*
