<?xml version="1.0" encoding="UTF-8"?>
<!-- 2017-11-03 17:02:42 Generated by QCAD SVG Exporter -->
<svg width="85.00000000000004mm" height="85mm" viewBox="-87.00000000000057 -52.22499999999982 85.00000000000004 85" version="1.1" xmlns="http://www.w3.org/2000/svg" style="stroke-linecap:round;stroke-linejoin:round;fill:none">
    <g transform="scale(1,-1)">
        <!-- Polyligne -->
        <path d="M-46.89500000000051,37.22499999999981 L-46.89500000000051,52.22499999999981 L-87.00000000000057,52.22499999999982 L-87.00000000000057,-32.77500000000019 L-2.000000000000525,-32.77500000000019 L-2.000000000000534,52.22499999999982 L-42.10500000000053,52.22499999999981 L-42.10500000000052,37.22499999999981 Z" style="stroke:#000000;stroke-width:0;"/>
        <!-- Polyligne -->
        <path d="M-84.5050000000005,25.33749999999979 L-79.71500000000052,25.33749999999979 L-79.71500000000053,15.5362499999998 L-84.5050000000005,15.5362499999998 Z" style="stroke:#000000;stroke-width:0;"/>
        <!-- Polyligne -->
        <path d="M-4.495000000000528,15.5362499999998 L-9.28500000000053,15.5362499999998 L-9.28500000000053,25.3374999999998 L-4.495000000000528,25.3374999999998 Z" style="stroke:#000000;stroke-width:0;"/>
        <!-- Polyligne -->
        <path d="M-74.70375000000053,44.93999999999978 L-79.71500000000052,44.93999999999978 L-79.71500000000052,35.1387499999998 L-84.50500000000054,35.1387499999998 L-84.50500000000054,49.72999999999981 L-74.70375000000053,49.72999999999981 Z" style="stroke:#000000;stroke-width:0;"/>
        <!-- Polyligne -->
        <path d="M-51.30083333333385,44.93999999999977 L-61.10208333333386,44.93999999999978 L-61.10208333333388,49.72999999999979 L-51.30083333333385,49.72999999999979 Z" style="stroke:#000000;stroke-width:0;"/>
        <!-- Polyligne -->
        <path d="M-27.89791666666719,44.93999999999979 L-37.6991666666672,44.93999999999979 L-37.6991666666672,49.72999999999981 L-27.89791666666719,49.72999999999981 Z" style="stroke:#000000;stroke-width:0;"/>
        <!-- Polyligne -->
        <path d="M-84.5050000000005,-30.2800000000002 L-84.5050000000005,-15.68875000000019 L-79.71500000000053,-15.68875000000019 L-79.71500000000053,-25.4900000000002 L-74.70375000000053,-25.4900000000002 L-74.70375000000053,-30.2800000000002 Z" style="stroke:#000000;stroke-width:0;"/>
        <!-- Polyligne -->
        <path d="M-27.89791666666719,-30.2800000000002 L-37.6991666666672,-30.2800000000002 L-37.6991666666672,-25.4900000000002 L-27.89791666666719,-25.4900000000002 Z" style="stroke:#000000;stroke-width:0;"/>
        <!-- Polyligne -->
        <path d="M-14.29625000000054,-25.4900000000002 L-9.28500000000053,-25.4900000000002 L-9.28500000000053,-15.68875000000019 L-4.495000000000528,-15.68875000000019 L-4.495000000000528,-30.2800000000002 L-14.29625000000054,-30.2800000000002 Z" style="stroke:#000000;stroke-width:0;"/>
        <!-- Polyligne -->
        <path d="M-51.30083333333387,-30.2800000000002 L-61.10208333333386,-30.2800000000002 L-61.10208333333386,-25.4900000000002 L-51.30083333333387,-25.4900000000002 Z" style="stroke:#000000;stroke-width:0;"/>
        <!-- Polyligne -->
        <path d="M-4.495000000000528,49.72999999999981 L-4.495000000000528,35.1387499999998 L-9.28500000000053,35.1387499999998 L-9.28500000000053,44.9399999999998 L-14.29625000000053,44.9399999999998 L-14.29625000000053,49.72999999999981 Z" style="stroke:#000000;stroke-width:0;"/>
        <!-- Cercle -->
        <circle cx="-13.74999999999992" cy="-15.75000000000004" r="1.4" style="stroke:#000000;stroke-width:0;"/>
        <!-- Cercle -->
        <circle cx="-75.25000000000087" cy="-15.75000000000013" r="1.4" style="stroke:#000000;stroke-width:0;"/>
        <!-- Cercle -->
        <circle cx="-75.25000000000097" cy="3.749999999999866" r="1.4" style="stroke:#000000;stroke-width:0;"/>
        <!-- Cercle -->
        <circle cx="-13.75000000000002" cy="3.749999999999952" r="1.4" style="stroke:#000000;stroke-width:0;"/>
        <!-- Cercle -->
        <circle cx="-44.50000000000053" cy="-6.000000000000188" r="4.999999999999999" style="stroke:#000000;stroke-width:0;"/>
    </g>
</svg>
