<?xml version="1.0" encoding="UTF-8"?>
<!-- 2017-11-03 17:02:48 Generated by QCAD SVG Exporter -->
<svg width="84.80000000000037mm" height="81.00999999999999mm" viewBox="-4.990000000000398 -15.09124999999999 84.80000000000037 81.00999999999999" version="1.1" xmlns="http://www.w3.org/2000/svg" style="stroke-linecap:round;stroke-linejoin:round;fill:none">
    <g transform="scale(1,-1)">
        <!-- Polyligne -->
        <path d="M18.89,-17.23812500000016 L18.89,-27.03937500000016 L14.1,-27.03937500000016 L14.1,-17.23812500000016 Z" style="stroke:#000000;stroke-width:0;"/>
        <!-- Polyligne -->
        <path d="M5.941249999999955,15.09124999999999 C5.388965250199957,15.09124999999999 4.941249999999955,14.643534749799988 4.941249999999955,14.091249999999985 L4.941249999999955,9.901249999999981 L-4.990000000000004,9.901249999999973 L-4.989999999999996,0.8999999999999896 C-4.989999999999996,0.3477152501999986 -4.542284749799996,-0.10000000000000109 -3.989999999999996,-0.10000000000000109 L6e-16,-0.0999999999999979 L-1.1e-15,-9.701249999999998 L-3.990000000000399,-9.701249999999998 C-4.542284749800398,-9.701249999999998 -4.990000000000398,-10.148965250199998 -4.990000000000398,-10.701249999999996 L-4.990000000000041,-18.70250000000004 C-4.990000000000041,-19.2547847498 -4.5422847498000385,-19.7025 -3.990000000000036,-19.7025 L2.2e-15,-19.7025 L6.7e-15,-32.63874999999979 L14,-32.63874999999978 L14,-49.63874999999976 L-2.2e-15,-49.63874999999977 L-1.7e-15,-50.7275 L-3.990000000000002,-50.7275 C-4.542284749800002,-50.7275 -4.990000000000002,-51.1752152502 -4.990000000000002,-51.7275 L-4.990000000000003,-60.72874999999999 L4.94124999999994,-60.72874999999999 L4.941249999999939,-64.91875 C4.941249999999939,-65.4710347498 5.388965250199939,-65.91875 5.941249999999939,-65.91875 L14.14249999999993,-65.91875 C14.69478474979993,-65.91875 15.14249999999993,-65.4710347498 15.14249999999993,-64.91875 L15.14249999999994,-60.72874999999999 L25.34374999999995,-60.72874999999999 L25.34374999999994,-64.91875 C25.343749999999936,-65.47103474980001 25.791465250199938,-65.91875 26.343749999999943,-65.91875 L34.54499999999995,-65.91875 C35.097284749799954,-65.91875 35.54499999999995,-65.4710347498 35.54499999999995,-64.91875 L35.54499999999995,-60.72874999999999 L45.74624999999993,-60.72874999999999 L45.74624999999994,-64.91874999999999 C45.74624999999994,-65.47103474979998 46.19396525019994,-65.91874999999999 46.74624999999994,-65.91874999999999 L54.94749999999996,-65.91875 C55.49978474979996,-65.91874999999999 55.94749999999996,-65.4710347498 55.94749999999996,-64.91874999999999 L55.94749999999995,-60.72874999999999 L66.14874999999996,-60.72874999999999 L66.14874999999996,-64.91874999999999 C66.14874999999998,-65.4710347498 66.59646525019998,-65.91874999999999 67.14874999999998,-65.91874999999999 L75.34999999999997,-65.91875 C75.90228474979996,-65.91875 76.34999999999997,-65.4710347498 76.34999999999997,-64.91875 L76.34999999999997,-60.72874999999999 L79.80999999999997,-60.72875 L79.80999999999996,9.901250000000141 L76.34999999999997,9.901249999999973 L76.34999999999995,14.09124999999999 C76.34999999999995,14.64353474979999 75.90228474979995,15.09124999999999 75.34999999999995,15.09124999999999 L67.14874999999995,15.09124999999998 C66.59646525019996,15.091249999999977 66.14874999999995,14.643534749799977 66.14874999999995,14.09124999999998 L66.14874999999995,9.901249999999973 L55.94749999999996,9.901249999999973 L55.94749999999995,14.09124999999998 C55.94749999999995,14.643534749799993 55.49978474979995,15.09124999999999 54.947499999999955,15.09124999999999 L46.74624999999994,15.09124999999999 C46.19396525019993,15.09124999999999 45.74624999999993,14.643534749799988 45.74624999999993,14.091249999999986 L45.74624999999994,9.901249999999973 L35.54499999999996,9.901249999999973 L35.54499999999995,14.09124999999999 C35.54499999999995,14.64353474979999 35.097284749799954,15.09124999999999 34.54499999999995,15.09124999999999 L26.34374999999995,15.09124999999998 C25.791465250199952,15.091249999999977 25.34374999999995,14.643534749799977 25.34374999999995,14.09124999999998 L25.34374999999995,9.901249999999981 L15.14249999999995,9.901249999999981 L15.14249999999995,14.09124999999999 C15.14249999999995,14.643534749799988 14.694784749799949,15.09124999999999 14.142499999999945,15.09124999999999 Z" style="stroke:#000000;stroke-width:0;"/>
    </g>
</svg>
