<?xml version="1.0" encoding="UTF-8"?>
<!-- 2017-11-03 17:03:06 Generated by QCAD SVG Exporter -->
<svg width="84.99999999999999mm" height="89.99000000000005mm" viewBox="-10.20125 -85.10000000000004 84.99999999999999 89.99000000000005" version="1.1" xmlns="http://www.w3.org/2000/svg" style="stroke-linecap:round;stroke-linejoin:round;fill:none">
    <g transform="scale(1,-1)">
        <!-- Polyligne -->
        <path d="M-6.906250000000007,85.10000000000004 C-7.458534749800001,85.10000000000004 -7.906250000000007,84.65228474980003 -7.906250000000007,84.10000000000002 L-7.906249999999994,80.11000000000004 L-10.20124999999999,80.11000000000004 L-10.20125,-3.889999999999993 C-10.201249999999998,-4.442284749799987 -9.753534749800002,-4.889999999999984 -9.201250000000005,-4.889999999999984 L-0.9999999999999964,-4.889999999999998 C-0.44771525019999947,-4.889999999999997 3.552713678800501e-15,-4.442284749799994 3.552713678800501e-15,-3.889999999999991 L0,0 L14.73166666666666,0 L14.73166666666666,-3.889999999999984 C14.73166666666666,-4.442284749799986 15.179381916866658,-4.889999999999984 15.731666666666655,-4.889999999999984 L23.93291666666666,-4.889999999999998 C24.48520141646666,-4.889999999999997 24.93291666666666,-4.442284749799994 24.93291666666666,-3.889999999999991 L24.93291666666666,0 L39.66458333333333,0 L39.66458333333331,-3.889999999999984 C39.66458333333331,-4.442284749799984 40.11229858353331,-4.889999999999984 40.66458333333331,-4.889999999999984 L48.8658333333333,-4.889999999999998 C49.418118083133294,-4.889999999999997 49.8658333333333,-4.442284749799994 49.8658333333333,-3.889999999999991 L49.86583333333332,0 L64.59749999999995,0 L64.59749999999995,-3.889999999999984 C64.59749999999997,-4.442284749799981 65.04521525019997,-4.889999999999984 65.59749999999997,-4.889999999999984 L73.79874999999996,-4.890000000000016 C74.35103474979995,-4.890000000000016 74.79874999999996,-4.4422847498000175 74.79874999999996,-3.89000000000002 L74.79874999999998,80.11000000000001 L72.50375000000001,80.11000000000001 L72.50375000000001,84.1 C72.50375,84.65228474979999 72.05603474979999,85.1 71.50375,85.1 L63.30249999999999,85.1 C62.750215250199986,85.1 62.30249999999999,84.65228474979999 62.30249999999998,84.1 L62.30249999999999,80.11000000000001 L49.10083333333333,80.11000000000001 L49.10083333333333,84.1 C49.10083333333333,84.65228474979999 48.65311808313333,85.1 48.10083333333333,85.1 L39.89958333333333,85.10000000000004 C39.347298583533345,85.10000000000004 38.89958333333333,84.65228474980003 38.89958333333333,84.10000000000002 L38.89958333333333,80.11000000000001 L34.79374999999998,80.10999999999999 L34.79374999999999,66.20999999999994 L30.00374999999998,66.20999999999994 L30.00374999999998,80.10999999999999 L25.69791666666666,80.11000000000001 L25.69791666666667,84.10000000000001 C25.69791666666667,84.65228474980003 25.250201416466666,85.10000000000004 24.697916666666657,85.10000000000004 L16.49666666666665,85.10000000000004 C15.944381916866655,85.10000000000004 15.49666666666665,84.65228474980003 15.496666666666648,84.10000000000002 L15.49666666666666,80.11000000000001 L2.295000000000007,80.11000000000004 L2.294999999999998,84.10000000000001 C2.294999999999998,84.65228474980003 1.8472847497999945,85.10000000000004 1.29500000000001,85.10000000000004 Z" style="stroke:#000000;stroke-width:0;"/>
        <!-- Polyligne -->
        <path d="M46.76541666666694,61.21999999999996 L46.76541666666694,66.00999999999996 L56.56666666666694,66.00999999999996 L56.56666666666694,61.21999999999996 Z" style="stroke:#000000;stroke-width:0;"/>
        <!-- Polyligne -->
        <path d="M8.230833333332965,66.00999999999996 L18.03208333333296,66.00999999999996 L18.03208333333296,61.21999999999996 L8.230833333332965,61.21999999999996 Z" style="stroke:#000000;stroke-width:0;"/>
        <!-- Polyligne -->
        <path d="M72.20374999999997,3.960000000000016 L67.41374999999996,3.960000000000016 L67.41374999999996,13.76125000000002 L72.20374999999997,13.76125000000002 Z" style="stroke:#000000;stroke-width:0;"/>
        <!-- Polyligne -->
        <path d="M72.20374999999997,34.16375000000006 L72.20374999999997,24.36250000000004 L67.41374999999996,24.36250000000004 L67.41374999999996,34.16375000000006 Z" style="stroke:#000000;stroke-width:0;"/>
        <!-- Polyligne -->
        <path d="M72.20374999999997,74.96875000000009 L72.20374999999997,65.16750000000006 L67.41375,65.16750000000006 L67.41375,74.96875000000009 Z" style="stroke:#000000;stroke-width:0;"/>
        <!-- Polyligne -->
        <path d="M72.20374999999999,54.56625000000008 L72.20374999999999,44.76500000000007 L67.41374999999996,44.76500000000007 L67.41374999999996,54.56625000000008 Z" style="stroke:#000000;stroke-width:0;"/>
        <!-- Polyligne -->
        <path d="M-2.816249999999991,74.96875000000009 L-2.816249999999991,65.16750000000008 L-7.606249999999983,65.16750000000005 L-7.606249999999983,74.96875000000009 Z" style="stroke:#000000;stroke-width:0;"/>
        <!-- Polyligne -->
        <path d="M-2.81625,54.56625000000008 L-2.81625,44.76500000000007 L-7.606250000000009,44.76500000000005 L-7.606250000000009,54.56625000000009 Z" style="stroke:#000000;stroke-width:0;"/>
        <!-- Polyligne -->
        <path d="M-2.81625,34.16375000000007 L-2.81625,24.36250000000005 L-7.606249999999992,24.36250000000005 L-7.606249999999992,34.16375000000007 Z" style="stroke:#000000;stroke-width:0;"/>
        <!-- Polyligne -->
        <path d="M-2.81625,13.76125000000002 L-2.81625,3.960000000000016 L-7.606250000000001,3.960000000000016 L-7.606250000000001,13.76125000000003 Z" style="stroke:#000000;stroke-width:0;"/>
    </g>
</svg>
