<?xml version="1.0" encoding="UTF-8"?>
<!-- 2017-11-03 17:03:19 Generated by QCAD SVG Exporter -->
<svg width="32.114996451791924mm" height="30.00000000000001mm" viewBox="-13.99999999999998 -15.00000000000002 32.114996451791924 30.00000000000001" version="1.1" xmlns="http://www.w3.org/2000/svg" style="stroke-linecap:round;stroke-linejoin:round;fill:none">
    <g transform="scale(1,-1)">
        <!-- Polyligne -->
        <path d="M-12.99999999999998,15.00000000000001 C-13.55228474979998,15.00000000000001 -13.99999999999998,14.55228474980001 -13.99999999999998,14.00000000000001 L-13.99999999999998,-14.99999999999999 L-0.9000000000000054,-14.99999999999999 C-0.34771525020000604,-14.999999999999991 0.09999999999999631,-14.55228474979999 0.09999999999999631,-13.999999999999986 L0.099999999999999,8.9e-15 L4.889999999999997,8.9e-15 L4.890000000000006,-9.939179596359187 C4.890000000000006,-10.491464346159187 5.337715250200007,-10.939179596359187 5.890000000000007,-10.939179596359187 C6.307547804426131,-10.939179596359187 6.665324496794433,-10.683269044122978 6.8149833664219335,-10.319877453618886 L12.28942222235856,2.992523804059494 L12.288871399372866,2.9939447775960444 C12.727549490603078,4.058649800870787 13.612424988868911,4.892490690491566 14.71061034512935,5.262579897417366 L14.71273960170598,5.2607168139248754 C16.69111990912708,5.9278952351632475 18.114996451791946,7.797665524787016 18.114996451791946,10.000000000000018 C18.114996451791946,12.761423749000018 15.876420200791946,15.00000000000002 13.114996451791946,15.00000000000002 Z" style="stroke:#000000;stroke-width:0;"/>
    </g>
</svg>
