<?xml version="1.0" encoding="UTF-8"?>
<!-- 2017-10-12 14:50:44 Generated by QCAD SVG Exporter -->
<svg width="85.00000000000004mm" height="85mm" viewBox="-87.00000000000038 -52.22499999999979 85.00000000000004 85" version="1.1" xmlns="http://www.w3.org/2000/svg" style="stroke-linecap:round;stroke-linejoin:round;fill:none">
    <g transform="scale(1,-1)">
        <!-- Polyligne -->
        <path d="M-46.80000000000034,37.22499999999977 L-46.80000000000034,52.22499999999978 L-87.00000000000038,52.22499999999979 L-87.00000000000038,-32.77500000000021 L-2.000000000000348,-32.77500000000021 L-2.000000000000339,52.22499999999978 L-42.20000000000033,52.22499999999978 L-42.20000000000034,37.2249999999998 Z" style="stroke:#000000;stroke-width:0;"/>
        <!-- Polyligne -->
        <path d="M-84.55000000000035,25.7499999999998 L-79.95000000000034,25.7499999999998 L-79.95000000000034,16.03749999999979 L-84.55000000000035,16.03749999999979 Z" style="stroke:#000000;stroke-width:0;"/>
        <!-- Polyligne -->
        <path d="M-4.45000000000034,16.03749999999979 L-9.050000000000349,16.03749999999979 L-9.050000000000349,25.7499999999998 L-4.45000000000034,25.7499999999998 Z" style="stroke:#000000;stroke-width:0;"/>
        <!-- Polyligne -->
        <path d="M-74.83750000000035,45.17499999999977 L-79.95000000000034,45.17499999999976 L-79.95000000000034,35.46249999999979 L-84.55000000000035,35.46249999999978 L-84.55000000000035,49.77499999999978 L-74.83750000000035,49.77499999999979 Z" style="stroke:#000000;stroke-width:0;"/>
        <!-- Polyligne -->
        <path d="M-51.37500000000034,45.17499999999976 L-61.08750000000036,45.17499999999976 L-61.08750000000036,49.77499999999978 L-51.37500000000034,49.77499999999978 Z" style="stroke:#000000;stroke-width:0;"/>
        <!-- Polyligne -->
        <path d="M-27.91250000000033,45.17499999999977 L-37.62500000000036,45.17499999999977 L-37.62500000000036,49.77499999999979 L-27.91250000000034,49.77499999999979 Z" style="stroke:#000000;stroke-width:0;"/>
        <!-- Polyligne -->
        <path d="M-84.55000000000032,-30.32500000000022 L-84.55000000000032,-16.01250000000021 L-79.95000000000034,-16.01250000000021 L-79.95000000000034,-25.72500000000021 L-74.83750000000035,-25.72500000000021 L-74.83750000000035,-30.32500000000021 Z" style="stroke:#000000;stroke-width:0;"/>
        <!-- Polyligne -->
        <path d="M-27.91250000000034,-30.32500000000021 L-37.62500000000035,-30.32500000000021 L-37.62500000000035,-25.72500000000021 L-27.91250000000034,-25.72500000000021 Z" style="stroke:#000000;stroke-width:0;"/>
        <!-- Polyligne -->
        <path d="M-14.16250000000034,-25.72500000000021 L-9.050000000000349,-25.72500000000021 L-9.050000000000349,-16.01250000000021 L-4.450000000000349,-16.01250000000021 L-4.450000000000349,-30.3250000000002 L-14.16250000000034,-30.3250000000002 Z" style="stroke:#000000;stroke-width:0;"/>
        <!-- Polyligne -->
        <path d="M-51.37500000000034,-30.32500000000021 L-61.08750000000036,-30.32500000000021 L-61.08750000000036,-25.72500000000021 L-51.37500000000034,-25.72500000000021 Z" style="stroke:#000000;stroke-width:0;"/>
        <!-- Polyligne -->
        <path d="M-4.45000000000034,49.77499999999979 L-4.45000000000034,35.46249999999979 L-9.050000000000349,35.46249999999979 L-9.050000000000338,45.17499999999978 L-14.16250000000035,45.17499999999977 L-14.16250000000035,49.77499999999979 Z" style="stroke:#000000;stroke-width:0;"/>
        <!-- Cercle -->
        <circle cx="-13.74999999999992" cy="-15.75000000000005" r="1.349999999999999" style="stroke:#000000;stroke-width:0;"/>
        <!-- Cercle -->
        <circle cx="-75.25000000000088" cy="-15.75000000000014" r="1.349999999999999" style="stroke:#000000;stroke-width:0;"/>
        <!-- Cercle -->
        <circle cx="-75.25000000000097" cy="3.749999999999854" r="1.349999999999999" style="stroke:#000000;stroke-width:0;"/>
        <!-- Cercle -->
        <circle cx="-13.75000000000002" cy="3.749999999999948" r="1.349999999999999" style="stroke:#000000;stroke-width:0;"/>
        <!-- Cercle -->
        <circle cx="-44.50000000000034" cy="-6.000000000000211" r="4.999999999999999" style="stroke:#000000;stroke-width:0;"/>
    </g>
</svg>
