<?xml version="1.0" encoding="UTF-8"?>
<!-- 2017-10-12 14:50:50 Generated by QCAD SVG Exporter -->
<svg width="84.69999999999996mm" height="81.59999999999998mm" viewBox="-4.900000000000013 -15.06249999999998 84.69999999999996 81.59999999999998" version="1.1" xmlns="http://www.w3.org/2000/svg" style="stroke-linecap:round;stroke-linejoin:round;fill:none">
    <g transform="scale(1,-1)">
        <!-- Polyligne -->
        <path d="M18.75,-17.60624999999981 L18.75,-27.31874999999982 L14.15,-27.31874999999982 L14.15,-17.60624999999982 Z" style="stroke:#000000;stroke-width:0;"/>
        <!-- Polyligne -->
        <path d="M79.79999999999995,-61.33749999999999 L79.79999999999995,9.862499999999867 L76.33333333333329,9.8625 L76.33333333333329,15.06249999999998 L66.02083333333327,15.06249999999998 L66.02083333333329,9.8625 L55.70833333333327,9.862499999999992 L55.70833333333327,15.06249999999998 L45.39583333333326,15.06249999999998 L45.39583333333334,9.862500000000098 L35.08333333333335,9.862500000000098 L35.08333333333328,15.06249999999998 L24.77083333333327,15.06249999999998 L24.77083333333335,9.862500000000098 L14.45833333333335,9.862500000000098 L14.45833333333326,15.06249999999998 L4.145833333333253,15.06249999999998 L4.145833333333352,9.862500000000098 L-4.900000000000009,9.862500000000107 L-4.900000000000008,-0.1500000000000057 L-6e-16,-0.1500000000000057 L-2.2e-15,-9.562499999999991 L-4.900000000000013,-9.562499999999991 L-4.900000000000007,-19.57500000000002 L-6e-16,-19.57500000000003 L7.2e-15,-32.96249999999983 L13.99999999999999,-32.96249999999982 L14,-49.96249999999982 L-2.2e-15,-49.96249999999982 L-2.8e-15,-51.32499999999997 L-4.899999999999995,-51.32499999999997 L-4.899999999999992,-61.33749999999995 L4.145833333333355,-61.3375 L4.145833333333355,-66.5375 L14.45833333333335,-66.5375 L14.45833333333335,-61.33749999999999 L24.77083333333335,-61.3375 L24.77083333333335,-66.53749999999998 L35.08333333333336,-66.53749999999998 L35.08333333333335,-61.33749999999999 L45.39583333333333,-61.3375 L45.39583333333334,-66.5375 L55.70833333333332,-66.5375 L55.70833333333332,-61.33749999999999 L66.02083333333331,-61.33749999999999 L66.02083333333331,-66.5375 L76.33333333333331,-66.5375 L76.33333333333334,-61.33749999999999 Z" style="stroke:#000000;stroke-width:0;"/>
    </g>
</svg>
