<?xml version="1.0" encoding="UTF-8"?>
<!-- 2017-10-12 14:50:55 Generated by QCAD SVG Exporter -->
<svg width="84.99999999999999mm" height="84.70000000000003mm" viewBox="-2.450000000000009 -84.7 84.99999999999999 84.70000000000003" version="1.1" xmlns="http://www.w3.org/2000/svg" style="stroke-linecap:round;stroke-linejoin:round;fill:none">
    <g transform="scale(1,-1)">
        <!-- Polyligne -->
        <path d="M75.34999999999998,80.9333333333334 L79.94999999999999,80.9333333333334 L79.94999999999999,71.22083333333337 L75.34999999999998,71.22083333333337 Z" style="stroke:#000000;stroke-width:0;"/>
        <!-- Polyligne -->
        <path d="M79.95,60.30833333333319 L79.95,50.59583333333321 L75.34999999999998,50.59583333333321 L75.34999999999998,60.30833333333319 Z" style="stroke:#000000;stroke-width:0;"/>
        <!-- Polyligne -->
        <path d="M79.95,19.05833333333339 L79.95,9.345833333333387 L75.34999999999998,9.345833333333387 L75.34999999999998,19.05833333333339 Z" style="stroke:#000000;stroke-width:0;"/>
        <!-- Polyligne -->
        <path d="M79.95000000000002,39.68333333333338 L79.95000000000002,29.97083333333339 L75.34999999999997,29.97083333333339 L75.34999999999997,39.68333333333338 Z" style="stroke:#000000;stroke-width:0;"/>
        <!-- Polyligne -->
        <path d="M4.750000000000014,19.05833333333339 L4.750000000000014,9.345833333333387 L0.149999999999979,9.345833333333387 L0.149999999999979,19.05833333333339 Z" style="stroke:#000000;stroke-width:0;"/>
        <!-- Polyligne -->
        <path d="M4.750000000000005,39.68333333333338 L4.750000000000005,29.97083333333339 L0.1499999999999702,29.97083333333339 L0.1499999999999702,39.68333333333338 Z" style="stroke:#000000;stroke-width:0;"/>
        <!-- Polyligne -->
        <path d="M4.750000000000005,60.30833333333319 L4.750000000000005,50.59583333333321 L0.149999999999979,50.59583333333321 L0.149999999999979,60.30833333333319 Z" style="stroke:#000000;stroke-width:0;"/>
        <!-- Polyligne -->
        <path d="M4.749999999999987,80.93333333333337 L4.749999999999987,71.22083333333337 L0.1499999999999879,71.22083333333337 L0.1499999999999879,80.9333333333334 Z" style="stroke:#000000;stroke-width:0;"/>
        <!-- Polyligne -->
        <path d="M64.37916666666656,23.65000000000003 L64.37916666666656,19.05000000000002 L54.66666666666657,19.05000000000002 L54.66666666666657,23.65000000000003 Z" style="stroke:#000000;stroke-width:0;"/>
        <!-- Polyligne -->
        <path d="M16.02083333333318,23.65000000000003 L25.73333333333319,23.65000000000003 L25.73333333333319,19.05000000000002 L16.02083333333318,19.05000000000002 Z" style="stroke:#000000;stroke-width:0;"/>
        <!-- Polyligne -->
        <path d="M36.37000000000024,84.7 L36.37000000000024,82.1 L12.27000000000023,82.1 L12.27000000000023,84.7 L-2.449999999999583,84.7 L-2.450000000000009,4.900000000000002 L-0.3000000000000114,4.899999999999967 L-0.3000000000000114,-1.55e-14 L10.01250000000038,-3.33e-14 L10.01250000000038,4.899999999999985 L23.16250000000036,4.899999999999985 L23.16250000000036,-3.33e-14 L33.47500000000036,-3.33e-14 L33.47500000000036,4.899999999999985 L46.62500000000038,4.899999999999985 L46.62500000000038,-1.55e-14 L56.93750000000038,-1.55e-14 L56.93750000000038,4.899999999999985 L70.0875000000004,4.899999999999985 L70.0875000000004,2.2e-15 L80.4000000000004,2.2e-15 L80.4000000000004,4.899999999999985 L82.54999999999998,4.899999999999594 L82.54999999999998,84.7 L67.83000000000015,84.7 L67.83000000000015,82.1 L43.73000000000015,82.1 L43.73000000000015,84.7 Z" style="stroke:#000000;stroke-width:0;"/>
        <!-- Cercle -->
        <circle cx="47.17999999999979" cy="76.70000000000002" r="0.625" style="stroke:#000000;stroke-width:0;"/>
        <!-- Cercle -->
        <circle cx="32.92000000000024" cy="76.70000000000002" r="0.625" style="stroke:#000000;stroke-width:0;"/>
        <!-- Cercle -->
        <circle cx="15.72000000000024" cy="76.70000000000002" r="0.625" style="stroke:#000000;stroke-width:0;"/>
        <!-- Cercle -->
        <circle cx="64.3799999999998" cy="76.7" r="0.625" style="stroke:#000000;stroke-width:0;"/>
        <!-- Cercle -->
        <circle cx="70.34999999999998" cy="73.76458333333309" r="2.424999999999999" style="stroke:#000000;stroke-width:0;"/>
        <!-- Cercle -->
        <circle cx="70.34999999999998" cy="65.76458333333308" r="3" style="stroke:#000000;stroke-width:0;"/>
    </g>
</svg>
