<?xml version="1.0" encoding="UTF-8"?>
<!-- 2017-10-12 14:50:59 Generated by QCAD SVG Exporter -->
<svg width="85mm" height="89.90000000000003mm" viewBox="-10.31250000000044 -85.15 85 89.90000000000003" version="1.1" xmlns="http://www.w3.org/2000/svg" style="stroke-linecap:round;stroke-linejoin:round;fill:none">
    <g transform="scale(1,-1)">
        <!-- Polyligne -->
        <path d="M56.51666666666621,61.49999999999995 L46.8041666666662,61.49999999999995 L46.8041666666662,66.09999999999995 L56.51666666666621,66.09999999999995 Z" style="stroke:#000000;stroke-width:0;"/>
        <!-- Polyligne -->
        <path d="M8.15833333333285,61.49999999999998 L8.15833333333285,66.1 L17.87083333333285,66.1 L17.87083333333285,61.49999999999998 Z" style="stroke:#000000;stroke-width:0;"/>
        <!-- Polyligne -->
        <path d="M30.03749999999983,66.39999999999995 L30.03749999999983,80.24999999999999 L25.61249999999993,80.25 L25.61249999999993,85.15 L15.29999999999992,85.15 L15.29999999999992,80.25 L2.149999999999945,80.25 L2.149999999999945,85.15 L-8.162500000000446,85.15 L-8.162500000000446,80.25000000000003 L-10.31250000000044,80.24999999999999 L-10.31250000000001,-4.750000000000014 L0,-4.749999999999987 L0,0 L14.58333333333317,0 L14.58333333333317,-4.749999999999969 L24.89583333333317,-4.749999999999969 L24.89583333333317,0 L39.47916666666633,0 L39.47916666666633,-4.749999999999969 L49.79166666666633,-4.749999999999969 L49.79166666666632,0 L64.3749999999995,0 L64.3749999999995,-4.749999999999987 L74.68749999999949,-4.750000000000023 L74.68749999999956,80.25000000000038 L72.53749999999997,80.25 L72.53749999999997,85.14999999999998 L62.22499999999996,85.14999999999998 L62.22499999999996,80.25 L49.07499999999995,80.25 L49.07499999999995,85.15 L38.76249999999996,85.15 L38.76249999999996,80.25 L34.63749999999983,80.24999999999999 L34.63749999999984,66.39999999999995 Z" style="stroke:#000000;stroke-width:0;"/>
        <!-- Polyligne -->
        <path d="M72.08749999999955,4.216666666666606 L67.48749999999956,4.216666666666606 L67.48749999999956,13.92916666666663 L72.08749999999955,13.92916666666663 Z" style="stroke:#000000;stroke-width:0;"/>
        <!-- Polyligne -->
        <path d="M72.08749999999958,34.5541666666668 L72.08749999999957,24.84166666666681 L67.48749999999954,24.84166666666681 L67.48749999999954,34.5541666666668 Z" style="stroke:#000000;stroke-width:0;"/>
        <!-- Polyligne -->
        <path d="M72.08749999999957,75.8041666666666 L72.08749999999958,66.09166666666658 L67.48749999999954,66.09166666666658 L67.48749999999954,75.8041666666666 Z" style="stroke:#000000;stroke-width:0;"/>
        <!-- Polyligne -->
        <path d="M72.08749999999958,55.17916666666661 L72.08749999999958,45.46666666666659 L67.48749999999953,45.46666666666659 L67.48749999999953,55.17916666666661 Z" style="stroke:#000000;stroke-width:0;"/>
        <!-- Polyligne -->
        <path d="M-3.112500000000419,75.8041666666666 L-3.112500000000419,66.09166666666658 L-7.712500000000455,66.09166666666658 L-7.712500000000455,75.8041666666666 Z" style="stroke:#000000;stroke-width:0;"/>
        <!-- Polyligne -->
        <path d="M-3.112500000000428,55.17916666666661 L-3.112500000000428,45.46666666666659 L-7.712500000000463,45.46666666666659 L-7.712500000000463,55.17916666666661 Z" style="stroke:#000000;stroke-width:0;"/>
        <!-- Polyligne -->
        <path d="M-3.112500000000428,34.5541666666668 L-3.112500000000428,24.84166666666681 L-7.712500000000455,24.84166666666681 L-7.712500000000455,34.5541666666668 Z" style="stroke:#000000;stroke-width:0;"/>
        <!-- Polyligne -->
        <path d="M-3.112500000000437,13.92916666666663 L-3.112500000000437,4.216666666666624 L-7.712500000000437,4.216666666666606 L-7.712500000000437,13.92916666666663 Z" style="stroke:#000000;stroke-width:0;"/>
    </g>
</svg>
