<?xml version="1.0" encoding="UTF-8"?>
<!-- 2017-10-12 14:51:03 Generated by QCAD SVG Exporter -->
<svg width="81.0000000000001mm" height="81.44999999999999mm" viewBox="-12.59999999999979 -63.02500000000009 81.0000000000001 81.44999999999999" version="1.1" xmlns="http://www.w3.org/2000/svg" style="stroke-linecap:round;stroke-linejoin:round;fill:none">
    <g transform="scale(1,-1)">
        <!-- Polyligne -->
        <path d="M10.40000000000036,16.00000000000016 L10.40000000000034,31.00000000000016 L45.40000000000036,31.00000000000021 L45.40000000000039,16.00000000000022 Z" style="stroke:#000000;stroke-width:0;"/>
        <!-- Polyligne -->
        <path d="M7.149999999999998,0.149999999999999 L7.149999999999998,12.99999999999999 L14.5,13 L14.5,0.1500000000000012 Z" style="stroke:#000000;stroke-width:0;"/>
        <!-- Polyligne -->
        <path d="M41.00000000000096,0.1500000000002311 L41.00000000000095,13.00000000000023 L48.35000000000097,13.00000000000023 L48.35000000000096,0.1500000000002299 Z" style="stroke:#000000;stroke-width:0;"/>
        <!-- Polyligne -->
        <path d="M52.37916666666709,-13.22499999999982 L63.20000000000047,-13.2249999999998 L63.2000000000003,20.3437500000003 L68.4000000000003,20.34375000000032 L68.40000000000026,30.65625000000031 L63.20000000000025,30.65625000000029 L63.20000000000043,57.82499999999991 L52.37916666666698,57.82500000000007 L52.37916666666696,63.02500000000009 L42.06666666666692,63.02500000000006 L42.06666666666682,57.82500000000012 L13.73333333333349,57.82499999999999 L13.73333333333362,63.02500000000001 L3.420833333333623,63.02500000000001 L3.420833333333632,57.82499999999991 L-7.399999999999877,57.82499999999989 L-7.399999999999797,30.65624999999999 L-12.59999999999979,30.65624999999996 L-12.59999999999974,20.34374999999997 L-7.399999999999744,20.34375 L-7.399999999999646,-13.22499999999986 L3.420833333333703,-13.2249999999999 L3.420833333333712,-18.4249999999999 L13.73333333333371,-18.42499999999988 L13.73333333333374,-13.22499999999988 L42.06666666666707,-13.22499999999984 L42.06666666666708,-18.42499999999984 L52.37916666666709,-18.42499999999983 Z" style="stroke:#000000;stroke-width:0;"/>
        <!-- Cercle -->
        <circle cx="-3.000000000000007" cy="16.25" r="1.349999999999999" style="stroke:#000000;stroke-width:0;"/>
        <!-- Cercle -->
        <circle cx="-3.000000000000007" cy="-3.249999999999993" r="1.349999999999999" style="stroke:#000000;stroke-width:0;"/>
        <!-- Cercle -->
        <circle cx="58.50000000000095" cy="16.25000000000023" r="1.349999999999999" style="stroke:#000000;stroke-width:0;"/>
        <!-- Cercle -->
        <circle cx="58.50000000000095" cy="-3.249999999999766" r="1.349999999999999" style="stroke:#000000;stroke-width:0;"/>
        <!-- Cercle -->
        <circle cx="27.75000000000038" cy="6.500000000000001" r="4.999999999999999" style="stroke:#000000;stroke-width:0;"/>
    </g>
</svg>
