<?xml version="1.0" encoding="UTF-8"?>
<!-- 2017-10-12 14:51:08 Generated by QCAD SVG Exporter -->
<svg width="41.49999999999989mm" height="30mm" viewBox="-27.49999999999991 -15 41.49999999999989 30" version="1.1" xmlns="http://www.w3.org/2000/svg" style="stroke-linecap:round;stroke-linejoin:round;fill:none">
    <g transform="scale(1,-1)">
        <!-- Polyligne -->
        <path d="M13.99999999999998,14 C13.99999999999998,14.5522847498 13.55228474979998,15 12.99999999999998,15 L-22.49999999999992,14.99999999999997 C-25.261423748999913,14.999999999999968 -27.49999999999991,12.76142374899997 -27.49999999999991,9.999999999999975 C-27.49999999999991,7.620303909347008 -25.837549299976576,5.628893984361733 -23.612105252134235,5.124123703146366 L-23.60762062581195,5.125122798644857 C-22.780087965501618,4.937167105651133 -22.050047065021307,4.492629317304535 -21.505571340549913,3.879582849783969 L-6.497924903695581,-13.03050715076553 L-6.4979333717423735,-13.030514070891204 C-6.314749249207073,-13.236766991299357 -6.047551143961723,-13.366723798735702 -5.749999999999998,-13.366723798735702 C-5.197715250199998,-13.366723798735702 -4.749999999999997,-12.9190085485357 -4.749999999999997,-12.3667237987357 L-4.749999999999998,0 L-0.149999999999999,0 L-0.149999999999999,-13.99999999999999 C-0.1499999999999988,-14.55228474979999 0.2977152502000012,-14.99999999999999 0.8500000000000012,-14.99999999999999 L13.99999999999998,-15 Z" style="stroke:#000000;stroke-width:0;"/>
    </g>
</svg>
