<?xml version="1.0" encoding="UTF-8"?>
<!-- 2017-10-26 14:05:33 Generated by QCAD SVG Exporter -->
<svg width="32.1149964517919mm" height="30mm" viewBox="-13.999999999999982 -15.00000000000001 32.1149964517919 30" version="1.1" xmlns="http://www.w3.org/2000/svg" style="stroke-linecap:round;stroke-linejoin:round;fill:none">
    <g transform="scale(1,-1)">
        <!-- Polyligne -->
        <path d="M-12.99999999999998,15 C-13.55228474979998,15 -13.999999999999982,14.552284749799998 -13.999999999999982,13.999999999999996 L-13.99999999999998,-14.99999999999999 L-0.8750000000000036,-14.99999999999999 C-0.3227152502000028,-14.99999999999999 0.12499999999999734,-14.55228474979999 0.12499999999999734,-13.99999999999999 L0.1250000000000007,0 L4.874999999999997,8.9e-15 L4.875000000000006,-9.947699347397378 C4.875000000000005,-10.499984097197373 5.322715250200005,-10.947699347397373 5.875000000000004,-10.947699347397373 C6.292320834854864,-10.947699347397373 6.649935520448436,-10.692066933957038 6.799739142716672,-10.32898941203079 L12.28865150493097,2.994307517738699 L12.288101107399697,2.9957250889938978 C12.727218652750828,4.059548839188278 13.611909520952606,4.892569504162401 14.709639569134739,5.262252941045974 L14.711769088206474,5.260389861767839 C16.6906544447342,5.927284067197881 18.11499645179192,7.797305583287335 18.11499645179192,10.00000000000001 C18.11499645179192,12.761423749000011 15.876420200791921,15.00000000000001 13.114996451791923,15.00000000000001 Z" style="stroke:#000000;stroke-width:0;"/>
    </g>
</svg>
