G04 EAGLE Gerber X2 export*
G75*
%MOMM*%
%FSLAX34Y34*%
%LPD*%
%AMOC8*
5,1,8,0,0,1.08239X$1,22.5*%
G01*
%ADD10R,1.000000X1.100000*%
%ADD11C,1.320800*%
%ADD12C,1.308000*%
%ADD13R,1.100000X1.000000*%
%ADD14P,2.749271X8X112.500000*%
%ADD15R,1.879600X1.879600*%
%ADD16C,1.879600*%
%ADD17C,1.508000*%
%ADD18R,1.508000X1.508000*%
%ADD19C,1.208000*%
%ADD20R,1.778000X1.778000*%
%ADD21C,0.406400*%
%ADD22C,1.270000*%
%ADD23C,1.016000*%

G36*
X175480Y10941D02*
X175480Y10941D01*
X175593Y10957D01*
X175601Y10961D01*
X175611Y10962D01*
X175711Y11015D01*
X175813Y11066D01*
X175820Y11073D01*
X175828Y11078D01*
X175906Y11160D01*
X175987Y11241D01*
X175991Y11249D01*
X175997Y11256D01*
X176045Y11359D01*
X176096Y11461D01*
X176097Y11470D01*
X176101Y11479D01*
X176113Y11592D01*
X176129Y11705D01*
X176127Y11714D01*
X176128Y11723D01*
X176104Y11834D01*
X176082Y11946D01*
X176078Y11955D01*
X176076Y11964D01*
X176018Y12061D01*
X175961Y12161D01*
X175954Y12167D01*
X175950Y12175D01*
X175863Y12249D01*
X175779Y12325D01*
X175768Y12330D01*
X175763Y12335D01*
X175740Y12344D01*
X175628Y12399D01*
X174290Y12886D01*
X174267Y12891D01*
X174227Y12906D01*
X173598Y13075D01*
X173359Y13213D01*
X173329Y13224D01*
X173239Y13269D01*
X169840Y14506D01*
X167069Y16831D01*
X167042Y16847D01*
X166977Y16895D01*
X166968Y16902D01*
X166965Y16904D01*
X166960Y16907D01*
X166721Y17045D01*
X166261Y17505D01*
X166241Y17519D01*
X166212Y17550D01*
X161646Y21382D01*
X156297Y30646D01*
X155262Y36516D01*
X155254Y36539D01*
X155248Y36581D01*
X155079Y37209D01*
X155079Y37486D01*
X155074Y37517D01*
X155068Y37618D01*
X154440Y41180D01*
X155068Y44742D01*
X155068Y44773D01*
X155079Y44874D01*
X155079Y45151D01*
X155248Y45779D01*
X155250Y45803D01*
X155262Y45844D01*
X156297Y51714D01*
X161646Y60978D01*
X166212Y64810D01*
X166228Y64828D01*
X166261Y64855D01*
X166721Y65315D01*
X166960Y65453D01*
X166985Y65473D01*
X167069Y65529D01*
X169840Y67854D01*
X173239Y69091D01*
X173266Y69106D01*
X173359Y69147D01*
X173598Y69285D01*
X174227Y69454D01*
X174249Y69464D01*
X174290Y69474D01*
X179892Y71512D01*
X190588Y71512D01*
X196190Y69474D01*
X196214Y69469D01*
X196253Y69454D01*
X196882Y69285D01*
X197121Y69147D01*
X197151Y69136D01*
X197241Y69091D01*
X200640Y67854D01*
X203411Y65529D01*
X203438Y65513D01*
X203520Y65453D01*
X203759Y65315D01*
X204219Y64855D01*
X204239Y64841D01*
X204268Y64810D01*
X208834Y60978D01*
X214183Y51714D01*
X215218Y45844D01*
X215226Y45821D01*
X215232Y45779D01*
X215401Y45151D01*
X215401Y44874D01*
X215406Y44843D01*
X215412Y44742D01*
X216040Y41180D01*
X215412Y37618D01*
X215412Y37587D01*
X215401Y37486D01*
X215401Y37209D01*
X215232Y36581D01*
X215230Y36557D01*
X215218Y36516D01*
X214183Y30646D01*
X208834Y21382D01*
X204268Y17550D01*
X204252Y17532D01*
X204219Y17505D01*
X203759Y17045D01*
X203520Y16907D01*
X203495Y16887D01*
X203470Y16871D01*
X203446Y16858D01*
X203438Y16849D01*
X203411Y16831D01*
X200640Y14506D01*
X197241Y13269D01*
X197214Y13254D01*
X197121Y13213D01*
X196882Y13075D01*
X196253Y12906D01*
X196231Y12896D01*
X196190Y12886D01*
X194852Y12399D01*
X194752Y12343D01*
X194652Y12290D01*
X194646Y12284D01*
X194637Y12279D01*
X194561Y12194D01*
X194483Y12112D01*
X194479Y12104D01*
X194472Y12096D01*
X194427Y11992D01*
X194379Y11889D01*
X194378Y11880D01*
X194374Y11871D01*
X194364Y11757D01*
X194352Y11645D01*
X194354Y11635D01*
X194353Y11626D01*
X194380Y11516D01*
X194404Y11404D01*
X194409Y11396D01*
X194411Y11387D01*
X194472Y11291D01*
X194530Y11193D01*
X194538Y11187D01*
X194543Y11179D01*
X194630Y11107D01*
X194717Y11033D01*
X194726Y11030D01*
X194733Y11024D01*
X194839Y10984D01*
X194945Y10941D01*
X194957Y10940D01*
X194964Y10937D01*
X194987Y10937D01*
X195112Y10923D01*
X498687Y10923D01*
X498781Y10938D01*
X498876Y10947D01*
X498902Y10958D01*
X498930Y10962D01*
X499014Y11007D01*
X499101Y11045D01*
X499122Y11064D01*
X499147Y11078D01*
X499213Y11147D01*
X499283Y11211D01*
X499297Y11235D01*
X499316Y11256D01*
X499357Y11342D01*
X499403Y11426D01*
X499408Y11453D01*
X499420Y11479D01*
X499430Y11574D01*
X499448Y11667D01*
X499444Y11695D01*
X499447Y11723D01*
X499427Y11817D01*
X499413Y11911D01*
X499399Y11943D01*
X499395Y11964D01*
X499378Y11992D01*
X499346Y12065D01*
X497254Y15688D01*
X495539Y22088D01*
X495539Y28712D01*
X497254Y35112D01*
X500566Y40849D01*
X505251Y45534D01*
X510988Y48846D01*
X517388Y50561D01*
X524012Y50561D01*
X530412Y48846D01*
X534035Y46754D01*
X534124Y46720D01*
X534211Y46680D01*
X534239Y46677D01*
X534265Y46667D01*
X534361Y46663D01*
X534455Y46653D01*
X534483Y46659D01*
X534511Y46658D01*
X534603Y46685D01*
X534696Y46705D01*
X534720Y46720D01*
X534747Y46728D01*
X534825Y46783D01*
X534907Y46831D01*
X534925Y46853D01*
X534948Y46869D01*
X535005Y46946D01*
X535067Y47018D01*
X535077Y47045D01*
X535094Y47067D01*
X535123Y47158D01*
X535159Y47246D01*
X535163Y47282D01*
X535169Y47302D01*
X535169Y47334D01*
X535177Y47413D01*
X535177Y186767D01*
X535166Y186837D01*
X535164Y186909D01*
X535146Y186958D01*
X535138Y187009D01*
X535104Y187073D01*
X535079Y187140D01*
X535047Y187181D01*
X535022Y187227D01*
X534970Y187276D01*
X534926Y187332D01*
X534882Y187360D01*
X534844Y187396D01*
X534779Y187426D01*
X534719Y187465D01*
X534668Y187478D01*
X534621Y187500D01*
X534550Y187508D01*
X534480Y187525D01*
X534428Y187521D01*
X534377Y187527D01*
X534306Y187512D01*
X534235Y187506D01*
X534187Y187486D01*
X534136Y187475D01*
X534075Y187438D01*
X534009Y187410D01*
X533953Y187365D01*
X533925Y187348D01*
X533910Y187331D01*
X533878Y187305D01*
X532862Y186289D01*
X529960Y183387D01*
X434009Y183387D01*
X433919Y183373D01*
X433828Y183365D01*
X433799Y183353D01*
X433767Y183348D01*
X433686Y183305D01*
X433602Y183269D01*
X433570Y183243D01*
X433549Y183232D01*
X433527Y183209D01*
X433471Y183164D01*
X425413Y175106D01*
X425368Y175043D01*
X425345Y175020D01*
X425336Y174999D01*
X425275Y174918D01*
X425273Y174912D01*
X425270Y174907D01*
X425236Y174796D01*
X425199Y174684D01*
X425199Y174678D01*
X425197Y174672D01*
X425200Y174555D01*
X425202Y174438D01*
X425204Y174431D01*
X425204Y174426D01*
X425210Y174408D01*
X425248Y174277D01*
X426641Y170915D01*
X426641Y166905D01*
X425106Y163200D01*
X422270Y160364D01*
X418565Y158829D01*
X414555Y158829D01*
X410850Y160364D01*
X408014Y163200D01*
X406479Y166905D01*
X406479Y170915D01*
X408014Y174620D01*
X410850Y177456D01*
X414555Y178991D01*
X416049Y178991D01*
X416139Y179005D01*
X416230Y179013D01*
X416259Y179025D01*
X416291Y179030D01*
X416372Y179073D01*
X416456Y179109D01*
X416488Y179135D01*
X416509Y179146D01*
X416531Y179169D01*
X416587Y179214D01*
X429906Y192533D01*
X525857Y192533D01*
X525947Y192547D01*
X526038Y192555D01*
X526067Y192567D01*
X526099Y192572D01*
X526180Y192615D01*
X526264Y192651D01*
X526296Y192677D01*
X526317Y192688D01*
X526339Y192711D01*
X526395Y192756D01*
X528350Y194711D01*
X528403Y194785D01*
X528463Y194855D01*
X528475Y194885D01*
X528494Y194911D01*
X528521Y194998D01*
X528555Y195083D01*
X528559Y195124D01*
X528566Y195146D01*
X528565Y195178D01*
X528573Y195249D01*
X528573Y207068D01*
X528558Y207164D01*
X528548Y207261D01*
X528538Y207284D01*
X528534Y207310D01*
X528488Y207396D01*
X528448Y207485D01*
X528431Y207505D01*
X528418Y207528D01*
X528348Y207595D01*
X528282Y207666D01*
X528259Y207679D01*
X528240Y207697D01*
X528152Y207738D01*
X528066Y207785D01*
X528041Y207790D01*
X528017Y207801D01*
X527920Y207811D01*
X527824Y207829D01*
X527798Y207825D01*
X527773Y207828D01*
X527677Y207807D01*
X527581Y207793D01*
X527558Y207781D01*
X527532Y207775D01*
X527449Y207726D01*
X527362Y207681D01*
X527343Y207663D01*
X527321Y207649D01*
X527258Y207575D01*
X527190Y207506D01*
X527174Y207477D01*
X527161Y207462D01*
X527149Y207432D01*
X527109Y207359D01*
X525741Y204057D01*
X522383Y200699D01*
X517995Y198881D01*
X513245Y198881D01*
X508857Y200699D01*
X505499Y204057D01*
X503681Y208445D01*
X503681Y213195D01*
X505499Y217583D01*
X508857Y220941D01*
X513245Y222759D01*
X517995Y222759D01*
X522345Y220957D01*
X522440Y220934D01*
X522533Y220906D01*
X522559Y220906D01*
X522585Y220900D01*
X522682Y220910D01*
X522779Y220912D01*
X522804Y220921D01*
X522830Y220924D01*
X522918Y220963D01*
X523010Y220997D01*
X523031Y221013D01*
X523054Y221024D01*
X523126Y221089D01*
X523202Y221150D01*
X523216Y221172D01*
X523236Y221190D01*
X523283Y221275D01*
X523335Y221357D01*
X523342Y221383D01*
X523354Y221405D01*
X523371Y221501D01*
X523395Y221596D01*
X523393Y221622D01*
X523398Y221648D01*
X523384Y221744D01*
X523376Y221841D01*
X523366Y221865D01*
X523362Y221891D01*
X523318Y221978D01*
X523280Y222067D01*
X523259Y222093D01*
X523251Y222110D01*
X523227Y222133D01*
X523175Y222198D01*
X511047Y234326D01*
X511047Y351683D01*
X511028Y351798D01*
X511011Y351914D01*
X511009Y351920D01*
X511008Y351926D01*
X510953Y352028D01*
X510900Y352133D01*
X510895Y352138D01*
X510892Y352143D01*
X510809Y352223D01*
X510724Y352305D01*
X510718Y352309D01*
X510714Y352313D01*
X510697Y352320D01*
X510577Y352386D01*
X508857Y353099D01*
X505499Y356457D01*
X503681Y360845D01*
X503681Y365595D01*
X505499Y369983D01*
X508857Y373341D01*
X513245Y375159D01*
X517995Y375159D01*
X522383Y373341D01*
X525741Y369983D01*
X527559Y365595D01*
X527559Y360845D01*
X525741Y356457D01*
X522383Y353099D01*
X520663Y352386D01*
X520563Y352325D01*
X520463Y352265D01*
X520459Y352260D01*
X520454Y352257D01*
X520379Y352167D01*
X520303Y352078D01*
X520301Y352072D01*
X520297Y352067D01*
X520255Y351959D01*
X520211Y351850D01*
X520210Y351842D01*
X520209Y351838D01*
X520208Y351819D01*
X520193Y351683D01*
X520193Y238429D01*
X520207Y238339D01*
X520215Y238248D01*
X520227Y238219D01*
X520232Y238187D01*
X520275Y238106D01*
X520311Y238022D01*
X520337Y237990D01*
X520348Y237969D01*
X520371Y237947D01*
X520416Y237891D01*
X533878Y224429D01*
X533936Y224387D01*
X533988Y224338D01*
X534035Y224316D01*
X534077Y224286D01*
X534146Y224264D01*
X534211Y224234D01*
X534263Y224228D01*
X534313Y224213D01*
X534384Y224215D01*
X534455Y224207D01*
X534506Y224218D01*
X534558Y224220D01*
X534626Y224244D01*
X534696Y224259D01*
X534741Y224286D01*
X534789Y224304D01*
X534845Y224349D01*
X534907Y224386D01*
X534941Y224425D01*
X534981Y224458D01*
X535020Y224518D01*
X535067Y224572D01*
X535086Y224621D01*
X535114Y224665D01*
X535132Y224734D01*
X535159Y224801D01*
X535167Y224872D01*
X535175Y224903D01*
X535173Y224926D01*
X535177Y224967D01*
X535177Y574887D01*
X535162Y574981D01*
X535153Y575076D01*
X535142Y575102D01*
X535138Y575130D01*
X535093Y575214D01*
X535055Y575301D01*
X535036Y575322D01*
X535022Y575347D01*
X534953Y575413D01*
X534889Y575483D01*
X534865Y575497D01*
X534844Y575516D01*
X534758Y575557D01*
X534674Y575603D01*
X534647Y575608D01*
X534621Y575620D01*
X534526Y575630D01*
X534433Y575648D01*
X534405Y575644D01*
X534377Y575647D01*
X534283Y575627D01*
X534189Y575613D01*
X534157Y575599D01*
X534136Y575595D01*
X534108Y575578D01*
X534035Y575546D01*
X530412Y573454D01*
X524012Y571739D01*
X517388Y571739D01*
X510988Y573454D01*
X505251Y576766D01*
X500566Y581451D01*
X497254Y587188D01*
X495539Y593588D01*
X495539Y600212D01*
X497254Y606612D01*
X499346Y610235D01*
X499380Y610324D01*
X499420Y610411D01*
X499423Y610439D01*
X499433Y610465D01*
X499437Y610561D01*
X499447Y610655D01*
X499441Y610683D01*
X499442Y610711D01*
X499415Y610803D01*
X499395Y610896D01*
X499380Y610920D01*
X499372Y610947D01*
X499317Y611025D01*
X499269Y611107D01*
X499247Y611125D01*
X499231Y611148D01*
X499154Y611205D01*
X499082Y611267D01*
X499055Y611277D01*
X499033Y611294D01*
X498942Y611323D01*
X498854Y611359D01*
X498818Y611363D01*
X498798Y611369D01*
X498766Y611369D01*
X498687Y611377D01*
X47413Y611377D01*
X47319Y611362D01*
X47224Y611353D01*
X47198Y611342D01*
X47170Y611338D01*
X47086Y611293D01*
X46999Y611255D01*
X46978Y611236D01*
X46953Y611222D01*
X46887Y611153D01*
X46817Y611089D01*
X46803Y611065D01*
X46784Y611044D01*
X46743Y610958D01*
X46697Y610874D01*
X46692Y610847D01*
X46680Y610821D01*
X46670Y610726D01*
X46652Y610633D01*
X46656Y610605D01*
X46653Y610577D01*
X46673Y610483D01*
X46687Y610389D01*
X46701Y610357D01*
X46705Y610336D01*
X46722Y610308D01*
X46754Y610235D01*
X48846Y606612D01*
X50561Y600212D01*
X50561Y593588D01*
X48846Y587188D01*
X45534Y581451D01*
X40849Y576766D01*
X35112Y573454D01*
X28712Y571739D01*
X22088Y571739D01*
X15688Y573454D01*
X12065Y575546D01*
X11976Y575580D01*
X11889Y575620D01*
X11861Y575623D01*
X11835Y575633D01*
X11739Y575637D01*
X11645Y575647D01*
X11617Y575641D01*
X11589Y575642D01*
X11497Y575615D01*
X11404Y575595D01*
X11380Y575580D01*
X11353Y575572D01*
X11275Y575517D01*
X11193Y575469D01*
X11175Y575447D01*
X11152Y575431D01*
X11095Y575354D01*
X11033Y575282D01*
X11023Y575255D01*
X11006Y575233D01*
X10977Y575142D01*
X10941Y575054D01*
X10937Y575018D01*
X10931Y574998D01*
X10931Y574966D01*
X10923Y574887D01*
X10923Y182372D01*
X10926Y182352D01*
X10924Y182333D01*
X10946Y182231D01*
X10962Y182129D01*
X10972Y182112D01*
X10976Y182092D01*
X11029Y182003D01*
X11078Y181912D01*
X11092Y181898D01*
X11102Y181881D01*
X11181Y181814D01*
X11256Y181742D01*
X11274Y181734D01*
X11289Y181721D01*
X11385Y181682D01*
X11479Y181639D01*
X11499Y181637D01*
X11517Y181629D01*
X11684Y181611D01*
X25182Y181611D01*
X26671Y180122D01*
X26671Y160238D01*
X25182Y158749D01*
X11684Y158749D01*
X11664Y158746D01*
X11645Y158748D01*
X11543Y158726D01*
X11441Y158710D01*
X11424Y158700D01*
X11404Y158696D01*
X11315Y158643D01*
X11224Y158594D01*
X11210Y158580D01*
X11193Y158570D01*
X11126Y158491D01*
X11054Y158416D01*
X11046Y158398D01*
X11033Y158383D01*
X10994Y158287D01*
X10951Y158193D01*
X10949Y158173D01*
X10941Y158155D01*
X10923Y157988D01*
X10923Y47413D01*
X10938Y47319D01*
X10947Y47224D01*
X10958Y47198D01*
X10962Y47170D01*
X11007Y47086D01*
X11045Y46999D01*
X11064Y46978D01*
X11078Y46953D01*
X11147Y46887D01*
X11211Y46817D01*
X11235Y46803D01*
X11256Y46784D01*
X11342Y46743D01*
X11426Y46697D01*
X11453Y46692D01*
X11479Y46680D01*
X11574Y46670D01*
X11667Y46652D01*
X11695Y46656D01*
X11723Y46653D01*
X11817Y46673D01*
X11911Y46687D01*
X11943Y46701D01*
X11964Y46705D01*
X11992Y46722D01*
X12065Y46754D01*
X15688Y48846D01*
X22088Y50561D01*
X28712Y50561D01*
X35112Y48846D01*
X40849Y45534D01*
X45534Y40849D01*
X48846Y35112D01*
X50561Y28712D01*
X50561Y22088D01*
X48846Y15688D01*
X46754Y12065D01*
X46720Y11976D01*
X46680Y11889D01*
X46677Y11861D01*
X46667Y11835D01*
X46663Y11739D01*
X46653Y11645D01*
X46659Y11617D01*
X46658Y11589D01*
X46685Y11497D01*
X46705Y11404D01*
X46720Y11380D01*
X46728Y11353D01*
X46783Y11275D01*
X46831Y11193D01*
X46853Y11175D01*
X46869Y11152D01*
X46946Y11095D01*
X47018Y11033D01*
X47045Y11023D01*
X47067Y11006D01*
X47158Y10977D01*
X47246Y10941D01*
X47282Y10937D01*
X47302Y10931D01*
X47334Y10931D01*
X47413Y10923D01*
X175368Y10923D01*
X175480Y10941D01*
G37*
%LPC*%
G36*
X132245Y351281D02*
X132245Y351281D01*
X127857Y353099D01*
X124499Y356457D01*
X122681Y360845D01*
X122681Y365595D01*
X124499Y369983D01*
X127857Y373341D01*
X129577Y374054D01*
X129677Y374115D01*
X129777Y374175D01*
X129781Y374180D01*
X129786Y374183D01*
X129861Y374273D01*
X129937Y374362D01*
X129939Y374368D01*
X129943Y374373D01*
X129985Y374481D01*
X130029Y374590D01*
X130030Y374598D01*
X130031Y374602D01*
X130032Y374621D01*
X130047Y374757D01*
X130047Y378791D01*
X130033Y378881D01*
X130025Y378972D01*
X130013Y379001D01*
X130008Y379033D01*
X129965Y379114D01*
X129929Y379198D01*
X129903Y379230D01*
X129892Y379251D01*
X129869Y379273D01*
X129824Y379329D01*
X86867Y422286D01*
X86867Y484494D01*
X109866Y507493D01*
X131443Y507493D01*
X131558Y507512D01*
X131674Y507529D01*
X131680Y507531D01*
X131686Y507532D01*
X131788Y507587D01*
X131893Y507640D01*
X131898Y507645D01*
X131903Y507648D01*
X131983Y507732D01*
X132066Y507816D01*
X132069Y507822D01*
X132073Y507826D01*
X132081Y507843D01*
X132147Y507963D01*
X132726Y509361D01*
X134875Y511510D01*
X134930Y511587D01*
X134991Y511659D01*
X135002Y511686D01*
X135019Y511710D01*
X135046Y511800D01*
X135081Y511888D01*
X135082Y511917D01*
X135091Y511945D01*
X135089Y512039D01*
X135093Y512133D01*
X135085Y512162D01*
X135085Y512191D01*
X135052Y512279D01*
X135027Y512370D01*
X135010Y512394D01*
X135000Y512422D01*
X134941Y512496D01*
X134888Y512573D01*
X134860Y512597D01*
X134847Y512614D01*
X134819Y512632D01*
X134760Y512681D01*
X134530Y512835D01*
X133335Y514030D01*
X132396Y515435D01*
X131749Y516997D01*
X131554Y517977D01*
X139238Y517977D01*
X139258Y517980D01*
X139277Y517978D01*
X139379Y518000D01*
X139481Y518017D01*
X139498Y518026D01*
X139518Y518030D01*
X139607Y518083D01*
X139698Y518132D01*
X139712Y518146D01*
X139729Y518156D01*
X139796Y518235D01*
X139867Y518310D01*
X139876Y518328D01*
X139889Y518343D01*
X139927Y518439D01*
X139971Y518533D01*
X139973Y518553D01*
X139981Y518571D01*
X139999Y518738D01*
X139999Y520262D01*
X139996Y520282D01*
X139998Y520301D01*
X139976Y520403D01*
X139959Y520505D01*
X139950Y520522D01*
X139946Y520542D01*
X139893Y520631D01*
X139844Y520722D01*
X139830Y520736D01*
X139820Y520753D01*
X139741Y520820D01*
X139666Y520891D01*
X139648Y520900D01*
X139633Y520913D01*
X139537Y520952D01*
X139443Y520995D01*
X139423Y520997D01*
X139405Y521005D01*
X139238Y521023D01*
X131554Y521023D01*
X131749Y522003D01*
X132396Y523565D01*
X133335Y524970D01*
X134583Y526218D01*
X134588Y526225D01*
X134640Y526266D01*
X134655Y526291D01*
X134677Y526311D01*
X134722Y526394D01*
X134773Y526473D01*
X134780Y526502D01*
X134794Y526527D01*
X134810Y526620D01*
X134833Y526712D01*
X134830Y526741D01*
X134835Y526770D01*
X134821Y526863D01*
X134814Y526957D01*
X134802Y526984D01*
X134798Y527013D01*
X134754Y527097D01*
X134717Y527183D01*
X134694Y527212D01*
X134684Y527231D01*
X134661Y527254D01*
X134612Y527314D01*
X132463Y529464D01*
X131109Y532732D01*
X131109Y536268D01*
X132463Y539536D01*
X134964Y542037D01*
X138232Y543391D01*
X198419Y543391D01*
X198509Y543405D01*
X198600Y543413D01*
X198630Y543425D01*
X198662Y543430D01*
X198742Y543473D01*
X198826Y543509D01*
X198858Y543535D01*
X198879Y543546D01*
X198901Y543569D01*
X198957Y543614D01*
X199036Y543693D01*
X202397Y545085D01*
X219243Y545085D01*
X222604Y543693D01*
X225177Y541120D01*
X226569Y537759D01*
X226569Y534121D01*
X225177Y530760D01*
X222604Y528187D01*
X219243Y526795D01*
X211810Y526795D01*
X211763Y526787D01*
X211714Y526789D01*
X211590Y526759D01*
X211568Y526756D01*
X211562Y526752D01*
X211551Y526750D01*
X210071Y526214D01*
X210060Y526208D01*
X210039Y526202D01*
X208608Y525609D01*
X208532Y525609D01*
X208485Y525601D01*
X208436Y525603D01*
X208312Y525573D01*
X208290Y525570D01*
X208284Y525566D01*
X208273Y525564D01*
X208202Y525538D01*
X206655Y525608D01*
X206641Y525607D01*
X206620Y525609D01*
X188662Y525609D01*
X188547Y525590D01*
X188431Y525573D01*
X188425Y525571D01*
X188419Y525570D01*
X188317Y525515D01*
X188212Y525462D01*
X188207Y525457D01*
X188202Y525454D01*
X188122Y525370D01*
X188040Y525286D01*
X188036Y525280D01*
X188033Y525276D01*
X188025Y525259D01*
X187959Y525139D01*
X187939Y525091D01*
X187931Y525057D01*
X187929Y525053D01*
X187928Y525046D01*
X187924Y525027D01*
X187899Y524966D01*
X187890Y524883D01*
X187883Y524851D01*
X187884Y524832D01*
X187881Y524800D01*
X187881Y520108D01*
X186376Y518602D01*
X186307Y518507D01*
X186236Y518410D01*
X186234Y518406D01*
X186232Y518403D01*
X186197Y518290D01*
X186161Y518176D01*
X186161Y518172D01*
X186160Y518168D01*
X186163Y518049D01*
X186165Y517930D01*
X186166Y517926D01*
X186166Y517922D01*
X186207Y517810D01*
X186246Y517698D01*
X186249Y517695D01*
X186250Y517691D01*
X186325Y517597D01*
X186398Y517504D01*
X186402Y517501D01*
X186404Y517499D01*
X186416Y517491D01*
X186533Y517405D01*
X186900Y517193D01*
X187373Y516720D01*
X187708Y516141D01*
X187881Y515494D01*
X187881Y511183D01*
X181863Y511183D01*
X181863Y517858D01*
X181860Y517878D01*
X181862Y517897D01*
X181840Y517999D01*
X181823Y518101D01*
X181814Y518118D01*
X181810Y518138D01*
X181757Y518227D01*
X181708Y518318D01*
X181694Y518332D01*
X181684Y518349D01*
X181605Y518416D01*
X181530Y518488D01*
X181512Y518496D01*
X181497Y518509D01*
X181401Y518548D01*
X181307Y518591D01*
X181287Y518593D01*
X181269Y518601D01*
X181102Y518619D01*
X179578Y518619D01*
X179558Y518616D01*
X179539Y518618D01*
X179437Y518596D01*
X179335Y518580D01*
X179318Y518570D01*
X179298Y518566D01*
X179209Y518513D01*
X179118Y518464D01*
X179104Y518450D01*
X179087Y518440D01*
X179020Y518361D01*
X178949Y518286D01*
X178940Y518268D01*
X178927Y518253D01*
X178888Y518157D01*
X178845Y518063D01*
X178843Y518043D01*
X178835Y518025D01*
X178817Y517858D01*
X178817Y511183D01*
X172799Y511183D01*
X172799Y515494D01*
X172972Y516141D01*
X173307Y516720D01*
X173780Y517193D01*
X174147Y517405D01*
X174240Y517481D01*
X174332Y517554D01*
X174334Y517558D01*
X174337Y517561D01*
X174400Y517661D01*
X174465Y517761D01*
X174466Y517765D01*
X174468Y517769D01*
X174496Y517885D01*
X174525Y518000D01*
X174524Y518004D01*
X174525Y518008D01*
X174515Y518127D01*
X174506Y518245D01*
X174504Y518249D01*
X174504Y518253D01*
X174456Y518362D01*
X174409Y518471D01*
X174406Y518475D01*
X174405Y518478D01*
X174395Y518489D01*
X174304Y518602D01*
X172799Y520108D01*
X172799Y524800D01*
X172789Y524864D01*
X172788Y524930D01*
X172765Y525010D01*
X172760Y525042D01*
X172750Y525059D01*
X172741Y525091D01*
X172721Y525139D01*
X172659Y525239D01*
X172600Y525339D01*
X172595Y525343D01*
X172592Y525348D01*
X172501Y525423D01*
X172413Y525499D01*
X172407Y525501D01*
X172402Y525505D01*
X172294Y525547D01*
X172185Y525591D01*
X172177Y525592D01*
X172173Y525593D01*
X172154Y525594D01*
X172018Y525609D01*
X147662Y525609D01*
X147544Y525590D01*
X147425Y525571D01*
X147422Y525570D01*
X147419Y525570D01*
X147314Y525514D01*
X147207Y525458D01*
X147205Y525456D01*
X147202Y525454D01*
X147118Y525366D01*
X147036Y525281D01*
X147035Y525278D01*
X147033Y525276D01*
X146982Y525167D01*
X146931Y525059D01*
X146930Y525056D01*
X146929Y525053D01*
X146916Y524935D01*
X146902Y524815D01*
X146902Y524812D01*
X146902Y524809D01*
X146927Y524692D01*
X146952Y524574D01*
X146954Y524571D01*
X146954Y524568D01*
X146960Y524559D01*
X147029Y524425D01*
X147604Y523565D01*
X148251Y522003D01*
X148446Y521023D01*
X140762Y521023D01*
X140742Y521020D01*
X140723Y521022D01*
X140621Y521000D01*
X140519Y520983D01*
X140502Y520974D01*
X140482Y520970D01*
X140393Y520917D01*
X140302Y520868D01*
X140288Y520854D01*
X140271Y520844D01*
X140204Y520765D01*
X140133Y520690D01*
X140124Y520672D01*
X140111Y520657D01*
X140073Y520561D01*
X140029Y520467D01*
X140027Y520447D01*
X140019Y520429D01*
X140001Y520262D01*
X140001Y518738D01*
X140004Y518718D01*
X140002Y518699D01*
X140024Y518597D01*
X140041Y518495D01*
X140050Y518478D01*
X140054Y518458D01*
X140107Y518369D01*
X140156Y518278D01*
X140170Y518264D01*
X140180Y518247D01*
X140259Y518180D01*
X140334Y518109D01*
X140352Y518100D01*
X140367Y518087D01*
X140463Y518048D01*
X140557Y518005D01*
X140577Y518003D01*
X140595Y517995D01*
X140762Y517977D01*
X148446Y517977D01*
X148251Y516997D01*
X147604Y515435D01*
X146665Y514030D01*
X145470Y512835D01*
X145240Y512681D01*
X145171Y512617D01*
X145098Y512558D01*
X145082Y512534D01*
X145060Y512514D01*
X145016Y512431D01*
X144965Y512351D01*
X144957Y512323D01*
X144944Y512297D01*
X144928Y512204D01*
X144905Y512113D01*
X144907Y512084D01*
X144902Y512055D01*
X144916Y511962D01*
X144924Y511867D01*
X144935Y511841D01*
X144940Y511812D01*
X144983Y511728D01*
X145020Y511641D01*
X145043Y511612D01*
X145053Y511593D01*
X145077Y511571D01*
X145125Y511510D01*
X147274Y509361D01*
X148581Y506207D01*
X148581Y502793D01*
X147274Y499639D01*
X145173Y497538D01*
X145162Y497522D01*
X145146Y497510D01*
X145090Y497422D01*
X145030Y497339D01*
X145024Y497320D01*
X145013Y497303D01*
X144988Y497202D01*
X144957Y497103D01*
X144958Y497084D01*
X144953Y497064D01*
X144961Y496961D01*
X144964Y496858D01*
X144971Y496839D01*
X144972Y496819D01*
X145013Y496724D01*
X145048Y496627D01*
X145061Y496611D01*
X145068Y496593D01*
X145173Y496462D01*
X147274Y494361D01*
X148581Y491207D01*
X148581Y487793D01*
X147274Y484639D01*
X145173Y482538D01*
X145162Y482522D01*
X145146Y482510D01*
X145090Y482422D01*
X145030Y482339D01*
X145024Y482320D01*
X145013Y482303D01*
X144988Y482202D01*
X144957Y482103D01*
X144958Y482084D01*
X144953Y482064D01*
X144961Y481961D01*
X144964Y481858D01*
X144971Y481839D01*
X144972Y481819D01*
X145013Y481724D01*
X145048Y481627D01*
X145061Y481611D01*
X145068Y481593D01*
X145173Y481462D01*
X147274Y479361D01*
X148581Y476207D01*
X148581Y472793D01*
X147262Y469610D01*
X147234Y469580D01*
X147212Y469533D01*
X147182Y469491D01*
X147161Y469422D01*
X147130Y469357D01*
X147125Y469305D01*
X147109Y469256D01*
X147111Y469184D01*
X147103Y469113D01*
X147114Y469062D01*
X147116Y469010D01*
X147140Y468942D01*
X147156Y468872D01*
X147182Y468828D01*
X147200Y468779D01*
X147245Y468723D01*
X147282Y468661D01*
X147321Y468627D01*
X147354Y468587D01*
X147414Y468548D01*
X147469Y468501D01*
X147517Y468482D01*
X147561Y468454D01*
X147630Y468436D01*
X147697Y468409D01*
X147768Y468401D01*
X147799Y468393D01*
X147823Y468395D01*
X147864Y468391D01*
X172038Y468391D01*
X172058Y468394D01*
X172077Y468392D01*
X172179Y468414D01*
X172281Y468430D01*
X172298Y468440D01*
X172318Y468444D01*
X172407Y468497D01*
X172498Y468546D01*
X172512Y468560D01*
X172529Y468570D01*
X172596Y468649D01*
X172668Y468724D01*
X172676Y468742D01*
X172689Y468757D01*
X172728Y468853D01*
X172771Y468947D01*
X172773Y468967D01*
X172781Y468985D01*
X172799Y469152D01*
X172799Y471762D01*
X174304Y473268D01*
X174373Y473363D01*
X174444Y473460D01*
X174446Y473464D01*
X174448Y473467D01*
X174483Y473580D01*
X174519Y473694D01*
X174519Y473698D01*
X174520Y473702D01*
X174517Y473821D01*
X174515Y473940D01*
X174514Y473944D01*
X174514Y473948D01*
X174473Y474060D01*
X174434Y474172D01*
X174431Y474175D01*
X174430Y474179D01*
X174355Y474273D01*
X174282Y474366D01*
X174278Y474369D01*
X174276Y474371D01*
X174264Y474379D01*
X174147Y474465D01*
X173780Y474677D01*
X173307Y475150D01*
X172972Y475729D01*
X172799Y476376D01*
X172799Y480687D01*
X179578Y480687D01*
X179598Y480690D01*
X179617Y480688D01*
X179719Y480710D01*
X179821Y480727D01*
X179838Y480736D01*
X179858Y480740D01*
X179947Y480793D01*
X180038Y480842D01*
X180052Y480856D01*
X180069Y480866D01*
X180136Y480945D01*
X180207Y481020D01*
X180216Y481038D01*
X180229Y481053D01*
X180268Y481149D01*
X180311Y481243D01*
X180313Y481263D01*
X180321Y481281D01*
X180339Y481448D01*
X180339Y482211D01*
X180341Y482211D01*
X180341Y481448D01*
X180344Y481428D01*
X180342Y481409D01*
X180364Y481307D01*
X180381Y481205D01*
X180390Y481188D01*
X180394Y481168D01*
X180447Y481079D01*
X180496Y480988D01*
X180510Y480974D01*
X180520Y480957D01*
X180599Y480890D01*
X180674Y480819D01*
X180692Y480810D01*
X180707Y480797D01*
X180803Y480758D01*
X180897Y480715D01*
X180917Y480713D01*
X180935Y480705D01*
X181102Y480687D01*
X187881Y480687D01*
X187881Y476376D01*
X187708Y475729D01*
X187373Y475150D01*
X186900Y474677D01*
X186533Y474465D01*
X186440Y474389D01*
X186348Y474316D01*
X186346Y474312D01*
X186343Y474309D01*
X186279Y474208D01*
X186215Y474109D01*
X186214Y474105D01*
X186212Y474101D01*
X186184Y473985D01*
X186155Y473870D01*
X186156Y473866D01*
X186155Y473862D01*
X186165Y473743D01*
X186174Y473625D01*
X186176Y473621D01*
X186176Y473617D01*
X186224Y473507D01*
X186271Y473399D01*
X186274Y473395D01*
X186275Y473392D01*
X186285Y473381D01*
X186376Y473268D01*
X187881Y471762D01*
X187881Y469152D01*
X187884Y469132D01*
X187882Y469113D01*
X187904Y469011D01*
X187920Y468909D01*
X187930Y468892D01*
X187934Y468872D01*
X187987Y468783D01*
X188036Y468692D01*
X188050Y468678D01*
X188060Y468661D01*
X188139Y468594D01*
X188214Y468522D01*
X188232Y468514D01*
X188247Y468501D01*
X188343Y468462D01*
X188437Y468419D01*
X188457Y468417D01*
X188475Y468409D01*
X188642Y468391D01*
X201053Y468391D01*
X201118Y468401D01*
X201183Y468402D01*
X201263Y468425D01*
X201296Y468430D01*
X201313Y468440D01*
X201344Y468449D01*
X202397Y468885D01*
X219243Y468885D01*
X222604Y467493D01*
X225177Y464920D01*
X226569Y461559D01*
X226569Y457921D01*
X225177Y454560D01*
X222604Y451987D01*
X219243Y450595D01*
X208294Y450595D01*
X208270Y450591D01*
X208228Y450592D01*
X207043Y450490D01*
X206823Y450560D01*
X206790Y450564D01*
X206760Y450577D01*
X206593Y450595D01*
X202338Y450595D01*
X202296Y450600D01*
X202264Y450607D01*
X202244Y450606D01*
X202212Y450609D01*
X138232Y450609D01*
X134964Y451963D01*
X132463Y454464D01*
X131109Y457732D01*
X131109Y461268D01*
X132463Y464536D01*
X134608Y466681D01*
X134619Y466697D01*
X134635Y466710D01*
X134691Y466797D01*
X134751Y466881D01*
X134757Y466900D01*
X134768Y466916D01*
X134793Y467017D01*
X134823Y467116D01*
X134823Y467136D01*
X134828Y467155D01*
X134820Y467258D01*
X134817Y467362D01*
X134810Y467380D01*
X134809Y467400D01*
X134768Y467495D01*
X134733Y467593D01*
X134720Y467608D01*
X134712Y467627D01*
X134608Y467757D01*
X132726Y469639D01*
X131419Y472793D01*
X131419Y476207D01*
X132726Y479361D01*
X134827Y481462D01*
X134838Y481478D01*
X134854Y481490D01*
X134910Y481578D01*
X134970Y481661D01*
X134976Y481680D01*
X134987Y481697D01*
X135012Y481798D01*
X135043Y481897D01*
X135042Y481916D01*
X135047Y481936D01*
X135039Y482039D01*
X135036Y482142D01*
X135029Y482161D01*
X135028Y482181D01*
X134987Y482276D01*
X134952Y482373D01*
X134939Y482389D01*
X134932Y482407D01*
X134827Y482538D01*
X132661Y484704D01*
X132587Y484757D01*
X132517Y484817D01*
X132487Y484829D01*
X132461Y484848D01*
X132374Y484875D01*
X132289Y484909D01*
X132248Y484913D01*
X132226Y484920D01*
X132194Y484919D01*
X132122Y484927D01*
X120869Y484927D01*
X120779Y484913D01*
X120688Y484905D01*
X120659Y484893D01*
X120627Y484888D01*
X120546Y484845D01*
X120462Y484809D01*
X120430Y484783D01*
X120409Y484772D01*
X120387Y484749D01*
X120331Y484704D01*
X111476Y475849D01*
X111423Y475775D01*
X111363Y475705D01*
X111351Y475675D01*
X111332Y475649D01*
X111305Y475562D01*
X111271Y475477D01*
X111267Y475436D01*
X111260Y475414D01*
X111261Y475382D01*
X111253Y475311D01*
X111253Y439089D01*
X111267Y438999D01*
X111275Y438908D01*
X111287Y438879D01*
X111292Y438847D01*
X111335Y438766D01*
X111371Y438682D01*
X111397Y438650D01*
X111408Y438629D01*
X111431Y438607D01*
X111476Y438551D01*
X164593Y385434D01*
X164593Y374757D01*
X164612Y374642D01*
X164629Y374526D01*
X164631Y374520D01*
X164632Y374514D01*
X164687Y374412D01*
X164740Y374307D01*
X164745Y374302D01*
X164748Y374297D01*
X164832Y374217D01*
X164916Y374135D01*
X164922Y374131D01*
X164926Y374127D01*
X164943Y374120D01*
X165063Y374054D01*
X166783Y373341D01*
X170141Y369983D01*
X171959Y365595D01*
X171959Y360845D01*
X170141Y356457D01*
X166783Y353099D01*
X162395Y351281D01*
X157645Y351281D01*
X153257Y353099D01*
X149899Y356457D01*
X148081Y360845D01*
X148081Y365595D01*
X149899Y369983D01*
X153257Y373341D01*
X154977Y374054D01*
X155077Y374115D01*
X155177Y374175D01*
X155181Y374180D01*
X155186Y374183D01*
X155261Y374273D01*
X155337Y374362D01*
X155339Y374368D01*
X155343Y374373D01*
X155385Y374481D01*
X155429Y374590D01*
X155430Y374598D01*
X155431Y374602D01*
X155432Y374621D01*
X155447Y374757D01*
X155447Y381331D01*
X155433Y381421D01*
X155425Y381512D01*
X155413Y381541D01*
X155408Y381573D01*
X155365Y381654D01*
X155329Y381738D01*
X155303Y381770D01*
X155292Y381791D01*
X155269Y381813D01*
X155224Y381869D01*
X102107Y434986D01*
X102107Y479414D01*
X116766Y494073D01*
X132122Y494073D01*
X132213Y494087D01*
X132303Y494095D01*
X132333Y494107D01*
X132365Y494112D01*
X132446Y494155D01*
X132530Y494191D01*
X132562Y494217D01*
X132583Y494228D01*
X132605Y494251D01*
X132661Y494296D01*
X134827Y496462D01*
X134838Y496478D01*
X134854Y496490D01*
X134910Y496578D01*
X134970Y496661D01*
X134976Y496680D01*
X134987Y496697D01*
X135012Y496798D01*
X135043Y496897D01*
X135042Y496916D01*
X135047Y496936D01*
X135039Y497039D01*
X135036Y497142D01*
X135029Y497161D01*
X135028Y497181D01*
X134988Y497276D01*
X134952Y497373D01*
X134939Y497389D01*
X134932Y497407D01*
X134827Y497538D01*
X134241Y498124D01*
X134167Y498177D01*
X134097Y498237D01*
X134067Y498249D01*
X134041Y498268D01*
X133954Y498295D01*
X133869Y498329D01*
X133828Y498333D01*
X133806Y498340D01*
X133774Y498339D01*
X133702Y498347D01*
X113969Y498347D01*
X113879Y498333D01*
X113788Y498325D01*
X113759Y498313D01*
X113727Y498308D01*
X113646Y498265D01*
X113562Y498229D01*
X113530Y498203D01*
X113509Y498192D01*
X113487Y498169D01*
X113431Y498124D01*
X96236Y480929D01*
X96183Y480855D01*
X96123Y480785D01*
X96111Y480755D01*
X96092Y480729D01*
X96065Y480642D01*
X96031Y480557D01*
X96027Y480516D01*
X96020Y480494D01*
X96021Y480462D01*
X96013Y480391D01*
X96013Y426389D01*
X96027Y426299D01*
X96035Y426208D01*
X96047Y426179D01*
X96052Y426147D01*
X96095Y426066D01*
X96131Y425982D01*
X96157Y425950D01*
X96168Y425929D01*
X96191Y425907D01*
X96236Y425851D01*
X139193Y382894D01*
X139193Y374757D01*
X139212Y374642D01*
X139229Y374526D01*
X139231Y374520D01*
X139232Y374514D01*
X139287Y374412D01*
X139340Y374307D01*
X139345Y374302D01*
X139348Y374297D01*
X139432Y374217D01*
X139516Y374135D01*
X139522Y374131D01*
X139526Y374127D01*
X139543Y374120D01*
X139663Y374054D01*
X141383Y373341D01*
X144741Y369983D01*
X146559Y365595D01*
X146559Y360845D01*
X144741Y356457D01*
X141383Y353099D01*
X136995Y351281D01*
X132245Y351281D01*
G37*
%LPD*%
%LPC*%
G36*
X360845Y351281D02*
X360845Y351281D01*
X356457Y353099D01*
X353099Y356457D01*
X351281Y360845D01*
X351281Y365595D01*
X353099Y369983D01*
X356457Y373341D01*
X358177Y374054D01*
X358277Y374115D01*
X358377Y374175D01*
X358381Y374180D01*
X358386Y374183D01*
X358461Y374273D01*
X358537Y374362D01*
X358539Y374368D01*
X358543Y374373D01*
X358585Y374481D01*
X358629Y374590D01*
X358630Y374598D01*
X358631Y374602D01*
X358632Y374621D01*
X358647Y374757D01*
X358647Y428614D01*
X363504Y433471D01*
X363557Y433545D01*
X363617Y433615D01*
X363629Y433645D01*
X363648Y433671D01*
X363675Y433758D01*
X363709Y433843D01*
X363713Y433884D01*
X363720Y433906D01*
X363719Y433938D01*
X363727Y434009D01*
X363727Y475311D01*
X363726Y475320D01*
X363726Y475325D01*
X363721Y475349D01*
X363713Y475401D01*
X363705Y475492D01*
X363693Y475521D01*
X363688Y475553D01*
X363645Y475634D01*
X363609Y475718D01*
X363583Y475750D01*
X363572Y475771D01*
X363549Y475793D01*
X363504Y475849D01*
X356469Y482884D01*
X356395Y482937D01*
X356325Y482997D01*
X356295Y483009D01*
X356269Y483028D01*
X356182Y483055D01*
X356097Y483089D01*
X356056Y483093D01*
X356034Y483100D01*
X356002Y483099D01*
X355931Y483107D01*
X354338Y483107D01*
X354248Y483093D01*
X354157Y483085D01*
X354127Y483073D01*
X354095Y483068D01*
X354014Y483025D01*
X353930Y482989D01*
X353898Y482963D01*
X353877Y482952D01*
X353855Y482929D01*
X353799Y482884D01*
X353453Y482538D01*
X353442Y482522D01*
X353426Y482510D01*
X353370Y482422D01*
X353310Y482338D01*
X353304Y482320D01*
X353293Y482303D01*
X353268Y482202D01*
X353237Y482103D01*
X353238Y482084D01*
X353233Y482064D01*
X353241Y481961D01*
X353244Y481858D01*
X353251Y481839D01*
X353252Y481819D01*
X353293Y481724D01*
X353328Y481627D01*
X353341Y481611D01*
X353348Y481593D01*
X353453Y481462D01*
X355554Y479361D01*
X356861Y476207D01*
X356861Y472793D01*
X355554Y469639D01*
X353672Y467757D01*
X353661Y467741D01*
X353645Y467729D01*
X353589Y467642D01*
X353529Y467558D01*
X353523Y467539D01*
X353512Y467522D01*
X353487Y467421D01*
X353457Y467323D01*
X353457Y467303D01*
X353452Y467283D01*
X353460Y467180D01*
X353463Y467077D01*
X353470Y467058D01*
X353471Y467038D01*
X353512Y466943D01*
X353547Y466846D01*
X353560Y466830D01*
X353568Y466812D01*
X353672Y466681D01*
X355817Y464536D01*
X357171Y461268D01*
X357171Y457732D01*
X355817Y454464D01*
X353316Y451963D01*
X350048Y450609D01*
X295628Y450609D01*
X295563Y450599D01*
X295498Y450598D01*
X295488Y450595D01*
X278597Y450595D01*
X275236Y451987D01*
X272663Y454560D01*
X271271Y457921D01*
X271271Y461559D01*
X272663Y464920D01*
X275236Y467493D01*
X278597Y468885D01*
X295443Y468885D01*
X296496Y468449D01*
X296559Y468434D01*
X296620Y468409D01*
X296703Y468400D01*
X296735Y468393D01*
X296755Y468394D01*
X296787Y468391D01*
X309198Y468391D01*
X309218Y468394D01*
X309237Y468392D01*
X309339Y468414D01*
X309441Y468430D01*
X309458Y468440D01*
X309478Y468444D01*
X309567Y468497D01*
X309658Y468546D01*
X309672Y468560D01*
X309689Y468570D01*
X309756Y468649D01*
X309828Y468724D01*
X309836Y468742D01*
X309849Y468757D01*
X309888Y468853D01*
X309931Y468947D01*
X309933Y468967D01*
X309941Y468985D01*
X309959Y469152D01*
X309959Y473032D01*
X311464Y474538D01*
X311533Y474633D01*
X311604Y474730D01*
X311606Y474734D01*
X311608Y474737D01*
X311643Y474850D01*
X311679Y474964D01*
X311679Y474968D01*
X311680Y474972D01*
X311677Y475091D01*
X311675Y475210D01*
X311674Y475214D01*
X311674Y475218D01*
X311633Y475330D01*
X311594Y475442D01*
X311591Y475445D01*
X311590Y475449D01*
X311515Y475543D01*
X311442Y475636D01*
X311438Y475639D01*
X311436Y475641D01*
X311424Y475649D01*
X311307Y475735D01*
X310940Y475947D01*
X310467Y476420D01*
X310132Y476999D01*
X309959Y477646D01*
X309959Y481957D01*
X316738Y481957D01*
X316758Y481960D01*
X316777Y481958D01*
X316879Y481980D01*
X316981Y481997D01*
X316998Y482006D01*
X317018Y482010D01*
X317107Y482063D01*
X317198Y482112D01*
X317212Y482126D01*
X317229Y482136D01*
X317296Y482215D01*
X317367Y482290D01*
X317376Y482308D01*
X317389Y482323D01*
X317428Y482419D01*
X317471Y482513D01*
X317473Y482533D01*
X317481Y482551D01*
X317499Y482718D01*
X317499Y483481D01*
X317501Y483481D01*
X317501Y482718D01*
X317504Y482698D01*
X317502Y482679D01*
X317524Y482577D01*
X317541Y482475D01*
X317550Y482458D01*
X317554Y482438D01*
X317607Y482349D01*
X317656Y482258D01*
X317670Y482244D01*
X317680Y482227D01*
X317759Y482160D01*
X317834Y482089D01*
X317852Y482080D01*
X317867Y482067D01*
X317963Y482028D01*
X318057Y481985D01*
X318077Y481983D01*
X318095Y481975D01*
X318262Y481957D01*
X325041Y481957D01*
X325041Y477646D01*
X324868Y476999D01*
X324533Y476420D01*
X324060Y475947D01*
X323693Y475735D01*
X323599Y475658D01*
X323508Y475586D01*
X323506Y475582D01*
X323503Y475579D01*
X323439Y475477D01*
X323375Y475379D01*
X323374Y475375D01*
X323372Y475371D01*
X323344Y475255D01*
X323315Y475140D01*
X323316Y475136D01*
X323315Y475132D01*
X323325Y475013D01*
X323334Y474895D01*
X323336Y474891D01*
X323336Y474887D01*
X323384Y474777D01*
X323431Y474669D01*
X323434Y474665D01*
X323435Y474662D01*
X323445Y474651D01*
X323536Y474538D01*
X325041Y473032D01*
X325041Y469152D01*
X325044Y469132D01*
X325042Y469113D01*
X325064Y469011D01*
X325080Y468909D01*
X325090Y468892D01*
X325094Y468872D01*
X325147Y468783D01*
X325196Y468692D01*
X325210Y468678D01*
X325220Y468661D01*
X325299Y468594D01*
X325374Y468522D01*
X325392Y468514D01*
X325407Y468501D01*
X325503Y468462D01*
X325597Y468419D01*
X325617Y468417D01*
X325635Y468409D01*
X325802Y468391D01*
X340416Y468391D01*
X340487Y468402D01*
X340559Y468404D01*
X340608Y468422D01*
X340659Y468430D01*
X340723Y468464D01*
X340790Y468489D01*
X340831Y468521D01*
X340877Y468546D01*
X340926Y468598D01*
X340982Y468642D01*
X341010Y468686D01*
X341046Y468724D01*
X341076Y468789D01*
X341115Y468849D01*
X341128Y468900D01*
X341150Y468947D01*
X341157Y469018D01*
X341175Y469088D01*
X341171Y469140D01*
X341177Y469191D01*
X341161Y469262D01*
X341156Y469333D01*
X341135Y469381D01*
X341124Y469432D01*
X341088Y469493D01*
X341059Y469559D01*
X341016Y469613D01*
X339699Y472793D01*
X339699Y476207D01*
X341006Y479361D01*
X343107Y481462D01*
X343118Y481478D01*
X343134Y481490D01*
X343190Y481578D01*
X343250Y481661D01*
X343256Y481680D01*
X343267Y481697D01*
X343292Y481798D01*
X343323Y481897D01*
X343322Y481916D01*
X343327Y481936D01*
X343319Y482039D01*
X343316Y482142D01*
X343309Y482161D01*
X343308Y482181D01*
X343267Y482276D01*
X343232Y482373D01*
X343219Y482389D01*
X343212Y482407D01*
X343107Y482538D01*
X341006Y484639D01*
X339699Y487793D01*
X339699Y491207D01*
X341006Y494361D01*
X343107Y496462D01*
X343118Y496478D01*
X343134Y496490D01*
X343190Y496578D01*
X343250Y496661D01*
X343256Y496680D01*
X343267Y496697D01*
X343292Y496798D01*
X343323Y496897D01*
X343322Y496916D01*
X343327Y496936D01*
X343319Y497039D01*
X343316Y497142D01*
X343309Y497161D01*
X343308Y497181D01*
X343267Y497276D01*
X343232Y497373D01*
X343219Y497389D01*
X343212Y497407D01*
X343107Y497538D01*
X341006Y499639D01*
X339699Y502793D01*
X339699Y506207D01*
X341006Y509361D01*
X343155Y511510D01*
X343210Y511587D01*
X343271Y511659D01*
X343282Y511686D01*
X343299Y511710D01*
X343326Y511800D01*
X343361Y511888D01*
X343362Y511917D01*
X343371Y511945D01*
X343369Y512039D01*
X343373Y512134D01*
X343365Y512162D01*
X343365Y512191D01*
X343332Y512280D01*
X343307Y512370D01*
X343290Y512394D01*
X343280Y512422D01*
X343221Y512496D01*
X343168Y512573D01*
X343140Y512597D01*
X343127Y512614D01*
X343099Y512632D01*
X343040Y512681D01*
X342810Y512835D01*
X341615Y514030D01*
X340676Y515435D01*
X340029Y516997D01*
X339834Y517977D01*
X347518Y517977D01*
X347538Y517980D01*
X347557Y517978D01*
X347659Y518000D01*
X347761Y518017D01*
X347778Y518026D01*
X347798Y518030D01*
X347887Y518083D01*
X347978Y518132D01*
X347992Y518146D01*
X348009Y518156D01*
X348076Y518235D01*
X348147Y518310D01*
X348156Y518328D01*
X348169Y518343D01*
X348207Y518439D01*
X348251Y518533D01*
X348253Y518553D01*
X348261Y518571D01*
X348279Y518738D01*
X348279Y520262D01*
X348276Y520282D01*
X348278Y520301D01*
X348256Y520403D01*
X348239Y520505D01*
X348230Y520522D01*
X348226Y520542D01*
X348173Y520631D01*
X348124Y520722D01*
X348110Y520736D01*
X348100Y520753D01*
X348021Y520820D01*
X347946Y520891D01*
X347928Y520900D01*
X347913Y520913D01*
X347817Y520952D01*
X347723Y520995D01*
X347703Y520997D01*
X347685Y521005D01*
X347518Y521023D01*
X339834Y521023D01*
X340029Y522003D01*
X340676Y523565D01*
X341251Y524425D01*
X341300Y524533D01*
X341351Y524643D01*
X341351Y524646D01*
X341353Y524649D01*
X341365Y524766D01*
X341378Y524887D01*
X341378Y524891D01*
X341378Y524894D01*
X341352Y525010D01*
X341326Y525128D01*
X341324Y525131D01*
X341324Y525134D01*
X341261Y525236D01*
X341200Y525339D01*
X341197Y525341D01*
X341196Y525344D01*
X341105Y525420D01*
X341013Y525499D01*
X341010Y525500D01*
X341008Y525502D01*
X340899Y525545D01*
X340785Y525591D01*
X340781Y525591D01*
X340779Y525592D01*
X340768Y525593D01*
X340618Y525609D01*
X325802Y525609D01*
X325782Y525606D01*
X325763Y525608D01*
X325661Y525586D01*
X325559Y525570D01*
X325542Y525560D01*
X325522Y525556D01*
X325433Y525503D01*
X325342Y525454D01*
X325328Y525440D01*
X325311Y525430D01*
X325244Y525351D01*
X325172Y525276D01*
X325164Y525258D01*
X325151Y525243D01*
X325112Y525147D01*
X325069Y525053D01*
X325067Y525033D01*
X325059Y525015D01*
X325041Y524848D01*
X325041Y523918D01*
X323536Y522412D01*
X323467Y522317D01*
X323396Y522220D01*
X323394Y522216D01*
X323392Y522213D01*
X323357Y522100D01*
X323321Y521986D01*
X323321Y521982D01*
X323320Y521978D01*
X323323Y521859D01*
X323325Y521740D01*
X323326Y521736D01*
X323326Y521732D01*
X323367Y521620D01*
X323406Y521508D01*
X323409Y521505D01*
X323410Y521501D01*
X323485Y521407D01*
X323558Y521314D01*
X323562Y521311D01*
X323564Y521309D01*
X323576Y521301D01*
X323693Y521215D01*
X324060Y521003D01*
X324533Y520530D01*
X324868Y519951D01*
X325041Y519304D01*
X325041Y514993D01*
X318262Y514993D01*
X318242Y514990D01*
X318223Y514992D01*
X318121Y514970D01*
X318019Y514953D01*
X318002Y514944D01*
X317982Y514940D01*
X317893Y514887D01*
X317802Y514838D01*
X317788Y514824D01*
X317771Y514814D01*
X317704Y514735D01*
X317633Y514660D01*
X317624Y514642D01*
X317611Y514627D01*
X317572Y514531D01*
X317529Y514437D01*
X317527Y514417D01*
X317519Y514399D01*
X317501Y514232D01*
X317501Y513469D01*
X317499Y513469D01*
X317499Y514232D01*
X317496Y514252D01*
X317498Y514271D01*
X317476Y514373D01*
X317459Y514475D01*
X317450Y514492D01*
X317446Y514512D01*
X317393Y514601D01*
X317344Y514692D01*
X317330Y514706D01*
X317320Y514723D01*
X317241Y514790D01*
X317166Y514861D01*
X317148Y514870D01*
X317133Y514883D01*
X317037Y514922D01*
X316943Y514965D01*
X316923Y514967D01*
X316905Y514975D01*
X316738Y514993D01*
X309959Y514993D01*
X309959Y519304D01*
X310132Y519951D01*
X310467Y520530D01*
X310940Y521003D01*
X311307Y521215D01*
X311400Y521291D01*
X311492Y521364D01*
X311494Y521368D01*
X311497Y521371D01*
X311560Y521471D01*
X311625Y521571D01*
X311626Y521575D01*
X311628Y521579D01*
X311656Y521695D01*
X311685Y521810D01*
X311684Y521814D01*
X311685Y521818D01*
X311675Y521937D01*
X311666Y522055D01*
X311664Y522059D01*
X311664Y522063D01*
X311616Y522172D01*
X311569Y522281D01*
X311566Y522285D01*
X311565Y522288D01*
X311555Y522299D01*
X311464Y522412D01*
X309959Y523918D01*
X309959Y524848D01*
X309956Y524868D01*
X309958Y524887D01*
X309936Y524989D01*
X309920Y525091D01*
X309910Y525108D01*
X309906Y525128D01*
X309853Y525217D01*
X309804Y525308D01*
X309790Y525322D01*
X309780Y525339D01*
X309701Y525406D01*
X309626Y525478D01*
X309608Y525486D01*
X309593Y525499D01*
X309497Y525538D01*
X309403Y525581D01*
X309383Y525583D01*
X309365Y525591D01*
X309198Y525609D01*
X286692Y525609D01*
X283968Y526737D01*
X283904Y526752D01*
X283844Y526777D01*
X283761Y526786D01*
X283729Y526793D01*
X283709Y526792D01*
X283677Y526795D01*
X278597Y526795D01*
X275236Y528187D01*
X272663Y530760D01*
X271271Y534121D01*
X271271Y537759D01*
X272663Y541120D01*
X275236Y543693D01*
X278597Y545085D01*
X295443Y545085D01*
X298804Y543693D01*
X298883Y543614D01*
X298957Y543561D01*
X299026Y543501D01*
X299056Y543489D01*
X299083Y543470D01*
X299170Y543443D01*
X299254Y543409D01*
X299295Y543405D01*
X299318Y543398D01*
X299350Y543399D01*
X299421Y543391D01*
X350048Y543391D01*
X353316Y542037D01*
X355817Y539536D01*
X357171Y536268D01*
X357171Y532732D01*
X355817Y529464D01*
X353668Y527314D01*
X353613Y527238D01*
X353552Y527165D01*
X353541Y527138D01*
X353524Y527114D01*
X353496Y527024D01*
X353462Y526936D01*
X353460Y526907D01*
X353452Y526879D01*
X353454Y526785D01*
X353449Y526690D01*
X353457Y526662D01*
X353458Y526633D01*
X353491Y526545D01*
X353516Y526454D01*
X353533Y526430D01*
X353543Y526402D01*
X353602Y526328D01*
X353655Y526251D01*
X353683Y526227D01*
X353696Y526210D01*
X353720Y526195D01*
X354945Y524970D01*
X355884Y523565D01*
X356531Y522003D01*
X356726Y521023D01*
X349042Y521023D01*
X349022Y521020D01*
X349003Y521022D01*
X348901Y521000D01*
X348799Y520983D01*
X348782Y520974D01*
X348762Y520970D01*
X348673Y520917D01*
X348582Y520868D01*
X348568Y520854D01*
X348551Y520844D01*
X348484Y520765D01*
X348413Y520690D01*
X348404Y520672D01*
X348391Y520657D01*
X348353Y520561D01*
X348309Y520467D01*
X348307Y520447D01*
X348299Y520429D01*
X348281Y520262D01*
X348281Y518738D01*
X348284Y518718D01*
X348282Y518699D01*
X348304Y518597D01*
X348321Y518495D01*
X348330Y518478D01*
X348334Y518458D01*
X348387Y518369D01*
X348436Y518278D01*
X348450Y518264D01*
X348460Y518247D01*
X348539Y518180D01*
X348614Y518109D01*
X348632Y518100D01*
X348647Y518087D01*
X348743Y518048D01*
X348837Y518005D01*
X348857Y518003D01*
X348875Y517995D01*
X349042Y517977D01*
X356726Y517977D01*
X356531Y516997D01*
X355884Y515435D01*
X354945Y514030D01*
X353750Y512835D01*
X353520Y512681D01*
X353451Y512617D01*
X353378Y512558D01*
X353362Y512534D01*
X353340Y512514D01*
X353296Y512431D01*
X353245Y512351D01*
X353237Y512323D01*
X353224Y512297D01*
X353208Y512204D01*
X353185Y512113D01*
X353187Y512084D01*
X353182Y512055D01*
X353196Y511961D01*
X353204Y511867D01*
X353215Y511841D01*
X353220Y511812D01*
X353263Y511728D01*
X353300Y511641D01*
X353323Y511612D01*
X353333Y511593D01*
X353356Y511571D01*
X353405Y511510D01*
X354659Y510256D01*
X354733Y510203D01*
X354803Y510143D01*
X354833Y510131D01*
X354859Y510112D01*
X354946Y510085D01*
X355031Y510051D01*
X355072Y510047D01*
X355094Y510040D01*
X355126Y510041D01*
X355198Y510033D01*
X360034Y510033D01*
X393193Y476874D01*
X393193Y374757D01*
X393212Y374642D01*
X393229Y374526D01*
X393231Y374520D01*
X393232Y374514D01*
X393287Y374412D01*
X393340Y374307D01*
X393345Y374302D01*
X393348Y374297D01*
X393432Y374217D01*
X393516Y374135D01*
X393522Y374131D01*
X393526Y374127D01*
X393543Y374120D01*
X393663Y374054D01*
X395383Y373341D01*
X398741Y369983D01*
X400559Y365595D01*
X400559Y360845D01*
X398741Y356457D01*
X395383Y353099D01*
X390995Y351281D01*
X386245Y351281D01*
X381857Y353099D01*
X378499Y356457D01*
X376681Y360845D01*
X376681Y365595D01*
X378499Y369983D01*
X381857Y373341D01*
X383577Y374054D01*
X383677Y374115D01*
X383777Y374175D01*
X383781Y374180D01*
X383786Y374183D01*
X383861Y374273D01*
X383937Y374362D01*
X383939Y374368D01*
X383943Y374373D01*
X383985Y374481D01*
X384029Y374590D01*
X384030Y374598D01*
X384031Y374602D01*
X384032Y374621D01*
X384047Y374757D01*
X384047Y472771D01*
X384033Y472861D01*
X384025Y472952D01*
X384013Y472981D01*
X384008Y473013D01*
X383965Y473094D01*
X383929Y473178D01*
X383903Y473210D01*
X383892Y473231D01*
X383869Y473253D01*
X383824Y473309D01*
X356928Y500205D01*
X356891Y500232D01*
X356860Y500266D01*
X356809Y500294D01*
X356806Y500296D01*
X356800Y500299D01*
X356791Y500303D01*
X356728Y500349D01*
X356684Y500362D01*
X356644Y500384D01*
X356568Y500398D01*
X356493Y500421D01*
X356447Y500420D01*
X356402Y500428D01*
X356325Y500417D01*
X356247Y500415D01*
X356204Y500399D01*
X356159Y500392D01*
X356089Y500357D01*
X356016Y500330D01*
X355980Y500302D01*
X355940Y500281D01*
X355885Y500225D01*
X355824Y500177D01*
X355799Y500138D01*
X355767Y500105D01*
X355701Y499985D01*
X355691Y499970D01*
X355690Y499965D01*
X355686Y499958D01*
X355554Y499639D01*
X353453Y497538D01*
X353442Y497522D01*
X353426Y497510D01*
X353370Y497422D01*
X353310Y497339D01*
X353304Y497320D01*
X353293Y497303D01*
X353268Y497202D01*
X353237Y497103D01*
X353238Y497084D01*
X353233Y497064D01*
X353241Y496961D01*
X353244Y496858D01*
X353251Y496839D01*
X353252Y496819D01*
X353293Y496724D01*
X353328Y496627D01*
X353341Y496611D01*
X353348Y496593D01*
X353453Y496462D01*
X355554Y494361D01*
X356233Y492723D01*
X356295Y492623D01*
X356354Y492523D01*
X356359Y492519D01*
X356362Y492514D01*
X356453Y492439D01*
X356541Y492363D01*
X356547Y492361D01*
X356552Y492357D01*
X356660Y492315D01*
X356769Y492271D01*
X356777Y492270D01*
X356782Y492269D01*
X356800Y492268D01*
X356936Y492253D01*
X360034Y492253D01*
X372873Y479414D01*
X372873Y429906D01*
X368016Y425049D01*
X367963Y424975D01*
X367903Y424905D01*
X367891Y424875D01*
X367872Y424849D01*
X367845Y424762D01*
X367811Y424677D01*
X367807Y424636D01*
X367800Y424614D01*
X367801Y424582D01*
X367793Y424511D01*
X367793Y374757D01*
X367812Y374642D01*
X367829Y374526D01*
X367831Y374520D01*
X367832Y374514D01*
X367887Y374412D01*
X367940Y374307D01*
X367945Y374302D01*
X367948Y374297D01*
X368032Y374217D01*
X368116Y374135D01*
X368122Y374131D01*
X368126Y374127D01*
X368143Y374120D01*
X368263Y374054D01*
X369983Y373341D01*
X373341Y369983D01*
X375159Y365595D01*
X375159Y360845D01*
X373341Y356457D01*
X369983Y353099D01*
X365595Y351281D01*
X360845Y351281D01*
G37*
%LPD*%
%LPC*%
G36*
X208445Y351281D02*
X208445Y351281D01*
X204057Y353099D01*
X200699Y356457D01*
X198881Y360845D01*
X198881Y365595D01*
X200699Y369983D01*
X204057Y373341D01*
X208445Y375159D01*
X213251Y375159D01*
X213346Y375135D01*
X213352Y375135D01*
X213358Y375134D01*
X213475Y375145D01*
X213591Y375154D01*
X213597Y375156D01*
X213603Y375157D01*
X213710Y375205D01*
X213817Y375250D01*
X213823Y375255D01*
X213828Y375257D01*
X213841Y375269D01*
X213948Y375355D01*
X228884Y390291D01*
X228937Y390365D01*
X228997Y390435D01*
X229009Y390465D01*
X229028Y390491D01*
X229055Y390578D01*
X229089Y390663D01*
X229093Y390704D01*
X229100Y390726D01*
X229099Y390758D01*
X229107Y390829D01*
X229107Y424511D01*
X229093Y424601D01*
X229085Y424692D01*
X229073Y424721D01*
X229068Y424753D01*
X229025Y424834D01*
X228989Y424918D01*
X228963Y424950D01*
X228952Y424971D01*
X228929Y424993D01*
X228884Y425049D01*
X225513Y428420D01*
X225497Y428432D01*
X225485Y428447D01*
X225397Y428503D01*
X225313Y428564D01*
X225294Y428569D01*
X225278Y428580D01*
X225177Y428605D01*
X225078Y428636D01*
X225058Y428635D01*
X225039Y428640D01*
X224936Y428632D01*
X224832Y428630D01*
X224814Y428623D01*
X224794Y428621D01*
X224699Y428581D01*
X224601Y428545D01*
X224586Y428533D01*
X224568Y428525D01*
X224437Y428420D01*
X222604Y426587D01*
X219243Y425195D01*
X202397Y425195D01*
X199036Y426587D01*
X196463Y429160D01*
X195071Y432521D01*
X195071Y436159D01*
X196463Y439520D01*
X199036Y442093D01*
X202397Y443485D01*
X219243Y443485D01*
X222604Y442093D01*
X225177Y439520D01*
X225233Y439383D01*
X225295Y439284D01*
X225355Y439183D01*
X225360Y439179D01*
X225363Y439174D01*
X225453Y439099D01*
X225542Y439023D01*
X225548Y439021D01*
X225553Y439017D01*
X225661Y438975D01*
X225770Y438931D01*
X225778Y438930D01*
X225782Y438929D01*
X225801Y438928D01*
X225937Y438913D01*
X227954Y438913D01*
X230856Y436011D01*
X237968Y428899D01*
X238026Y428857D01*
X238078Y428808D01*
X238125Y428786D01*
X238167Y428756D01*
X238236Y428734D01*
X238301Y428704D01*
X238353Y428699D01*
X238403Y428683D01*
X238474Y428685D01*
X238545Y428677D01*
X238596Y428688D01*
X238648Y428690D01*
X238716Y428714D01*
X238786Y428729D01*
X238831Y428756D01*
X238879Y428774D01*
X238935Y428819D01*
X238997Y428856D01*
X239031Y428895D01*
X239071Y428928D01*
X239110Y428988D01*
X239157Y429042D01*
X239176Y429091D01*
X239204Y429135D01*
X239222Y429204D01*
X239249Y429271D01*
X239257Y429342D01*
X239265Y429373D01*
X239263Y429396D01*
X239267Y429437D01*
X239267Y538811D01*
X239253Y538901D01*
X239245Y538992D01*
X239233Y539021D01*
X239228Y539053D01*
X239185Y539134D01*
X239149Y539218D01*
X239123Y539250D01*
X239112Y539271D01*
X239089Y539293D01*
X239044Y539349D01*
X224243Y554150D01*
X224227Y554162D01*
X224215Y554177D01*
X224127Y554233D01*
X224043Y554294D01*
X224024Y554299D01*
X224008Y554310D01*
X223907Y554335D01*
X223808Y554366D01*
X223788Y554365D01*
X223769Y554370D01*
X223666Y554362D01*
X223562Y554360D01*
X223544Y554353D01*
X223524Y554351D01*
X223429Y554311D01*
X223331Y554275D01*
X223316Y554263D01*
X223298Y554255D01*
X223167Y554150D01*
X222604Y553587D01*
X219243Y552195D01*
X202397Y552195D01*
X199036Y553587D01*
X196463Y556160D01*
X195071Y559521D01*
X195071Y563159D01*
X196463Y566520D01*
X199036Y569093D01*
X202397Y570485D01*
X219243Y570485D01*
X222604Y569093D01*
X225177Y566520D01*
X225380Y566029D01*
X225415Y565973D01*
X225440Y565913D01*
X225492Y565848D01*
X225510Y565820D01*
X225525Y565807D01*
X225545Y565782D01*
X228316Y563011D01*
X248382Y542945D01*
X248398Y542934D01*
X248410Y542918D01*
X248498Y542862D01*
X248581Y542802D01*
X248600Y542796D01*
X248617Y542785D01*
X248718Y542760D01*
X248817Y542729D01*
X248836Y542730D01*
X248856Y542725D01*
X248959Y542733D01*
X249062Y542736D01*
X249081Y542742D01*
X249101Y542744D01*
X249196Y542784D01*
X249293Y542820D01*
X249309Y542833D01*
X249327Y542840D01*
X249458Y542945D01*
X272064Y565551D01*
X272295Y565782D01*
X272333Y565835D01*
X272379Y565882D01*
X272419Y565955D01*
X272438Y565981D01*
X272444Y566000D01*
X272460Y566029D01*
X272663Y566520D01*
X275236Y569093D01*
X278597Y570485D01*
X295443Y570485D01*
X298804Y569093D01*
X301377Y566520D01*
X302769Y563159D01*
X302769Y559521D01*
X301377Y556160D01*
X298804Y553587D01*
X295443Y552195D01*
X278597Y552195D01*
X275236Y553587D01*
X274673Y554150D01*
X274657Y554162D01*
X274645Y554177D01*
X274558Y554233D01*
X274474Y554294D01*
X274455Y554299D01*
X274438Y554310D01*
X274337Y554335D01*
X274239Y554366D01*
X274219Y554365D01*
X274199Y554370D01*
X274096Y554362D01*
X273993Y554360D01*
X273974Y554353D01*
X273954Y554351D01*
X273859Y554311D01*
X273762Y554275D01*
X273746Y554263D01*
X273728Y554255D01*
X273597Y554150D01*
X258796Y539349D01*
X258743Y539275D01*
X258683Y539205D01*
X258671Y539175D01*
X258652Y539149D01*
X258625Y539062D01*
X258591Y538977D01*
X258587Y538936D01*
X258580Y538914D01*
X258581Y538882D01*
X258573Y538811D01*
X258573Y378129D01*
X258587Y378039D01*
X258595Y377948D01*
X258607Y377919D01*
X258612Y377887D01*
X258655Y377806D01*
X258691Y377722D01*
X258717Y377690D01*
X258728Y377669D01*
X258751Y377647D01*
X258796Y377591D01*
X261005Y375382D01*
X261079Y375329D01*
X261149Y375269D01*
X261179Y375257D01*
X261205Y375238D01*
X261292Y375211D01*
X261377Y375177D01*
X261418Y375173D01*
X261440Y375166D01*
X261472Y375167D01*
X261543Y375159D01*
X263995Y375159D01*
X268383Y373341D01*
X271741Y369983D01*
X273559Y365595D01*
X273559Y360845D01*
X271741Y356457D01*
X268383Y353099D01*
X263995Y351281D01*
X259245Y351281D01*
X254857Y353099D01*
X251499Y356457D01*
X249681Y360845D01*
X249681Y365595D01*
X251499Y369983D01*
X251946Y370430D01*
X251958Y370446D01*
X251974Y370459D01*
X252030Y370546D01*
X252090Y370630D01*
X252096Y370649D01*
X252107Y370666D01*
X252132Y370766D01*
X252162Y370865D01*
X252162Y370885D01*
X252167Y370904D01*
X252159Y371007D01*
X252156Y371111D01*
X252149Y371130D01*
X252147Y371150D01*
X252107Y371244D01*
X252071Y371342D01*
X252059Y371358D01*
X252051Y371376D01*
X251966Y371482D01*
X251964Y371485D01*
X251963Y371486D01*
X251946Y371507D01*
X249458Y373995D01*
X249442Y374006D01*
X249430Y374022D01*
X249342Y374078D01*
X249259Y374138D01*
X249240Y374144D01*
X249223Y374155D01*
X249122Y374180D01*
X249023Y374211D01*
X249004Y374210D01*
X248984Y374215D01*
X248881Y374207D01*
X248778Y374204D01*
X248759Y374198D01*
X248739Y374196D01*
X248644Y374156D01*
X248547Y374120D01*
X248531Y374108D01*
X248513Y374100D01*
X248382Y373995D01*
X245894Y371507D01*
X245882Y371491D01*
X245866Y371478D01*
X245836Y371430D01*
X245828Y371422D01*
X245821Y371408D01*
X245811Y371391D01*
X245750Y371307D01*
X245744Y371288D01*
X245733Y371271D01*
X245708Y371171D01*
X245678Y371072D01*
X245678Y371052D01*
X245673Y371033D01*
X245681Y370930D01*
X245684Y370826D01*
X245691Y370807D01*
X245693Y370788D01*
X245733Y370692D01*
X245769Y370595D01*
X245781Y370580D01*
X245789Y370561D01*
X245894Y370430D01*
X246341Y369983D01*
X248159Y365595D01*
X248159Y360845D01*
X246341Y356457D01*
X242983Y353099D01*
X238595Y351281D01*
X233845Y351281D01*
X229457Y353099D01*
X226099Y356457D01*
X224281Y360845D01*
X224281Y365595D01*
X226099Y369983D01*
X229457Y373341D01*
X233845Y375159D01*
X236297Y375159D01*
X236387Y375173D01*
X236478Y375181D01*
X236507Y375193D01*
X236539Y375198D01*
X236620Y375241D01*
X236704Y375277D01*
X236736Y375303D01*
X236757Y375314D01*
X236779Y375337D01*
X236835Y375382D01*
X239044Y377591D01*
X239097Y377665D01*
X239157Y377735D01*
X239169Y377765D01*
X239188Y377791D01*
X239215Y377878D01*
X239249Y377963D01*
X239253Y378004D01*
X239260Y378026D01*
X239259Y378058D01*
X239267Y378129D01*
X239267Y385903D01*
X239256Y385973D01*
X239254Y386045D01*
X239236Y386094D01*
X239228Y386145D01*
X239194Y386209D01*
X239169Y386276D01*
X239137Y386317D01*
X239112Y386363D01*
X239060Y386412D01*
X239016Y386468D01*
X238972Y386496D01*
X238934Y386532D01*
X238869Y386562D01*
X238809Y386601D01*
X238758Y386614D01*
X238711Y386636D01*
X238640Y386644D01*
X238570Y386661D01*
X238518Y386657D01*
X238467Y386663D01*
X238396Y386648D01*
X238325Y386642D01*
X238277Y386622D01*
X238226Y386611D01*
X238165Y386574D01*
X238099Y386546D01*
X238043Y386501D01*
X238015Y386484D01*
X238000Y386467D01*
X237968Y386441D01*
X235351Y383824D01*
X221467Y369940D01*
X221399Y369846D01*
X221329Y369752D01*
X221327Y369746D01*
X221324Y369741D01*
X221290Y369630D01*
X221253Y369518D01*
X221253Y369512D01*
X221251Y369506D01*
X221254Y369389D01*
X221256Y369272D01*
X221258Y369265D01*
X221258Y369260D01*
X221264Y369242D01*
X221302Y369111D01*
X222759Y365595D01*
X222759Y360845D01*
X220941Y356457D01*
X217583Y353099D01*
X213195Y351281D01*
X208445Y351281D01*
G37*
%LPD*%
%LPC*%
G36*
X411645Y351281D02*
X411645Y351281D01*
X407257Y353099D01*
X403899Y356457D01*
X402081Y360845D01*
X402081Y365595D01*
X403899Y369983D01*
X407257Y373341D01*
X408977Y374054D01*
X409077Y374115D01*
X409177Y374175D01*
X409181Y374180D01*
X409186Y374183D01*
X409261Y374273D01*
X409337Y374362D01*
X409339Y374368D01*
X409343Y374373D01*
X409385Y374481D01*
X409429Y374590D01*
X409430Y374598D01*
X409431Y374602D01*
X409432Y374621D01*
X409447Y374757D01*
X409447Y386668D01*
X409444Y386688D01*
X409446Y386707D01*
X409424Y386809D01*
X409408Y386911D01*
X409398Y386928D01*
X409394Y386948D01*
X409341Y387037D01*
X409292Y387128D01*
X409278Y387142D01*
X409268Y387159D01*
X409189Y387226D01*
X409114Y387298D01*
X409096Y387306D01*
X409081Y387319D01*
X408985Y387358D01*
X408891Y387401D01*
X408871Y387403D01*
X408853Y387411D01*
X408686Y387429D01*
X406588Y387429D01*
X405099Y388918D01*
X405099Y401022D01*
X406588Y402511D01*
X407806Y402511D01*
X407826Y402514D01*
X407845Y402512D01*
X407947Y402534D01*
X408049Y402550D01*
X408066Y402560D01*
X408086Y402564D01*
X408175Y402617D01*
X408266Y402666D01*
X408280Y402680D01*
X408297Y402690D01*
X408364Y402769D01*
X408436Y402844D01*
X408444Y402862D01*
X408457Y402877D01*
X408496Y402973D01*
X408539Y403067D01*
X408541Y403087D01*
X408549Y403105D01*
X408567Y403272D01*
X408567Y412068D01*
X408564Y412088D01*
X408566Y412107D01*
X408544Y412209D01*
X408528Y412311D01*
X408518Y412328D01*
X408514Y412348D01*
X408461Y412437D01*
X408412Y412528D01*
X408398Y412542D01*
X408388Y412559D01*
X408309Y412626D01*
X408234Y412698D01*
X408216Y412706D01*
X408201Y412719D01*
X408105Y412758D01*
X408011Y412801D01*
X407991Y412803D01*
X407973Y412811D01*
X407806Y412829D01*
X406588Y412829D01*
X405099Y414318D01*
X405099Y426422D01*
X406588Y427911D01*
X419692Y427911D01*
X421102Y426501D01*
X421118Y426490D01*
X421130Y426474D01*
X421218Y426418D01*
X421301Y426358D01*
X421320Y426352D01*
X421337Y426341D01*
X421438Y426316D01*
X421537Y426286D01*
X421556Y426286D01*
X421576Y426281D01*
X421679Y426289D01*
X421782Y426292D01*
X421801Y426299D01*
X421821Y426300D01*
X421916Y426341D01*
X422013Y426376D01*
X422029Y426389D01*
X422047Y426397D01*
X422178Y426501D01*
X423588Y427911D01*
X424806Y427911D01*
X424826Y427914D01*
X424845Y427912D01*
X424947Y427934D01*
X425049Y427950D01*
X425066Y427960D01*
X425086Y427964D01*
X425175Y428017D01*
X425266Y428066D01*
X425280Y428080D01*
X425297Y428090D01*
X425364Y428169D01*
X425436Y428244D01*
X425444Y428262D01*
X425457Y428277D01*
X425496Y428373D01*
X425539Y428467D01*
X425541Y428487D01*
X425549Y428505D01*
X425567Y428672D01*
X425567Y461141D01*
X425553Y461231D01*
X425545Y461322D01*
X425533Y461351D01*
X425528Y461383D01*
X425485Y461464D01*
X425449Y461548D01*
X425423Y461580D01*
X425412Y461601D01*
X425389Y461623D01*
X425344Y461679D01*
X411397Y475626D01*
X411397Y548422D01*
X411379Y548536D01*
X411361Y548652D01*
X411359Y548658D01*
X411358Y548664D01*
X411303Y548767D01*
X411250Y548872D01*
X411245Y548876D01*
X411242Y548882D01*
X411157Y548962D01*
X411074Y549044D01*
X411068Y549048D01*
X411064Y549051D01*
X411047Y549059D01*
X410927Y549125D01*
X410826Y549167D01*
X408272Y551721D01*
X406889Y555059D01*
X406889Y555498D01*
X406886Y555518D01*
X406888Y555537D01*
X406866Y555639D01*
X406850Y555741D01*
X406840Y555758D01*
X406836Y555778D01*
X406783Y555867D01*
X406734Y555958D01*
X406720Y555972D01*
X406710Y555989D01*
X406631Y556056D01*
X406556Y556128D01*
X406538Y556136D01*
X406523Y556149D01*
X406427Y556188D01*
X406333Y556231D01*
X406313Y556233D01*
X406295Y556241D01*
X406128Y556259D01*
X384564Y556259D01*
X381763Y557419D01*
X360286Y578896D01*
X360212Y578949D01*
X360143Y579009D01*
X360113Y579021D01*
X360087Y579040D01*
X360000Y579067D01*
X359915Y579101D01*
X359874Y579105D01*
X359852Y579112D01*
X359819Y579111D01*
X359748Y579119D01*
X328342Y579119D01*
X328322Y579116D01*
X328303Y579118D01*
X328201Y579096D01*
X328099Y579080D01*
X328082Y579070D01*
X328062Y579066D01*
X327973Y579013D01*
X327882Y578964D01*
X327868Y578950D01*
X327851Y578940D01*
X327784Y578861D01*
X327712Y578786D01*
X327704Y578768D01*
X327691Y578753D01*
X327652Y578657D01*
X327609Y578563D01*
X327608Y578555D01*
X326076Y577022D01*
X326007Y576927D01*
X325936Y576830D01*
X325934Y576826D01*
X325932Y576823D01*
X325897Y576710D01*
X325861Y576596D01*
X325861Y576592D01*
X325860Y576588D01*
X325863Y576469D01*
X325865Y576350D01*
X325866Y576346D01*
X325866Y576342D01*
X325907Y576230D01*
X325946Y576118D01*
X325949Y576115D01*
X325950Y576111D01*
X326025Y576017D01*
X326098Y575924D01*
X326102Y575921D01*
X326104Y575919D01*
X326116Y575911D01*
X326233Y575825D01*
X326600Y575613D01*
X327073Y575140D01*
X327408Y574561D01*
X327581Y573914D01*
X327581Y569603D01*
X320802Y569603D01*
X320782Y569600D01*
X320763Y569602D01*
X320661Y569580D01*
X320559Y569563D01*
X320542Y569554D01*
X320522Y569550D01*
X320433Y569497D01*
X320342Y569448D01*
X320328Y569434D01*
X320311Y569424D01*
X320244Y569345D01*
X320173Y569270D01*
X320164Y569252D01*
X320151Y569237D01*
X320112Y569141D01*
X320069Y569047D01*
X320067Y569027D01*
X320059Y569009D01*
X320041Y568842D01*
X320041Y568079D01*
X320039Y568079D01*
X320039Y568842D01*
X320036Y568862D01*
X320038Y568881D01*
X320016Y568983D01*
X319999Y569085D01*
X319990Y569102D01*
X319986Y569122D01*
X319933Y569211D01*
X319884Y569302D01*
X319870Y569316D01*
X319860Y569333D01*
X319781Y569400D01*
X319706Y569471D01*
X319688Y569480D01*
X319673Y569493D01*
X319577Y569532D01*
X319483Y569575D01*
X319463Y569577D01*
X319445Y569585D01*
X319278Y569603D01*
X312499Y569603D01*
X312499Y573914D01*
X312672Y574561D01*
X313007Y575140D01*
X313480Y575613D01*
X313847Y575825D01*
X313940Y575901D01*
X314032Y575974D01*
X314034Y575978D01*
X314037Y575981D01*
X314100Y576081D01*
X314165Y576181D01*
X314166Y576185D01*
X314168Y576189D01*
X314196Y576305D01*
X314225Y576420D01*
X314224Y576424D01*
X314225Y576428D01*
X314215Y576547D01*
X314206Y576665D01*
X314204Y576669D01*
X314204Y576673D01*
X314156Y576782D01*
X314109Y576891D01*
X314106Y576895D01*
X314105Y576898D01*
X314095Y576909D01*
X314004Y577022D01*
X312466Y578561D01*
X312460Y578601D01*
X312450Y578618D01*
X312446Y578638D01*
X312393Y578727D01*
X312344Y578818D01*
X312330Y578832D01*
X312320Y578849D01*
X312241Y578916D01*
X312166Y578988D01*
X312148Y578996D01*
X312133Y579009D01*
X312037Y579048D01*
X311943Y579091D01*
X311923Y579093D01*
X311905Y579101D01*
X311738Y579119D01*
X299251Y579119D01*
X299161Y579105D01*
X299070Y579097D01*
X299040Y579085D01*
X299008Y579080D01*
X298944Y579045D01*
X295443Y577595D01*
X278597Y577595D01*
X275236Y578987D01*
X272663Y581560D01*
X271271Y584921D01*
X271271Y588559D01*
X272663Y591920D01*
X275236Y594493D01*
X278597Y595885D01*
X295443Y595885D01*
X298888Y594458D01*
X298913Y594440D01*
X299000Y594413D01*
X299084Y594379D01*
X299125Y594375D01*
X299148Y594368D01*
X299180Y594369D01*
X299251Y594361D01*
X364736Y594361D01*
X367537Y593201D01*
X389014Y571724D01*
X389088Y571671D01*
X389157Y571611D01*
X389187Y571599D01*
X389213Y571580D01*
X389300Y571553D01*
X389385Y571519D01*
X389426Y571515D01*
X389448Y571508D01*
X389481Y571509D01*
X389552Y571501D01*
X406277Y571501D01*
X406392Y571520D01*
X406508Y571537D01*
X406513Y571539D01*
X406520Y571540D01*
X406622Y571595D01*
X406727Y571648D01*
X406731Y571653D01*
X406737Y571656D01*
X406817Y571740D01*
X406899Y571824D01*
X406903Y571830D01*
X406906Y571834D01*
X406914Y571851D01*
X406980Y571971D01*
X408272Y575089D01*
X410826Y577643D01*
X414164Y579026D01*
X417776Y579026D01*
X421114Y577643D01*
X423668Y575089D01*
X425051Y571751D01*
X425051Y555059D01*
X423668Y551721D01*
X421114Y549167D01*
X421013Y549125D01*
X420913Y549063D01*
X420813Y549003D01*
X420809Y548999D01*
X420804Y548995D01*
X420729Y548905D01*
X420653Y548816D01*
X420651Y548811D01*
X420647Y548806D01*
X420605Y548697D01*
X420561Y548588D01*
X420560Y548581D01*
X420559Y548576D01*
X420558Y548558D01*
X420543Y548422D01*
X420543Y479729D01*
X420557Y479639D01*
X420565Y479548D01*
X420577Y479519D01*
X420582Y479487D01*
X420625Y479406D01*
X420661Y479322D01*
X420687Y479290D01*
X420698Y479269D01*
X420721Y479247D01*
X420766Y479191D01*
X434713Y465244D01*
X434713Y428672D01*
X434716Y428652D01*
X434714Y428633D01*
X434736Y428531D01*
X434752Y428429D01*
X434762Y428412D01*
X434766Y428392D01*
X434819Y428303D01*
X434868Y428212D01*
X434882Y428198D01*
X434892Y428181D01*
X434971Y428114D01*
X435046Y428042D01*
X435064Y428034D01*
X435079Y428021D01*
X435175Y427982D01*
X435269Y427939D01*
X435289Y427937D01*
X435307Y427929D01*
X435474Y427911D01*
X436692Y427911D01*
X438181Y426422D01*
X438181Y414318D01*
X436692Y412829D01*
X423588Y412829D01*
X422178Y414239D01*
X422162Y414250D01*
X422150Y414266D01*
X422062Y414322D01*
X421979Y414382D01*
X421960Y414388D01*
X421943Y414399D01*
X421842Y414424D01*
X421743Y414454D01*
X421724Y414454D01*
X421704Y414459D01*
X421601Y414451D01*
X421498Y414448D01*
X421479Y414441D01*
X421459Y414440D01*
X421364Y414399D01*
X421267Y414364D01*
X421251Y414351D01*
X421233Y414343D01*
X421102Y414239D01*
X419692Y412829D01*
X418730Y412829D01*
X418699Y412824D01*
X418667Y412827D01*
X418578Y412804D01*
X418487Y412790D01*
X418459Y412775D01*
X418429Y412767D01*
X418351Y412717D01*
X418270Y412674D01*
X418248Y412652D01*
X418221Y412635D01*
X418164Y412563D01*
X418100Y412496D01*
X418087Y412467D01*
X418067Y412443D01*
X418036Y412356D01*
X417997Y412273D01*
X417993Y412242D01*
X417982Y412212D01*
X417969Y412045D01*
X418238Y403249D01*
X418239Y403241D01*
X418238Y403233D01*
X418263Y403121D01*
X418285Y403007D01*
X418289Y403000D01*
X418291Y402992D01*
X418349Y402894D01*
X418406Y402794D01*
X418413Y402788D01*
X418417Y402781D01*
X418504Y402706D01*
X418590Y402630D01*
X418597Y402627D01*
X418604Y402621D01*
X418711Y402578D01*
X418816Y402533D01*
X418824Y402532D01*
X418832Y402529D01*
X418999Y402511D01*
X419692Y402511D01*
X421198Y401006D01*
X421294Y400936D01*
X421390Y400866D01*
X421394Y400864D01*
X421397Y400862D01*
X421511Y400827D01*
X421624Y400791D01*
X421628Y400791D01*
X421632Y400790D01*
X421751Y400793D01*
X421870Y400795D01*
X421874Y400796D01*
X421878Y400796D01*
X421991Y400837D01*
X422102Y400876D01*
X422105Y400879D01*
X422109Y400880D01*
X422203Y400956D01*
X422296Y401028D01*
X422299Y401032D01*
X422301Y401034D01*
X422309Y401046D01*
X422395Y401163D01*
X422607Y401530D01*
X423080Y402003D01*
X423659Y402338D01*
X424306Y402511D01*
X428617Y402511D01*
X428617Y395732D01*
X428620Y395712D01*
X428618Y395693D01*
X428640Y395591D01*
X428657Y395489D01*
X428666Y395472D01*
X428670Y395452D01*
X428723Y395363D01*
X428772Y395272D01*
X428786Y395258D01*
X428796Y395241D01*
X428875Y395174D01*
X428950Y395103D01*
X428968Y395094D01*
X428983Y395081D01*
X429079Y395042D01*
X429173Y394999D01*
X429193Y394997D01*
X429211Y394989D01*
X429378Y394971D01*
X430141Y394971D01*
X430141Y394969D01*
X429378Y394969D01*
X429358Y394966D01*
X429339Y394968D01*
X429237Y394946D01*
X429135Y394929D01*
X429118Y394920D01*
X429098Y394916D01*
X429009Y394863D01*
X428918Y394814D01*
X428904Y394800D01*
X428887Y394790D01*
X428820Y394711D01*
X428749Y394636D01*
X428740Y394618D01*
X428727Y394603D01*
X428688Y394507D01*
X428645Y394413D01*
X428643Y394393D01*
X428635Y394375D01*
X428617Y394208D01*
X428617Y387429D01*
X424306Y387429D01*
X423659Y387602D01*
X423080Y387937D01*
X422607Y388410D01*
X422395Y388777D01*
X422320Y388868D01*
X422246Y388962D01*
X422242Y388964D01*
X422239Y388967D01*
X422139Y389030D01*
X422039Y389095D01*
X422035Y389096D01*
X422031Y389098D01*
X421915Y389126D01*
X421800Y389155D01*
X421796Y389154D01*
X421792Y389155D01*
X421672Y389145D01*
X421555Y389136D01*
X421551Y389134D01*
X421547Y389134D01*
X421436Y389085D01*
X421329Y389039D01*
X421325Y389036D01*
X421322Y389035D01*
X421311Y389025D01*
X421198Y388934D01*
X419692Y387429D01*
X419354Y387429D01*
X419334Y387426D01*
X419315Y387428D01*
X419213Y387406D01*
X419111Y387390D01*
X419094Y387380D01*
X419074Y387376D01*
X418985Y387323D01*
X418894Y387274D01*
X418880Y387260D01*
X418863Y387250D01*
X418796Y387171D01*
X418724Y387096D01*
X418716Y387078D01*
X418703Y387063D01*
X418664Y386967D01*
X418621Y386873D01*
X418619Y386853D01*
X418611Y386835D01*
X418593Y386668D01*
X418593Y374757D01*
X418612Y374642D01*
X418629Y374526D01*
X418631Y374520D01*
X418632Y374514D01*
X418687Y374412D01*
X418740Y374307D01*
X418745Y374302D01*
X418748Y374297D01*
X418832Y374217D01*
X418916Y374135D01*
X418922Y374131D01*
X418926Y374127D01*
X418943Y374120D01*
X419063Y374054D01*
X420783Y373341D01*
X424141Y369983D01*
X425959Y365595D01*
X425959Y360845D01*
X424141Y356457D01*
X420783Y353099D01*
X416395Y351281D01*
X411645Y351281D01*
G37*
%LPD*%
%LPC*%
G36*
X106845Y351281D02*
X106845Y351281D01*
X102457Y353099D01*
X99099Y356457D01*
X97281Y360845D01*
X97281Y365595D01*
X99099Y369983D01*
X102457Y373341D01*
X104177Y374054D01*
X104277Y374115D01*
X104377Y374175D01*
X104381Y374180D01*
X104386Y374183D01*
X104461Y374273D01*
X104537Y374362D01*
X104539Y374368D01*
X104543Y374373D01*
X104585Y374481D01*
X104629Y374590D01*
X104630Y374598D01*
X104631Y374602D01*
X104632Y374621D01*
X104647Y374757D01*
X104647Y378791D01*
X104633Y378881D01*
X104625Y378972D01*
X104613Y379001D01*
X104608Y379033D01*
X104565Y379114D01*
X104529Y379198D01*
X104503Y379230D01*
X104492Y379251D01*
X104469Y379273D01*
X104424Y379329D01*
X69087Y414666D01*
X69087Y512434D01*
X145426Y588773D01*
X194651Y588773D01*
X194766Y588792D01*
X194882Y588809D01*
X194888Y588811D01*
X194894Y588812D01*
X194997Y588867D01*
X195101Y588920D01*
X195106Y588925D01*
X195111Y588928D01*
X195191Y589012D01*
X195274Y589096D01*
X195277Y589102D01*
X195281Y589106D01*
X195288Y589123D01*
X195354Y589243D01*
X196463Y591920D01*
X199036Y594493D01*
X202397Y595885D01*
X219243Y595885D01*
X222604Y594493D01*
X225177Y591920D01*
X226569Y588559D01*
X226569Y584921D01*
X225177Y581560D01*
X222604Y578987D01*
X219243Y577595D01*
X202397Y577595D01*
X199036Y578987D01*
X198619Y579404D01*
X198545Y579457D01*
X198476Y579517D01*
X198446Y579529D01*
X198419Y579548D01*
X198332Y579575D01*
X198248Y579609D01*
X198207Y579613D01*
X198184Y579620D01*
X198152Y579619D01*
X198081Y579627D01*
X149529Y579627D01*
X149439Y579613D01*
X149348Y579605D01*
X149319Y579593D01*
X149287Y579588D01*
X149206Y579545D01*
X149122Y579509D01*
X149090Y579483D01*
X149069Y579472D01*
X149047Y579449D01*
X148991Y579404D01*
X78456Y508869D01*
X78403Y508795D01*
X78343Y508725D01*
X78331Y508695D01*
X78312Y508669D01*
X78285Y508582D01*
X78251Y508497D01*
X78247Y508456D01*
X78240Y508434D01*
X78241Y508402D01*
X78233Y508331D01*
X78233Y418769D01*
X78247Y418679D01*
X78255Y418588D01*
X78267Y418559D01*
X78272Y418527D01*
X78315Y418446D01*
X78351Y418362D01*
X78377Y418330D01*
X78388Y418309D01*
X78411Y418287D01*
X78456Y418231D01*
X113793Y382894D01*
X113793Y374757D01*
X113812Y374642D01*
X113829Y374526D01*
X113831Y374520D01*
X113832Y374514D01*
X113887Y374412D01*
X113940Y374307D01*
X113945Y374302D01*
X113948Y374297D01*
X114032Y374217D01*
X114116Y374135D01*
X114122Y374131D01*
X114126Y374127D01*
X114143Y374120D01*
X114263Y374054D01*
X115983Y373341D01*
X119341Y369983D01*
X121159Y365595D01*
X121159Y360845D01*
X119341Y356457D01*
X115983Y353099D01*
X111595Y351281D01*
X106845Y351281D01*
G37*
%LPD*%
%LPC*%
G36*
X284645Y351281D02*
X284645Y351281D01*
X280257Y353099D01*
X276899Y356457D01*
X275081Y360845D01*
X275081Y365595D01*
X276899Y369983D01*
X277346Y370430D01*
X277358Y370446D01*
X277374Y370459D01*
X277430Y370546D01*
X277490Y370630D01*
X277496Y370649D01*
X277507Y370666D01*
X277532Y370766D01*
X277562Y370865D01*
X277562Y370885D01*
X277567Y370904D01*
X277559Y371007D01*
X277556Y371111D01*
X277549Y371130D01*
X277547Y371150D01*
X277507Y371244D01*
X277471Y371342D01*
X277459Y371358D01*
X277451Y371376D01*
X277366Y371482D01*
X277364Y371485D01*
X277363Y371486D01*
X277346Y371507D01*
X265029Y383824D01*
X262127Y386726D01*
X262127Y431154D01*
X269886Y438913D01*
X271903Y438913D01*
X272018Y438932D01*
X272134Y438949D01*
X272140Y438951D01*
X272146Y438952D01*
X272249Y439007D01*
X272353Y439060D01*
X272358Y439065D01*
X272363Y439068D01*
X272444Y439152D01*
X272526Y439236D01*
X272529Y439242D01*
X272533Y439246D01*
X272541Y439263D01*
X272607Y439383D01*
X272663Y439520D01*
X275236Y442093D01*
X278597Y443485D01*
X295443Y443485D01*
X298804Y442093D01*
X301377Y439520D01*
X302769Y436159D01*
X302769Y432521D01*
X301377Y429160D01*
X298804Y426587D01*
X295443Y425195D01*
X278597Y425195D01*
X275236Y426587D01*
X273403Y428420D01*
X273387Y428432D01*
X273375Y428447D01*
X273288Y428503D01*
X273204Y428564D01*
X273185Y428569D01*
X273168Y428580D01*
X273067Y428605D01*
X272969Y428636D01*
X272949Y428635D01*
X272929Y428640D01*
X272826Y428632D01*
X272723Y428630D01*
X272704Y428623D01*
X272684Y428621D01*
X272589Y428581D01*
X272492Y428545D01*
X272476Y428533D01*
X272458Y428525D01*
X272327Y428420D01*
X271496Y427589D01*
X271443Y427515D01*
X271383Y427445D01*
X271371Y427415D01*
X271352Y427389D01*
X271325Y427302D01*
X271291Y427217D01*
X271287Y427176D01*
X271280Y427154D01*
X271281Y427122D01*
X271273Y427051D01*
X271273Y414567D01*
X271284Y414496D01*
X271286Y414425D01*
X271304Y414376D01*
X271312Y414324D01*
X271346Y414261D01*
X271371Y414194D01*
X271403Y414153D01*
X271428Y414107D01*
X271480Y414058D01*
X271524Y414002D01*
X271568Y413973D01*
X271606Y413938D01*
X271671Y413907D01*
X271731Y413869D01*
X271782Y413856D01*
X271829Y413834D01*
X271900Y413826D01*
X271970Y413809D01*
X272022Y413813D01*
X272073Y413807D01*
X272144Y413822D01*
X272215Y413828D01*
X272263Y413848D01*
X272314Y413859D01*
X272375Y413896D01*
X272441Y413924D01*
X272497Y413969D01*
X272525Y413985D01*
X272540Y414003D01*
X272572Y414029D01*
X275236Y416693D01*
X278597Y418085D01*
X295443Y418085D01*
X298804Y416693D01*
X301377Y414120D01*
X301433Y413983D01*
X301495Y413883D01*
X301555Y413783D01*
X301560Y413779D01*
X301563Y413774D01*
X301653Y413699D01*
X301742Y413623D01*
X301748Y413621D01*
X301752Y413617D01*
X301861Y413575D01*
X301970Y413531D01*
X301977Y413530D01*
X301982Y413529D01*
X302000Y413528D01*
X302137Y413513D01*
X314314Y413513D01*
X317216Y410611D01*
X342393Y385434D01*
X342393Y374757D01*
X342412Y374642D01*
X342429Y374526D01*
X342431Y374520D01*
X342432Y374514D01*
X342487Y374412D01*
X342540Y374307D01*
X342545Y374302D01*
X342548Y374297D01*
X342632Y374217D01*
X342716Y374135D01*
X342722Y374131D01*
X342726Y374127D01*
X342743Y374120D01*
X342863Y374054D01*
X344583Y373341D01*
X347941Y369983D01*
X349759Y365595D01*
X349759Y360845D01*
X347941Y356457D01*
X344583Y353099D01*
X340195Y351281D01*
X335445Y351281D01*
X331057Y353099D01*
X327699Y356457D01*
X325881Y360845D01*
X325881Y365595D01*
X327699Y369983D01*
X331057Y373341D01*
X332777Y374054D01*
X332877Y374115D01*
X332977Y374175D01*
X332981Y374180D01*
X332986Y374183D01*
X333061Y374273D01*
X333137Y374362D01*
X333139Y374368D01*
X333143Y374373D01*
X333185Y374481D01*
X333229Y374590D01*
X333230Y374598D01*
X333231Y374602D01*
X333232Y374621D01*
X333247Y374757D01*
X333247Y381331D01*
X333233Y381421D01*
X333225Y381512D01*
X333213Y381541D01*
X333208Y381573D01*
X333165Y381654D01*
X333129Y381738D01*
X333103Y381770D01*
X333092Y381791D01*
X333069Y381813D01*
X333024Y381869D01*
X310749Y404144D01*
X310675Y404197D01*
X310605Y404257D01*
X310575Y404269D01*
X310549Y404288D01*
X310462Y404315D01*
X310377Y404349D01*
X310336Y404353D01*
X310314Y404360D01*
X310282Y404359D01*
X310211Y404367D01*
X302137Y404367D01*
X302022Y404348D01*
X301906Y404331D01*
X301900Y404329D01*
X301894Y404328D01*
X301791Y404273D01*
X301687Y404220D01*
X301682Y404215D01*
X301677Y404212D01*
X301596Y404128D01*
X301514Y404044D01*
X301511Y404038D01*
X301507Y404034D01*
X301499Y404017D01*
X301433Y403897D01*
X301377Y403760D01*
X298804Y401187D01*
X295443Y399795D01*
X278597Y399795D01*
X275236Y401187D01*
X272572Y403851D01*
X272514Y403893D01*
X272462Y403942D01*
X272415Y403964D01*
X272373Y403995D01*
X272304Y404016D01*
X272239Y404046D01*
X272187Y404052D01*
X272137Y404067D01*
X272066Y404065D01*
X271995Y404073D01*
X271944Y404062D01*
X271892Y404061D01*
X271824Y404036D01*
X271754Y404021D01*
X271709Y403994D01*
X271661Y403976D01*
X271605Y403931D01*
X271543Y403895D01*
X271509Y403855D01*
X271469Y403823D01*
X271430Y403762D01*
X271383Y403708D01*
X271364Y403659D01*
X271336Y403616D01*
X271318Y403546D01*
X271291Y403480D01*
X271283Y403408D01*
X271275Y403377D01*
X271277Y403354D01*
X271273Y403313D01*
X271273Y390829D01*
X271287Y390739D01*
X271295Y390648D01*
X271307Y390619D01*
X271312Y390587D01*
X271355Y390506D01*
X271391Y390422D01*
X271417Y390390D01*
X271428Y390369D01*
X271451Y390347D01*
X271496Y390291D01*
X286405Y375382D01*
X286479Y375329D01*
X286549Y375269D01*
X286579Y375257D01*
X286605Y375238D01*
X286692Y375211D01*
X286777Y375177D01*
X286818Y375173D01*
X286840Y375166D01*
X286872Y375167D01*
X286943Y375159D01*
X289395Y375159D01*
X293783Y373341D01*
X297141Y369983D01*
X298959Y365595D01*
X298959Y360845D01*
X297141Y356457D01*
X293783Y353099D01*
X289395Y351281D01*
X284645Y351281D01*
G37*
%LPD*%
%LPC*%
G36*
X283247Y115569D02*
X283247Y115569D01*
X274180Y124636D01*
X274164Y124666D01*
X274150Y124680D01*
X274140Y124697D01*
X274061Y124764D01*
X273986Y124836D01*
X273968Y124844D01*
X273953Y124857D01*
X273857Y124896D01*
X273763Y124939D01*
X273743Y124941D01*
X273725Y124949D01*
X273558Y124967D01*
X272426Y124967D01*
X257047Y140346D01*
X257047Y145258D01*
X257044Y145278D01*
X257046Y145297D01*
X257024Y145399D01*
X257008Y145501D01*
X256998Y145518D01*
X256994Y145538D01*
X256941Y145627D01*
X256892Y145718D01*
X256878Y145732D01*
X256868Y145749D01*
X256789Y145816D01*
X256714Y145888D01*
X256696Y145896D01*
X256681Y145909D01*
X256585Y145948D01*
X256491Y145991D01*
X256471Y145993D01*
X256453Y146001D01*
X256286Y146019D01*
X255568Y146019D01*
X254079Y147508D01*
X254079Y160612D01*
X255489Y162022D01*
X255500Y162038D01*
X255516Y162050D01*
X255572Y162138D01*
X255632Y162221D01*
X255638Y162240D01*
X255649Y162257D01*
X255674Y162358D01*
X255704Y162457D01*
X255704Y162476D01*
X255709Y162496D01*
X255701Y162599D01*
X255698Y162702D01*
X255691Y162721D01*
X255690Y162741D01*
X255649Y162836D01*
X255614Y162933D01*
X255601Y162949D01*
X255593Y162967D01*
X255489Y163098D01*
X254079Y164508D01*
X254079Y177612D01*
X255568Y179101D01*
X256286Y179101D01*
X256306Y179104D01*
X256325Y179102D01*
X256427Y179124D01*
X256529Y179140D01*
X256546Y179150D01*
X256566Y179154D01*
X256655Y179207D01*
X256746Y179256D01*
X256760Y179270D01*
X256777Y179280D01*
X256844Y179359D01*
X256916Y179434D01*
X256924Y179452D01*
X256937Y179467D01*
X256976Y179563D01*
X257019Y179657D01*
X257021Y179677D01*
X257029Y179695D01*
X257047Y179862D01*
X257047Y199283D01*
X257028Y199398D01*
X257011Y199514D01*
X257009Y199520D01*
X257008Y199526D01*
X256953Y199628D01*
X256900Y199733D01*
X256895Y199738D01*
X256892Y199743D01*
X256809Y199823D01*
X256724Y199905D01*
X256718Y199909D01*
X256714Y199913D01*
X256697Y199920D01*
X256577Y199986D01*
X254857Y200699D01*
X251499Y204057D01*
X249681Y208445D01*
X249681Y213195D01*
X251499Y217583D01*
X254857Y220941D01*
X259245Y222759D01*
X263995Y222759D01*
X268383Y220941D01*
X271741Y217583D01*
X273559Y213195D01*
X273559Y208445D01*
X271741Y204057D01*
X268383Y200699D01*
X266663Y199986D01*
X266563Y199925D01*
X266463Y199865D01*
X266459Y199860D01*
X266454Y199857D01*
X266379Y199767D01*
X266303Y199678D01*
X266301Y199672D01*
X266297Y199667D01*
X266255Y199558D01*
X266211Y199450D01*
X266210Y199442D01*
X266209Y199438D01*
X266208Y199419D01*
X266193Y199283D01*
X266193Y179862D01*
X266196Y179842D01*
X266194Y179823D01*
X266216Y179721D01*
X266232Y179619D01*
X266242Y179602D01*
X266246Y179582D01*
X266299Y179493D01*
X266348Y179402D01*
X266362Y179388D01*
X266372Y179371D01*
X266451Y179304D01*
X266526Y179232D01*
X266544Y179224D01*
X266559Y179211D01*
X266655Y179172D01*
X266749Y179129D01*
X266769Y179127D01*
X266787Y179119D01*
X266954Y179101D01*
X267672Y179101D01*
X269161Y177612D01*
X269161Y164508D01*
X267751Y163098D01*
X267740Y163082D01*
X267724Y163070D01*
X267668Y162982D01*
X267608Y162899D01*
X267602Y162880D01*
X267591Y162863D01*
X267566Y162762D01*
X267536Y162663D01*
X267536Y162644D01*
X267531Y162624D01*
X267539Y162521D01*
X267542Y162418D01*
X267549Y162399D01*
X267550Y162379D01*
X267591Y162284D01*
X267626Y162187D01*
X267639Y162171D01*
X267647Y162153D01*
X267751Y162022D01*
X269161Y160612D01*
X269161Y147508D01*
X267672Y146019D01*
X266954Y146019D01*
X266934Y146016D01*
X266915Y146018D01*
X266813Y145996D01*
X266711Y145980D01*
X266694Y145970D01*
X266674Y145966D01*
X266585Y145913D01*
X266494Y145864D01*
X266480Y145850D01*
X266463Y145840D01*
X266396Y145761D01*
X266324Y145686D01*
X266316Y145668D01*
X266303Y145653D01*
X266264Y145557D01*
X266221Y145463D01*
X266219Y145443D01*
X266211Y145425D01*
X266193Y145258D01*
X266193Y144449D01*
X266207Y144359D01*
X266215Y144268D01*
X266227Y144239D01*
X266232Y144207D01*
X266275Y144126D01*
X266311Y144042D01*
X266337Y144010D01*
X266348Y143989D01*
X266371Y143967D01*
X266416Y143911D01*
X273223Y137104D01*
X273239Y137092D01*
X273252Y137076D01*
X273339Y137020D01*
X273423Y136960D01*
X273442Y136954D01*
X273459Y136943D01*
X273559Y136918D01*
X273658Y136888D01*
X273678Y136888D01*
X273697Y136883D01*
X273800Y136891D01*
X273904Y136894D01*
X273923Y136901D01*
X273943Y136902D01*
X274037Y136943D01*
X274135Y136978D01*
X274151Y136991D01*
X274169Y136999D01*
X274300Y137104D01*
X283247Y146051D01*
X295873Y146051D01*
X304801Y137123D01*
X304801Y124497D01*
X295873Y115569D01*
X283247Y115569D01*
G37*
%LPD*%
%LPC*%
G36*
X22570Y198881D02*
X22570Y198881D01*
X21081Y200370D01*
X21081Y221270D01*
X22570Y222759D01*
X43470Y222759D01*
X44959Y221270D01*
X44959Y200370D01*
X43470Y198881D01*
X22570Y198881D01*
G37*
%LPD*%
%LPC*%
G36*
X56098Y158749D02*
X56098Y158749D01*
X54609Y160238D01*
X54609Y180122D01*
X56098Y181611D01*
X75982Y181611D01*
X77471Y180122D01*
X77471Y160238D01*
X75982Y158749D01*
X56098Y158749D01*
G37*
%LPD*%
%LPC*%
G36*
X183098Y158749D02*
X183098Y158749D01*
X181609Y160238D01*
X181609Y180122D01*
X183098Y181611D01*
X202982Y181611D01*
X204471Y180122D01*
X204471Y160238D01*
X202982Y158749D01*
X183098Y158749D01*
G37*
%LPD*%
%LPC*%
G36*
X157698Y158749D02*
X157698Y158749D01*
X156209Y160238D01*
X156209Y180122D01*
X157698Y181611D01*
X177582Y181611D01*
X179071Y180122D01*
X179071Y160238D01*
X177582Y158749D01*
X157698Y158749D01*
G37*
%LPD*%
%LPC*%
G36*
X106898Y158749D02*
X106898Y158749D01*
X105409Y160238D01*
X105409Y180122D01*
X106898Y181611D01*
X126782Y181611D01*
X128271Y180122D01*
X128271Y160238D01*
X126782Y158749D01*
X106898Y158749D01*
G37*
%LPD*%
%LPC*%
G36*
X81498Y158749D02*
X81498Y158749D01*
X80009Y160238D01*
X80009Y180122D01*
X81498Y181611D01*
X101382Y181611D01*
X102871Y180122D01*
X102871Y160238D01*
X101382Y158749D01*
X81498Y158749D01*
G37*
%LPD*%
%LPC*%
G36*
X30698Y158749D02*
X30698Y158749D01*
X29209Y160238D01*
X29209Y180122D01*
X30698Y181611D01*
X50582Y181611D01*
X52071Y180122D01*
X52071Y160238D01*
X50582Y158749D01*
X30698Y158749D01*
G37*
%LPD*%
%LPC*%
G36*
X202397Y399795D02*
X202397Y399795D01*
X199036Y401187D01*
X196463Y403760D01*
X195071Y407121D01*
X195071Y410759D01*
X196463Y414120D01*
X199036Y416693D01*
X202397Y418085D01*
X219243Y418085D01*
X222604Y416693D01*
X225177Y414120D01*
X226569Y410759D01*
X226569Y407121D01*
X225177Y403760D01*
X222604Y401187D01*
X219243Y399795D01*
X202397Y399795D01*
G37*
%LPD*%
%LPC*%
G36*
X487845Y351281D02*
X487845Y351281D01*
X483457Y353099D01*
X480099Y356457D01*
X478281Y360845D01*
X478281Y365595D01*
X480099Y369983D01*
X483457Y373341D01*
X487845Y375159D01*
X492595Y375159D01*
X496983Y373341D01*
X500341Y369983D01*
X502159Y365595D01*
X502159Y360845D01*
X500341Y356457D01*
X496983Y353099D01*
X492595Y351281D01*
X487845Y351281D01*
G37*
%LPD*%
%LPC*%
G36*
X81445Y351281D02*
X81445Y351281D01*
X77057Y353099D01*
X73699Y356457D01*
X71881Y360845D01*
X71881Y365595D01*
X73699Y369983D01*
X77057Y373341D01*
X81445Y375159D01*
X86195Y375159D01*
X90583Y373341D01*
X93941Y369983D01*
X95759Y365595D01*
X95759Y360845D01*
X93941Y356457D01*
X90583Y353099D01*
X86195Y351281D01*
X81445Y351281D01*
G37*
%LPD*%
%LPC*%
G36*
X183045Y351281D02*
X183045Y351281D01*
X178657Y353099D01*
X175299Y356457D01*
X173481Y360845D01*
X173481Y365595D01*
X175299Y369983D01*
X178657Y373341D01*
X183045Y375159D01*
X187795Y375159D01*
X192183Y373341D01*
X195541Y369983D01*
X197359Y365595D01*
X197359Y360845D01*
X195541Y356457D01*
X192183Y353099D01*
X187795Y351281D01*
X183045Y351281D01*
G37*
%LPD*%
%LPC*%
G36*
X310045Y351281D02*
X310045Y351281D01*
X305657Y353099D01*
X302299Y356457D01*
X300481Y360845D01*
X300481Y365595D01*
X302299Y369983D01*
X305657Y373341D01*
X310045Y375159D01*
X314795Y375159D01*
X319183Y373341D01*
X322541Y369983D01*
X324359Y365595D01*
X324359Y360845D01*
X322541Y356457D01*
X319183Y353099D01*
X314795Y351281D01*
X310045Y351281D01*
G37*
%LPD*%
%LPC*%
G36*
X437045Y351281D02*
X437045Y351281D01*
X432657Y353099D01*
X429299Y356457D01*
X427481Y360845D01*
X427481Y365595D01*
X429299Y369983D01*
X432657Y373341D01*
X437045Y375159D01*
X441795Y375159D01*
X446183Y373341D01*
X449541Y369983D01*
X451359Y365595D01*
X451359Y360845D01*
X449541Y356457D01*
X446183Y353099D01*
X441795Y351281D01*
X437045Y351281D01*
G37*
%LPD*%
%LPC*%
G36*
X30645Y351281D02*
X30645Y351281D01*
X26257Y353099D01*
X22899Y356457D01*
X21081Y360845D01*
X21081Y365595D01*
X22899Y369983D01*
X26257Y373341D01*
X30645Y375159D01*
X35395Y375159D01*
X39783Y373341D01*
X43141Y369983D01*
X44959Y365595D01*
X44959Y360845D01*
X43141Y356457D01*
X39783Y353099D01*
X35395Y351281D01*
X30645Y351281D01*
G37*
%LPD*%
%LPC*%
G36*
X487845Y198881D02*
X487845Y198881D01*
X483457Y200699D01*
X480099Y204057D01*
X478281Y208445D01*
X478281Y213195D01*
X480099Y217583D01*
X483457Y220941D01*
X487845Y222759D01*
X492595Y222759D01*
X496983Y220941D01*
X500341Y217583D01*
X502159Y213195D01*
X502159Y208445D01*
X500341Y204057D01*
X496983Y200699D01*
X492595Y198881D01*
X487845Y198881D01*
G37*
%LPD*%
%LPC*%
G36*
X462445Y198881D02*
X462445Y198881D01*
X458057Y200699D01*
X454699Y204057D01*
X452881Y208445D01*
X452881Y213195D01*
X454699Y217583D01*
X458057Y220941D01*
X462445Y222759D01*
X467195Y222759D01*
X471583Y220941D01*
X474941Y217583D01*
X476759Y213195D01*
X476759Y208445D01*
X474941Y204057D01*
X471583Y200699D01*
X467195Y198881D01*
X462445Y198881D01*
G37*
%LPD*%
%LPC*%
G36*
X437045Y198881D02*
X437045Y198881D01*
X432657Y200699D01*
X429299Y204057D01*
X427481Y208445D01*
X427481Y213195D01*
X429299Y217583D01*
X432657Y220941D01*
X437045Y222759D01*
X441795Y222759D01*
X446183Y220941D01*
X449541Y217583D01*
X451359Y213195D01*
X451359Y208445D01*
X449541Y204057D01*
X446183Y200699D01*
X441795Y198881D01*
X437045Y198881D01*
G37*
%LPD*%
%LPC*%
G36*
X411645Y198881D02*
X411645Y198881D01*
X407257Y200699D01*
X403899Y204057D01*
X402081Y208445D01*
X402081Y213195D01*
X403899Y217583D01*
X407257Y220941D01*
X411645Y222759D01*
X416395Y222759D01*
X420783Y220941D01*
X424141Y217583D01*
X425959Y213195D01*
X425959Y208445D01*
X424141Y204057D01*
X420783Y200699D01*
X416395Y198881D01*
X411645Y198881D01*
G37*
%LPD*%
%LPC*%
G36*
X462445Y351281D02*
X462445Y351281D01*
X458057Y353099D01*
X454699Y356457D01*
X452881Y360845D01*
X452881Y365595D01*
X454699Y369983D01*
X458057Y373341D01*
X462445Y375159D01*
X467195Y375159D01*
X471583Y373341D01*
X474941Y369983D01*
X476759Y365595D01*
X476759Y360845D01*
X474941Y356457D01*
X471583Y353099D01*
X467195Y351281D01*
X462445Y351281D01*
G37*
%LPD*%
%LPC*%
G36*
X386245Y198881D02*
X386245Y198881D01*
X381857Y200699D01*
X378499Y204057D01*
X376681Y208445D01*
X376681Y213195D01*
X378499Y217583D01*
X381857Y220941D01*
X386245Y222759D01*
X390995Y222759D01*
X395383Y220941D01*
X398741Y217583D01*
X400559Y213195D01*
X400559Y208445D01*
X398741Y204057D01*
X395383Y200699D01*
X390995Y198881D01*
X386245Y198881D01*
G37*
%LPD*%
%LPC*%
G36*
X360845Y198881D02*
X360845Y198881D01*
X356457Y200699D01*
X353099Y204057D01*
X351281Y208445D01*
X351281Y213195D01*
X353099Y217583D01*
X356457Y220941D01*
X360845Y222759D01*
X365595Y222759D01*
X369983Y220941D01*
X373341Y217583D01*
X375159Y213195D01*
X375159Y208445D01*
X373341Y204057D01*
X369983Y200699D01*
X365595Y198881D01*
X360845Y198881D01*
G37*
%LPD*%
%LPC*%
G36*
X335445Y198881D02*
X335445Y198881D01*
X331057Y200699D01*
X327699Y204057D01*
X325881Y208445D01*
X325881Y213195D01*
X327699Y217583D01*
X331057Y220941D01*
X335445Y222759D01*
X340195Y222759D01*
X344583Y220941D01*
X347941Y217583D01*
X349759Y213195D01*
X349759Y208445D01*
X347941Y204057D01*
X344583Y200699D01*
X340195Y198881D01*
X335445Y198881D01*
G37*
%LPD*%
%LPC*%
G36*
X284645Y198881D02*
X284645Y198881D01*
X280257Y200699D01*
X276899Y204057D01*
X275081Y208445D01*
X275081Y213195D01*
X276899Y217583D01*
X280257Y220941D01*
X284645Y222759D01*
X289395Y222759D01*
X293783Y220941D01*
X297141Y217583D01*
X298959Y213195D01*
X298959Y208445D01*
X297141Y204057D01*
X293783Y200699D01*
X289395Y198881D01*
X284645Y198881D01*
G37*
%LPD*%
%LPC*%
G36*
X81445Y198881D02*
X81445Y198881D01*
X77057Y200699D01*
X73699Y204057D01*
X71881Y208445D01*
X71881Y213195D01*
X73699Y217583D01*
X77057Y220941D01*
X81445Y222759D01*
X86195Y222759D01*
X90583Y220941D01*
X93941Y217583D01*
X95759Y213195D01*
X95759Y208445D01*
X93941Y204057D01*
X90583Y200699D01*
X86195Y198881D01*
X81445Y198881D01*
G37*
%LPD*%
%LPC*%
G36*
X106845Y198881D02*
X106845Y198881D01*
X102457Y200699D01*
X99099Y204057D01*
X97281Y208445D01*
X97281Y213195D01*
X99099Y217583D01*
X102457Y220941D01*
X106845Y222759D01*
X111595Y222759D01*
X115983Y220941D01*
X119341Y217583D01*
X121159Y213195D01*
X121159Y208445D01*
X119341Y204057D01*
X115983Y200699D01*
X111595Y198881D01*
X106845Y198881D01*
G37*
%LPD*%
%LPC*%
G36*
X132245Y198881D02*
X132245Y198881D01*
X127857Y200699D01*
X124499Y204057D01*
X122681Y208445D01*
X122681Y213195D01*
X124499Y217583D01*
X127857Y220941D01*
X132245Y222759D01*
X136995Y222759D01*
X141383Y220941D01*
X144741Y217583D01*
X146559Y213195D01*
X146559Y208445D01*
X144741Y204057D01*
X141383Y200699D01*
X136995Y198881D01*
X132245Y198881D01*
G37*
%LPD*%
%LPC*%
G36*
X157645Y198881D02*
X157645Y198881D01*
X153257Y200699D01*
X149899Y204057D01*
X148081Y208445D01*
X148081Y213195D01*
X149899Y217583D01*
X153257Y220941D01*
X157645Y222759D01*
X162395Y222759D01*
X166783Y220941D01*
X170141Y217583D01*
X171959Y213195D01*
X171959Y208445D01*
X170141Y204057D01*
X166783Y200699D01*
X162395Y198881D01*
X157645Y198881D01*
G37*
%LPD*%
%LPC*%
G36*
X183045Y198881D02*
X183045Y198881D01*
X178657Y200699D01*
X175299Y204057D01*
X173481Y208445D01*
X173481Y213195D01*
X175299Y217583D01*
X178657Y220941D01*
X183045Y222759D01*
X187795Y222759D01*
X192183Y220941D01*
X195541Y217583D01*
X197359Y213195D01*
X197359Y208445D01*
X195541Y204057D01*
X192183Y200699D01*
X187795Y198881D01*
X183045Y198881D01*
G37*
%LPD*%
%LPC*%
G36*
X233845Y198881D02*
X233845Y198881D01*
X229457Y200699D01*
X226099Y204057D01*
X224281Y208445D01*
X224281Y213195D01*
X226099Y217583D01*
X229457Y220941D01*
X233845Y222759D01*
X238595Y222759D01*
X242983Y220941D01*
X246341Y217583D01*
X248159Y213195D01*
X248159Y208445D01*
X246341Y204057D01*
X242983Y200699D01*
X238595Y198881D01*
X233845Y198881D01*
G37*
%LPD*%
%LPC*%
G36*
X208445Y198881D02*
X208445Y198881D01*
X204057Y200699D01*
X200699Y204057D01*
X198881Y208445D01*
X198881Y213195D01*
X200699Y217583D01*
X204057Y220941D01*
X208445Y222759D01*
X213195Y222759D01*
X217583Y220941D01*
X220941Y217583D01*
X222759Y213195D01*
X222759Y208445D01*
X220941Y204057D01*
X217583Y200699D01*
X213195Y198881D01*
X208445Y198881D01*
G37*
%LPD*%
%LPC*%
G36*
X310045Y198881D02*
X310045Y198881D01*
X305657Y200699D01*
X302299Y204057D01*
X300481Y208445D01*
X300481Y213195D01*
X302299Y217583D01*
X305657Y220941D01*
X310045Y222759D01*
X314795Y222759D01*
X319183Y220941D01*
X322541Y217583D01*
X324359Y213195D01*
X324359Y208445D01*
X322541Y204057D01*
X319183Y200699D01*
X314795Y198881D01*
X310045Y198881D01*
G37*
%LPD*%
%LPC*%
G36*
X509568Y158829D02*
X509568Y158829D01*
X508079Y160318D01*
X508079Y177502D01*
X509568Y178991D01*
X526752Y178991D01*
X528241Y177502D01*
X528241Y160318D01*
X526752Y158829D01*
X509568Y158829D01*
G37*
%LPD*%
%LPC*%
G36*
X490755Y158829D02*
X490755Y158829D01*
X487050Y160364D01*
X484214Y163200D01*
X482679Y166905D01*
X482679Y170915D01*
X484214Y174620D01*
X487050Y177456D01*
X490755Y178991D01*
X494765Y178991D01*
X498470Y177456D01*
X501306Y174620D01*
X502841Y170915D01*
X502841Y166905D01*
X501306Y163200D01*
X498470Y160364D01*
X494765Y158829D01*
X490755Y158829D01*
G37*
%LPD*%
%LPC*%
G36*
X465355Y158829D02*
X465355Y158829D01*
X461650Y160364D01*
X458814Y163200D01*
X457279Y166905D01*
X457279Y170915D01*
X458814Y174620D01*
X461650Y177456D01*
X465355Y178991D01*
X469365Y178991D01*
X473070Y177456D01*
X475906Y174620D01*
X477441Y170915D01*
X477441Y166905D01*
X475906Y163200D01*
X473070Y160364D01*
X469365Y158829D01*
X465355Y158829D01*
G37*
%LPD*%
%LPC*%
G36*
X389155Y158829D02*
X389155Y158829D01*
X385450Y160364D01*
X382614Y163200D01*
X381079Y166905D01*
X381079Y170915D01*
X382614Y174620D01*
X385450Y177456D01*
X389155Y178991D01*
X393165Y178991D01*
X396870Y177456D01*
X399706Y174620D01*
X401241Y170915D01*
X401241Y166905D01*
X399706Y163200D01*
X396870Y160364D01*
X393165Y158829D01*
X389155Y158829D01*
G37*
%LPD*%
%LPC*%
G36*
X291083Y56133D02*
X291083Y56133D01*
X291083Y69851D01*
X295873Y69851D01*
X304801Y60923D01*
X304801Y56133D01*
X291083Y56133D01*
G37*
%LPD*%
%LPC*%
G36*
X291083Y53087D02*
X291083Y53087D01*
X304801Y53087D01*
X304801Y48297D01*
X295873Y39369D01*
X291083Y39369D01*
X291083Y53087D01*
G37*
%LPD*%
%LPC*%
G36*
X274319Y56133D02*
X274319Y56133D01*
X274319Y60923D01*
X283247Y69851D01*
X288037Y69851D01*
X288037Y56133D01*
X274319Y56133D01*
G37*
%LPD*%
%LPC*%
G36*
X283247Y39369D02*
X283247Y39369D01*
X274319Y48297D01*
X274319Y53087D01*
X288037Y53087D01*
X288037Y39369D01*
X283247Y39369D01*
G37*
%LPD*%
%LPC*%
G36*
X143763Y171703D02*
X143763Y171703D01*
X143763Y181611D01*
X151464Y181611D01*
X152111Y181438D01*
X152690Y181103D01*
X153163Y180630D01*
X153498Y180051D01*
X153671Y179404D01*
X153671Y171703D01*
X143763Y171703D01*
G37*
%LPD*%
%LPC*%
G36*
X130809Y171703D02*
X130809Y171703D01*
X130809Y179404D01*
X130982Y180051D01*
X131317Y180630D01*
X131790Y181103D01*
X132369Y181438D01*
X133016Y181611D01*
X140717Y181611D01*
X140717Y171703D01*
X130809Y171703D01*
G37*
%LPD*%
%LPC*%
G36*
X143763Y158749D02*
X143763Y158749D01*
X143763Y168657D01*
X153671Y168657D01*
X153671Y160956D01*
X153498Y160309D01*
X153163Y159730D01*
X152690Y159257D01*
X152111Y158922D01*
X151464Y158749D01*
X143763Y158749D01*
G37*
%LPD*%
%LPC*%
G36*
X133016Y158749D02*
X133016Y158749D01*
X132369Y158922D01*
X131790Y159257D01*
X131317Y159730D01*
X130982Y160309D01*
X130809Y160956D01*
X130809Y168657D01*
X140717Y168657D01*
X140717Y158749D01*
X133016Y158749D01*
G37*
%LPD*%
%LPC*%
G36*
X212343Y486663D02*
X212343Y486663D01*
X212343Y494285D01*
X218325Y494285D01*
X220091Y493933D01*
X221756Y493244D01*
X223254Y492243D01*
X224527Y490970D01*
X225528Y489472D01*
X226217Y487807D01*
X226445Y486663D01*
X212343Y486663D01*
G37*
%LPD*%
%LPC*%
G36*
X288543Y486663D02*
X288543Y486663D01*
X288543Y494285D01*
X294525Y494285D01*
X296291Y493933D01*
X297956Y493244D01*
X299454Y492243D01*
X300727Y490970D01*
X301728Y489472D01*
X302417Y487807D01*
X302645Y486663D01*
X288543Y486663D01*
G37*
%LPD*%
%LPC*%
G36*
X212343Y512063D02*
X212343Y512063D01*
X212343Y519685D01*
X218325Y519685D01*
X220091Y519333D01*
X221756Y518644D01*
X223254Y517643D01*
X224527Y516370D01*
X225528Y514872D01*
X226217Y513207D01*
X226445Y512063D01*
X212343Y512063D01*
G37*
%LPD*%
%LPC*%
G36*
X288543Y512063D02*
X288543Y512063D01*
X288543Y519685D01*
X294525Y519685D01*
X296291Y519333D01*
X297956Y518644D01*
X299454Y517643D01*
X300727Y516370D01*
X301728Y514872D01*
X302417Y513207D01*
X302645Y512063D01*
X288543Y512063D01*
G37*
%LPD*%
%LPC*%
G36*
X271395Y486663D02*
X271395Y486663D01*
X271623Y487807D01*
X272312Y489472D01*
X273313Y490970D01*
X274586Y492243D01*
X276084Y493244D01*
X277749Y493933D01*
X279515Y494285D01*
X285497Y494285D01*
X285497Y486663D01*
X271395Y486663D01*
G37*
%LPD*%
%LPC*%
G36*
X195195Y486663D02*
X195195Y486663D01*
X195423Y487807D01*
X196112Y489472D01*
X197113Y490970D01*
X198386Y492243D01*
X199884Y493244D01*
X201549Y493933D01*
X203315Y494285D01*
X209297Y494285D01*
X209297Y486663D01*
X195195Y486663D01*
G37*
%LPD*%
%LPC*%
G36*
X271395Y512063D02*
X271395Y512063D01*
X271623Y513207D01*
X272312Y514872D01*
X273313Y516370D01*
X274586Y517643D01*
X276084Y518644D01*
X277749Y519333D01*
X279515Y519685D01*
X285497Y519685D01*
X285497Y512063D01*
X271395Y512063D01*
G37*
%LPD*%
%LPC*%
G36*
X195195Y512063D02*
X195195Y512063D01*
X195423Y513207D01*
X196112Y514872D01*
X197113Y516370D01*
X198386Y517643D01*
X199884Y518644D01*
X201549Y519333D01*
X203315Y519685D01*
X209297Y519685D01*
X209297Y512063D01*
X195195Y512063D01*
G37*
%LPD*%
%LPC*%
G36*
X288543Y475995D02*
X288543Y475995D01*
X288543Y483617D01*
X302645Y483617D01*
X302417Y482473D01*
X301728Y480808D01*
X300727Y479310D01*
X299454Y478037D01*
X297956Y477036D01*
X296291Y476347D01*
X294525Y475995D01*
X288543Y475995D01*
G37*
%LPD*%
%LPC*%
G36*
X212343Y475995D02*
X212343Y475995D01*
X212343Y483617D01*
X226445Y483617D01*
X226217Y482473D01*
X225528Y480808D01*
X224527Y479310D01*
X223254Y478037D01*
X221756Y477036D01*
X220091Y476347D01*
X218325Y475995D01*
X212343Y475995D01*
G37*
%LPD*%
%LPC*%
G36*
X212343Y501395D02*
X212343Y501395D01*
X212343Y509017D01*
X226445Y509017D01*
X226217Y507873D01*
X225528Y506208D01*
X224527Y504710D01*
X223254Y503437D01*
X221756Y502436D01*
X220091Y501747D01*
X218325Y501395D01*
X212343Y501395D01*
G37*
%LPD*%
%LPC*%
G36*
X288543Y501395D02*
X288543Y501395D01*
X288543Y509017D01*
X302645Y509017D01*
X302417Y507873D01*
X301728Y506208D01*
X300727Y504710D01*
X299454Y503437D01*
X297956Y502436D01*
X296291Y501747D01*
X294525Y501395D01*
X288543Y501395D01*
G37*
%LPD*%
%LPC*%
G36*
X279515Y501395D02*
X279515Y501395D01*
X277749Y501747D01*
X276084Y502436D01*
X274586Y503437D01*
X273313Y504710D01*
X272312Y506208D01*
X271623Y507873D01*
X271395Y509017D01*
X285497Y509017D01*
X285497Y501395D01*
X279515Y501395D01*
G37*
%LPD*%
%LPC*%
G36*
X203315Y501395D02*
X203315Y501395D01*
X201549Y501747D01*
X199884Y502436D01*
X198386Y503437D01*
X197113Y504710D01*
X196112Y506208D01*
X195423Y507873D01*
X195195Y509017D01*
X209297Y509017D01*
X209297Y501395D01*
X203315Y501395D01*
G37*
%LPD*%
%LPC*%
G36*
X279515Y475995D02*
X279515Y475995D01*
X277749Y476347D01*
X276084Y477036D01*
X274586Y478037D01*
X273313Y479310D01*
X272312Y480808D01*
X271623Y482473D01*
X271395Y483617D01*
X285497Y483617D01*
X285497Y475995D01*
X279515Y475995D01*
G37*
%LPD*%
%LPC*%
G36*
X203315Y475995D02*
X203315Y475995D01*
X201549Y476347D01*
X199884Y477036D01*
X198386Y478037D01*
X197113Y479310D01*
X196112Y480808D01*
X195423Y482473D01*
X195195Y483617D01*
X209297Y483617D01*
X209297Y475995D01*
X203315Y475995D01*
G37*
%LPD*%
%LPC*%
G36*
X437493Y564928D02*
X437493Y564928D01*
X437493Y578901D01*
X438619Y578677D01*
X440271Y577992D01*
X441759Y576998D01*
X443023Y575734D01*
X444017Y574246D01*
X444702Y572594D01*
X445051Y570839D01*
X445051Y564928D01*
X437493Y564928D01*
G37*
%LPD*%
%LPC*%
G36*
X437493Y561882D02*
X437493Y561882D01*
X445051Y561882D01*
X445051Y555971D01*
X444702Y554216D01*
X444017Y552564D01*
X443023Y551076D01*
X441759Y549812D01*
X440271Y548818D01*
X438619Y548133D01*
X437493Y547909D01*
X437493Y561882D01*
G37*
%LPD*%
%LPC*%
G36*
X426889Y564928D02*
X426889Y564928D01*
X426889Y570839D01*
X427238Y572594D01*
X427923Y574246D01*
X428917Y575734D01*
X430181Y576998D01*
X431669Y577992D01*
X433321Y578677D01*
X434447Y578901D01*
X434447Y564928D01*
X426889Y564928D01*
G37*
%LPD*%
%LPC*%
G36*
X433321Y548133D02*
X433321Y548133D01*
X431669Y548818D01*
X430181Y549812D01*
X428917Y551076D01*
X427923Y552564D01*
X427238Y554216D01*
X426889Y555971D01*
X426889Y561882D01*
X434447Y561882D01*
X434447Y547909D01*
X433321Y548133D01*
G37*
%LPD*%
%LPC*%
G36*
X59943Y212343D02*
X59943Y212343D01*
X59943Y222666D01*
X61216Y222465D01*
X63003Y221884D01*
X64677Y221031D01*
X66198Y219926D01*
X67526Y218598D01*
X68631Y217077D01*
X69484Y215403D01*
X70065Y213616D01*
X70266Y212343D01*
X59943Y212343D01*
G37*
%LPD*%
%LPC*%
G36*
X59943Y364743D02*
X59943Y364743D01*
X59943Y375066D01*
X61216Y374865D01*
X63003Y374284D01*
X64677Y373431D01*
X66198Y372326D01*
X67526Y370998D01*
X68631Y369477D01*
X69484Y367803D01*
X70065Y366016D01*
X70266Y364743D01*
X59943Y364743D01*
G37*
%LPD*%
%LPC*%
G36*
X46574Y364743D02*
X46574Y364743D01*
X46775Y366016D01*
X47356Y367803D01*
X48209Y369477D01*
X49314Y370998D01*
X50642Y372326D01*
X52163Y373431D01*
X53837Y374284D01*
X55624Y374865D01*
X56897Y375066D01*
X56897Y364743D01*
X46574Y364743D01*
G37*
%LPD*%
%LPC*%
G36*
X46574Y212343D02*
X46574Y212343D01*
X46775Y213616D01*
X47356Y215403D01*
X48209Y217077D01*
X49314Y218598D01*
X50642Y219926D01*
X52163Y221031D01*
X53837Y221884D01*
X55624Y222465D01*
X56897Y222666D01*
X56897Y212343D01*
X46574Y212343D01*
G37*
%LPD*%
%LPC*%
G36*
X59943Y209297D02*
X59943Y209297D01*
X70266Y209297D01*
X70065Y208024D01*
X69484Y206237D01*
X68631Y204563D01*
X67526Y203042D01*
X66198Y201714D01*
X64677Y200609D01*
X63003Y199756D01*
X61216Y199175D01*
X59943Y198974D01*
X59943Y209297D01*
G37*
%LPD*%
%LPC*%
G36*
X59943Y361697D02*
X59943Y361697D01*
X70266Y361697D01*
X70065Y360424D01*
X69484Y358637D01*
X68631Y356963D01*
X67526Y355442D01*
X66198Y354114D01*
X64677Y353009D01*
X63003Y352156D01*
X61216Y351575D01*
X59943Y351374D01*
X59943Y361697D01*
G37*
%LPD*%
%LPC*%
G36*
X55624Y199175D02*
X55624Y199175D01*
X53837Y199756D01*
X52163Y200609D01*
X50642Y201714D01*
X49314Y203042D01*
X48209Y204563D01*
X47356Y206237D01*
X46775Y208024D01*
X46574Y209297D01*
X56897Y209297D01*
X56897Y198974D01*
X55624Y199175D01*
G37*
%LPD*%
%LPC*%
G36*
X55624Y351575D02*
X55624Y351575D01*
X53837Y352156D01*
X52163Y353009D01*
X50642Y354114D01*
X49314Y355442D01*
X48209Y356963D01*
X47356Y358637D01*
X46775Y360424D01*
X46574Y361697D01*
X56897Y361697D01*
X56897Y351374D01*
X55624Y351575D01*
G37*
%LPD*%
%LPC*%
G36*
X443483Y170433D02*
X443483Y170433D01*
X443483Y178875D01*
X444321Y178743D01*
X445830Y178252D01*
X447243Y177532D01*
X448527Y176599D01*
X449649Y175477D01*
X450582Y174193D01*
X451302Y172780D01*
X451793Y171271D01*
X451925Y170433D01*
X443483Y170433D01*
G37*
%LPD*%
%LPC*%
G36*
X443483Y167387D02*
X443483Y167387D01*
X451925Y167387D01*
X451793Y166549D01*
X451302Y165040D01*
X450582Y163627D01*
X449649Y162343D01*
X448527Y161221D01*
X447243Y160288D01*
X445830Y159568D01*
X444321Y159077D01*
X443483Y158945D01*
X443483Y167387D01*
G37*
%LPD*%
%LPC*%
G36*
X431995Y170433D02*
X431995Y170433D01*
X432127Y171271D01*
X432618Y172780D01*
X433338Y174193D01*
X434271Y175477D01*
X435393Y176599D01*
X436677Y177532D01*
X438090Y178252D01*
X439599Y178743D01*
X440437Y178875D01*
X440437Y170433D01*
X431995Y170433D01*
G37*
%LPD*%
%LPC*%
G36*
X439599Y159077D02*
X439599Y159077D01*
X438090Y159568D01*
X436677Y160288D01*
X435393Y161221D01*
X434271Y162343D01*
X433338Y163627D01*
X432618Y165040D01*
X432127Y166549D01*
X431995Y167387D01*
X440437Y167387D01*
X440437Y158945D01*
X439599Y159077D01*
G37*
%LPD*%
%LPC*%
G36*
X431663Y396493D02*
X431663Y396493D01*
X431663Y402511D01*
X435974Y402511D01*
X436621Y402338D01*
X437200Y402003D01*
X437673Y401530D01*
X438008Y400951D01*
X438181Y400304D01*
X438181Y396493D01*
X431663Y396493D01*
G37*
%LPD*%
%LPC*%
G36*
X319023Y485003D02*
X319023Y485003D01*
X319023Y491521D01*
X322835Y491521D01*
X323481Y491348D01*
X324060Y491013D01*
X324533Y490540D01*
X324868Y489961D01*
X325041Y489314D01*
X325041Y485003D01*
X319023Y485003D01*
G37*
%LPD*%
%LPC*%
G36*
X181863Y483733D02*
X181863Y483733D01*
X181863Y490251D01*
X185675Y490251D01*
X186321Y490078D01*
X186900Y489743D01*
X187373Y489270D01*
X187708Y488691D01*
X187881Y488044D01*
X187881Y483733D01*
X181863Y483733D01*
G37*
%LPD*%
%LPC*%
G36*
X181863Y501619D02*
X181863Y501619D01*
X181863Y508137D01*
X187881Y508137D01*
X187881Y503826D01*
X187708Y503179D01*
X187373Y502600D01*
X186900Y502127D01*
X186321Y501792D01*
X185674Y501619D01*
X181863Y501619D01*
G37*
%LPD*%
%LPC*%
G36*
X321563Y560039D02*
X321563Y560039D01*
X321563Y566557D01*
X327581Y566557D01*
X327581Y562246D01*
X327408Y561599D01*
X327073Y561020D01*
X326600Y560547D01*
X326021Y560212D01*
X325374Y560039D01*
X321563Y560039D01*
G37*
%LPD*%
%LPC*%
G36*
X319023Y505429D02*
X319023Y505429D01*
X319023Y511947D01*
X325041Y511947D01*
X325041Y507636D01*
X324868Y506989D01*
X324533Y506410D01*
X324060Y505937D01*
X323481Y505602D01*
X322834Y505429D01*
X319023Y505429D01*
G37*
%LPD*%
%LPC*%
G36*
X172799Y483733D02*
X172799Y483733D01*
X172799Y488044D01*
X172972Y488691D01*
X173307Y489270D01*
X173780Y489743D01*
X174359Y490078D01*
X175006Y490251D01*
X178817Y490251D01*
X178817Y483733D01*
X172799Y483733D01*
G37*
%LPD*%
%LPC*%
G36*
X309959Y485003D02*
X309959Y485003D01*
X309959Y489314D01*
X310132Y489961D01*
X310467Y490540D01*
X310940Y491013D01*
X311519Y491348D01*
X312166Y491521D01*
X315977Y491521D01*
X315977Y485003D01*
X309959Y485003D01*
G37*
%LPD*%
%LPC*%
G36*
X431663Y387429D02*
X431663Y387429D01*
X431663Y393447D01*
X438181Y393447D01*
X438181Y389635D01*
X438008Y388989D01*
X437673Y388410D01*
X437200Y387937D01*
X436621Y387602D01*
X435974Y387429D01*
X431663Y387429D01*
G37*
%LPD*%
%LPC*%
G36*
X175006Y501619D02*
X175006Y501619D01*
X174359Y501792D01*
X173780Y502127D01*
X173307Y502600D01*
X172972Y503179D01*
X172799Y503826D01*
X172799Y508137D01*
X178817Y508137D01*
X178817Y501619D01*
X175006Y501619D01*
G37*
%LPD*%
%LPC*%
G36*
X312166Y505429D02*
X312166Y505429D01*
X311519Y505602D01*
X310940Y505937D01*
X310467Y506410D01*
X310132Y506989D01*
X309959Y507636D01*
X309959Y511947D01*
X315977Y511947D01*
X315977Y505429D01*
X312166Y505429D01*
G37*
%LPD*%
%LPC*%
G36*
X314706Y560039D02*
X314706Y560039D01*
X314059Y560212D01*
X313480Y560547D01*
X313007Y561020D01*
X312672Y561599D01*
X312499Y562246D01*
X312499Y566557D01*
X318517Y566557D01*
X318517Y560039D01*
X314706Y560039D01*
G37*
%LPD*%
%LPC*%
G36*
X58419Y363219D02*
X58419Y363219D01*
X58419Y363221D01*
X58421Y363221D01*
X58421Y363219D01*
X58419Y363219D01*
G37*
%LPD*%
%LPC*%
G36*
X289559Y54609D02*
X289559Y54609D01*
X289559Y54611D01*
X289561Y54611D01*
X289561Y54609D01*
X289559Y54609D01*
G37*
%LPD*%
%LPC*%
G36*
X210819Y510539D02*
X210819Y510539D01*
X210819Y510541D01*
X210821Y510541D01*
X210821Y510539D01*
X210819Y510539D01*
G37*
%LPD*%
%LPC*%
G36*
X58419Y210819D02*
X58419Y210819D01*
X58419Y210821D01*
X58421Y210821D01*
X58421Y210819D01*
X58419Y210819D01*
G37*
%LPD*%
%LPC*%
G36*
X287019Y485139D02*
X287019Y485139D01*
X287019Y485141D01*
X287021Y485141D01*
X287021Y485139D01*
X287019Y485139D01*
G37*
%LPD*%
%LPC*%
G36*
X441959Y168909D02*
X441959Y168909D01*
X441959Y168911D01*
X441961Y168911D01*
X441961Y168909D01*
X441959Y168909D01*
G37*
%LPD*%
%LPC*%
G36*
X142239Y170179D02*
X142239Y170179D01*
X142239Y170181D01*
X142241Y170181D01*
X142241Y170179D01*
X142239Y170179D01*
G37*
%LPD*%
%LPC*%
G36*
X287019Y510539D02*
X287019Y510539D01*
X287019Y510541D01*
X287021Y510541D01*
X287021Y510539D01*
X287019Y510539D01*
G37*
%LPD*%
%LPC*%
G36*
X435969Y563404D02*
X435969Y563404D01*
X435969Y563406D01*
X435971Y563406D01*
X435971Y563404D01*
X435969Y563404D01*
G37*
%LPD*%
%LPC*%
G36*
X210819Y485139D02*
X210819Y485139D01*
X210819Y485141D01*
X210821Y485141D01*
X210821Y485139D01*
X210819Y485139D01*
G37*
%LPD*%
%LPC*%
G36*
X180339Y509659D02*
X180339Y509659D01*
X180339Y509661D01*
X180341Y509661D01*
X180341Y509659D01*
X180339Y509659D01*
G37*
%LPD*%
D10*
X180340Y482210D03*
X180340Y465210D03*
X317500Y483480D03*
X317500Y466480D03*
X180340Y526660D03*
X180340Y509660D03*
X317500Y530470D03*
X317500Y513470D03*
D11*
X217424Y586740D02*
X204216Y586740D01*
X204216Y561340D02*
X217424Y561340D01*
X217424Y434340D02*
X204216Y434340D01*
X204216Y408940D02*
X217424Y408940D01*
X217424Y535940D02*
X204216Y535940D01*
X204216Y510540D02*
X217424Y510540D01*
X217424Y459740D02*
X204216Y459740D01*
X204216Y485140D02*
X217424Y485140D01*
X280416Y408940D02*
X293624Y408940D01*
X293624Y434340D02*
X280416Y434340D01*
X280416Y459740D02*
X293624Y459740D01*
X293624Y485140D02*
X280416Y485140D01*
X280416Y510540D02*
X293624Y510540D01*
X293624Y535940D02*
X280416Y535940D01*
X280416Y561340D02*
X293624Y561340D01*
X293624Y586740D02*
X280416Y586740D01*
D12*
X435970Y569945D02*
X435970Y556865D01*
X415970Y556865D02*
X415970Y569945D01*
D13*
X413140Y420370D03*
X430140Y420370D03*
X413140Y394970D03*
X430140Y394970D03*
D10*
X261620Y154060D03*
X261620Y171060D03*
D14*
X289560Y54610D03*
X289560Y130810D03*
D15*
X33020Y210820D03*
D16*
X58420Y210820D03*
X83820Y210820D03*
X109220Y210820D03*
X134620Y210820D03*
X160020Y210820D03*
X185420Y210820D03*
X210820Y210820D03*
X236220Y210820D03*
X261620Y210820D03*
X287020Y210820D03*
X312420Y210820D03*
X337820Y210820D03*
X363220Y210820D03*
X388620Y210820D03*
X414020Y210820D03*
X439420Y210820D03*
X464820Y210820D03*
X490220Y210820D03*
X515620Y210820D03*
X515620Y363220D03*
X490220Y363220D03*
X464820Y363220D03*
X439420Y363220D03*
X414020Y363220D03*
X388620Y363220D03*
X363220Y363220D03*
X337820Y363220D03*
X312420Y363220D03*
X287020Y363220D03*
X261620Y363220D03*
X236220Y363220D03*
X210820Y363220D03*
X185420Y363220D03*
X160020Y363220D03*
X134620Y363220D03*
X109220Y363220D03*
X83820Y363220D03*
X58420Y363220D03*
X33020Y363220D03*
D17*
X492760Y168910D03*
D18*
X518160Y168910D03*
D17*
X467360Y168910D03*
X441960Y168910D03*
X416560Y168910D03*
X391160Y168910D03*
D19*
X348280Y459500D03*
X348280Y474500D03*
X348280Y489500D03*
X348280Y504500D03*
X348280Y519500D03*
X348280Y534500D03*
X140000Y459500D03*
X140000Y474500D03*
X140000Y489500D03*
X140000Y504500D03*
X140000Y519500D03*
X140000Y534500D03*
D20*
X15240Y170180D03*
X40640Y170180D03*
X66040Y170180D03*
X91440Y170180D03*
X116840Y170180D03*
X142240Y170180D03*
X167640Y170180D03*
X193040Y170180D03*
D10*
X320040Y585080D03*
X320040Y568080D03*
D21*
X515620Y363220D02*
X515620Y236220D01*
X533146Y218694D01*
X533146Y193040D01*
X528066Y187960D01*
X431800Y187960D01*
X416560Y172720D01*
X416560Y168910D01*
X414020Y363220D02*
X414020Y391550D01*
X413140Y420370D01*
X413140Y394970D01*
X147320Y584200D02*
X73660Y510540D01*
X147320Y584200D02*
X213360Y584200D01*
X210820Y586740D01*
X109220Y381000D02*
X109220Y363220D01*
X109220Y381000D02*
X73660Y416560D01*
X73660Y510540D01*
X337820Y383540D02*
X337820Y363220D01*
X337820Y383540D02*
X312420Y408940D01*
X287020Y408940D01*
X261620Y154060D02*
X261620Y142240D01*
X274320Y129540D01*
X288290Y129540D01*
X289560Y130810D01*
D22*
X206840Y534500D02*
X140000Y534500D01*
X206840Y534500D02*
X210820Y535940D01*
D23*
X206840Y534500D02*
X181440Y534500D01*
X180340Y533400D01*
X180340Y526660D01*
D21*
X134620Y381000D02*
X134620Y363220D01*
X134620Y381000D02*
X91440Y424180D01*
X91440Y482600D01*
X111760Y502920D01*
X138420Y502920D01*
X140000Y504500D01*
X140000Y489500D02*
X118660Y489500D01*
X106680Y477520D01*
X106680Y436880D01*
X160020Y383540D01*
X160020Y368300D01*
X162560Y365760D01*
X160020Y363220D01*
D22*
X140000Y459500D02*
X208040Y459500D01*
X210820Y459740D01*
D23*
X208040Y459500D02*
X180580Y459500D01*
X180340Y459740D01*
X180340Y465210D01*
D22*
X309880Y534500D02*
X348280Y534500D01*
X309880Y534500D02*
X288460Y534500D01*
X287020Y535940D01*
D21*
X313910Y530470D02*
X317500Y530470D01*
X313910Y530470D02*
X309880Y534500D01*
D22*
X314960Y459500D02*
X348280Y459500D01*
X314960Y459500D02*
X287260Y459500D01*
X287020Y459740D01*
D21*
X317500Y462040D02*
X317500Y466480D01*
X317500Y462040D02*
X314960Y459500D01*
X388620Y474980D02*
X388620Y363220D01*
X388620Y474980D02*
X358140Y505460D01*
X349240Y505460D01*
X348280Y504500D01*
X363220Y426720D02*
X363220Y363220D01*
X363220Y426720D02*
X368300Y431800D01*
X368300Y477520D01*
X358140Y487680D01*
X350100Y487680D01*
X348280Y489500D01*
D23*
X289560Y586740D02*
X287020Y586740D01*
X289560Y586740D02*
X307340Y586740D01*
X363220Y586740D01*
X386080Y563880D01*
X416560Y563880D01*
D21*
X416445Y563880D01*
X415970Y563405D01*
X430140Y463350D02*
X430140Y420370D01*
X430140Y463350D02*
X415970Y477520D01*
X415970Y563405D01*
X320040Y585080D02*
X291220Y585080D01*
X289560Y586740D01*
X287020Y586740D02*
X287020Y584200D01*
X304800Y584200D01*
X307340Y586740D01*
X317500Y586740D01*
X320040Y584200D01*
X289560Y584200D01*
X287020Y586740D01*
X207010Y137160D02*
X289560Y54610D01*
X207010Y137160D02*
X157480Y137160D01*
X142240Y152400D01*
X142240Y170180D01*
X142240Y182880D01*
X134620Y190500D01*
X71120Y190500D01*
X58420Y203200D01*
X58420Y210820D01*
X58420Y363220D01*
D23*
X180340Y482210D02*
X180340Y509660D01*
X180340Y510540D01*
X180340Y482210D02*
X207890Y482210D01*
X210820Y485140D01*
D21*
X317500Y483480D02*
X317500Y513470D01*
X289950Y513470D01*
X287020Y510540D01*
X430140Y394970D02*
X450850Y394970D01*
X454660Y398780D01*
X454660Y544715D01*
X435970Y563405D01*
X382270Y54610D02*
X289560Y54610D01*
X382270Y54610D02*
X441960Y114300D01*
X441960Y170180D01*
X441960Y172720D01*
X261620Y171060D02*
X261620Y210820D01*
X236220Y363220D02*
X236220Y368300D01*
X243840Y375920D01*
X243840Y541020D01*
X223520Y561340D01*
X210820Y561340D01*
X210820Y365760D02*
X210820Y363220D01*
X210820Y365760D02*
X233680Y388620D01*
X233680Y426720D01*
X226060Y434340D01*
X210820Y434340D01*
X287020Y368300D02*
X287020Y363220D01*
X287020Y368300D02*
X266700Y388620D01*
X266700Y429260D01*
X271780Y434340D01*
X287020Y434340D01*
X261620Y368300D02*
X261620Y363220D01*
X261620Y368300D02*
X254000Y375920D01*
X254000Y541020D01*
X276860Y563880D01*
X284480Y563880D01*
X287020Y561340D01*
M02*
