G04 EAGLE Gerber X2 export*
G75*
%MOMM*%
%FSLAX34Y34*%
%LPD*%
%AMOC8*
5,1,8,0,0,1.08239X$1,22.5*%
G01*
%ADD10C,0.152400*%
%ADD11C,0.000000*%
%ADD12R,1.100000X1.000000*%
%ADD13R,1.803000X1.600000*%
%ADD14C,1.320800*%
%ADD15C,1.308000*%
%ADD16R,1.000000X1.100000*%
%ADD17P,2.749271X8X112.500000*%
%ADD18R,1.879600X1.879600*%
%ADD19C,1.879600*%
%ADD20C,1.508000*%
%ADD21R,1.508000X1.508000*%
%ADD22C,1.208000*%
%ADD23R,1.778000X1.778000*%
%ADD24R,6.200000X5.400000*%
%ADD25R,1.600000X1.000000*%
%ADD26R,1.600000X1.803000*%
%ADD27C,0.406400*%
%ADD28C,0.254000*%
%ADD29C,1.016000*%
%ADD30C,1.270000*%
%ADD31C,1.676400*%

G36*
X175480Y10941D02*
X175480Y10941D01*
X175593Y10957D01*
X175601Y10961D01*
X175611Y10962D01*
X175711Y11015D01*
X175813Y11066D01*
X175820Y11073D01*
X175828Y11078D01*
X175906Y11160D01*
X175987Y11241D01*
X175991Y11249D01*
X175997Y11256D01*
X176045Y11359D01*
X176096Y11461D01*
X176097Y11470D01*
X176101Y11479D01*
X176113Y11592D01*
X176129Y11705D01*
X176127Y11714D01*
X176128Y11723D01*
X176104Y11835D01*
X176082Y11946D01*
X176078Y11955D01*
X176076Y11964D01*
X176017Y12062D01*
X175961Y12161D01*
X175954Y12167D01*
X175950Y12175D01*
X175863Y12249D01*
X175779Y12325D01*
X175768Y12330D01*
X175763Y12335D01*
X175740Y12344D01*
X175628Y12399D01*
X174290Y12886D01*
X174266Y12891D01*
X174227Y12906D01*
X173598Y13075D01*
X173359Y13213D01*
X173330Y13224D01*
X173239Y13269D01*
X169840Y14506D01*
X167069Y16831D01*
X167042Y16847D01*
X166977Y16895D01*
X166968Y16902D01*
X166965Y16904D01*
X166960Y16907D01*
X166721Y17045D01*
X166261Y17505D01*
X166242Y17519D01*
X166212Y17550D01*
X161646Y21382D01*
X156297Y30646D01*
X155262Y36516D01*
X155254Y36539D01*
X155248Y36581D01*
X155079Y37209D01*
X155079Y37486D01*
X155074Y37517D01*
X155068Y37618D01*
X154440Y41180D01*
X155068Y44742D01*
X155068Y44773D01*
X155079Y44874D01*
X155079Y45151D01*
X155248Y45779D01*
X155250Y45803D01*
X155262Y45844D01*
X156297Y51714D01*
X161646Y60978D01*
X166212Y64810D01*
X166228Y64828D01*
X166261Y64855D01*
X166721Y65315D01*
X166960Y65453D01*
X166985Y65473D01*
X167069Y65529D01*
X169840Y67854D01*
X173239Y69091D01*
X173266Y69106D01*
X173359Y69147D01*
X173598Y69285D01*
X174227Y69454D01*
X174249Y69464D01*
X174290Y69474D01*
X179892Y71512D01*
X190588Y71512D01*
X196190Y69474D01*
X196214Y69469D01*
X196253Y69454D01*
X196882Y69285D01*
X197121Y69147D01*
X197150Y69136D01*
X197241Y69091D01*
X200640Y67854D01*
X203411Y65529D01*
X203438Y65513D01*
X203520Y65453D01*
X203759Y65315D01*
X204219Y64855D01*
X204239Y64841D01*
X204268Y64810D01*
X208834Y60978D01*
X214183Y51714D01*
X215218Y45844D01*
X215226Y45821D01*
X215232Y45779D01*
X215401Y45151D01*
X215401Y44874D01*
X215406Y44843D01*
X215412Y44742D01*
X216040Y41180D01*
X215412Y37618D01*
X215412Y37587D01*
X215401Y37486D01*
X215401Y37209D01*
X215232Y36581D01*
X215230Y36557D01*
X215218Y36516D01*
X214183Y30646D01*
X208834Y21382D01*
X204268Y17550D01*
X204252Y17532D01*
X204219Y17505D01*
X203759Y17045D01*
X203520Y16907D01*
X203495Y16887D01*
X203470Y16871D01*
X203446Y16858D01*
X203438Y16849D01*
X203411Y16831D01*
X200640Y14506D01*
X197241Y13269D01*
X197214Y13254D01*
X197121Y13213D01*
X196882Y13075D01*
X196253Y12906D01*
X196231Y12896D01*
X196190Y12886D01*
X194852Y12399D01*
X194753Y12344D01*
X194652Y12290D01*
X194646Y12284D01*
X194637Y12279D01*
X194561Y12195D01*
X194483Y12112D01*
X194479Y12103D01*
X194472Y12096D01*
X194427Y11992D01*
X194379Y11889D01*
X194378Y11880D01*
X194374Y11871D01*
X194364Y11757D01*
X194352Y11645D01*
X194354Y11635D01*
X194353Y11626D01*
X194380Y11516D01*
X194404Y11404D01*
X194409Y11396D01*
X194411Y11387D01*
X194472Y11291D01*
X194530Y11193D01*
X194538Y11187D01*
X194543Y11179D01*
X194630Y11107D01*
X194717Y11033D01*
X194726Y11030D01*
X194733Y11024D01*
X194839Y10984D01*
X194945Y10941D01*
X194957Y10940D01*
X194964Y10937D01*
X194987Y10937D01*
X195112Y10923D01*
X498687Y10923D01*
X498781Y10938D01*
X498876Y10947D01*
X498902Y10958D01*
X498930Y10962D01*
X499014Y11007D01*
X499101Y11045D01*
X499122Y11064D01*
X499147Y11078D01*
X499213Y11147D01*
X499283Y11211D01*
X499297Y11235D01*
X499316Y11256D01*
X499357Y11342D01*
X499403Y11426D01*
X499408Y11453D01*
X499420Y11479D01*
X499430Y11574D01*
X499448Y11667D01*
X499444Y11695D01*
X499447Y11723D01*
X499427Y11817D01*
X499413Y11911D01*
X499399Y11943D01*
X499395Y11964D01*
X499378Y11992D01*
X499346Y12065D01*
X497254Y15688D01*
X495539Y22088D01*
X495539Y28712D01*
X497254Y35112D01*
X500566Y40849D01*
X505251Y45534D01*
X510988Y48846D01*
X517388Y50561D01*
X524012Y50561D01*
X530412Y48846D01*
X534035Y46754D01*
X534124Y46720D01*
X534211Y46680D01*
X534239Y46677D01*
X534265Y46667D01*
X534361Y46663D01*
X534455Y46653D01*
X534483Y46659D01*
X534511Y46658D01*
X534603Y46685D01*
X534696Y46705D01*
X534720Y46720D01*
X534747Y46728D01*
X534825Y46783D01*
X534907Y46831D01*
X534925Y46853D01*
X534948Y46869D01*
X535005Y46946D01*
X535067Y47018D01*
X535077Y47045D01*
X535094Y47067D01*
X535123Y47158D01*
X535159Y47246D01*
X535163Y47282D01*
X535169Y47302D01*
X535169Y47334D01*
X535177Y47413D01*
X535177Y574887D01*
X535162Y574981D01*
X535153Y575076D01*
X535142Y575102D01*
X535138Y575130D01*
X535093Y575214D01*
X535055Y575301D01*
X535036Y575322D01*
X535022Y575347D01*
X534953Y575413D01*
X534889Y575483D01*
X534865Y575497D01*
X534844Y575516D01*
X534758Y575557D01*
X534674Y575603D01*
X534647Y575608D01*
X534621Y575620D01*
X534526Y575630D01*
X534433Y575648D01*
X534405Y575644D01*
X534377Y575647D01*
X534283Y575627D01*
X534189Y575613D01*
X534157Y575599D01*
X534136Y575595D01*
X534108Y575578D01*
X534035Y575546D01*
X530412Y573454D01*
X524012Y571739D01*
X517388Y571739D01*
X510988Y573454D01*
X505251Y576766D01*
X500566Y581451D01*
X497254Y587188D01*
X495539Y593588D01*
X495539Y600212D01*
X497254Y606612D01*
X499346Y610235D01*
X499380Y610324D01*
X499420Y610411D01*
X499423Y610439D01*
X499433Y610465D01*
X499437Y610561D01*
X499447Y610655D01*
X499441Y610683D01*
X499442Y610711D01*
X499415Y610803D01*
X499395Y610896D01*
X499380Y610920D01*
X499372Y610947D01*
X499317Y611025D01*
X499269Y611107D01*
X499247Y611125D01*
X499231Y611148D01*
X499154Y611205D01*
X499082Y611267D01*
X499055Y611277D01*
X499033Y611294D01*
X498942Y611323D01*
X498854Y611359D01*
X498818Y611363D01*
X498798Y611369D01*
X498766Y611369D01*
X498687Y611377D01*
X47413Y611377D01*
X47319Y611362D01*
X47224Y611353D01*
X47198Y611342D01*
X47170Y611338D01*
X47086Y611293D01*
X46999Y611255D01*
X46978Y611236D01*
X46953Y611222D01*
X46887Y611153D01*
X46817Y611089D01*
X46803Y611065D01*
X46784Y611044D01*
X46743Y610958D01*
X46697Y610874D01*
X46692Y610847D01*
X46680Y610821D01*
X46670Y610726D01*
X46652Y610633D01*
X46656Y610605D01*
X46653Y610577D01*
X46673Y610483D01*
X46687Y610389D01*
X46701Y610357D01*
X46705Y610336D01*
X46722Y610308D01*
X46754Y610235D01*
X48846Y606612D01*
X50561Y600212D01*
X50561Y593588D01*
X48846Y587188D01*
X45534Y581451D01*
X40849Y576766D01*
X35112Y573454D01*
X28712Y571739D01*
X22088Y571739D01*
X15688Y573454D01*
X12065Y575546D01*
X11976Y575580D01*
X11889Y575620D01*
X11861Y575623D01*
X11835Y575633D01*
X11739Y575637D01*
X11645Y575647D01*
X11617Y575641D01*
X11589Y575642D01*
X11497Y575615D01*
X11404Y575595D01*
X11380Y575580D01*
X11353Y575572D01*
X11275Y575517D01*
X11193Y575469D01*
X11175Y575447D01*
X11152Y575431D01*
X11095Y575354D01*
X11033Y575282D01*
X11023Y575255D01*
X11006Y575233D01*
X10977Y575142D01*
X10941Y575054D01*
X10937Y575018D01*
X10931Y574998D01*
X10931Y574966D01*
X10923Y574887D01*
X10923Y236590D01*
X10934Y236519D01*
X10936Y236447D01*
X10954Y236398D01*
X10962Y236347D01*
X10996Y236284D01*
X11021Y236216D01*
X11053Y236176D01*
X11078Y236130D01*
X11130Y236080D01*
X11174Y236024D01*
X11218Y235996D01*
X11256Y235960D01*
X11321Y235930D01*
X11381Y235891D01*
X11432Y235879D01*
X11479Y235857D01*
X11550Y235849D01*
X11620Y235831D01*
X11672Y235835D01*
X11723Y235830D01*
X11794Y235845D01*
X11865Y235850D01*
X11913Y235871D01*
X11964Y235882D01*
X12025Y235919D01*
X12091Y235947D01*
X12147Y235991D01*
X12175Y236008D01*
X12190Y236026D01*
X12222Y236051D01*
X13884Y237714D01*
X28986Y252816D01*
X29039Y252889D01*
X29099Y252959D01*
X29111Y252989D01*
X29130Y253015D01*
X29157Y253102D01*
X29191Y253187D01*
X29195Y253228D01*
X29202Y253250D01*
X29201Y253283D01*
X29209Y253354D01*
X29209Y351367D01*
X29190Y351482D01*
X29173Y351598D01*
X29171Y351604D01*
X29170Y351610D01*
X29115Y351713D01*
X29062Y351818D01*
X29057Y351822D01*
X29054Y351828D01*
X28970Y351907D01*
X28886Y351990D01*
X28880Y351993D01*
X28876Y351997D01*
X28859Y352005D01*
X28739Y352071D01*
X26257Y353099D01*
X22899Y356457D01*
X21081Y360845D01*
X21081Y365595D01*
X22899Y369983D01*
X26257Y373341D01*
X30645Y375159D01*
X35395Y375159D01*
X39783Y373341D01*
X43141Y369983D01*
X44959Y365595D01*
X44959Y360845D01*
X43141Y356457D01*
X39783Y353099D01*
X37301Y352071D01*
X37201Y352009D01*
X37101Y351949D01*
X37097Y351944D01*
X37092Y351941D01*
X37017Y351851D01*
X36941Y351762D01*
X36939Y351756D01*
X36935Y351752D01*
X36893Y351644D01*
X36849Y351534D01*
X36848Y351527D01*
X36847Y351522D01*
X36846Y351504D01*
X36831Y351367D01*
X36831Y249882D01*
X19274Y232324D01*
X19221Y232251D01*
X19161Y232181D01*
X19149Y232151D01*
X19130Y232125D01*
X19103Y232038D01*
X19069Y231953D01*
X19065Y231912D01*
X19058Y231890D01*
X19059Y231857D01*
X19051Y231786D01*
X19051Y200014D01*
X19065Y199924D01*
X19073Y199833D01*
X19085Y199803D01*
X19090Y199771D01*
X19133Y199690D01*
X19169Y199606D01*
X19195Y199574D01*
X19206Y199554D01*
X19229Y199531D01*
X19274Y199476D01*
X31751Y186998D01*
X31751Y182372D01*
X31754Y182352D01*
X31752Y182333D01*
X31774Y182231D01*
X31790Y182129D01*
X31800Y182112D01*
X31804Y182092D01*
X31857Y182003D01*
X31906Y181912D01*
X31920Y181898D01*
X31930Y181881D01*
X32009Y181814D01*
X32084Y181742D01*
X32102Y181734D01*
X32117Y181721D01*
X32213Y181682D01*
X32307Y181639D01*
X32327Y181637D01*
X32345Y181629D01*
X32512Y181611D01*
X50582Y181611D01*
X52071Y180122D01*
X52071Y160238D01*
X50582Y158749D01*
X33898Y158749D01*
X33827Y158738D01*
X33755Y158736D01*
X33706Y158718D01*
X33655Y158710D01*
X33592Y158676D01*
X33524Y158651D01*
X33484Y158619D01*
X33438Y158594D01*
X33388Y158542D01*
X33332Y158498D01*
X33304Y158454D01*
X33268Y158416D01*
X33238Y158351D01*
X33199Y158291D01*
X33187Y158240D01*
X33165Y158193D01*
X33157Y158122D01*
X33139Y158052D01*
X33143Y158000D01*
X33138Y157949D01*
X33153Y157878D01*
X33158Y157807D01*
X33179Y157759D01*
X33190Y157708D01*
X33227Y157647D01*
X33255Y157581D01*
X33299Y157525D01*
X33316Y157497D01*
X33334Y157482D01*
X33359Y157450D01*
X34376Y156434D01*
X34450Y156381D01*
X34519Y156321D01*
X34549Y156309D01*
X34575Y156290D01*
X34662Y156263D01*
X34747Y156229D01*
X34788Y156225D01*
X34810Y156218D01*
X34843Y156219D01*
X34914Y156211D01*
X153046Y156211D01*
X153136Y156225D01*
X153227Y156233D01*
X153257Y156245D01*
X153289Y156250D01*
X153369Y156293D01*
X153454Y156329D01*
X153486Y156355D01*
X153506Y156366D01*
X153528Y156389D01*
X153584Y156434D01*
X156261Y159110D01*
X156272Y159126D01*
X156288Y159138D01*
X156344Y159226D01*
X156404Y159309D01*
X156410Y159328D01*
X156421Y159345D01*
X156446Y159446D01*
X156476Y159545D01*
X156476Y159564D01*
X156481Y159584D01*
X156473Y159687D01*
X156470Y159790D01*
X156463Y159809D01*
X156462Y159829D01*
X156421Y159924D01*
X156386Y160021D01*
X156373Y160037D01*
X156365Y160055D01*
X156261Y160186D01*
X156209Y160238D01*
X156209Y180122D01*
X157698Y181611D01*
X177582Y181611D01*
X179071Y180122D01*
X179071Y160238D01*
X177582Y158749D01*
X166994Y158749D01*
X166904Y158735D01*
X166813Y158727D01*
X166783Y158715D01*
X166751Y158710D01*
X166670Y158667D01*
X166586Y158631D01*
X166554Y158605D01*
X166534Y158594D01*
X166511Y158571D01*
X166456Y158526D01*
X156518Y148589D01*
X31442Y148589D01*
X24129Y155902D01*
X24129Y157988D01*
X24126Y158008D01*
X24128Y158027D01*
X24106Y158129D01*
X24090Y158231D01*
X24080Y158248D01*
X24076Y158268D01*
X24023Y158357D01*
X23974Y158448D01*
X23960Y158462D01*
X23950Y158479D01*
X23871Y158546D01*
X23796Y158618D01*
X23778Y158626D01*
X23763Y158639D01*
X23667Y158678D01*
X23573Y158721D01*
X23553Y158723D01*
X23535Y158731D01*
X23368Y158749D01*
X11684Y158749D01*
X11664Y158746D01*
X11645Y158748D01*
X11543Y158726D01*
X11441Y158710D01*
X11424Y158700D01*
X11404Y158696D01*
X11315Y158643D01*
X11224Y158594D01*
X11210Y158580D01*
X11193Y158570D01*
X11126Y158491D01*
X11054Y158416D01*
X11046Y158398D01*
X11033Y158383D01*
X10994Y158287D01*
X10951Y158193D01*
X10949Y158173D01*
X10941Y158155D01*
X10923Y157988D01*
X10923Y47413D01*
X10938Y47319D01*
X10947Y47224D01*
X10958Y47198D01*
X10962Y47170D01*
X11007Y47086D01*
X11045Y46999D01*
X11064Y46978D01*
X11078Y46953D01*
X11147Y46887D01*
X11211Y46817D01*
X11235Y46803D01*
X11256Y46784D01*
X11342Y46743D01*
X11426Y46697D01*
X11453Y46692D01*
X11479Y46680D01*
X11574Y46670D01*
X11667Y46652D01*
X11695Y46656D01*
X11723Y46653D01*
X11817Y46673D01*
X11911Y46687D01*
X11943Y46701D01*
X11964Y46705D01*
X11992Y46722D01*
X12065Y46754D01*
X15688Y48846D01*
X22088Y50561D01*
X28712Y50561D01*
X35112Y48846D01*
X40849Y45534D01*
X45534Y40849D01*
X48846Y35112D01*
X50561Y28712D01*
X50561Y22088D01*
X48846Y15688D01*
X46754Y12065D01*
X46720Y11976D01*
X46680Y11889D01*
X46677Y11861D01*
X46667Y11835D01*
X46663Y11739D01*
X46653Y11645D01*
X46659Y11617D01*
X46658Y11589D01*
X46685Y11497D01*
X46705Y11404D01*
X46720Y11380D01*
X46728Y11353D01*
X46783Y11275D01*
X46831Y11193D01*
X46853Y11175D01*
X46869Y11152D01*
X46946Y11095D01*
X47018Y11033D01*
X47045Y11023D01*
X47067Y11006D01*
X47158Y10977D01*
X47246Y10941D01*
X47282Y10937D01*
X47302Y10931D01*
X47334Y10931D01*
X47413Y10923D01*
X175368Y10923D01*
X175480Y10941D01*
G37*
%LPC*%
G36*
X513245Y351281D02*
X513245Y351281D01*
X508857Y353099D01*
X505499Y356457D01*
X503681Y360845D01*
X503681Y365595D01*
X505499Y369983D01*
X508857Y373341D01*
X510577Y374054D01*
X510677Y374115D01*
X510777Y374175D01*
X510781Y374180D01*
X510786Y374183D01*
X510861Y374273D01*
X510937Y374362D01*
X510939Y374368D01*
X510943Y374373D01*
X510985Y374481D01*
X511029Y374590D01*
X511030Y374598D01*
X511031Y374602D01*
X511032Y374621D01*
X511047Y374757D01*
X511047Y381331D01*
X511033Y381421D01*
X511025Y381512D01*
X511013Y381541D01*
X511008Y381573D01*
X510965Y381654D01*
X510929Y381738D01*
X510903Y381770D01*
X510892Y381791D01*
X510869Y381813D01*
X510824Y381869D01*
X506329Y386364D01*
X506255Y386417D01*
X506185Y386477D01*
X506155Y386489D01*
X506129Y386508D01*
X506042Y386535D01*
X505957Y386569D01*
X505916Y386573D01*
X505894Y386580D01*
X505862Y386579D01*
X505791Y386587D01*
X424826Y386587D01*
X414527Y396886D01*
X414527Y400764D01*
X414513Y400854D01*
X414505Y400945D01*
X414493Y400975D01*
X414488Y401007D01*
X414445Y401088D01*
X414409Y401172D01*
X414383Y401204D01*
X414372Y401224D01*
X414349Y401247D01*
X414304Y401303D01*
X412719Y402888D01*
X412719Y403606D01*
X412716Y403626D01*
X412718Y403645D01*
X412696Y403747D01*
X412680Y403849D01*
X412670Y403866D01*
X412666Y403886D01*
X412613Y403975D01*
X412564Y404066D01*
X412550Y404080D01*
X412540Y404097D01*
X412461Y404164D01*
X412386Y404236D01*
X412368Y404244D01*
X412353Y404257D01*
X412257Y404296D01*
X412163Y404339D01*
X412143Y404341D01*
X412125Y404349D01*
X411958Y404367D01*
X388289Y404367D01*
X388199Y404353D01*
X388108Y404345D01*
X388079Y404333D01*
X388047Y404328D01*
X387966Y404285D01*
X387882Y404249D01*
X387850Y404223D01*
X387829Y404212D01*
X387807Y404189D01*
X387751Y404144D01*
X370194Y386587D01*
X214006Y386587D01*
X206247Y394346D01*
X206247Y399034D01*
X206244Y399054D01*
X206246Y399073D01*
X206224Y399175D01*
X206208Y399277D01*
X206198Y399294D01*
X206194Y399314D01*
X206141Y399403D01*
X206092Y399494D01*
X206078Y399508D01*
X206068Y399525D01*
X205989Y399592D01*
X205914Y399664D01*
X205896Y399672D01*
X205881Y399685D01*
X205785Y399724D01*
X205691Y399767D01*
X205671Y399769D01*
X205653Y399777D01*
X205486Y399795D01*
X202397Y399795D01*
X199036Y401187D01*
X196463Y403760D01*
X196407Y403897D01*
X196345Y403997D01*
X196285Y404097D01*
X196280Y404101D01*
X196277Y404106D01*
X196187Y404181D01*
X196098Y404257D01*
X196092Y404259D01*
X196088Y404263D01*
X195979Y404305D01*
X195870Y404349D01*
X195863Y404350D01*
X195858Y404351D01*
X195840Y404352D01*
X195703Y404367D01*
X191056Y404367D01*
X190966Y404353D01*
X190875Y404345D01*
X190845Y404333D01*
X190813Y404328D01*
X190732Y404285D01*
X190648Y404249D01*
X190616Y404223D01*
X190596Y404212D01*
X190573Y404189D01*
X190517Y404144D01*
X188932Y402559D01*
X176828Y402559D01*
X175339Y404048D01*
X175339Y405266D01*
X175337Y405279D01*
X175338Y405290D01*
X175337Y405295D01*
X175338Y405305D01*
X175316Y405407D01*
X175300Y405509D01*
X175290Y405526D01*
X175286Y405546D01*
X175233Y405635D01*
X175184Y405726D01*
X175170Y405740D01*
X175160Y405757D01*
X175081Y405824D01*
X175006Y405896D01*
X174988Y405904D01*
X174973Y405917D01*
X174877Y405956D01*
X174783Y405999D01*
X174763Y406001D01*
X174745Y406009D01*
X174578Y406027D01*
X143766Y406027D01*
X114149Y435644D01*
X114075Y435697D01*
X114005Y435757D01*
X113975Y435769D01*
X113949Y435788D01*
X113862Y435815D01*
X113777Y435849D01*
X113736Y435853D01*
X113714Y435860D01*
X113682Y435859D01*
X113611Y435867D01*
X60577Y435867D01*
X60557Y435864D01*
X60538Y435866D01*
X60436Y435844D01*
X60334Y435828D01*
X60317Y435818D01*
X60297Y435814D01*
X60208Y435761D01*
X60117Y435712D01*
X60103Y435698D01*
X60086Y435688D01*
X60019Y435609D01*
X59947Y435534D01*
X59939Y435516D01*
X59926Y435501D01*
X59887Y435405D01*
X59844Y435311D01*
X59842Y435291D01*
X59834Y435273D01*
X59816Y435106D01*
X59816Y431388D01*
X58327Y429899D01*
X38193Y429899D01*
X36704Y431388D01*
X36704Y449492D01*
X38193Y450981D01*
X58327Y450981D01*
X59816Y449492D01*
X59816Y445774D01*
X59819Y445754D01*
X59817Y445735D01*
X59839Y445633D01*
X59855Y445531D01*
X59865Y445514D01*
X59869Y445494D01*
X59922Y445405D01*
X59971Y445314D01*
X59985Y445300D01*
X59995Y445283D01*
X60074Y445216D01*
X60149Y445144D01*
X60167Y445136D01*
X60182Y445123D01*
X60278Y445084D01*
X60372Y445041D01*
X60392Y445039D01*
X60410Y445031D01*
X60577Y445013D01*
X108966Y445013D01*
X108986Y445016D01*
X109005Y445014D01*
X109107Y445036D01*
X109209Y445052D01*
X109226Y445062D01*
X109246Y445066D01*
X109335Y445119D01*
X109426Y445168D01*
X109440Y445182D01*
X109457Y445192D01*
X109524Y445271D01*
X109596Y445346D01*
X109604Y445364D01*
X109617Y445379D01*
X109656Y445475D01*
X109699Y445569D01*
X109701Y445589D01*
X109709Y445607D01*
X109727Y445774D01*
X109727Y465298D01*
X109724Y465318D01*
X109726Y465337D01*
X109704Y465439D01*
X109688Y465541D01*
X109678Y465558D01*
X109674Y465578D01*
X109621Y465667D01*
X109572Y465758D01*
X109558Y465772D01*
X109548Y465789D01*
X109469Y465856D01*
X109394Y465928D01*
X109376Y465936D01*
X109361Y465949D01*
X109265Y465988D01*
X109171Y466031D01*
X109151Y466033D01*
X109133Y466041D01*
X108966Y466059D01*
X108248Y466059D01*
X106759Y467548D01*
X106759Y480652D01*
X108264Y482158D01*
X108333Y482253D01*
X108404Y482350D01*
X108406Y482354D01*
X108408Y482357D01*
X108443Y482470D01*
X108479Y482584D01*
X108479Y482588D01*
X108480Y482592D01*
X108477Y482711D01*
X108475Y482830D01*
X108474Y482834D01*
X108474Y482838D01*
X108433Y482950D01*
X108394Y483062D01*
X108391Y483065D01*
X108390Y483069D01*
X108315Y483163D01*
X108242Y483256D01*
X108238Y483259D01*
X108236Y483261D01*
X108224Y483269D01*
X108107Y483355D01*
X107740Y483567D01*
X107267Y484040D01*
X106932Y484619D01*
X106759Y485266D01*
X106759Y489577D01*
X112777Y489577D01*
X112777Y482902D01*
X112780Y482882D01*
X112778Y482863D01*
X112800Y482761D01*
X112817Y482659D01*
X112826Y482642D01*
X112830Y482622D01*
X112883Y482533D01*
X112932Y482442D01*
X112946Y482428D01*
X112956Y482411D01*
X113035Y482344D01*
X113110Y482272D01*
X113128Y482264D01*
X113143Y482251D01*
X113239Y482212D01*
X113333Y482169D01*
X113353Y482167D01*
X113371Y482159D01*
X113538Y482141D01*
X115062Y482141D01*
X115082Y482144D01*
X115101Y482142D01*
X115203Y482164D01*
X115305Y482180D01*
X115322Y482190D01*
X115342Y482194D01*
X115431Y482247D01*
X115522Y482296D01*
X115536Y482310D01*
X115553Y482320D01*
X115620Y482399D01*
X115691Y482474D01*
X115700Y482492D01*
X115713Y482507D01*
X115752Y482603D01*
X115795Y482697D01*
X115797Y482717D01*
X115805Y482735D01*
X115823Y482902D01*
X115823Y489577D01*
X121841Y489577D01*
X121841Y485266D01*
X121668Y484619D01*
X121333Y484040D01*
X120860Y483567D01*
X120493Y483355D01*
X120400Y483279D01*
X120308Y483206D01*
X120306Y483202D01*
X120303Y483199D01*
X120239Y483098D01*
X120175Y482999D01*
X120174Y482995D01*
X120172Y482991D01*
X120144Y482875D01*
X120115Y482760D01*
X120116Y482756D01*
X120115Y482752D01*
X120125Y482633D01*
X120134Y482515D01*
X120136Y482511D01*
X120136Y482507D01*
X120184Y482397D01*
X120231Y482289D01*
X120234Y482285D01*
X120235Y482282D01*
X120245Y482271D01*
X120336Y482158D01*
X121841Y480652D01*
X121841Y479434D01*
X121844Y479414D01*
X121842Y479395D01*
X121864Y479293D01*
X121880Y479191D01*
X121890Y479174D01*
X121894Y479154D01*
X121947Y479065D01*
X121996Y478974D01*
X122010Y478960D01*
X122020Y478943D01*
X122099Y478876D01*
X122174Y478804D01*
X122192Y478796D01*
X122207Y478783D01*
X122303Y478744D01*
X122397Y478701D01*
X122417Y478699D01*
X122435Y478691D01*
X122602Y478673D01*
X131932Y478673D01*
X132047Y478692D01*
X132163Y478709D01*
X132169Y478711D01*
X132175Y478712D01*
X132277Y478767D01*
X132382Y478820D01*
X132387Y478825D01*
X132392Y478828D01*
X132472Y478912D01*
X132554Y478996D01*
X132558Y479002D01*
X132562Y479006D01*
X132569Y479023D01*
X132635Y479143D01*
X132726Y479361D01*
X134827Y481462D01*
X134838Y481478D01*
X134854Y481490D01*
X134910Y481578D01*
X134970Y481661D01*
X134976Y481680D01*
X134987Y481697D01*
X135012Y481798D01*
X135043Y481897D01*
X135042Y481916D01*
X135047Y481936D01*
X135039Y482039D01*
X135036Y482142D01*
X135029Y482161D01*
X135028Y482181D01*
X134987Y482276D01*
X134952Y482373D01*
X134939Y482389D01*
X134932Y482407D01*
X134827Y482538D01*
X132726Y484639D01*
X131419Y487793D01*
X131419Y491207D01*
X132726Y494361D01*
X134827Y496462D01*
X134838Y496478D01*
X134854Y496490D01*
X134910Y496578D01*
X134970Y496661D01*
X134976Y496680D01*
X134987Y496697D01*
X135012Y496798D01*
X135043Y496897D01*
X135042Y496916D01*
X135047Y496936D01*
X135039Y497039D01*
X135036Y497142D01*
X135029Y497161D01*
X135028Y497181D01*
X134987Y497276D01*
X134952Y497373D01*
X134939Y497389D01*
X134932Y497407D01*
X134827Y497538D01*
X132726Y499639D01*
X131419Y502793D01*
X131419Y506207D01*
X132726Y509361D01*
X134875Y511510D01*
X134930Y511587D01*
X134991Y511659D01*
X135002Y511686D01*
X135019Y511710D01*
X135046Y511800D01*
X135081Y511888D01*
X135082Y511917D01*
X135091Y511945D01*
X135089Y512039D01*
X135093Y512133D01*
X135085Y512162D01*
X135085Y512191D01*
X135052Y512279D01*
X135027Y512370D01*
X135010Y512394D01*
X135000Y512422D01*
X134941Y512496D01*
X134888Y512573D01*
X134860Y512597D01*
X134847Y512614D01*
X134819Y512632D01*
X134760Y512681D01*
X134530Y512835D01*
X133335Y514030D01*
X132396Y515435D01*
X131749Y516997D01*
X131554Y517977D01*
X139238Y517977D01*
X139258Y517980D01*
X139277Y517978D01*
X139379Y518000D01*
X139481Y518017D01*
X139498Y518026D01*
X139518Y518030D01*
X139607Y518083D01*
X139698Y518132D01*
X139712Y518146D01*
X139729Y518156D01*
X139796Y518235D01*
X139867Y518310D01*
X139876Y518328D01*
X139889Y518343D01*
X139927Y518439D01*
X139971Y518533D01*
X139973Y518553D01*
X139981Y518571D01*
X139999Y518738D01*
X139999Y520262D01*
X139996Y520282D01*
X139998Y520301D01*
X139976Y520403D01*
X139959Y520505D01*
X139950Y520522D01*
X139946Y520542D01*
X139893Y520631D01*
X139844Y520722D01*
X139830Y520736D01*
X139820Y520753D01*
X139741Y520820D01*
X139666Y520891D01*
X139648Y520900D01*
X139633Y520913D01*
X139537Y520952D01*
X139443Y520995D01*
X139423Y520997D01*
X139405Y521005D01*
X139238Y521023D01*
X131554Y521023D01*
X131749Y522003D01*
X132396Y523565D01*
X133335Y524970D01*
X134530Y526165D01*
X134760Y526319D01*
X134829Y526383D01*
X134902Y526442D01*
X134918Y526466D01*
X134940Y526486D01*
X134984Y526569D01*
X135035Y526649D01*
X135043Y526677D01*
X135056Y526703D01*
X135072Y526796D01*
X135095Y526887D01*
X135093Y526916D01*
X135098Y526945D01*
X135084Y527038D01*
X135076Y527133D01*
X135065Y527159D01*
X135060Y527188D01*
X135017Y527272D01*
X134980Y527359D01*
X134957Y527388D01*
X134947Y527407D01*
X134923Y527429D01*
X134875Y527490D01*
X132726Y529639D01*
X131419Y532793D01*
X131419Y536207D01*
X132726Y539361D01*
X135139Y541774D01*
X138293Y543081D01*
X141707Y543081D01*
X144861Y541774D01*
X147274Y539361D01*
X148581Y536207D01*
X148581Y532793D01*
X147274Y529639D01*
X145125Y527490D01*
X145070Y527413D01*
X145009Y527341D01*
X144998Y527314D01*
X144981Y527290D01*
X144954Y527200D01*
X144919Y527112D01*
X144918Y527083D01*
X144909Y527055D01*
X144911Y526961D01*
X144907Y526866D01*
X144915Y526838D01*
X144915Y526809D01*
X144948Y526720D01*
X144973Y526630D01*
X144990Y526606D01*
X145000Y526578D01*
X145059Y526504D01*
X145112Y526427D01*
X145140Y526403D01*
X145153Y526386D01*
X145181Y526368D01*
X145240Y526319D01*
X145470Y526165D01*
X146665Y524970D01*
X147604Y523565D01*
X148251Y522003D01*
X148446Y521023D01*
X140762Y521023D01*
X140742Y521020D01*
X140723Y521022D01*
X140621Y521000D01*
X140519Y520983D01*
X140502Y520974D01*
X140482Y520970D01*
X140393Y520917D01*
X140302Y520868D01*
X140288Y520854D01*
X140271Y520844D01*
X140204Y520765D01*
X140133Y520690D01*
X140124Y520672D01*
X140111Y520657D01*
X140073Y520561D01*
X140029Y520467D01*
X140027Y520447D01*
X140019Y520429D01*
X140001Y520262D01*
X140001Y518738D01*
X140004Y518718D01*
X140002Y518699D01*
X140024Y518597D01*
X140041Y518495D01*
X140050Y518478D01*
X140054Y518458D01*
X140107Y518369D01*
X140156Y518278D01*
X140170Y518264D01*
X140180Y518247D01*
X140259Y518180D01*
X140334Y518109D01*
X140352Y518100D01*
X140367Y518087D01*
X140463Y518048D01*
X140557Y518005D01*
X140577Y518003D01*
X140595Y517995D01*
X140762Y517977D01*
X148446Y517977D01*
X148251Y516997D01*
X147604Y515435D01*
X146665Y514030D01*
X145470Y512835D01*
X145240Y512681D01*
X145171Y512617D01*
X145098Y512558D01*
X145082Y512534D01*
X145060Y512514D01*
X145016Y512431D01*
X144965Y512351D01*
X144957Y512323D01*
X144944Y512297D01*
X144928Y512204D01*
X144905Y512113D01*
X144907Y512083D01*
X144902Y512055D01*
X144916Y511961D01*
X144924Y511867D01*
X144935Y511841D01*
X144940Y511812D01*
X144983Y511728D01*
X145020Y511641D01*
X145043Y511612D01*
X145053Y511593D01*
X145077Y511570D01*
X145125Y511510D01*
X147274Y509361D01*
X148581Y506207D01*
X148581Y502793D01*
X147274Y499639D01*
X145173Y497538D01*
X145162Y497522D01*
X145146Y497510D01*
X145090Y497422D01*
X145030Y497339D01*
X145024Y497320D01*
X145013Y497303D01*
X144988Y497202D01*
X144957Y497103D01*
X144958Y497084D01*
X144953Y497064D01*
X144961Y496961D01*
X144964Y496858D01*
X144971Y496839D01*
X144972Y496819D01*
X145013Y496724D01*
X145048Y496627D01*
X145061Y496611D01*
X145068Y496593D01*
X145173Y496462D01*
X147274Y494361D01*
X148581Y491207D01*
X148581Y487793D01*
X147274Y484639D01*
X145173Y482538D01*
X145162Y482522D01*
X145146Y482510D01*
X145090Y482422D01*
X145030Y482339D01*
X145024Y482320D01*
X145013Y482303D01*
X144988Y482202D01*
X144957Y482103D01*
X144958Y482084D01*
X144953Y482064D01*
X144961Y481961D01*
X144964Y481858D01*
X144971Y481839D01*
X144972Y481819D01*
X145013Y481724D01*
X145048Y481627D01*
X145061Y481611D01*
X145068Y481593D01*
X145173Y481462D01*
X147274Y479361D01*
X148581Y476207D01*
X148581Y472793D01*
X147274Y469639D01*
X145173Y467538D01*
X145162Y467522D01*
X145146Y467510D01*
X145090Y467422D01*
X145030Y467339D01*
X145024Y467320D01*
X145013Y467303D01*
X144988Y467202D01*
X144957Y467103D01*
X144958Y467084D01*
X144953Y467064D01*
X144961Y466961D01*
X144964Y466858D01*
X144971Y466839D01*
X144972Y466819D01*
X145013Y466724D01*
X145048Y466627D01*
X145061Y466611D01*
X145068Y466593D01*
X145173Y466462D01*
X147274Y464361D01*
X148581Y461207D01*
X148581Y457793D01*
X147274Y454639D01*
X144861Y452226D01*
X141707Y450919D01*
X138293Y450919D01*
X135139Y452226D01*
X132726Y454639D01*
X131419Y457793D01*
X131419Y461207D01*
X132726Y464361D01*
X134827Y466462D01*
X134838Y466478D01*
X134854Y466490D01*
X134910Y466578D01*
X134970Y466661D01*
X134976Y466680D01*
X134987Y466697D01*
X135012Y466798D01*
X135043Y466897D01*
X135042Y466916D01*
X135047Y466936D01*
X135039Y467039D01*
X135036Y467142D01*
X135029Y467161D01*
X135028Y467181D01*
X134987Y467276D01*
X134952Y467373D01*
X134939Y467389D01*
X134932Y467407D01*
X134827Y467538D01*
X133061Y469304D01*
X132987Y469357D01*
X132917Y469417D01*
X132887Y469429D01*
X132861Y469448D01*
X132774Y469475D01*
X132689Y469509D01*
X132648Y469513D01*
X132626Y469520D01*
X132594Y469519D01*
X132522Y469527D01*
X122602Y469527D01*
X122582Y469524D01*
X122563Y469526D01*
X122461Y469504D01*
X122359Y469488D01*
X122342Y469478D01*
X122322Y469474D01*
X122233Y469421D01*
X122142Y469372D01*
X122128Y469358D01*
X122111Y469348D01*
X122044Y469269D01*
X121972Y469194D01*
X121964Y469176D01*
X121951Y469161D01*
X121912Y469065D01*
X121869Y468971D01*
X121867Y468951D01*
X121859Y468933D01*
X121841Y468766D01*
X121841Y467548D01*
X120352Y466059D01*
X119634Y466059D01*
X119614Y466056D01*
X119595Y466058D01*
X119493Y466036D01*
X119391Y466020D01*
X119374Y466010D01*
X119354Y466006D01*
X119265Y465953D01*
X119174Y465904D01*
X119160Y465890D01*
X119143Y465880D01*
X119076Y465801D01*
X119004Y465726D01*
X118996Y465708D01*
X118983Y465693D01*
X118944Y465597D01*
X118901Y465503D01*
X118899Y465483D01*
X118891Y465465D01*
X118873Y465298D01*
X118873Y444169D01*
X118887Y444079D01*
X118895Y443988D01*
X118907Y443959D01*
X118912Y443927D01*
X118955Y443846D01*
X118991Y443762D01*
X119017Y443730D01*
X119028Y443709D01*
X119051Y443687D01*
X119096Y443631D01*
X147331Y415396D01*
X147405Y415343D01*
X147475Y415283D01*
X147505Y415271D01*
X147531Y415252D01*
X147618Y415225D01*
X147703Y415191D01*
X147744Y415187D01*
X147766Y415180D01*
X147798Y415181D01*
X147869Y415173D01*
X174578Y415173D01*
X174598Y415176D01*
X174617Y415174D01*
X174719Y415196D01*
X174821Y415212D01*
X174838Y415222D01*
X174858Y415226D01*
X174947Y415279D01*
X175038Y415328D01*
X175052Y415342D01*
X175069Y415352D01*
X175136Y415431D01*
X175208Y415506D01*
X175216Y415524D01*
X175229Y415539D01*
X175268Y415635D01*
X175311Y415729D01*
X175313Y415749D01*
X175321Y415767D01*
X175339Y415934D01*
X175339Y417152D01*
X176844Y418658D01*
X176913Y418753D01*
X176984Y418850D01*
X176986Y418854D01*
X176988Y418857D01*
X177023Y418970D01*
X177059Y419084D01*
X177059Y419088D01*
X177060Y419092D01*
X177057Y419211D01*
X177055Y419330D01*
X177054Y419334D01*
X177054Y419338D01*
X177013Y419450D01*
X176974Y419562D01*
X176971Y419565D01*
X176970Y419569D01*
X176895Y419663D01*
X176822Y419756D01*
X176818Y419759D01*
X176816Y419761D01*
X176804Y419769D01*
X176687Y419855D01*
X176320Y420067D01*
X175847Y420540D01*
X175512Y421119D01*
X175339Y421766D01*
X175339Y426077D01*
X182118Y426077D01*
X182138Y426080D01*
X182157Y426078D01*
X182259Y426100D01*
X182361Y426117D01*
X182378Y426126D01*
X182398Y426130D01*
X182487Y426183D01*
X182578Y426232D01*
X182592Y426246D01*
X182609Y426256D01*
X182676Y426335D01*
X182747Y426410D01*
X182756Y426428D01*
X182769Y426443D01*
X182808Y426539D01*
X182851Y426633D01*
X182853Y426653D01*
X182861Y426671D01*
X182879Y426838D01*
X182879Y427601D01*
X182881Y427601D01*
X182881Y426838D01*
X182884Y426818D01*
X182882Y426799D01*
X182904Y426697D01*
X182921Y426595D01*
X182930Y426578D01*
X182934Y426558D01*
X182987Y426469D01*
X183036Y426378D01*
X183050Y426364D01*
X183060Y426347D01*
X183139Y426280D01*
X183214Y426209D01*
X183232Y426200D01*
X183247Y426187D01*
X183343Y426148D01*
X183437Y426105D01*
X183457Y426103D01*
X183475Y426095D01*
X183642Y426077D01*
X190421Y426077D01*
X190421Y421766D01*
X190248Y421119D01*
X189913Y420540D01*
X189440Y420067D01*
X189073Y419855D01*
X188980Y419779D01*
X188888Y419706D01*
X188886Y419702D01*
X188883Y419699D01*
X188819Y419598D01*
X188755Y419499D01*
X188754Y419495D01*
X188752Y419491D01*
X188724Y419375D01*
X188695Y419260D01*
X188696Y419256D01*
X188695Y419252D01*
X188705Y419133D01*
X188714Y419015D01*
X188716Y419011D01*
X188716Y419007D01*
X188764Y418897D01*
X188811Y418789D01*
X188814Y418785D01*
X188815Y418782D01*
X188825Y418771D01*
X188916Y418658D01*
X190421Y417152D01*
X190421Y414274D01*
X190424Y414254D01*
X190422Y414235D01*
X190444Y414133D01*
X190460Y414031D01*
X190470Y414014D01*
X190474Y413994D01*
X190527Y413905D01*
X190576Y413814D01*
X190590Y413800D01*
X190600Y413783D01*
X190679Y413716D01*
X190754Y413644D01*
X190772Y413636D01*
X190787Y413623D01*
X190883Y413584D01*
X190977Y413541D01*
X190997Y413539D01*
X191015Y413531D01*
X191182Y413513D01*
X195703Y413513D01*
X195818Y413532D01*
X195934Y413549D01*
X195940Y413551D01*
X195946Y413552D01*
X196049Y413607D01*
X196153Y413660D01*
X196158Y413665D01*
X196163Y413668D01*
X196244Y413752D01*
X196326Y413836D01*
X196329Y413842D01*
X196333Y413846D01*
X196341Y413863D01*
X196407Y413983D01*
X196463Y414120D01*
X199036Y416693D01*
X202397Y418085D01*
X219243Y418085D01*
X222604Y416693D01*
X225177Y414120D01*
X226569Y410759D01*
X226569Y407121D01*
X225177Y403760D01*
X222604Y401187D01*
X219243Y399795D01*
X216154Y399795D01*
X216134Y399792D01*
X216115Y399794D01*
X216013Y399772D01*
X215911Y399756D01*
X215894Y399746D01*
X215874Y399742D01*
X215785Y399689D01*
X215694Y399640D01*
X215680Y399626D01*
X215663Y399616D01*
X215596Y399537D01*
X215524Y399462D01*
X215516Y399444D01*
X215503Y399429D01*
X215464Y399333D01*
X215421Y399239D01*
X215419Y399219D01*
X215411Y399201D01*
X215393Y399034D01*
X215393Y398449D01*
X215407Y398359D01*
X215415Y398268D01*
X215427Y398239D01*
X215432Y398207D01*
X215475Y398126D01*
X215511Y398042D01*
X215537Y398010D01*
X215548Y397989D01*
X215571Y397967D01*
X215616Y397911D01*
X217571Y395956D01*
X217645Y395903D01*
X217715Y395843D01*
X217745Y395831D01*
X217771Y395812D01*
X217858Y395785D01*
X217943Y395751D01*
X217984Y395747D01*
X218006Y395740D01*
X218038Y395741D01*
X218109Y395733D01*
X366091Y395733D01*
X366181Y395747D01*
X366272Y395755D01*
X366301Y395767D01*
X366333Y395772D01*
X366414Y395815D01*
X366498Y395851D01*
X366530Y395877D01*
X366551Y395888D01*
X366573Y395911D01*
X366629Y395956D01*
X381284Y410611D01*
X381337Y410685D01*
X381397Y410755D01*
X381409Y410785D01*
X381428Y410811D01*
X381455Y410898D01*
X381489Y410983D01*
X381493Y411024D01*
X381500Y411046D01*
X381499Y411078D01*
X381507Y411149D01*
X381507Y465298D01*
X381504Y465318D01*
X381506Y465337D01*
X381484Y465439D01*
X381468Y465541D01*
X381458Y465558D01*
X381454Y465578D01*
X381401Y465667D01*
X381352Y465758D01*
X381338Y465772D01*
X381328Y465789D01*
X381249Y465856D01*
X381174Y465928D01*
X381156Y465936D01*
X381141Y465949D01*
X381045Y465988D01*
X380951Y466031D01*
X380931Y466033D01*
X380913Y466041D01*
X380746Y466059D01*
X377488Y466059D01*
X375999Y467548D01*
X375999Y469166D01*
X375996Y469186D01*
X375998Y469205D01*
X375976Y469307D01*
X375960Y469409D01*
X375950Y469426D01*
X375946Y469446D01*
X375893Y469535D01*
X375844Y469626D01*
X375830Y469640D01*
X375820Y469657D01*
X375741Y469724D01*
X375666Y469796D01*
X375648Y469804D01*
X375633Y469817D01*
X375537Y469856D01*
X375443Y469899D01*
X375423Y469901D01*
X375405Y469909D01*
X375238Y469927D01*
X356158Y469927D01*
X356068Y469913D01*
X355977Y469905D01*
X355947Y469893D01*
X355915Y469888D01*
X355834Y469845D01*
X355750Y469809D01*
X355718Y469783D01*
X355697Y469772D01*
X355675Y469749D01*
X355619Y469704D01*
X353453Y467538D01*
X353442Y467522D01*
X353426Y467510D01*
X353370Y467422D01*
X353310Y467339D01*
X353304Y467320D01*
X353293Y467303D01*
X353268Y467202D01*
X353237Y467103D01*
X353238Y467084D01*
X353233Y467064D01*
X353241Y466961D01*
X353244Y466858D01*
X353251Y466839D01*
X353252Y466819D01*
X353293Y466724D01*
X353328Y466627D01*
X353341Y466611D01*
X353348Y466593D01*
X353453Y466462D01*
X355554Y464361D01*
X356861Y461207D01*
X356861Y457793D01*
X355554Y454639D01*
X353141Y452226D01*
X349987Y450919D01*
X346573Y450919D01*
X343419Y452226D01*
X341006Y454639D01*
X339699Y457793D01*
X339699Y461207D01*
X341006Y464361D01*
X343107Y466462D01*
X343118Y466478D01*
X343134Y466490D01*
X343190Y466578D01*
X343250Y466661D01*
X343256Y466680D01*
X343267Y466697D01*
X343292Y466798D01*
X343323Y466897D01*
X343322Y466916D01*
X343327Y466936D01*
X343319Y467039D01*
X343316Y467142D01*
X343309Y467161D01*
X343308Y467181D01*
X343267Y467276D01*
X343232Y467373D01*
X343219Y467389D01*
X343212Y467407D01*
X343107Y467538D01*
X341006Y469639D01*
X339699Y472793D01*
X339699Y476207D01*
X341006Y479361D01*
X343107Y481462D01*
X343118Y481478D01*
X343134Y481490D01*
X343190Y481578D01*
X343250Y481661D01*
X343256Y481680D01*
X343267Y481697D01*
X343292Y481798D01*
X343323Y481897D01*
X343322Y481916D01*
X343327Y481936D01*
X343319Y482039D01*
X343316Y482142D01*
X343309Y482161D01*
X343308Y482181D01*
X343267Y482276D01*
X343232Y482373D01*
X343219Y482389D01*
X343212Y482407D01*
X343107Y482538D01*
X341006Y484639D01*
X339699Y487793D01*
X339699Y491207D01*
X341006Y494361D01*
X343107Y496462D01*
X343118Y496478D01*
X343134Y496490D01*
X343190Y496578D01*
X343250Y496661D01*
X343256Y496680D01*
X343267Y496697D01*
X343292Y496798D01*
X343323Y496897D01*
X343322Y496916D01*
X343327Y496936D01*
X343319Y497039D01*
X343316Y497142D01*
X343309Y497161D01*
X343308Y497181D01*
X343267Y497276D01*
X343232Y497373D01*
X343219Y497389D01*
X343212Y497407D01*
X343107Y497538D01*
X341006Y499639D01*
X339699Y502793D01*
X339699Y506207D01*
X341006Y509361D01*
X343155Y511510D01*
X343210Y511587D01*
X343271Y511659D01*
X343282Y511686D01*
X343299Y511710D01*
X343326Y511800D01*
X343361Y511888D01*
X343362Y511917D01*
X343371Y511945D01*
X343369Y512039D01*
X343373Y512133D01*
X343365Y512162D01*
X343365Y512191D01*
X343332Y512279D01*
X343307Y512370D01*
X343290Y512394D01*
X343280Y512422D01*
X343221Y512496D01*
X343168Y512573D01*
X343140Y512597D01*
X343127Y512614D01*
X343099Y512632D01*
X343040Y512681D01*
X342810Y512835D01*
X341615Y514030D01*
X340676Y515435D01*
X340029Y516997D01*
X339834Y517977D01*
X347518Y517977D01*
X347538Y517980D01*
X347557Y517978D01*
X347659Y518000D01*
X347761Y518017D01*
X347778Y518026D01*
X347798Y518030D01*
X347887Y518083D01*
X347978Y518132D01*
X347992Y518146D01*
X348009Y518156D01*
X348076Y518235D01*
X348147Y518310D01*
X348156Y518328D01*
X348169Y518343D01*
X348207Y518439D01*
X348251Y518533D01*
X348253Y518553D01*
X348261Y518571D01*
X348279Y518738D01*
X348279Y520262D01*
X348276Y520282D01*
X348278Y520301D01*
X348256Y520403D01*
X348239Y520505D01*
X348230Y520522D01*
X348226Y520542D01*
X348173Y520631D01*
X348124Y520722D01*
X348110Y520736D01*
X348100Y520753D01*
X348021Y520820D01*
X347946Y520891D01*
X347928Y520900D01*
X347913Y520913D01*
X347817Y520952D01*
X347723Y520995D01*
X347703Y520997D01*
X347685Y521005D01*
X347518Y521023D01*
X339834Y521023D01*
X340029Y522003D01*
X340676Y523565D01*
X341615Y524970D01*
X342810Y526165D01*
X343040Y526319D01*
X343109Y526383D01*
X343182Y526442D01*
X343198Y526466D01*
X343220Y526486D01*
X343264Y526569D01*
X343315Y526649D01*
X343323Y526677D01*
X343336Y526703D01*
X343352Y526796D01*
X343375Y526887D01*
X343373Y526916D01*
X343378Y526945D01*
X343364Y527038D01*
X343356Y527133D01*
X343345Y527159D01*
X343340Y527188D01*
X343297Y527272D01*
X343260Y527359D01*
X343237Y527388D01*
X343227Y527407D01*
X343203Y527429D01*
X343155Y527490D01*
X341006Y529639D01*
X339699Y532793D01*
X339699Y536207D01*
X341006Y539361D01*
X343419Y541774D01*
X346573Y543081D01*
X349987Y543081D01*
X353141Y541774D01*
X355554Y539361D01*
X356861Y536207D01*
X356861Y532793D01*
X355554Y529639D01*
X353405Y527490D01*
X353350Y527413D01*
X353289Y527341D01*
X353278Y527314D01*
X353261Y527290D01*
X353234Y527200D01*
X353199Y527112D01*
X353198Y527083D01*
X353189Y527055D01*
X353191Y526961D01*
X353187Y526866D01*
X353195Y526838D01*
X353195Y526809D01*
X353228Y526720D01*
X353253Y526630D01*
X353270Y526606D01*
X353280Y526578D01*
X353339Y526504D01*
X353392Y526427D01*
X353420Y526403D01*
X353433Y526386D01*
X353461Y526368D01*
X353520Y526319D01*
X353750Y526165D01*
X354945Y524970D01*
X355884Y523565D01*
X356531Y522003D01*
X356726Y521023D01*
X349042Y521023D01*
X349022Y521020D01*
X349003Y521022D01*
X348901Y521000D01*
X348799Y520983D01*
X348782Y520974D01*
X348762Y520970D01*
X348673Y520917D01*
X348582Y520868D01*
X348568Y520854D01*
X348551Y520844D01*
X348484Y520765D01*
X348413Y520690D01*
X348404Y520672D01*
X348391Y520657D01*
X348353Y520561D01*
X348309Y520467D01*
X348307Y520447D01*
X348299Y520429D01*
X348281Y520262D01*
X348281Y518738D01*
X348284Y518718D01*
X348282Y518699D01*
X348304Y518597D01*
X348321Y518495D01*
X348330Y518478D01*
X348334Y518458D01*
X348387Y518369D01*
X348436Y518278D01*
X348450Y518264D01*
X348460Y518247D01*
X348539Y518180D01*
X348614Y518109D01*
X348632Y518100D01*
X348647Y518087D01*
X348743Y518048D01*
X348837Y518005D01*
X348857Y518003D01*
X348875Y517995D01*
X349042Y517977D01*
X356726Y517977D01*
X356531Y516997D01*
X355884Y515435D01*
X354945Y514030D01*
X353750Y512835D01*
X353520Y512681D01*
X353451Y512617D01*
X353378Y512558D01*
X353362Y512534D01*
X353340Y512514D01*
X353296Y512431D01*
X353245Y512351D01*
X353237Y512323D01*
X353224Y512297D01*
X353208Y512204D01*
X353185Y512113D01*
X353187Y512083D01*
X353182Y512055D01*
X353196Y511961D01*
X353204Y511867D01*
X353215Y511841D01*
X353220Y511812D01*
X353263Y511728D01*
X353300Y511641D01*
X353323Y511612D01*
X353333Y511593D01*
X353357Y511570D01*
X353405Y511510D01*
X355554Y509361D01*
X356861Y506207D01*
X356861Y502793D01*
X355554Y499639D01*
X353453Y497538D01*
X353442Y497522D01*
X353426Y497510D01*
X353370Y497422D01*
X353310Y497339D01*
X353304Y497320D01*
X353293Y497303D01*
X353268Y497202D01*
X353237Y497103D01*
X353238Y497084D01*
X353233Y497064D01*
X353241Y496961D01*
X353244Y496858D01*
X353251Y496839D01*
X353252Y496819D01*
X353293Y496724D01*
X353328Y496627D01*
X353341Y496611D01*
X353348Y496593D01*
X353453Y496462D01*
X355554Y494361D01*
X356861Y491207D01*
X356861Y487793D01*
X355554Y484639D01*
X353453Y482538D01*
X353442Y482522D01*
X353426Y482510D01*
X353370Y482422D01*
X353310Y482339D01*
X353304Y482320D01*
X353293Y482303D01*
X353268Y482202D01*
X353237Y482103D01*
X353238Y482084D01*
X353233Y482064D01*
X353241Y481961D01*
X353244Y481858D01*
X353251Y481839D01*
X353252Y481819D01*
X353293Y481724D01*
X353328Y481627D01*
X353341Y481611D01*
X353348Y481593D01*
X353453Y481462D01*
X355619Y479296D01*
X355693Y479243D01*
X355763Y479183D01*
X355793Y479171D01*
X355819Y479152D01*
X355906Y479125D01*
X355991Y479091D01*
X356032Y479087D01*
X356054Y479080D01*
X356086Y479081D01*
X356158Y479073D01*
X375238Y479073D01*
X375258Y479076D01*
X375277Y479074D01*
X375379Y479096D01*
X375481Y479112D01*
X375498Y479122D01*
X375518Y479126D01*
X375607Y479179D01*
X375698Y479228D01*
X375712Y479242D01*
X375729Y479252D01*
X375796Y479331D01*
X375868Y479406D01*
X375876Y479424D01*
X375889Y479439D01*
X375928Y479535D01*
X375971Y479629D01*
X375973Y479649D01*
X375981Y479667D01*
X375999Y479834D01*
X375999Y480652D01*
X377504Y482158D01*
X377573Y482253D01*
X377644Y482350D01*
X377646Y482354D01*
X377648Y482357D01*
X377683Y482470D01*
X377719Y482584D01*
X377719Y482588D01*
X377720Y482592D01*
X377717Y482711D01*
X377715Y482830D01*
X377714Y482834D01*
X377714Y482838D01*
X377673Y482950D01*
X377634Y483062D01*
X377631Y483065D01*
X377630Y483069D01*
X377555Y483163D01*
X377482Y483256D01*
X377478Y483259D01*
X377476Y483261D01*
X377464Y483269D01*
X377347Y483355D01*
X376980Y483567D01*
X376507Y484040D01*
X376172Y484619D01*
X375999Y485266D01*
X375999Y489577D01*
X382778Y489577D01*
X382798Y489580D01*
X382817Y489578D01*
X382919Y489600D01*
X383021Y489617D01*
X383038Y489626D01*
X383058Y489630D01*
X383147Y489683D01*
X383238Y489732D01*
X383252Y489746D01*
X383269Y489756D01*
X383336Y489835D01*
X383407Y489910D01*
X383416Y489928D01*
X383429Y489943D01*
X383468Y490039D01*
X383511Y490133D01*
X383513Y490153D01*
X383521Y490171D01*
X383539Y490338D01*
X383539Y491101D01*
X383541Y491101D01*
X383541Y490338D01*
X383544Y490318D01*
X383542Y490299D01*
X383564Y490197D01*
X383581Y490095D01*
X383590Y490078D01*
X383594Y490058D01*
X383647Y489969D01*
X383696Y489878D01*
X383710Y489864D01*
X383720Y489847D01*
X383799Y489780D01*
X383874Y489709D01*
X383892Y489700D01*
X383907Y489687D01*
X384003Y489648D01*
X384097Y489605D01*
X384117Y489603D01*
X384135Y489595D01*
X384302Y489577D01*
X391081Y489577D01*
X391081Y485266D01*
X390908Y484619D01*
X390573Y484040D01*
X390100Y483567D01*
X389733Y483355D01*
X389640Y483279D01*
X389548Y483206D01*
X389546Y483202D01*
X389543Y483199D01*
X389479Y483098D01*
X389415Y482999D01*
X389414Y482995D01*
X389412Y482991D01*
X389384Y482875D01*
X389355Y482760D01*
X389356Y482756D01*
X389355Y482752D01*
X389365Y482633D01*
X389374Y482515D01*
X389376Y482511D01*
X389376Y482507D01*
X389424Y482397D01*
X389471Y482289D01*
X389474Y482285D01*
X389475Y482282D01*
X389485Y482271D01*
X389576Y482158D01*
X391081Y480652D01*
X391081Y467548D01*
X390876Y467343D01*
X390823Y467269D01*
X390763Y467199D01*
X390751Y467169D01*
X390732Y467143D01*
X390705Y467056D01*
X390671Y466971D01*
X390667Y466930D01*
X390660Y466908D01*
X390661Y466876D01*
X390653Y466804D01*
X390653Y414274D01*
X390656Y414254D01*
X390654Y414235D01*
X390676Y414133D01*
X390692Y414031D01*
X390702Y414014D01*
X390706Y413994D01*
X390759Y413905D01*
X390808Y413814D01*
X390822Y413800D01*
X390832Y413783D01*
X390911Y413716D01*
X390986Y413644D01*
X391004Y413636D01*
X391019Y413623D01*
X391115Y413584D01*
X391209Y413541D01*
X391229Y413539D01*
X391247Y413531D01*
X391414Y413513D01*
X411958Y413513D01*
X411978Y413516D01*
X411997Y413514D01*
X412099Y413536D01*
X412201Y413552D01*
X412218Y413562D01*
X412238Y413566D01*
X412327Y413619D01*
X412418Y413668D01*
X412432Y413682D01*
X412449Y413692D01*
X412516Y413771D01*
X412588Y413846D01*
X412596Y413864D01*
X412609Y413879D01*
X412648Y413975D01*
X412691Y414069D01*
X412693Y414089D01*
X412701Y414107D01*
X412719Y414274D01*
X412719Y414992D01*
X414208Y416481D01*
X416566Y416481D01*
X416586Y416484D01*
X416605Y416482D01*
X416707Y416504D01*
X416809Y416520D01*
X416826Y416530D01*
X416846Y416534D01*
X416935Y416587D01*
X417026Y416636D01*
X417040Y416650D01*
X417057Y416660D01*
X417124Y416739D01*
X417196Y416814D01*
X417204Y416832D01*
X417217Y416847D01*
X417256Y416943D01*
X417299Y417037D01*
X417301Y417057D01*
X417309Y417075D01*
X417327Y417242D01*
X417327Y428638D01*
X417324Y428658D01*
X417326Y428677D01*
X417304Y428779D01*
X417288Y428881D01*
X417278Y428898D01*
X417274Y428918D01*
X417221Y429007D01*
X417172Y429098D01*
X417158Y429112D01*
X417148Y429129D01*
X417069Y429196D01*
X416994Y429268D01*
X416976Y429276D01*
X416961Y429289D01*
X416865Y429328D01*
X416771Y429371D01*
X416751Y429373D01*
X416733Y429381D01*
X416566Y429399D01*
X412848Y429399D01*
X411359Y430888D01*
X411359Y442992D01*
X412848Y444481D01*
X430952Y444481D01*
X432441Y442992D01*
X432441Y430888D01*
X430952Y429399D01*
X427234Y429399D01*
X427214Y429396D01*
X427195Y429398D01*
X427093Y429376D01*
X426991Y429360D01*
X426974Y429350D01*
X426954Y429346D01*
X426865Y429293D01*
X426774Y429244D01*
X426760Y429230D01*
X426743Y429220D01*
X426676Y429141D01*
X426604Y429066D01*
X426596Y429048D01*
X426583Y429033D01*
X426544Y428936D01*
X426501Y428843D01*
X426499Y428823D01*
X426491Y428805D01*
X426473Y428638D01*
X426473Y417242D01*
X426476Y417222D01*
X426474Y417203D01*
X426496Y417101D01*
X426512Y416999D01*
X426522Y416982D01*
X426526Y416962D01*
X426579Y416873D01*
X426628Y416782D01*
X426642Y416768D01*
X426652Y416751D01*
X426731Y416684D01*
X426806Y416612D01*
X426824Y416604D01*
X426839Y416591D01*
X426935Y416552D01*
X427029Y416509D01*
X427049Y416507D01*
X427067Y416499D01*
X427234Y416481D01*
X427312Y416481D01*
X428818Y414976D01*
X428913Y414907D01*
X429010Y414836D01*
X429014Y414834D01*
X429017Y414832D01*
X429130Y414797D01*
X429244Y414761D01*
X429248Y414761D01*
X429252Y414760D01*
X429371Y414763D01*
X429490Y414765D01*
X429494Y414766D01*
X429498Y414766D01*
X429610Y414807D01*
X429722Y414846D01*
X429725Y414849D01*
X429729Y414850D01*
X429822Y414925D01*
X429916Y414998D01*
X429919Y415002D01*
X429921Y415004D01*
X429929Y415016D01*
X430015Y415133D01*
X430227Y415500D01*
X430700Y415973D01*
X431279Y416308D01*
X431926Y416481D01*
X436237Y416481D01*
X436237Y409702D01*
X436240Y409682D01*
X436238Y409663D01*
X436260Y409561D01*
X436277Y409459D01*
X436286Y409442D01*
X436290Y409422D01*
X436343Y409333D01*
X436392Y409242D01*
X436406Y409228D01*
X436416Y409211D01*
X436495Y409144D01*
X436570Y409073D01*
X436588Y409064D01*
X436603Y409051D01*
X436699Y409012D01*
X436793Y408969D01*
X436813Y408967D01*
X436831Y408959D01*
X436998Y408941D01*
X437761Y408941D01*
X437761Y408939D01*
X436998Y408939D01*
X436978Y408936D01*
X436959Y408938D01*
X436857Y408916D01*
X436755Y408899D01*
X436738Y408890D01*
X436718Y408886D01*
X436629Y408833D01*
X436538Y408784D01*
X436524Y408770D01*
X436507Y408760D01*
X436440Y408681D01*
X436369Y408606D01*
X436360Y408588D01*
X436347Y408573D01*
X436308Y408477D01*
X436265Y408383D01*
X436263Y408363D01*
X436255Y408345D01*
X436237Y408178D01*
X436237Y401399D01*
X431926Y401399D01*
X431279Y401572D01*
X430700Y401907D01*
X430227Y402380D01*
X430015Y402747D01*
X429939Y402839D01*
X429866Y402932D01*
X429862Y402934D01*
X429859Y402937D01*
X429758Y403001D01*
X429659Y403065D01*
X429655Y403066D01*
X429651Y403068D01*
X429535Y403096D01*
X429420Y403125D01*
X429416Y403124D01*
X429412Y403125D01*
X429293Y403115D01*
X429175Y403106D01*
X429171Y403104D01*
X429167Y403104D01*
X429057Y403056D01*
X428949Y403009D01*
X428945Y403006D01*
X428942Y403005D01*
X428931Y402995D01*
X428818Y402904D01*
X427312Y401399D01*
X424785Y401399D01*
X424715Y401388D01*
X424643Y401386D01*
X424594Y401368D01*
X424543Y401360D01*
X424479Y401326D01*
X424412Y401301D01*
X424371Y401269D01*
X424325Y401244D01*
X424276Y401192D01*
X424220Y401148D01*
X424192Y401104D01*
X424156Y401066D01*
X424126Y401001D01*
X424087Y400941D01*
X424074Y400890D01*
X424052Y400843D01*
X424044Y400772D01*
X424027Y400702D01*
X424031Y400650D01*
X424025Y400599D01*
X424040Y400528D01*
X424046Y400457D01*
X424066Y400409D01*
X424077Y400358D01*
X424114Y400297D01*
X424142Y400231D01*
X424187Y400175D01*
X424204Y400147D01*
X424221Y400132D01*
X424247Y400100D01*
X428391Y395956D01*
X428465Y395903D01*
X428535Y395843D01*
X428565Y395831D01*
X428591Y395812D01*
X428678Y395785D01*
X428763Y395751D01*
X428804Y395747D01*
X428826Y395740D01*
X428858Y395741D01*
X428929Y395733D01*
X509894Y395733D01*
X520193Y385434D01*
X520193Y374757D01*
X520212Y374642D01*
X520229Y374526D01*
X520231Y374520D01*
X520232Y374514D01*
X520287Y374412D01*
X520340Y374307D01*
X520345Y374302D01*
X520348Y374297D01*
X520432Y374217D01*
X520516Y374135D01*
X520522Y374131D01*
X520526Y374127D01*
X520543Y374120D01*
X520663Y374054D01*
X522383Y373341D01*
X525741Y369983D01*
X527559Y365595D01*
X527559Y360845D01*
X525741Y356457D01*
X522383Y353099D01*
X517995Y351281D01*
X513245Y351281D01*
G37*
%LPD*%
%LPC*%
G36*
X389155Y158829D02*
X389155Y158829D01*
X385450Y160364D01*
X382614Y163200D01*
X382337Y163867D01*
X382276Y163967D01*
X382216Y164067D01*
X382211Y164071D01*
X382208Y164076D01*
X382117Y164151D01*
X382029Y164227D01*
X382023Y164229D01*
X382018Y164233D01*
X381910Y164275D01*
X381801Y164319D01*
X381793Y164320D01*
X381789Y164321D01*
X381770Y164322D01*
X381634Y164337D01*
X327036Y164337D01*
X291944Y199429D01*
X291850Y199496D01*
X291756Y199567D01*
X291750Y199569D01*
X291745Y199572D01*
X291634Y199606D01*
X291522Y199643D01*
X291516Y199643D01*
X291510Y199645D01*
X291393Y199642D01*
X291276Y199640D01*
X291269Y199638D01*
X291264Y199638D01*
X291246Y199632D01*
X291115Y199594D01*
X289395Y198881D01*
X284645Y198881D01*
X280257Y200699D01*
X276899Y204057D01*
X275081Y208445D01*
X275081Y213195D01*
X276899Y217583D01*
X280257Y220941D01*
X284645Y222759D01*
X289395Y222759D01*
X293783Y220941D01*
X297141Y217583D01*
X298959Y213195D01*
X298959Y208445D01*
X298246Y206725D01*
X298220Y206612D01*
X298191Y206498D01*
X298192Y206492D01*
X298190Y206486D01*
X298201Y206369D01*
X298210Y206253D01*
X298213Y206247D01*
X298213Y206241D01*
X298261Y206133D01*
X298306Y206027D01*
X298311Y206021D01*
X298313Y206016D01*
X298326Y206002D01*
X298411Y205896D01*
X301042Y203265D01*
X301121Y203208D01*
X301196Y203146D01*
X301220Y203137D01*
X301242Y203122D01*
X301335Y203093D01*
X301425Y203058D01*
X301452Y203057D01*
X301477Y203049D01*
X301574Y203052D01*
X301671Y203048D01*
X301696Y203055D01*
X301722Y203056D01*
X301814Y203089D01*
X301907Y203116D01*
X301929Y203131D01*
X301953Y203140D01*
X302030Y203201D01*
X302109Y203256D01*
X302125Y203277D01*
X302146Y203294D01*
X302198Y203376D01*
X302256Y203454D01*
X302264Y203479D01*
X302279Y203501D01*
X302302Y203595D01*
X302332Y203688D01*
X302332Y203714D01*
X302339Y203739D01*
X302331Y203836D01*
X302330Y203934D01*
X302321Y203965D01*
X302319Y203984D01*
X302307Y204015D01*
X302283Y204095D01*
X300481Y208445D01*
X300481Y213195D01*
X302299Y217583D01*
X305657Y220941D01*
X310045Y222759D01*
X314795Y222759D01*
X319183Y220941D01*
X322541Y217583D01*
X324359Y213195D01*
X324359Y208445D01*
X322541Y204057D01*
X319183Y200699D01*
X314795Y198881D01*
X310045Y198881D01*
X305695Y200683D01*
X305600Y200706D01*
X305507Y200734D01*
X305481Y200734D01*
X305455Y200740D01*
X305358Y200730D01*
X305261Y200728D01*
X305236Y200719D01*
X305210Y200716D01*
X305121Y200677D01*
X305030Y200643D01*
X305009Y200627D01*
X304986Y200616D01*
X304914Y200551D01*
X304838Y200490D01*
X304824Y200468D01*
X304804Y200450D01*
X304757Y200365D01*
X304705Y200283D01*
X304698Y200257D01*
X304686Y200235D01*
X304669Y200139D01*
X304645Y200044D01*
X304647Y200018D01*
X304642Y199992D01*
X304656Y199896D01*
X304664Y199799D01*
X304674Y199775D01*
X304678Y199749D01*
X304722Y199662D01*
X304760Y199573D01*
X304781Y199547D01*
X304789Y199530D01*
X304813Y199507D01*
X304865Y199442D01*
X330601Y173706D01*
X330675Y173653D01*
X330745Y173593D01*
X330775Y173581D01*
X330801Y173562D01*
X330888Y173535D01*
X330973Y173501D01*
X331014Y173497D01*
X331036Y173490D01*
X331068Y173491D01*
X331139Y173483D01*
X381634Y173483D01*
X381749Y173502D01*
X381865Y173519D01*
X381871Y173521D01*
X381877Y173522D01*
X381980Y173577D01*
X382084Y173630D01*
X382089Y173635D01*
X382094Y173638D01*
X382174Y173722D01*
X382257Y173806D01*
X382260Y173812D01*
X382264Y173816D01*
X382271Y173832D01*
X382337Y173953D01*
X382614Y174620D01*
X385001Y177008D01*
X385043Y177066D01*
X385093Y177118D01*
X385115Y177165D01*
X385145Y177207D01*
X385166Y177276D01*
X385196Y177341D01*
X385202Y177393D01*
X385217Y177443D01*
X385215Y177514D01*
X385223Y177585D01*
X385212Y177636D01*
X385211Y177688D01*
X385186Y177756D01*
X385171Y177826D01*
X385144Y177871D01*
X385127Y177919D01*
X385082Y177975D01*
X385045Y178037D01*
X385005Y178071D01*
X384973Y178111D01*
X384913Y178150D01*
X384858Y178197D01*
X384810Y178216D01*
X384766Y178244D01*
X384696Y178262D01*
X384630Y178289D01*
X384559Y178297D01*
X384527Y178305D01*
X384504Y178303D01*
X384463Y178307D01*
X374026Y178307D01*
X358647Y193686D01*
X358647Y199283D01*
X358628Y199398D01*
X358611Y199514D01*
X358609Y199520D01*
X358608Y199526D01*
X358553Y199628D01*
X358500Y199733D01*
X358495Y199738D01*
X358492Y199743D01*
X358409Y199823D01*
X358324Y199905D01*
X358318Y199909D01*
X358314Y199913D01*
X358297Y199920D01*
X358177Y199986D01*
X356457Y200699D01*
X353099Y204057D01*
X351281Y208445D01*
X351281Y213195D01*
X353099Y217583D01*
X356457Y220941D01*
X360845Y222759D01*
X365595Y222759D01*
X369983Y220941D01*
X373341Y217583D01*
X375159Y213195D01*
X375159Y208445D01*
X373341Y204057D01*
X369983Y200699D01*
X368263Y199986D01*
X368163Y199925D01*
X368063Y199865D01*
X368059Y199860D01*
X368054Y199857D01*
X367979Y199767D01*
X367903Y199678D01*
X367901Y199672D01*
X367897Y199667D01*
X367855Y199558D01*
X367811Y199450D01*
X367810Y199442D01*
X367809Y199438D01*
X367808Y199419D01*
X367793Y199283D01*
X367793Y197789D01*
X367807Y197699D01*
X367815Y197608D01*
X367827Y197579D01*
X367832Y197547D01*
X367875Y197466D01*
X367911Y197382D01*
X367937Y197350D01*
X367948Y197329D01*
X367971Y197307D01*
X368016Y197251D01*
X377591Y187676D01*
X377665Y187623D01*
X377735Y187563D01*
X377765Y187551D01*
X377791Y187532D01*
X377878Y187505D01*
X377963Y187471D01*
X378004Y187467D01*
X378026Y187460D01*
X378058Y187461D01*
X378129Y187453D01*
X396063Y187453D01*
X396133Y187464D01*
X396205Y187466D01*
X396254Y187484D01*
X396305Y187492D01*
X396369Y187526D01*
X396436Y187551D01*
X396477Y187583D01*
X396523Y187608D01*
X396572Y187660D01*
X396628Y187704D01*
X396656Y187748D01*
X396692Y187786D01*
X396722Y187851D01*
X396761Y187911D01*
X396774Y187962D01*
X396796Y188009D01*
X396804Y188080D01*
X396821Y188150D01*
X396817Y188202D01*
X396823Y188253D01*
X396808Y188324D01*
X396802Y188395D01*
X396782Y188443D01*
X396771Y188494D01*
X396734Y188555D01*
X396706Y188621D01*
X396661Y188677D01*
X396644Y188705D01*
X396627Y188720D01*
X396601Y188752D01*
X386949Y198404D01*
X386695Y198658D01*
X386621Y198711D01*
X386551Y198771D01*
X386521Y198783D01*
X386495Y198802D01*
X386408Y198829D01*
X386323Y198863D01*
X386282Y198867D01*
X386269Y198872D01*
X381857Y200699D01*
X378499Y204057D01*
X376681Y208445D01*
X376681Y213195D01*
X378499Y217583D01*
X381857Y220941D01*
X386245Y222759D01*
X390995Y222759D01*
X395383Y220941D01*
X398741Y217583D01*
X400559Y213195D01*
X400559Y208445D01*
X398741Y204057D01*
X397024Y202340D01*
X397012Y202324D01*
X396996Y202311D01*
X396940Y202224D01*
X396880Y202140D01*
X396874Y202121D01*
X396863Y202104D01*
X396838Y202004D01*
X396808Y201905D01*
X396808Y201885D01*
X396803Y201866D01*
X396811Y201763D01*
X396814Y201659D01*
X396821Y201640D01*
X396823Y201620D01*
X396863Y201526D01*
X396899Y201428D01*
X396911Y201412D01*
X396919Y201394D01*
X397024Y201263D01*
X402991Y195296D01*
X403065Y195243D01*
X403135Y195183D01*
X403165Y195171D01*
X403191Y195152D01*
X403278Y195125D01*
X403363Y195091D01*
X403404Y195087D01*
X403426Y195080D01*
X403458Y195081D01*
X403529Y195073D01*
X473064Y195073D01*
X475966Y192171D01*
X489258Y178879D01*
X489353Y178811D01*
X489446Y178741D01*
X489452Y178739D01*
X489457Y178736D01*
X489569Y178701D01*
X489680Y178665D01*
X489686Y178665D01*
X489692Y178663D01*
X489809Y178666D01*
X489926Y178667D01*
X489933Y178670D01*
X489938Y178670D01*
X489956Y178676D01*
X490087Y178714D01*
X490755Y178991D01*
X494765Y178991D01*
X498470Y177456D01*
X501306Y174620D01*
X502841Y170915D01*
X502841Y166905D01*
X501306Y163200D01*
X498470Y160364D01*
X494765Y158829D01*
X490755Y158829D01*
X487050Y160364D01*
X484214Y163200D01*
X482679Y166905D01*
X482679Y170915D01*
X482956Y171583D01*
X482982Y171696D01*
X483011Y171810D01*
X483011Y171816D01*
X483012Y171822D01*
X483001Y171939D01*
X482992Y172055D01*
X482989Y172061D01*
X482989Y172067D01*
X482941Y172175D01*
X482896Y172281D01*
X482891Y172287D01*
X482889Y172292D01*
X482876Y172306D01*
X482791Y172412D01*
X469499Y185704D01*
X469425Y185757D01*
X469355Y185817D01*
X469325Y185829D01*
X469299Y185848D01*
X469212Y185875D01*
X469127Y185909D01*
X469086Y185913D01*
X469064Y185920D01*
X469032Y185919D01*
X468961Y185927D01*
X458647Y185927D01*
X458577Y185916D01*
X458505Y185914D01*
X458456Y185896D01*
X458405Y185888D01*
X458341Y185854D01*
X458274Y185829D01*
X458233Y185797D01*
X458187Y185772D01*
X458138Y185720D01*
X458082Y185676D01*
X458054Y185632D01*
X458018Y185594D01*
X457988Y185529D01*
X457949Y185469D01*
X457936Y185418D01*
X457914Y185371D01*
X457906Y185300D01*
X457889Y185230D01*
X457893Y185178D01*
X457887Y185127D01*
X457902Y185056D01*
X457908Y184985D01*
X457928Y184937D01*
X457939Y184886D01*
X457976Y184825D01*
X458004Y184759D01*
X458049Y184703D01*
X458066Y184675D01*
X458083Y184660D01*
X458109Y184628D01*
X458186Y184551D01*
X463858Y178879D01*
X463953Y178811D01*
X464046Y178741D01*
X464052Y178739D01*
X464057Y178736D01*
X464169Y178701D01*
X464280Y178665D01*
X464286Y178665D01*
X464292Y178663D01*
X464409Y178666D01*
X464526Y178667D01*
X464533Y178670D01*
X464538Y178670D01*
X464556Y178676D01*
X464687Y178714D01*
X465355Y178991D01*
X469365Y178991D01*
X473070Y177456D01*
X475906Y174620D01*
X477441Y170915D01*
X477441Y166905D01*
X475906Y163200D01*
X473070Y160364D01*
X469365Y158829D01*
X465355Y158829D01*
X461650Y160364D01*
X458814Y163200D01*
X457279Y166905D01*
X457279Y170915D01*
X457556Y171583D01*
X457582Y171696D01*
X457611Y171810D01*
X457611Y171816D01*
X457612Y171822D01*
X457601Y171939D01*
X457592Y172055D01*
X457589Y172061D01*
X457589Y172067D01*
X457541Y172175D01*
X457496Y172281D01*
X457491Y172287D01*
X457489Y172292D01*
X457476Y172306D01*
X457391Y172412D01*
X451719Y178084D01*
X451645Y178137D01*
X451575Y178197D01*
X451545Y178209D01*
X451519Y178228D01*
X451432Y178255D01*
X451347Y178289D01*
X451306Y178293D01*
X451284Y178300D01*
X451252Y178299D01*
X451181Y178307D01*
X448519Y178307D01*
X448511Y178306D01*
X448503Y178307D01*
X448389Y178286D01*
X448276Y178268D01*
X448269Y178264D01*
X448261Y178262D01*
X448160Y178206D01*
X448059Y178152D01*
X448053Y178147D01*
X448046Y178143D01*
X447969Y178058D01*
X447889Y177974D01*
X447886Y177967D01*
X447881Y177961D01*
X447834Y177856D01*
X447786Y177751D01*
X447785Y177743D01*
X447782Y177736D01*
X447771Y177621D01*
X447759Y177507D01*
X447760Y177499D01*
X447760Y177491D01*
X447787Y177378D01*
X447811Y177266D01*
X447815Y177259D01*
X447817Y177252D01*
X447878Y177154D01*
X447937Y177055D01*
X447943Y177050D01*
X447948Y177043D01*
X448072Y176930D01*
X448527Y176599D01*
X449649Y175477D01*
X450582Y174193D01*
X451302Y172780D01*
X451793Y171271D01*
X451925Y170433D01*
X442722Y170433D01*
X442702Y170430D01*
X442683Y170432D01*
X442581Y170410D01*
X442479Y170393D01*
X442462Y170384D01*
X442442Y170380D01*
X442353Y170327D01*
X442262Y170278D01*
X442248Y170264D01*
X442231Y170254D01*
X442164Y170175D01*
X442093Y170100D01*
X442084Y170082D01*
X442071Y170067D01*
X442033Y169971D01*
X441989Y169877D01*
X441987Y169857D01*
X441979Y169839D01*
X441961Y169672D01*
X441961Y168909D01*
X441959Y168909D01*
X441959Y169672D01*
X441956Y169692D01*
X441958Y169711D01*
X441936Y169813D01*
X441919Y169915D01*
X441910Y169932D01*
X441906Y169952D01*
X441853Y170041D01*
X441804Y170132D01*
X441790Y170146D01*
X441780Y170163D01*
X441701Y170230D01*
X441626Y170301D01*
X441608Y170310D01*
X441593Y170323D01*
X441497Y170362D01*
X441403Y170405D01*
X441383Y170407D01*
X441365Y170415D01*
X441198Y170433D01*
X431995Y170433D01*
X432127Y171271D01*
X432618Y172780D01*
X433338Y174193D01*
X434271Y175477D01*
X435393Y176599D01*
X435848Y176930D01*
X435854Y176936D01*
X435861Y176940D01*
X435940Y177023D01*
X436021Y177105D01*
X436025Y177112D01*
X436031Y177118D01*
X436079Y177222D01*
X436130Y177326D01*
X436131Y177334D01*
X436134Y177341D01*
X436147Y177455D01*
X436162Y177570D01*
X436160Y177578D01*
X436161Y177585D01*
X436137Y177698D01*
X436115Y177811D01*
X436111Y177818D01*
X436109Y177826D01*
X436050Y177925D01*
X435993Y178025D01*
X435987Y178030D01*
X435983Y178037D01*
X435896Y178111D01*
X435809Y178189D01*
X435802Y178192D01*
X435796Y178197D01*
X435689Y178240D01*
X435583Y178285D01*
X435575Y178286D01*
X435568Y178289D01*
X435401Y178307D01*
X423257Y178307D01*
X423186Y178296D01*
X423114Y178294D01*
X423065Y178276D01*
X423014Y178268D01*
X422951Y178234D01*
X422883Y178209D01*
X422843Y178177D01*
X422797Y178152D01*
X422747Y178100D01*
X422691Y178056D01*
X422663Y178012D01*
X422627Y177974D01*
X422597Y177909D01*
X422558Y177849D01*
X422546Y177798D01*
X422524Y177751D01*
X422516Y177680D01*
X422498Y177610D01*
X422502Y177558D01*
X422497Y177507D01*
X422512Y177436D01*
X422517Y177365D01*
X422538Y177317D01*
X422549Y177266D01*
X422586Y177205D01*
X422614Y177139D01*
X422659Y177083D01*
X422675Y177055D01*
X422693Y177040D01*
X422719Y177008D01*
X425106Y174620D01*
X426641Y170915D01*
X426641Y166905D01*
X425106Y163200D01*
X422270Y160364D01*
X418565Y158829D01*
X414555Y158829D01*
X410850Y160364D01*
X408014Y163200D01*
X406479Y166905D01*
X406479Y170915D01*
X408014Y174620D01*
X410401Y177008D01*
X410443Y177066D01*
X410493Y177118D01*
X410515Y177165D01*
X410545Y177207D01*
X410566Y177276D01*
X410596Y177341D01*
X410602Y177393D01*
X410617Y177443D01*
X410615Y177514D01*
X410623Y177585D01*
X410612Y177636D01*
X410611Y177688D01*
X410586Y177756D01*
X410571Y177826D01*
X410544Y177871D01*
X410527Y177919D01*
X410482Y177975D01*
X410445Y178037D01*
X410405Y178071D01*
X410373Y178111D01*
X410313Y178150D01*
X410258Y178197D01*
X410210Y178216D01*
X410166Y178244D01*
X410096Y178262D01*
X410030Y178289D01*
X409959Y178297D01*
X409927Y178305D01*
X409904Y178303D01*
X409863Y178307D01*
X397857Y178307D01*
X397786Y178296D01*
X397714Y178294D01*
X397665Y178276D01*
X397614Y178268D01*
X397551Y178234D01*
X397483Y178209D01*
X397443Y178177D01*
X397397Y178152D01*
X397347Y178100D01*
X397291Y178056D01*
X397263Y178012D01*
X397227Y177974D01*
X397197Y177909D01*
X397158Y177849D01*
X397146Y177798D01*
X397124Y177751D01*
X397116Y177680D01*
X397098Y177610D01*
X397102Y177558D01*
X397097Y177507D01*
X397112Y177436D01*
X397117Y177365D01*
X397138Y177317D01*
X397149Y177266D01*
X397186Y177205D01*
X397214Y177139D01*
X397259Y177083D01*
X397275Y177055D01*
X397293Y177040D01*
X397319Y177008D01*
X399706Y174620D01*
X401241Y170915D01*
X401241Y166905D01*
X399706Y163200D01*
X396870Y160364D01*
X393165Y158829D01*
X389155Y158829D01*
G37*
%LPD*%
%LPC*%
G36*
X81498Y158749D02*
X81498Y158749D01*
X80009Y160238D01*
X80009Y180122D01*
X81498Y181611D01*
X86106Y181611D01*
X86126Y181614D01*
X86145Y181612D01*
X86247Y181634D01*
X86349Y181650D01*
X86366Y181660D01*
X86386Y181664D01*
X86475Y181717D01*
X86566Y181766D01*
X86580Y181780D01*
X86597Y181790D01*
X86664Y181869D01*
X86736Y181944D01*
X86744Y181962D01*
X86757Y181977D01*
X86796Y182073D01*
X86839Y182167D01*
X86841Y182187D01*
X86849Y182205D01*
X86867Y182372D01*
X86867Y194934D01*
X91375Y199442D01*
X91432Y199521D01*
X91494Y199596D01*
X91503Y199620D01*
X91518Y199641D01*
X91547Y199735D01*
X91582Y199825D01*
X91583Y199852D01*
X91591Y199877D01*
X91588Y199974D01*
X91592Y200071D01*
X91585Y200096D01*
X91584Y200122D01*
X91551Y200214D01*
X91524Y200307D01*
X91509Y200329D01*
X91500Y200353D01*
X91439Y200430D01*
X91384Y200509D01*
X91363Y200525D01*
X91346Y200546D01*
X91264Y200598D01*
X91186Y200656D01*
X91161Y200664D01*
X91139Y200679D01*
X91045Y200702D01*
X90952Y200732D01*
X90926Y200732D01*
X90901Y200739D01*
X90804Y200731D01*
X90706Y200730D01*
X90675Y200721D01*
X90656Y200719D01*
X90625Y200707D01*
X90545Y200683D01*
X86195Y198881D01*
X81445Y198881D01*
X77057Y200699D01*
X73699Y204057D01*
X71881Y208445D01*
X71881Y213195D01*
X73699Y217583D01*
X77057Y220941D01*
X81445Y222759D01*
X86195Y222759D01*
X90583Y220941D01*
X93941Y217583D01*
X95759Y213195D01*
X95759Y208445D01*
X93957Y204095D01*
X93934Y204000D01*
X93906Y203907D01*
X93906Y203881D01*
X93900Y203855D01*
X93910Y203758D01*
X93912Y203661D01*
X93921Y203636D01*
X93924Y203610D01*
X93963Y203522D01*
X93997Y203430D01*
X94013Y203409D01*
X94024Y203386D01*
X94089Y203314D01*
X94150Y203238D01*
X94172Y203224D01*
X94190Y203204D01*
X94275Y203157D01*
X94357Y203105D01*
X94383Y203098D01*
X94405Y203086D01*
X94501Y203069D01*
X94596Y203045D01*
X94622Y203047D01*
X94648Y203042D01*
X94744Y203056D01*
X94841Y203064D01*
X94865Y203074D01*
X94891Y203078D01*
X94978Y203122D01*
X95067Y203160D01*
X95093Y203181D01*
X95110Y203189D01*
X95133Y203213D01*
X95198Y203265D01*
X97829Y205896D01*
X97896Y205990D01*
X97967Y206084D01*
X97969Y206090D01*
X97972Y206095D01*
X98006Y206206D01*
X98043Y206318D01*
X98043Y206324D01*
X98045Y206330D01*
X98042Y206447D01*
X98040Y206564D01*
X98038Y206571D01*
X98038Y206576D01*
X98032Y206594D01*
X97994Y206725D01*
X97281Y208445D01*
X97281Y213195D01*
X99099Y217583D01*
X102457Y220941D01*
X106845Y222759D01*
X111595Y222759D01*
X115983Y220941D01*
X119341Y217583D01*
X121159Y213195D01*
X121159Y208445D01*
X119357Y204095D01*
X119334Y204000D01*
X119306Y203907D01*
X119306Y203881D01*
X119300Y203855D01*
X119310Y203758D01*
X119312Y203661D01*
X119321Y203636D01*
X119324Y203610D01*
X119363Y203521D01*
X119397Y203430D01*
X119413Y203409D01*
X119424Y203386D01*
X119489Y203314D01*
X119550Y203238D01*
X119572Y203224D01*
X119590Y203204D01*
X119675Y203157D01*
X119757Y203105D01*
X119783Y203098D01*
X119805Y203086D01*
X119901Y203069D01*
X119996Y203045D01*
X120022Y203047D01*
X120048Y203042D01*
X120144Y203056D01*
X120241Y203064D01*
X120265Y203074D01*
X120291Y203078D01*
X120378Y203122D01*
X120467Y203160D01*
X120493Y203181D01*
X120510Y203189D01*
X120533Y203213D01*
X120598Y203265D01*
X123229Y205896D01*
X123297Y205990D01*
X123367Y206084D01*
X123369Y206090D01*
X123372Y206095D01*
X123406Y206206D01*
X123443Y206318D01*
X123443Y206324D01*
X123445Y206330D01*
X123442Y206447D01*
X123440Y206564D01*
X123438Y206571D01*
X123438Y206576D01*
X123432Y206594D01*
X123394Y206725D01*
X122681Y208445D01*
X122681Y213195D01*
X124499Y217583D01*
X127857Y220941D01*
X132245Y222759D01*
X136995Y222759D01*
X141383Y220941D01*
X144741Y217583D01*
X146559Y213195D01*
X146559Y208445D01*
X144741Y204057D01*
X141383Y200699D01*
X136995Y198881D01*
X132245Y198881D01*
X130525Y199594D01*
X130412Y199620D01*
X130298Y199649D01*
X130292Y199648D01*
X130286Y199650D01*
X130169Y199639D01*
X130053Y199630D01*
X130047Y199627D01*
X130041Y199627D01*
X129933Y199579D01*
X129827Y199534D01*
X129821Y199529D01*
X129816Y199527D01*
X129802Y199514D01*
X129696Y199429D01*
X121636Y191369D01*
X121583Y191295D01*
X121523Y191225D01*
X121511Y191195D01*
X121492Y191169D01*
X121465Y191082D01*
X121431Y190997D01*
X121427Y190956D01*
X121420Y190934D01*
X121421Y190902D01*
X121413Y190831D01*
X121413Y182372D01*
X121416Y182352D01*
X121414Y182333D01*
X121436Y182231D01*
X121452Y182129D01*
X121462Y182112D01*
X121466Y182092D01*
X121519Y182003D01*
X121568Y181912D01*
X121582Y181898D01*
X121592Y181881D01*
X121671Y181814D01*
X121746Y181742D01*
X121764Y181734D01*
X121779Y181721D01*
X121875Y181682D01*
X121969Y181639D01*
X121989Y181637D01*
X122007Y181629D01*
X122174Y181611D01*
X126782Y181611D01*
X128271Y180122D01*
X128271Y160238D01*
X126782Y158749D01*
X106898Y158749D01*
X105409Y160238D01*
X105409Y180122D01*
X106898Y181611D01*
X111506Y181611D01*
X111526Y181614D01*
X111545Y181612D01*
X111647Y181634D01*
X111749Y181650D01*
X111766Y181660D01*
X111786Y181664D01*
X111875Y181717D01*
X111966Y181766D01*
X111980Y181780D01*
X111997Y181790D01*
X112064Y181869D01*
X112136Y181944D01*
X112144Y181962D01*
X112157Y181977D01*
X112196Y182073D01*
X112239Y182167D01*
X112241Y182187D01*
X112249Y182205D01*
X112267Y182372D01*
X112267Y194934D01*
X116775Y199442D01*
X116832Y199521D01*
X116894Y199596D01*
X116903Y199620D01*
X116918Y199642D01*
X116947Y199735D01*
X116982Y199825D01*
X116983Y199852D01*
X116991Y199877D01*
X116988Y199974D01*
X116992Y200071D01*
X116985Y200096D01*
X116984Y200123D01*
X116951Y200214D01*
X116924Y200307D01*
X116909Y200329D01*
X116900Y200354D01*
X116839Y200430D01*
X116784Y200510D01*
X116763Y200525D01*
X116746Y200546D01*
X116664Y200598D01*
X116586Y200656D01*
X116561Y200664D01*
X116539Y200679D01*
X116445Y200702D01*
X116352Y200732D01*
X116326Y200732D01*
X116301Y200739D01*
X116204Y200731D01*
X116106Y200730D01*
X116075Y200721D01*
X116056Y200719D01*
X116025Y200707D01*
X115945Y200683D01*
X111595Y198881D01*
X106845Y198881D01*
X105125Y199594D01*
X105012Y199620D01*
X104898Y199649D01*
X104892Y199648D01*
X104886Y199650D01*
X104769Y199639D01*
X104653Y199630D01*
X104647Y199627D01*
X104641Y199627D01*
X104533Y199579D01*
X104427Y199534D01*
X104421Y199529D01*
X104416Y199527D01*
X104402Y199514D01*
X104296Y199429D01*
X96236Y191369D01*
X96183Y191295D01*
X96123Y191225D01*
X96111Y191195D01*
X96092Y191169D01*
X96065Y191082D01*
X96031Y190997D01*
X96027Y190956D01*
X96020Y190934D01*
X96021Y190902D01*
X96013Y190831D01*
X96013Y182372D01*
X96016Y182352D01*
X96014Y182333D01*
X96036Y182231D01*
X96052Y182129D01*
X96062Y182112D01*
X96066Y182092D01*
X96119Y182003D01*
X96168Y181912D01*
X96182Y181898D01*
X96192Y181881D01*
X96271Y181814D01*
X96346Y181742D01*
X96364Y181734D01*
X96379Y181721D01*
X96475Y181682D01*
X96569Y181639D01*
X96589Y181637D01*
X96607Y181629D01*
X96774Y181611D01*
X101382Y181611D01*
X102871Y180122D01*
X102871Y160238D01*
X101382Y158749D01*
X81498Y158749D01*
G37*
%LPD*%
%LPC*%
G36*
X412848Y474999D02*
X412848Y474999D01*
X411359Y476488D01*
X411359Y488592D01*
X412848Y490081D01*
X412886Y490081D01*
X412906Y490084D01*
X412925Y490082D01*
X413027Y490104D01*
X413129Y490120D01*
X413146Y490130D01*
X413166Y490134D01*
X413255Y490187D01*
X413346Y490236D01*
X413360Y490250D01*
X413377Y490260D01*
X413444Y490339D01*
X413516Y490414D01*
X413524Y490432D01*
X413537Y490447D01*
X413576Y490543D01*
X413619Y490637D01*
X413621Y490657D01*
X413629Y490675D01*
X413647Y490842D01*
X413647Y504778D01*
X413644Y504798D01*
X413646Y504817D01*
X413624Y504919D01*
X413608Y505021D01*
X413598Y505038D01*
X413594Y505058D01*
X413541Y505147D01*
X413492Y505238D01*
X413478Y505252D01*
X413468Y505269D01*
X413389Y505336D01*
X413314Y505408D01*
X413296Y505416D01*
X413281Y505429D01*
X413185Y505468D01*
X413091Y505511D01*
X413071Y505513D01*
X413053Y505521D01*
X412886Y505539D01*
X411668Y505539D01*
X410179Y507028D01*
X410179Y519132D01*
X411174Y520127D01*
X411227Y520201D01*
X411287Y520271D01*
X411299Y520301D01*
X411318Y520327D01*
X411345Y520414D01*
X411379Y520499D01*
X411383Y520540D01*
X411390Y520562D01*
X411389Y520594D01*
X411397Y520666D01*
X411397Y548422D01*
X411379Y548536D01*
X411361Y548652D01*
X411359Y548658D01*
X411358Y548664D01*
X411303Y548767D01*
X411250Y548872D01*
X411245Y548876D01*
X411242Y548882D01*
X411157Y548962D01*
X411074Y549044D01*
X411068Y549048D01*
X411064Y549051D01*
X411047Y549059D01*
X410927Y549125D01*
X410826Y549167D01*
X408272Y551721D01*
X406889Y555059D01*
X406889Y571751D01*
X408272Y575089D01*
X410826Y577643D01*
X414164Y579026D01*
X417776Y579026D01*
X421114Y577643D01*
X423668Y575089D01*
X425051Y571751D01*
X425051Y555059D01*
X423668Y551721D01*
X421114Y549167D01*
X421013Y549125D01*
X420913Y549063D01*
X420813Y549003D01*
X420809Y548999D01*
X420804Y548995D01*
X420729Y548905D01*
X420653Y548816D01*
X420651Y548811D01*
X420647Y548806D01*
X420605Y548697D01*
X420561Y548588D01*
X420560Y548581D01*
X420559Y548576D01*
X420558Y548558D01*
X420543Y548422D01*
X420543Y521382D01*
X420546Y521362D01*
X420544Y521343D01*
X420566Y521241D01*
X420582Y521139D01*
X420592Y521122D01*
X420596Y521102D01*
X420649Y521013D01*
X420698Y520922D01*
X420712Y520908D01*
X420722Y520891D01*
X420801Y520824D01*
X420876Y520752D01*
X420894Y520744D01*
X420909Y520731D01*
X421005Y520692D01*
X421099Y520649D01*
X421119Y520647D01*
X421137Y520639D01*
X421304Y520621D01*
X424772Y520621D01*
X426278Y519116D01*
X426373Y519047D01*
X426470Y518976D01*
X426474Y518974D01*
X426477Y518972D01*
X426590Y518937D01*
X426704Y518901D01*
X426708Y518901D01*
X426712Y518900D01*
X426831Y518903D01*
X426950Y518905D01*
X426954Y518906D01*
X426958Y518906D01*
X427070Y518947D01*
X427182Y518986D01*
X427185Y518989D01*
X427189Y518990D01*
X427283Y519065D01*
X427376Y519138D01*
X427379Y519142D01*
X427381Y519144D01*
X427389Y519156D01*
X427475Y519273D01*
X427687Y519640D01*
X428160Y520113D01*
X428739Y520448D01*
X429386Y520621D01*
X433697Y520621D01*
X433697Y514603D01*
X427022Y514603D01*
X427002Y514600D01*
X426983Y514602D01*
X426881Y514580D01*
X426779Y514563D01*
X426762Y514554D01*
X426742Y514550D01*
X426653Y514497D01*
X426562Y514448D01*
X426548Y514434D01*
X426531Y514424D01*
X426464Y514345D01*
X426392Y514270D01*
X426384Y514252D01*
X426371Y514237D01*
X426332Y514141D01*
X426289Y514047D01*
X426287Y514027D01*
X426279Y514009D01*
X426261Y513842D01*
X426261Y512318D01*
X426264Y512298D01*
X426262Y512279D01*
X426284Y512177D01*
X426300Y512075D01*
X426310Y512058D01*
X426314Y512038D01*
X426367Y511949D01*
X426416Y511858D01*
X426430Y511844D01*
X426440Y511827D01*
X426519Y511760D01*
X426594Y511689D01*
X426612Y511680D01*
X426627Y511667D01*
X426723Y511628D01*
X426817Y511585D01*
X426837Y511583D01*
X426855Y511575D01*
X427022Y511557D01*
X433697Y511557D01*
X433697Y505539D01*
X429386Y505539D01*
X428739Y505712D01*
X428160Y506047D01*
X427687Y506520D01*
X427475Y506887D01*
X427431Y506940D01*
X427403Y506987D01*
X427371Y507015D01*
X427326Y507072D01*
X427322Y507074D01*
X427319Y507077D01*
X427240Y507127D01*
X427216Y507147D01*
X427193Y507157D01*
X427119Y507205D01*
X427115Y507206D01*
X427111Y507208D01*
X427000Y507235D01*
X426988Y507239D01*
X426976Y507241D01*
X426880Y507265D01*
X426876Y507264D01*
X426872Y507265D01*
X426753Y507255D01*
X426635Y507246D01*
X426631Y507244D01*
X426627Y507244D01*
X426571Y507219D01*
X426563Y507218D01*
X426539Y507205D01*
X426517Y507196D01*
X426409Y507149D01*
X426405Y507146D01*
X426402Y507145D01*
X426391Y507135D01*
X426360Y507110D01*
X426346Y507103D01*
X426332Y507088D01*
X426278Y507044D01*
X424772Y505539D01*
X423554Y505539D01*
X423534Y505536D01*
X423515Y505538D01*
X423413Y505516D01*
X423311Y505500D01*
X423294Y505490D01*
X423274Y505486D01*
X423185Y505433D01*
X423094Y505384D01*
X423080Y505370D01*
X423063Y505360D01*
X422996Y505281D01*
X422924Y505206D01*
X422916Y505188D01*
X422903Y505173D01*
X422864Y505077D01*
X422821Y504983D01*
X422819Y504963D01*
X422811Y504945D01*
X422793Y504778D01*
X422793Y490842D01*
X422796Y490822D01*
X422794Y490803D01*
X422816Y490701D01*
X422832Y490599D01*
X422842Y490582D01*
X422846Y490562D01*
X422899Y490473D01*
X422948Y490382D01*
X422962Y490368D01*
X422972Y490351D01*
X423051Y490284D01*
X423126Y490212D01*
X423144Y490204D01*
X423159Y490191D01*
X423255Y490152D01*
X423349Y490109D01*
X423369Y490107D01*
X423387Y490099D01*
X423554Y490081D01*
X430952Y490081D01*
X432441Y488592D01*
X432441Y476488D01*
X430952Y474999D01*
X412848Y474999D01*
G37*
%LPD*%
%LPC*%
G36*
X487768Y100204D02*
X487768Y100204D01*
X486279Y101693D01*
X486279Y121827D01*
X487768Y123316D01*
X501594Y123316D01*
X501684Y123330D01*
X501775Y123338D01*
X501804Y123350D01*
X501836Y123355D01*
X501917Y123398D01*
X502001Y123434D01*
X502033Y123460D01*
X502054Y123471D01*
X502076Y123494D01*
X502132Y123539D01*
X513364Y134771D01*
X513417Y134845D01*
X513477Y134915D01*
X513489Y134945D01*
X513508Y134971D01*
X513535Y135058D01*
X513569Y135143D01*
X513573Y135184D01*
X513580Y135206D01*
X513579Y135238D01*
X513587Y135309D01*
X513587Y158068D01*
X513584Y158088D01*
X513586Y158107D01*
X513564Y158209D01*
X513548Y158311D01*
X513538Y158328D01*
X513534Y158348D01*
X513481Y158437D01*
X513432Y158528D01*
X513418Y158542D01*
X513408Y158559D01*
X513329Y158626D01*
X513254Y158698D01*
X513236Y158706D01*
X513221Y158719D01*
X513125Y158758D01*
X513031Y158801D01*
X513011Y158803D01*
X512993Y158811D01*
X512826Y158829D01*
X509568Y158829D01*
X508079Y160318D01*
X508079Y177502D01*
X509568Y178991D01*
X526752Y178991D01*
X528241Y177502D01*
X528241Y160318D01*
X526752Y158829D01*
X523494Y158829D01*
X523474Y158826D01*
X523455Y158828D01*
X523353Y158806D01*
X523251Y158790D01*
X523234Y158780D01*
X523214Y158776D01*
X523125Y158723D01*
X523034Y158674D01*
X523020Y158660D01*
X523003Y158650D01*
X522936Y158571D01*
X522864Y158496D01*
X522856Y158478D01*
X522843Y158463D01*
X522804Y158367D01*
X522761Y158273D01*
X522759Y158253D01*
X522751Y158235D01*
X522733Y158068D01*
X522733Y131206D01*
X507584Y116057D01*
X507531Y115983D01*
X507471Y115913D01*
X507459Y115883D01*
X507440Y115857D01*
X507413Y115770D01*
X507379Y115685D01*
X507375Y115644D01*
X507368Y115622D01*
X507369Y115590D01*
X507361Y115519D01*
X507361Y101693D01*
X505872Y100204D01*
X487768Y100204D01*
G37*
%LPD*%
%LPC*%
G36*
X459328Y100204D02*
X459328Y100204D01*
X457839Y101693D01*
X457839Y106426D01*
X457836Y106446D01*
X457838Y106465D01*
X457816Y106567D01*
X457800Y106669D01*
X457790Y106686D01*
X457786Y106706D01*
X457733Y106795D01*
X457684Y106886D01*
X457670Y106900D01*
X457660Y106917D01*
X457581Y106984D01*
X457506Y107056D01*
X457488Y107064D01*
X457473Y107077D01*
X457377Y107116D01*
X457283Y107159D01*
X457263Y107161D01*
X457245Y107169D01*
X457078Y107187D01*
X446806Y107187D01*
X443757Y110236D01*
X443683Y110289D01*
X443613Y110349D01*
X443583Y110361D01*
X443557Y110380D01*
X443470Y110407D01*
X443385Y110441D01*
X443344Y110445D01*
X443322Y110452D01*
X443290Y110451D01*
X443219Y110459D01*
X435908Y110459D01*
X434419Y111948D01*
X434419Y125052D01*
X435924Y126558D01*
X435993Y126653D01*
X436064Y126750D01*
X436066Y126754D01*
X436068Y126757D01*
X436103Y126870D01*
X436139Y126984D01*
X436139Y126988D01*
X436140Y126992D01*
X436137Y127111D01*
X436135Y127230D01*
X436134Y127234D01*
X436134Y127238D01*
X436093Y127350D01*
X436054Y127462D01*
X436051Y127465D01*
X436050Y127469D01*
X435975Y127563D01*
X435902Y127656D01*
X435898Y127659D01*
X435896Y127661D01*
X435884Y127669D01*
X435767Y127755D01*
X435400Y127967D01*
X434927Y128440D01*
X434592Y129019D01*
X434419Y129666D01*
X434419Y133977D01*
X441198Y133977D01*
X441218Y133980D01*
X441237Y133978D01*
X441339Y134000D01*
X441441Y134017D01*
X441458Y134026D01*
X441478Y134030D01*
X441567Y134083D01*
X441658Y134132D01*
X441672Y134146D01*
X441689Y134156D01*
X441756Y134235D01*
X441827Y134310D01*
X441836Y134328D01*
X441849Y134343D01*
X441888Y134439D01*
X441931Y134533D01*
X441933Y134553D01*
X441941Y134571D01*
X441959Y134738D01*
X441959Y135501D01*
X441961Y135501D01*
X441961Y134738D01*
X441964Y134718D01*
X441962Y134699D01*
X441984Y134597D01*
X442001Y134495D01*
X442010Y134478D01*
X442014Y134458D01*
X442067Y134369D01*
X442116Y134278D01*
X442130Y134264D01*
X442140Y134247D01*
X442219Y134180D01*
X442294Y134109D01*
X442312Y134100D01*
X442327Y134087D01*
X442423Y134048D01*
X442517Y134005D01*
X442537Y134003D01*
X442555Y133995D01*
X442722Y133977D01*
X449501Y133977D01*
X449501Y129666D01*
X449328Y129019D01*
X448993Y128440D01*
X448520Y127967D01*
X448153Y127755D01*
X448060Y127679D01*
X447968Y127606D01*
X447966Y127602D01*
X447963Y127599D01*
X447899Y127498D01*
X447835Y127399D01*
X447834Y127395D01*
X447832Y127391D01*
X447804Y127275D01*
X447775Y127160D01*
X447776Y127156D01*
X447775Y127152D01*
X447785Y127033D01*
X447794Y126915D01*
X447796Y126911D01*
X447796Y126907D01*
X447844Y126797D01*
X447891Y126689D01*
X447894Y126685D01*
X447895Y126682D01*
X447905Y126671D01*
X447996Y126558D01*
X449501Y125052D01*
X449501Y117741D01*
X449515Y117651D01*
X449523Y117560D01*
X449535Y117531D01*
X449540Y117499D01*
X449583Y117418D01*
X449619Y117334D01*
X449645Y117302D01*
X449656Y117281D01*
X449679Y117259D01*
X449724Y117203D01*
X450371Y116556D01*
X450445Y116503D01*
X450515Y116443D01*
X450545Y116431D01*
X450571Y116412D01*
X450658Y116385D01*
X450743Y116351D01*
X450784Y116347D01*
X450806Y116340D01*
X450838Y116341D01*
X450909Y116333D01*
X457078Y116333D01*
X457098Y116336D01*
X457117Y116334D01*
X457219Y116356D01*
X457321Y116372D01*
X457338Y116382D01*
X457358Y116386D01*
X457447Y116439D01*
X457538Y116488D01*
X457552Y116502D01*
X457569Y116512D01*
X457636Y116591D01*
X457708Y116666D01*
X457716Y116684D01*
X457729Y116699D01*
X457768Y116795D01*
X457811Y116889D01*
X457813Y116909D01*
X457821Y116927D01*
X457839Y117094D01*
X457839Y121827D01*
X459328Y123316D01*
X477432Y123316D01*
X478921Y121827D01*
X478921Y101693D01*
X477432Y100204D01*
X459328Y100204D01*
G37*
%LPD*%
%LPC*%
G36*
X496423Y461263D02*
X496423Y461263D01*
X496423Y489281D01*
X526234Y489281D01*
X526881Y489108D01*
X527460Y488773D01*
X527933Y488300D01*
X528268Y487721D01*
X528441Y487074D01*
X528441Y461263D01*
X496423Y461263D01*
G37*
%LPD*%
%LPC*%
G36*
X461359Y461263D02*
X461359Y461263D01*
X461359Y487074D01*
X461532Y487721D01*
X461867Y488300D01*
X462340Y488773D01*
X462919Y489108D01*
X463566Y489281D01*
X493377Y489281D01*
X493377Y461263D01*
X461359Y461263D01*
G37*
%LPD*%
%LPC*%
G36*
X496423Y430199D02*
X496423Y430199D01*
X496423Y458217D01*
X528441Y458217D01*
X528441Y432406D01*
X528268Y431759D01*
X527933Y431180D01*
X527460Y430707D01*
X526881Y430372D01*
X526234Y430199D01*
X496423Y430199D01*
G37*
%LPD*%
%LPC*%
G36*
X463566Y430199D02*
X463566Y430199D01*
X462919Y430372D01*
X462340Y430707D01*
X461867Y431180D01*
X461532Y431759D01*
X461359Y432406D01*
X461359Y458217D01*
X493377Y458217D01*
X493377Y430199D01*
X463566Y430199D01*
G37*
%LPD*%
%LPC*%
G36*
X38193Y458339D02*
X38193Y458339D01*
X36704Y459828D01*
X36704Y477932D01*
X38193Y479421D01*
X42926Y479421D01*
X42946Y479424D01*
X42965Y479422D01*
X43067Y479444D01*
X43169Y479460D01*
X43186Y479470D01*
X43206Y479474D01*
X43295Y479527D01*
X43386Y479576D01*
X43400Y479590D01*
X43417Y479600D01*
X43484Y479679D01*
X43556Y479754D01*
X43564Y479772D01*
X43577Y479787D01*
X43616Y479883D01*
X43659Y479977D01*
X43661Y479997D01*
X43669Y480015D01*
X43687Y480182D01*
X43687Y485618D01*
X43684Y485638D01*
X43686Y485657D01*
X43664Y485759D01*
X43648Y485861D01*
X43638Y485878D01*
X43634Y485898D01*
X43581Y485987D01*
X43532Y486078D01*
X43518Y486092D01*
X43508Y486109D01*
X43429Y486176D01*
X43354Y486248D01*
X43336Y486256D01*
X43321Y486269D01*
X43225Y486308D01*
X43131Y486351D01*
X43111Y486353D01*
X43093Y486361D01*
X42926Y486379D01*
X42208Y486379D01*
X40719Y487868D01*
X40719Y500972D01*
X42224Y502478D01*
X42293Y502573D01*
X42364Y502670D01*
X42366Y502674D01*
X42368Y502677D01*
X42403Y502790D01*
X42439Y502904D01*
X42439Y502908D01*
X42440Y502912D01*
X42437Y503031D01*
X42435Y503150D01*
X42434Y503154D01*
X42434Y503158D01*
X42393Y503270D01*
X42354Y503382D01*
X42351Y503385D01*
X42350Y503389D01*
X42275Y503483D01*
X42202Y503576D01*
X42198Y503579D01*
X42196Y503581D01*
X42184Y503589D01*
X42067Y503675D01*
X41700Y503887D01*
X41227Y504360D01*
X40892Y504939D01*
X40719Y505586D01*
X40719Y509897D01*
X47498Y509897D01*
X47518Y509900D01*
X47537Y509898D01*
X47639Y509920D01*
X47741Y509937D01*
X47758Y509946D01*
X47778Y509950D01*
X47867Y510003D01*
X47958Y510052D01*
X47972Y510066D01*
X47989Y510076D01*
X48056Y510155D01*
X48127Y510230D01*
X48136Y510248D01*
X48149Y510263D01*
X48188Y510359D01*
X48231Y510453D01*
X48233Y510473D01*
X48241Y510491D01*
X48259Y510658D01*
X48259Y511421D01*
X48261Y511421D01*
X48261Y510658D01*
X48264Y510638D01*
X48262Y510619D01*
X48284Y510517D01*
X48301Y510415D01*
X48310Y510398D01*
X48314Y510378D01*
X48367Y510289D01*
X48416Y510198D01*
X48430Y510184D01*
X48440Y510167D01*
X48519Y510100D01*
X48594Y510029D01*
X48612Y510020D01*
X48627Y510007D01*
X48723Y509968D01*
X48817Y509925D01*
X48837Y509923D01*
X48855Y509915D01*
X49022Y509897D01*
X55801Y509897D01*
X55801Y505586D01*
X55628Y504939D01*
X55293Y504360D01*
X54820Y503887D01*
X54453Y503675D01*
X54360Y503599D01*
X54268Y503526D01*
X54266Y503522D01*
X54263Y503519D01*
X54199Y503418D01*
X54135Y503319D01*
X54134Y503315D01*
X54132Y503311D01*
X54104Y503195D01*
X54075Y503080D01*
X54076Y503076D01*
X54075Y503072D01*
X54085Y502953D01*
X54094Y502835D01*
X54096Y502831D01*
X54096Y502827D01*
X54144Y502717D01*
X54191Y502609D01*
X54194Y502605D01*
X54195Y502602D01*
X54205Y502591D01*
X54296Y502478D01*
X55801Y500972D01*
X55801Y487868D01*
X54312Y486379D01*
X53594Y486379D01*
X53574Y486376D01*
X53555Y486378D01*
X53453Y486356D01*
X53351Y486340D01*
X53334Y486330D01*
X53314Y486326D01*
X53225Y486273D01*
X53134Y486224D01*
X53120Y486210D01*
X53103Y486200D01*
X53036Y486121D01*
X52964Y486046D01*
X52956Y486028D01*
X52943Y486013D01*
X52904Y485917D01*
X52861Y485823D01*
X52859Y485803D01*
X52851Y485785D01*
X52833Y485618D01*
X52833Y480182D01*
X52836Y480162D01*
X52834Y480143D01*
X52856Y480041D01*
X52872Y479939D01*
X52882Y479922D01*
X52886Y479902D01*
X52939Y479813D01*
X52988Y479722D01*
X53002Y479708D01*
X53012Y479691D01*
X53091Y479624D01*
X53166Y479552D01*
X53184Y479544D01*
X53199Y479531D01*
X53295Y479492D01*
X53389Y479449D01*
X53409Y479447D01*
X53427Y479439D01*
X53594Y479421D01*
X58327Y479421D01*
X59816Y477932D01*
X59816Y459828D01*
X58327Y458339D01*
X38193Y458339D01*
G37*
%LPD*%
%LPC*%
G36*
X283247Y115569D02*
X283247Y115569D01*
X274319Y124497D01*
X274319Y137123D01*
X283247Y146051D01*
X295873Y146051D01*
X304801Y137123D01*
X304801Y124497D01*
X295873Y115569D01*
X283247Y115569D01*
G37*
%LPD*%
%LPC*%
G36*
X22570Y198881D02*
X22570Y198881D01*
X21081Y200370D01*
X21081Y221270D01*
X22570Y222759D01*
X43470Y222759D01*
X44959Y221270D01*
X44959Y200370D01*
X43470Y198881D01*
X22570Y198881D01*
G37*
%LPD*%
%LPC*%
G36*
X183098Y158749D02*
X183098Y158749D01*
X181609Y160238D01*
X181609Y180122D01*
X183098Y181611D01*
X202982Y181611D01*
X204471Y180122D01*
X204471Y160238D01*
X202982Y158749D01*
X183098Y158749D01*
G37*
%LPD*%
%LPC*%
G36*
X56098Y158749D02*
X56098Y158749D01*
X54609Y160238D01*
X54609Y180122D01*
X56098Y181611D01*
X75982Y181611D01*
X77471Y180122D01*
X77471Y160238D01*
X75982Y158749D01*
X56098Y158749D01*
G37*
%LPD*%
%LPC*%
G36*
X202397Y450595D02*
X202397Y450595D01*
X199036Y451987D01*
X196463Y454560D01*
X195071Y457921D01*
X195071Y461559D01*
X196463Y464920D01*
X199036Y467493D01*
X202397Y468885D01*
X219243Y468885D01*
X222604Y467493D01*
X225177Y464920D01*
X226569Y461559D01*
X226569Y457921D01*
X225177Y454560D01*
X222604Y451987D01*
X219243Y450595D01*
X202397Y450595D01*
G37*
%LPD*%
%LPC*%
G36*
X278597Y450595D02*
X278597Y450595D01*
X275236Y451987D01*
X272663Y454560D01*
X271271Y457921D01*
X271271Y461559D01*
X272663Y464920D01*
X275236Y467493D01*
X278597Y468885D01*
X295443Y468885D01*
X298804Y467493D01*
X301377Y464920D01*
X302769Y461559D01*
X302769Y457921D01*
X301377Y454560D01*
X298804Y451987D01*
X295443Y450595D01*
X278597Y450595D01*
G37*
%LPD*%
%LPC*%
G36*
X278597Y399795D02*
X278597Y399795D01*
X275236Y401187D01*
X272663Y403760D01*
X271271Y407121D01*
X271271Y410759D01*
X272663Y414120D01*
X275236Y416693D01*
X278597Y418085D01*
X295443Y418085D01*
X298804Y416693D01*
X301377Y414120D01*
X302769Y410759D01*
X302769Y407121D01*
X301377Y403760D01*
X298804Y401187D01*
X295443Y399795D01*
X278597Y399795D01*
G37*
%LPD*%
%LPC*%
G36*
X278597Y425195D02*
X278597Y425195D01*
X275236Y426587D01*
X272663Y429160D01*
X271271Y432521D01*
X271271Y436159D01*
X272663Y439520D01*
X275236Y442093D01*
X278597Y443485D01*
X295443Y443485D01*
X298804Y442093D01*
X301377Y439520D01*
X302769Y436159D01*
X302769Y432521D01*
X301377Y429160D01*
X298804Y426587D01*
X295443Y425195D01*
X278597Y425195D01*
G37*
%LPD*%
%LPC*%
G36*
X202397Y425195D02*
X202397Y425195D01*
X199036Y426587D01*
X196463Y429160D01*
X195071Y432521D01*
X195071Y436159D01*
X196463Y439520D01*
X199036Y442093D01*
X202397Y443485D01*
X219243Y443485D01*
X222604Y442093D01*
X225177Y439520D01*
X226569Y436159D01*
X226569Y432521D01*
X225177Y429160D01*
X222604Y426587D01*
X219243Y425195D01*
X202397Y425195D01*
G37*
%LPD*%
%LPC*%
G36*
X202397Y577595D02*
X202397Y577595D01*
X199036Y578987D01*
X196463Y581560D01*
X195071Y584921D01*
X195071Y588559D01*
X196463Y591920D01*
X199036Y594493D01*
X202397Y595885D01*
X219243Y595885D01*
X222604Y594493D01*
X225177Y591920D01*
X226569Y588559D01*
X226569Y584921D01*
X225177Y581560D01*
X222604Y578987D01*
X219243Y577595D01*
X202397Y577595D01*
G37*
%LPD*%
%LPC*%
G36*
X278597Y577595D02*
X278597Y577595D01*
X275236Y578987D01*
X272663Y581560D01*
X271271Y584921D01*
X271271Y588559D01*
X272663Y591920D01*
X275236Y594493D01*
X278597Y595885D01*
X295443Y595885D01*
X298804Y594493D01*
X301377Y591920D01*
X302769Y588559D01*
X302769Y584921D01*
X301377Y581560D01*
X298804Y578987D01*
X295443Y577595D01*
X278597Y577595D01*
G37*
%LPD*%
%LPC*%
G36*
X278597Y552195D02*
X278597Y552195D01*
X275236Y553587D01*
X272663Y556160D01*
X271271Y559521D01*
X271271Y563159D01*
X272663Y566520D01*
X275236Y569093D01*
X278597Y570485D01*
X295443Y570485D01*
X298804Y569093D01*
X301377Y566520D01*
X302769Y563159D01*
X302769Y559521D01*
X301377Y556160D01*
X298804Y553587D01*
X295443Y552195D01*
X278597Y552195D01*
G37*
%LPD*%
%LPC*%
G36*
X202397Y552195D02*
X202397Y552195D01*
X199036Y553587D01*
X196463Y556160D01*
X195071Y559521D01*
X195071Y563159D01*
X196463Y566520D01*
X199036Y569093D01*
X202397Y570485D01*
X219243Y570485D01*
X222604Y569093D01*
X225177Y566520D01*
X226569Y563159D01*
X226569Y559521D01*
X225177Y556160D01*
X222604Y553587D01*
X219243Y552195D01*
X202397Y552195D01*
G37*
%LPD*%
%LPC*%
G36*
X278597Y526795D02*
X278597Y526795D01*
X275236Y528187D01*
X272663Y530760D01*
X271271Y534121D01*
X271271Y537759D01*
X272663Y541120D01*
X275236Y543693D01*
X278597Y545085D01*
X295443Y545085D01*
X298804Y543693D01*
X301377Y541120D01*
X302769Y537759D01*
X302769Y534121D01*
X301377Y530760D01*
X298804Y528187D01*
X295443Y526795D01*
X278597Y526795D01*
G37*
%LPD*%
%LPC*%
G36*
X202397Y526795D02*
X202397Y526795D01*
X199036Y528187D01*
X196463Y530760D01*
X195071Y534121D01*
X195071Y537759D01*
X196463Y541120D01*
X199036Y543693D01*
X202397Y545085D01*
X219243Y545085D01*
X222604Y543693D01*
X225177Y541120D01*
X226569Y537759D01*
X226569Y534121D01*
X225177Y530760D01*
X222604Y528187D01*
X219243Y526795D01*
X202397Y526795D01*
G37*
%LPD*%
%LPC*%
G36*
X487845Y198881D02*
X487845Y198881D01*
X483457Y200699D01*
X480099Y204057D01*
X478281Y208445D01*
X478281Y213195D01*
X480099Y217583D01*
X483457Y220941D01*
X487845Y222759D01*
X492595Y222759D01*
X496983Y220941D01*
X500341Y217583D01*
X502159Y213195D01*
X502159Y208445D01*
X500341Y204057D01*
X496983Y200699D01*
X492595Y198881D01*
X487845Y198881D01*
G37*
%LPD*%
%LPC*%
G36*
X208445Y198881D02*
X208445Y198881D01*
X204057Y200699D01*
X200699Y204057D01*
X198881Y208445D01*
X198881Y213195D01*
X200699Y217583D01*
X204057Y220941D01*
X208445Y222759D01*
X213195Y222759D01*
X217583Y220941D01*
X220941Y217583D01*
X222759Y213195D01*
X222759Y208445D01*
X220941Y204057D01*
X217583Y200699D01*
X213195Y198881D01*
X208445Y198881D01*
G37*
%LPD*%
%LPC*%
G36*
X233845Y198881D02*
X233845Y198881D01*
X229457Y200699D01*
X226099Y204057D01*
X224281Y208445D01*
X224281Y213195D01*
X226099Y217583D01*
X229457Y220941D01*
X233845Y222759D01*
X238595Y222759D01*
X242983Y220941D01*
X246341Y217583D01*
X248159Y213195D01*
X248159Y208445D01*
X246341Y204057D01*
X242983Y200699D01*
X238595Y198881D01*
X233845Y198881D01*
G37*
%LPD*%
%LPC*%
G36*
X310045Y351281D02*
X310045Y351281D01*
X305657Y353099D01*
X302299Y356457D01*
X300481Y360845D01*
X300481Y365595D01*
X302299Y369983D01*
X305657Y373341D01*
X310045Y375159D01*
X314795Y375159D01*
X319183Y373341D01*
X322541Y369983D01*
X324359Y365595D01*
X324359Y360845D01*
X322541Y356457D01*
X319183Y353099D01*
X314795Y351281D01*
X310045Y351281D01*
G37*
%LPD*%
%LPC*%
G36*
X335445Y351281D02*
X335445Y351281D01*
X331057Y353099D01*
X327699Y356457D01*
X325881Y360845D01*
X325881Y365595D01*
X327699Y369983D01*
X331057Y373341D01*
X335445Y375159D01*
X340195Y375159D01*
X344583Y373341D01*
X347941Y369983D01*
X349759Y365595D01*
X349759Y360845D01*
X347941Y356457D01*
X344583Y353099D01*
X340195Y351281D01*
X335445Y351281D01*
G37*
%LPD*%
%LPC*%
G36*
X360845Y351281D02*
X360845Y351281D01*
X356457Y353099D01*
X353099Y356457D01*
X351281Y360845D01*
X351281Y365595D01*
X353099Y369983D01*
X356457Y373341D01*
X360845Y375159D01*
X365595Y375159D01*
X369983Y373341D01*
X373341Y369983D01*
X375159Y365595D01*
X375159Y360845D01*
X373341Y356457D01*
X369983Y353099D01*
X365595Y351281D01*
X360845Y351281D01*
G37*
%LPD*%
%LPC*%
G36*
X386245Y351281D02*
X386245Y351281D01*
X381857Y353099D01*
X378499Y356457D01*
X376681Y360845D01*
X376681Y365595D01*
X378499Y369983D01*
X381857Y373341D01*
X386245Y375159D01*
X390995Y375159D01*
X395383Y373341D01*
X398741Y369983D01*
X400559Y365595D01*
X400559Y360845D01*
X398741Y356457D01*
X395383Y353099D01*
X390995Y351281D01*
X386245Y351281D01*
G37*
%LPD*%
%LPC*%
G36*
X411645Y351281D02*
X411645Y351281D01*
X407257Y353099D01*
X403899Y356457D01*
X402081Y360845D01*
X402081Y365595D01*
X403899Y369983D01*
X407257Y373341D01*
X411645Y375159D01*
X416395Y375159D01*
X420783Y373341D01*
X424141Y369983D01*
X425959Y365595D01*
X425959Y360845D01*
X424141Y356457D01*
X420783Y353099D01*
X416395Y351281D01*
X411645Y351281D01*
G37*
%LPD*%
%LPC*%
G36*
X132245Y351281D02*
X132245Y351281D01*
X127857Y353099D01*
X124499Y356457D01*
X122681Y360845D01*
X122681Y365595D01*
X124499Y369983D01*
X127857Y373341D01*
X132245Y375159D01*
X136995Y375159D01*
X141383Y373341D01*
X144741Y369983D01*
X146559Y365595D01*
X146559Y360845D01*
X144741Y356457D01*
X141383Y353099D01*
X136995Y351281D01*
X132245Y351281D01*
G37*
%LPD*%
%LPC*%
G36*
X284645Y351281D02*
X284645Y351281D01*
X280257Y353099D01*
X276899Y356457D01*
X275081Y360845D01*
X275081Y365595D01*
X276899Y369983D01*
X280257Y373341D01*
X284645Y375159D01*
X289395Y375159D01*
X293783Y373341D01*
X297141Y369983D01*
X298959Y365595D01*
X298959Y360845D01*
X297141Y356457D01*
X293783Y353099D01*
X289395Y351281D01*
X284645Y351281D01*
G37*
%LPD*%
%LPC*%
G36*
X462445Y351281D02*
X462445Y351281D01*
X458057Y353099D01*
X454699Y356457D01*
X452881Y360845D01*
X452881Y365595D01*
X454699Y369983D01*
X458057Y373341D01*
X462445Y375159D01*
X467195Y375159D01*
X471583Y373341D01*
X474941Y369983D01*
X476759Y365595D01*
X476759Y360845D01*
X474941Y356457D01*
X471583Y353099D01*
X467195Y351281D01*
X462445Y351281D01*
G37*
%LPD*%
%LPC*%
G36*
X106845Y351281D02*
X106845Y351281D01*
X102457Y353099D01*
X99099Y356457D01*
X97281Y360845D01*
X97281Y365595D01*
X99099Y369983D01*
X102457Y373341D01*
X106845Y375159D01*
X111595Y375159D01*
X115983Y373341D01*
X119341Y369983D01*
X121159Y365595D01*
X121159Y360845D01*
X119341Y356457D01*
X115983Y353099D01*
X111595Y351281D01*
X106845Y351281D01*
G37*
%LPD*%
%LPC*%
G36*
X335445Y198881D02*
X335445Y198881D01*
X331057Y200699D01*
X327699Y204057D01*
X325881Y208445D01*
X325881Y213195D01*
X327699Y217583D01*
X331057Y220941D01*
X335445Y222759D01*
X340195Y222759D01*
X344583Y220941D01*
X347941Y217583D01*
X349759Y213195D01*
X349759Y208445D01*
X347941Y204057D01*
X344583Y200699D01*
X340195Y198881D01*
X335445Y198881D01*
G37*
%LPD*%
%LPC*%
G36*
X411645Y198881D02*
X411645Y198881D01*
X407257Y200699D01*
X403899Y204057D01*
X402081Y208445D01*
X402081Y213195D01*
X403899Y217583D01*
X407257Y220941D01*
X411645Y222759D01*
X416395Y222759D01*
X420783Y220941D01*
X424141Y217583D01*
X425959Y213195D01*
X425959Y208445D01*
X424141Y204057D01*
X420783Y200699D01*
X416395Y198881D01*
X411645Y198881D01*
G37*
%LPD*%
%LPC*%
G36*
X157645Y198881D02*
X157645Y198881D01*
X153257Y200699D01*
X149899Y204057D01*
X148081Y208445D01*
X148081Y213195D01*
X149899Y217583D01*
X153257Y220941D01*
X157645Y222759D01*
X162395Y222759D01*
X166783Y220941D01*
X170141Y217583D01*
X171959Y213195D01*
X171959Y208445D01*
X170141Y204057D01*
X166783Y200699D01*
X162395Y198881D01*
X157645Y198881D01*
G37*
%LPD*%
%LPC*%
G36*
X183045Y198881D02*
X183045Y198881D01*
X178657Y200699D01*
X175299Y204057D01*
X173481Y208445D01*
X173481Y213195D01*
X175299Y217583D01*
X178657Y220941D01*
X183045Y222759D01*
X187795Y222759D01*
X192183Y220941D01*
X195541Y217583D01*
X197359Y213195D01*
X197359Y208445D01*
X195541Y204057D01*
X192183Y200699D01*
X187795Y198881D01*
X183045Y198881D01*
G37*
%LPD*%
%LPC*%
G36*
X513245Y198881D02*
X513245Y198881D01*
X508857Y200699D01*
X505499Y204057D01*
X503681Y208445D01*
X503681Y213195D01*
X505499Y217583D01*
X508857Y220941D01*
X513245Y222759D01*
X517995Y222759D01*
X522383Y220941D01*
X525741Y217583D01*
X527559Y213195D01*
X527559Y208445D01*
X525741Y204057D01*
X522383Y200699D01*
X517995Y198881D01*
X513245Y198881D01*
G37*
%LPD*%
%LPC*%
G36*
X462445Y198881D02*
X462445Y198881D01*
X458057Y200699D01*
X454699Y204057D01*
X452881Y208445D01*
X452881Y213195D01*
X454699Y217583D01*
X458057Y220941D01*
X462445Y222759D01*
X467195Y222759D01*
X471583Y220941D01*
X474941Y217583D01*
X476759Y213195D01*
X476759Y208445D01*
X474941Y204057D01*
X471583Y200699D01*
X467195Y198881D01*
X462445Y198881D01*
G37*
%LPD*%
%LPC*%
G36*
X437045Y198881D02*
X437045Y198881D01*
X432657Y200699D01*
X429299Y204057D01*
X427481Y208445D01*
X427481Y213195D01*
X429299Y217583D01*
X432657Y220941D01*
X437045Y222759D01*
X441795Y222759D01*
X446183Y220941D01*
X449541Y217583D01*
X451359Y213195D01*
X451359Y208445D01*
X449541Y204057D01*
X446183Y200699D01*
X441795Y198881D01*
X437045Y198881D01*
G37*
%LPD*%
%LPC*%
G36*
X81445Y351281D02*
X81445Y351281D01*
X77057Y353099D01*
X73699Y356457D01*
X71881Y360845D01*
X71881Y365595D01*
X73699Y369983D01*
X77057Y373341D01*
X81445Y375159D01*
X86195Y375159D01*
X90583Y373341D01*
X93941Y369983D01*
X95759Y365595D01*
X95759Y360845D01*
X93941Y356457D01*
X90583Y353099D01*
X86195Y351281D01*
X81445Y351281D01*
G37*
%LPD*%
%LPC*%
G36*
X259245Y198881D02*
X259245Y198881D01*
X254857Y200699D01*
X251499Y204057D01*
X249681Y208445D01*
X249681Y213195D01*
X251499Y217583D01*
X254857Y220941D01*
X259245Y222759D01*
X263995Y222759D01*
X268383Y220941D01*
X271741Y217583D01*
X273559Y213195D01*
X273559Y208445D01*
X271741Y204057D01*
X268383Y200699D01*
X263995Y198881D01*
X259245Y198881D01*
G37*
%LPD*%
%LPC*%
G36*
X487845Y351281D02*
X487845Y351281D01*
X483457Y353099D01*
X480099Y356457D01*
X478281Y360845D01*
X478281Y365595D01*
X480099Y369983D01*
X483457Y373341D01*
X487845Y375159D01*
X492595Y375159D01*
X496983Y373341D01*
X500341Y369983D01*
X502159Y365595D01*
X502159Y360845D01*
X500341Y356457D01*
X496983Y353099D01*
X492595Y351281D01*
X487845Y351281D01*
G37*
%LPD*%
%LPC*%
G36*
X437045Y351281D02*
X437045Y351281D01*
X432657Y353099D01*
X429299Y356457D01*
X427481Y360845D01*
X427481Y365595D01*
X429299Y369983D01*
X432657Y373341D01*
X437045Y375159D01*
X441795Y375159D01*
X446183Y373341D01*
X449541Y369983D01*
X451359Y365595D01*
X451359Y360845D01*
X449541Y356457D01*
X446183Y353099D01*
X441795Y351281D01*
X437045Y351281D01*
G37*
%LPD*%
%LPC*%
G36*
X157645Y351281D02*
X157645Y351281D01*
X153257Y353099D01*
X149899Y356457D01*
X148081Y360845D01*
X148081Y365595D01*
X149899Y369983D01*
X153257Y373341D01*
X157645Y375159D01*
X162395Y375159D01*
X166783Y373341D01*
X170141Y369983D01*
X171959Y365595D01*
X171959Y360845D01*
X170141Y356457D01*
X166783Y353099D01*
X162395Y351281D01*
X157645Y351281D01*
G37*
%LPD*%
%LPC*%
G36*
X183045Y351281D02*
X183045Y351281D01*
X178657Y353099D01*
X175299Y356457D01*
X173481Y360845D01*
X173481Y365595D01*
X175299Y369983D01*
X178657Y373341D01*
X183045Y375159D01*
X187795Y375159D01*
X192183Y373341D01*
X195541Y369983D01*
X197359Y365595D01*
X197359Y360845D01*
X195541Y356457D01*
X192183Y353099D01*
X187795Y351281D01*
X183045Y351281D01*
G37*
%LPD*%
%LPC*%
G36*
X208445Y351281D02*
X208445Y351281D01*
X204057Y353099D01*
X200699Y356457D01*
X198881Y360845D01*
X198881Y365595D01*
X200699Y369983D01*
X204057Y373341D01*
X208445Y375159D01*
X213195Y375159D01*
X217583Y373341D01*
X220941Y369983D01*
X222759Y365595D01*
X222759Y360845D01*
X220941Y356457D01*
X217583Y353099D01*
X213195Y351281D01*
X208445Y351281D01*
G37*
%LPD*%
%LPC*%
G36*
X233845Y351281D02*
X233845Y351281D01*
X229457Y353099D01*
X226099Y356457D01*
X224281Y360845D01*
X224281Y365595D01*
X226099Y369983D01*
X229457Y373341D01*
X233845Y375159D01*
X238595Y375159D01*
X242983Y373341D01*
X246341Y369983D01*
X248159Y365595D01*
X248159Y360845D01*
X246341Y356457D01*
X242983Y353099D01*
X238595Y351281D01*
X233845Y351281D01*
G37*
%LPD*%
%LPC*%
G36*
X259245Y351281D02*
X259245Y351281D01*
X254857Y353099D01*
X251499Y356457D01*
X249681Y360845D01*
X249681Y365595D01*
X251499Y369983D01*
X254857Y373341D01*
X259245Y375159D01*
X263995Y375159D01*
X268383Y373341D01*
X271741Y369983D01*
X273559Y365595D01*
X273559Y360845D01*
X271741Y356457D01*
X268383Y353099D01*
X263995Y351281D01*
X259245Y351281D01*
G37*
%LPD*%
%LPC*%
G36*
X291083Y56133D02*
X291083Y56133D01*
X291083Y69851D01*
X295873Y69851D01*
X304801Y60923D01*
X304801Y56133D01*
X291083Y56133D01*
G37*
%LPD*%
%LPC*%
G36*
X291083Y53087D02*
X291083Y53087D01*
X304801Y53087D01*
X304801Y48297D01*
X295873Y39369D01*
X291083Y39369D01*
X291083Y53087D01*
G37*
%LPD*%
%LPC*%
G36*
X274319Y56133D02*
X274319Y56133D01*
X274319Y60923D01*
X283247Y69851D01*
X288037Y69851D01*
X288037Y56133D01*
X274319Y56133D01*
G37*
%LPD*%
%LPC*%
G36*
X283247Y39369D02*
X283247Y39369D01*
X274319Y48297D01*
X274319Y53087D01*
X288037Y53087D01*
X288037Y39369D01*
X283247Y39369D01*
G37*
%LPD*%
%LPC*%
G36*
X143763Y171703D02*
X143763Y171703D01*
X143763Y181611D01*
X151464Y181611D01*
X152111Y181438D01*
X152690Y181103D01*
X153163Y180630D01*
X153498Y180051D01*
X153671Y179404D01*
X153671Y171703D01*
X143763Y171703D01*
G37*
%LPD*%
%LPC*%
G36*
X130809Y171703D02*
X130809Y171703D01*
X130809Y179404D01*
X130982Y180051D01*
X131317Y180630D01*
X131790Y181103D01*
X132369Y181438D01*
X133016Y181611D01*
X140717Y181611D01*
X140717Y171703D01*
X130809Y171703D01*
G37*
%LPD*%
%LPC*%
G36*
X143763Y158749D02*
X143763Y158749D01*
X143763Y168657D01*
X153671Y168657D01*
X153671Y160956D01*
X153498Y160309D01*
X153163Y159730D01*
X152690Y159257D01*
X152111Y158922D01*
X151464Y158749D01*
X143763Y158749D01*
G37*
%LPD*%
%LPC*%
G36*
X133016Y158749D02*
X133016Y158749D01*
X132369Y158922D01*
X131790Y159257D01*
X131317Y159730D01*
X130982Y160309D01*
X130809Y160956D01*
X130809Y168657D01*
X140717Y168657D01*
X140717Y158749D01*
X133016Y158749D01*
G37*
%LPD*%
%LPC*%
G36*
X288543Y512063D02*
X288543Y512063D01*
X288543Y519685D01*
X294525Y519685D01*
X296291Y519333D01*
X297956Y518644D01*
X299454Y517643D01*
X300727Y516370D01*
X301728Y514872D01*
X302417Y513207D01*
X302645Y512063D01*
X288543Y512063D01*
G37*
%LPD*%
%LPC*%
G36*
X212343Y486663D02*
X212343Y486663D01*
X212343Y494285D01*
X218325Y494285D01*
X220091Y493933D01*
X221756Y493244D01*
X223254Y492243D01*
X224527Y490970D01*
X225528Y489472D01*
X226217Y487807D01*
X226445Y486663D01*
X212343Y486663D01*
G37*
%LPD*%
%LPC*%
G36*
X288543Y486663D02*
X288543Y486663D01*
X288543Y494285D01*
X294525Y494285D01*
X296291Y493933D01*
X297956Y493244D01*
X299454Y492243D01*
X300727Y490970D01*
X301728Y489472D01*
X302417Y487807D01*
X302645Y486663D01*
X288543Y486663D01*
G37*
%LPD*%
%LPC*%
G36*
X212343Y512063D02*
X212343Y512063D01*
X212343Y519685D01*
X218325Y519685D01*
X220091Y519333D01*
X221756Y518644D01*
X223254Y517643D01*
X224527Y516370D01*
X225528Y514872D01*
X226217Y513207D01*
X226445Y512063D01*
X212343Y512063D01*
G37*
%LPD*%
%LPC*%
G36*
X271395Y486663D02*
X271395Y486663D01*
X271623Y487807D01*
X272312Y489472D01*
X273313Y490970D01*
X274586Y492243D01*
X276084Y493244D01*
X277749Y493933D01*
X279515Y494285D01*
X285497Y494285D01*
X285497Y486663D01*
X271395Y486663D01*
G37*
%LPD*%
%LPC*%
G36*
X195195Y486663D02*
X195195Y486663D01*
X195423Y487807D01*
X196112Y489472D01*
X197113Y490970D01*
X198386Y492243D01*
X199884Y493244D01*
X201549Y493933D01*
X203315Y494285D01*
X209297Y494285D01*
X209297Y486663D01*
X195195Y486663D01*
G37*
%LPD*%
%LPC*%
G36*
X271395Y512063D02*
X271395Y512063D01*
X271623Y513207D01*
X272312Y514872D01*
X273313Y516370D01*
X274586Y517643D01*
X276084Y518644D01*
X277749Y519333D01*
X279515Y519685D01*
X285497Y519685D01*
X285497Y512063D01*
X271395Y512063D01*
G37*
%LPD*%
%LPC*%
G36*
X195195Y512063D02*
X195195Y512063D01*
X195423Y513207D01*
X196112Y514872D01*
X197113Y516370D01*
X198386Y517643D01*
X199884Y518644D01*
X201549Y519333D01*
X203315Y519685D01*
X209297Y519685D01*
X209297Y512063D01*
X195195Y512063D01*
G37*
%LPD*%
%LPC*%
G36*
X288543Y501395D02*
X288543Y501395D01*
X288543Y509017D01*
X302645Y509017D01*
X302417Y507873D01*
X301728Y506208D01*
X300727Y504710D01*
X299454Y503437D01*
X297956Y502436D01*
X296291Y501747D01*
X294525Y501395D01*
X288543Y501395D01*
G37*
%LPD*%
%LPC*%
G36*
X212343Y501395D02*
X212343Y501395D01*
X212343Y509017D01*
X226445Y509017D01*
X226217Y507873D01*
X225528Y506208D01*
X224527Y504710D01*
X223254Y503437D01*
X221756Y502436D01*
X220091Y501747D01*
X218325Y501395D01*
X212343Y501395D01*
G37*
%LPD*%
%LPC*%
G36*
X288543Y475995D02*
X288543Y475995D01*
X288543Y483617D01*
X302645Y483617D01*
X302417Y482473D01*
X301728Y480808D01*
X300727Y479310D01*
X299454Y478037D01*
X297956Y477036D01*
X296291Y476347D01*
X294525Y475995D01*
X288543Y475995D01*
G37*
%LPD*%
%LPC*%
G36*
X212343Y475995D02*
X212343Y475995D01*
X212343Y483617D01*
X226445Y483617D01*
X226217Y482473D01*
X225528Y480808D01*
X224527Y479310D01*
X223254Y478037D01*
X221756Y477036D01*
X220091Y476347D01*
X218325Y475995D01*
X212343Y475995D01*
G37*
%LPD*%
%LPC*%
G36*
X203315Y501395D02*
X203315Y501395D01*
X201549Y501747D01*
X199884Y502436D01*
X198386Y503437D01*
X197113Y504710D01*
X196112Y506208D01*
X195423Y507873D01*
X195195Y509017D01*
X209297Y509017D01*
X209297Y501395D01*
X203315Y501395D01*
G37*
%LPD*%
%LPC*%
G36*
X279515Y475995D02*
X279515Y475995D01*
X277749Y476347D01*
X276084Y477036D01*
X274586Y478037D01*
X273313Y479310D01*
X272312Y480808D01*
X271623Y482473D01*
X271395Y483617D01*
X285497Y483617D01*
X285497Y475995D01*
X279515Y475995D01*
G37*
%LPD*%
%LPC*%
G36*
X279515Y501395D02*
X279515Y501395D01*
X277749Y501747D01*
X276084Y502436D01*
X274586Y503437D01*
X273313Y504710D01*
X272312Y506208D01*
X271623Y507873D01*
X271395Y509017D01*
X285497Y509017D01*
X285497Y501395D01*
X279515Y501395D01*
G37*
%LPD*%
%LPC*%
G36*
X203315Y475995D02*
X203315Y475995D01*
X201549Y476347D01*
X199884Y477036D01*
X198386Y478037D01*
X197113Y479310D01*
X196112Y480808D01*
X195423Y482473D01*
X195195Y483617D01*
X209297Y483617D01*
X209297Y475995D01*
X203315Y475995D01*
G37*
%LPD*%
%LPC*%
G36*
X437493Y564928D02*
X437493Y564928D01*
X437493Y578901D01*
X438619Y578677D01*
X440271Y577992D01*
X441759Y576998D01*
X443023Y575734D01*
X444017Y574246D01*
X444702Y572594D01*
X445051Y570839D01*
X445051Y564928D01*
X437493Y564928D01*
G37*
%LPD*%
%LPC*%
G36*
X437493Y561882D02*
X437493Y561882D01*
X445051Y561882D01*
X445051Y555971D01*
X444702Y554216D01*
X444017Y552564D01*
X443023Y551076D01*
X441759Y549812D01*
X440271Y548818D01*
X438619Y548133D01*
X437493Y547909D01*
X437493Y561882D01*
G37*
%LPD*%
%LPC*%
G36*
X426889Y564928D02*
X426889Y564928D01*
X426889Y570839D01*
X427238Y572594D01*
X427923Y574246D01*
X428917Y575734D01*
X430181Y576998D01*
X431669Y577992D01*
X433321Y578677D01*
X434447Y578901D01*
X434447Y564928D01*
X426889Y564928D01*
G37*
%LPD*%
%LPC*%
G36*
X433321Y548133D02*
X433321Y548133D01*
X431669Y548818D01*
X430181Y549812D01*
X428917Y551076D01*
X427923Y552564D01*
X427238Y554216D01*
X426889Y555971D01*
X426889Y561882D01*
X434447Y561882D01*
X434447Y547909D01*
X433321Y548133D01*
G37*
%LPD*%
%LPC*%
G36*
X59943Y364743D02*
X59943Y364743D01*
X59943Y375066D01*
X61216Y374865D01*
X63003Y374284D01*
X64677Y373431D01*
X66198Y372326D01*
X67526Y370998D01*
X68631Y369477D01*
X69484Y367803D01*
X70065Y366016D01*
X70266Y364743D01*
X59943Y364743D01*
G37*
%LPD*%
%LPC*%
G36*
X59943Y212343D02*
X59943Y212343D01*
X59943Y222666D01*
X61216Y222465D01*
X63003Y221884D01*
X64677Y221031D01*
X66198Y219926D01*
X67526Y218598D01*
X68631Y217077D01*
X69484Y215403D01*
X70065Y213616D01*
X70266Y212343D01*
X59943Y212343D01*
G37*
%LPD*%
%LPC*%
G36*
X59943Y209297D02*
X59943Y209297D01*
X70266Y209297D01*
X70065Y208024D01*
X69484Y206237D01*
X68631Y204563D01*
X67526Y203042D01*
X66198Y201714D01*
X64677Y200609D01*
X63003Y199756D01*
X61216Y199175D01*
X59943Y198974D01*
X59943Y209297D01*
G37*
%LPD*%
%LPC*%
G36*
X46574Y212343D02*
X46574Y212343D01*
X46775Y213616D01*
X47356Y215403D01*
X48209Y217077D01*
X49314Y218598D01*
X50642Y219926D01*
X52163Y221031D01*
X53837Y221884D01*
X55624Y222465D01*
X56897Y222666D01*
X56897Y212343D01*
X46574Y212343D01*
G37*
%LPD*%
%LPC*%
G36*
X59943Y361697D02*
X59943Y361697D01*
X70266Y361697D01*
X70065Y360424D01*
X69484Y358637D01*
X68631Y356963D01*
X67526Y355442D01*
X66198Y354114D01*
X64677Y353009D01*
X63003Y352156D01*
X61216Y351575D01*
X59943Y351374D01*
X59943Y361697D01*
G37*
%LPD*%
%LPC*%
G36*
X46574Y364743D02*
X46574Y364743D01*
X46775Y366016D01*
X47356Y367803D01*
X48209Y369477D01*
X49314Y370998D01*
X50642Y372326D01*
X52163Y373431D01*
X53837Y374284D01*
X55624Y374865D01*
X56897Y375066D01*
X56897Y364743D01*
X46574Y364743D01*
G37*
%LPD*%
%LPC*%
G36*
X55624Y351575D02*
X55624Y351575D01*
X53837Y352156D01*
X52163Y353009D01*
X50642Y354114D01*
X49314Y355442D01*
X48209Y356963D01*
X47356Y358637D01*
X46775Y360424D01*
X46574Y361697D01*
X56897Y361697D01*
X56897Y351374D01*
X55624Y351575D01*
G37*
%LPD*%
%LPC*%
G36*
X55624Y199175D02*
X55624Y199175D01*
X53837Y199756D01*
X52163Y200609D01*
X50642Y201714D01*
X49314Y203042D01*
X48209Y204563D01*
X47356Y206237D01*
X46775Y208024D01*
X46574Y209297D01*
X56897Y209297D01*
X56897Y198974D01*
X55624Y199175D01*
G37*
%LPD*%
%LPC*%
G36*
X443483Y167387D02*
X443483Y167387D01*
X451925Y167387D01*
X451793Y166549D01*
X451302Y165040D01*
X450582Y163627D01*
X449649Y162343D01*
X448527Y161221D01*
X447243Y160288D01*
X445830Y159568D01*
X444321Y159077D01*
X443483Y158945D01*
X443483Y167387D01*
G37*
%LPD*%
%LPC*%
G36*
X439599Y159077D02*
X439599Y159077D01*
X438090Y159568D01*
X436677Y160288D01*
X435393Y161221D01*
X434271Y162343D01*
X433338Y163627D01*
X432618Y165040D01*
X432127Y166549D01*
X431995Y167387D01*
X440437Y167387D01*
X440437Y158945D01*
X439599Y159077D01*
G37*
%LPD*%
%LPC*%
G36*
X436743Y514603D02*
X436743Y514603D01*
X436743Y520621D01*
X441054Y520621D01*
X441701Y520448D01*
X442280Y520113D01*
X442753Y519640D01*
X443088Y519061D01*
X443261Y518414D01*
X443261Y514603D01*
X436743Y514603D01*
G37*
%LPD*%
%LPC*%
G36*
X439283Y410463D02*
X439283Y410463D01*
X439283Y416481D01*
X443594Y416481D01*
X444241Y416308D01*
X444820Y415973D01*
X445293Y415500D01*
X445628Y414921D01*
X445801Y414274D01*
X445801Y410463D01*
X439283Y410463D01*
G37*
%LPD*%
%LPC*%
G36*
X443483Y137023D02*
X443483Y137023D01*
X443483Y143541D01*
X447295Y143541D01*
X447941Y143368D01*
X448520Y143033D01*
X448993Y142560D01*
X449328Y141981D01*
X449501Y141334D01*
X449501Y137023D01*
X443483Y137023D01*
G37*
%LPD*%
%LPC*%
G36*
X184403Y429123D02*
X184403Y429123D01*
X184403Y435641D01*
X188215Y435641D01*
X188861Y435468D01*
X189440Y435133D01*
X189913Y434660D01*
X190248Y434081D01*
X190421Y433434D01*
X190421Y429123D01*
X184403Y429123D01*
G37*
%LPD*%
%LPC*%
G36*
X49783Y512943D02*
X49783Y512943D01*
X49783Y519461D01*
X53595Y519461D01*
X54241Y519288D01*
X54820Y518953D01*
X55293Y518480D01*
X55628Y517901D01*
X55801Y517254D01*
X55801Y512943D01*
X49783Y512943D01*
G37*
%LPD*%
%LPC*%
G36*
X115823Y492623D02*
X115823Y492623D01*
X115823Y499141D01*
X119635Y499141D01*
X120281Y498968D01*
X120860Y498633D01*
X121333Y498160D01*
X121668Y497581D01*
X121841Y496934D01*
X121841Y492623D01*
X115823Y492623D01*
G37*
%LPD*%
%LPC*%
G36*
X385063Y492623D02*
X385063Y492623D01*
X385063Y499141D01*
X388875Y499141D01*
X389521Y498968D01*
X390100Y498633D01*
X390573Y498160D01*
X390908Y497581D01*
X391081Y496934D01*
X391081Y492623D01*
X385063Y492623D01*
G37*
%LPD*%
%LPC*%
G36*
X175339Y429123D02*
X175339Y429123D01*
X175339Y433434D01*
X175512Y434081D01*
X175847Y434660D01*
X176320Y435133D01*
X176899Y435468D01*
X177546Y435641D01*
X181357Y435641D01*
X181357Y429123D01*
X175339Y429123D01*
G37*
%LPD*%
%LPC*%
G36*
X434419Y137023D02*
X434419Y137023D01*
X434419Y141334D01*
X434592Y141981D01*
X434927Y142560D01*
X435400Y143033D01*
X435979Y143368D01*
X436626Y143541D01*
X440437Y143541D01*
X440437Y137023D01*
X434419Y137023D01*
G37*
%LPD*%
%LPC*%
G36*
X106759Y492623D02*
X106759Y492623D01*
X106759Y496934D01*
X106932Y497581D01*
X107267Y498160D01*
X107740Y498633D01*
X108319Y498968D01*
X108966Y499141D01*
X112777Y499141D01*
X112777Y492623D01*
X106759Y492623D01*
G37*
%LPD*%
%LPC*%
G36*
X375999Y492623D02*
X375999Y492623D01*
X375999Y496934D01*
X376172Y497581D01*
X376507Y498160D01*
X376980Y498633D01*
X377559Y498968D01*
X378206Y499141D01*
X382017Y499141D01*
X382017Y492623D01*
X375999Y492623D01*
G37*
%LPD*%
%LPC*%
G36*
X40719Y512943D02*
X40719Y512943D01*
X40719Y517254D01*
X40892Y517901D01*
X41227Y518480D01*
X41700Y518953D01*
X42279Y519288D01*
X42926Y519461D01*
X46737Y519461D01*
X46737Y512943D01*
X40719Y512943D01*
G37*
%LPD*%
%LPC*%
G36*
X436743Y505539D02*
X436743Y505539D01*
X436743Y511557D01*
X443261Y511557D01*
X443261Y507745D01*
X443088Y507099D01*
X442753Y506520D01*
X442280Y506047D01*
X441701Y505712D01*
X441054Y505539D01*
X436743Y505539D01*
G37*
%LPD*%
%LPC*%
G36*
X439283Y401399D02*
X439283Y401399D01*
X439283Y407417D01*
X445801Y407417D01*
X445801Y403605D01*
X445628Y402959D01*
X445293Y402380D01*
X444820Y401907D01*
X444241Y401572D01*
X443594Y401399D01*
X439283Y401399D01*
G37*
%LPD*%
%LPC*%
G36*
X435969Y563404D02*
X435969Y563404D01*
X435969Y563406D01*
X435971Y563406D01*
X435971Y563404D01*
X435969Y563404D01*
G37*
%LPD*%
%LPC*%
G36*
X142239Y170179D02*
X142239Y170179D01*
X142239Y170181D01*
X142241Y170181D01*
X142241Y170179D01*
X142239Y170179D01*
G37*
%LPD*%
%LPC*%
G36*
X58419Y363219D02*
X58419Y363219D01*
X58419Y363221D01*
X58421Y363221D01*
X58421Y363219D01*
X58419Y363219D01*
G37*
%LPD*%
%LPC*%
G36*
X287019Y510539D02*
X287019Y510539D01*
X287019Y510541D01*
X287021Y510541D01*
X287021Y510539D01*
X287019Y510539D01*
G37*
%LPD*%
%LPC*%
G36*
X210819Y510539D02*
X210819Y510539D01*
X210819Y510541D01*
X210821Y510541D01*
X210821Y510539D01*
X210819Y510539D01*
G37*
%LPD*%
%LPC*%
G36*
X287019Y485139D02*
X287019Y485139D01*
X287019Y485141D01*
X287021Y485141D01*
X287021Y485139D01*
X287019Y485139D01*
G37*
%LPD*%
%LPC*%
G36*
X210819Y485139D02*
X210819Y485139D01*
X210819Y485141D01*
X210821Y485141D01*
X210821Y485139D01*
X210819Y485139D01*
G37*
%LPD*%
%LPC*%
G36*
X289559Y54609D02*
X289559Y54609D01*
X289559Y54611D01*
X289561Y54611D01*
X289561Y54609D01*
X289559Y54609D01*
G37*
%LPD*%
%LPC*%
G36*
X58419Y210819D02*
X58419Y210819D01*
X58419Y210821D01*
X58421Y210821D01*
X58421Y210819D01*
X58419Y210819D01*
G37*
%LPD*%
%LPC*%
G36*
X435219Y513079D02*
X435219Y513079D01*
X435219Y513081D01*
X435221Y513081D01*
X435221Y513079D01*
X435219Y513079D01*
G37*
%LPD*%
%LPC*%
G36*
X114299Y491099D02*
X114299Y491099D01*
X114299Y491101D01*
X114301Y491101D01*
X114301Y491099D01*
X114299Y491099D01*
G37*
%LPD*%
%LPC*%
G36*
X494899Y459739D02*
X494899Y459739D01*
X494899Y459741D01*
X494901Y459741D01*
X494901Y459739D01*
X494899Y459739D01*
G37*
%LPD*%
D10*
X0Y0D02*
X0Y622300D01*
X546100Y622300D01*
X546100Y0D01*
X0Y0D01*
D11*
X505700Y596900D02*
X505705Y597268D01*
X505718Y597636D01*
X505741Y598003D01*
X505772Y598370D01*
X505813Y598736D01*
X505862Y599101D01*
X505921Y599464D01*
X505988Y599826D01*
X506064Y600187D01*
X506150Y600545D01*
X506243Y600901D01*
X506346Y601254D01*
X506457Y601605D01*
X506577Y601953D01*
X506705Y602298D01*
X506842Y602640D01*
X506987Y602979D01*
X507140Y603313D01*
X507302Y603644D01*
X507471Y603971D01*
X507649Y604293D01*
X507834Y604612D01*
X508027Y604925D01*
X508228Y605234D01*
X508436Y605537D01*
X508652Y605835D01*
X508875Y606128D01*
X509105Y606416D01*
X509342Y606698D01*
X509586Y606973D01*
X509836Y607243D01*
X510093Y607507D01*
X510357Y607764D01*
X510627Y608014D01*
X510902Y608258D01*
X511184Y608495D01*
X511472Y608725D01*
X511765Y608948D01*
X512063Y609164D01*
X512366Y609372D01*
X512675Y609573D01*
X512988Y609766D01*
X513307Y609951D01*
X513629Y610129D01*
X513956Y610298D01*
X514287Y610460D01*
X514621Y610613D01*
X514960Y610758D01*
X515302Y610895D01*
X515647Y611023D01*
X515995Y611143D01*
X516346Y611254D01*
X516699Y611357D01*
X517055Y611450D01*
X517413Y611536D01*
X517774Y611612D01*
X518136Y611679D01*
X518499Y611738D01*
X518864Y611787D01*
X519230Y611828D01*
X519597Y611859D01*
X519964Y611882D01*
X520332Y611895D01*
X520700Y611900D01*
X521068Y611895D01*
X521436Y611882D01*
X521803Y611859D01*
X522170Y611828D01*
X522536Y611787D01*
X522901Y611738D01*
X523264Y611679D01*
X523626Y611612D01*
X523987Y611536D01*
X524345Y611450D01*
X524701Y611357D01*
X525054Y611254D01*
X525405Y611143D01*
X525753Y611023D01*
X526098Y610895D01*
X526440Y610758D01*
X526779Y610613D01*
X527113Y610460D01*
X527444Y610298D01*
X527771Y610129D01*
X528093Y609951D01*
X528412Y609766D01*
X528725Y609573D01*
X529034Y609372D01*
X529337Y609164D01*
X529635Y608948D01*
X529928Y608725D01*
X530216Y608495D01*
X530498Y608258D01*
X530773Y608014D01*
X531043Y607764D01*
X531307Y607507D01*
X531564Y607243D01*
X531814Y606973D01*
X532058Y606698D01*
X532295Y606416D01*
X532525Y606128D01*
X532748Y605835D01*
X532964Y605537D01*
X533172Y605234D01*
X533373Y604925D01*
X533566Y604612D01*
X533751Y604293D01*
X533929Y603971D01*
X534098Y603644D01*
X534260Y603313D01*
X534413Y602979D01*
X534558Y602640D01*
X534695Y602298D01*
X534823Y601953D01*
X534943Y601605D01*
X535054Y601254D01*
X535157Y600901D01*
X535250Y600545D01*
X535336Y600187D01*
X535412Y599826D01*
X535479Y599464D01*
X535538Y599101D01*
X535587Y598736D01*
X535628Y598370D01*
X535659Y598003D01*
X535682Y597636D01*
X535695Y597268D01*
X535700Y596900D01*
X535695Y596532D01*
X535682Y596164D01*
X535659Y595797D01*
X535628Y595430D01*
X535587Y595064D01*
X535538Y594699D01*
X535479Y594336D01*
X535412Y593974D01*
X535336Y593613D01*
X535250Y593255D01*
X535157Y592899D01*
X535054Y592546D01*
X534943Y592195D01*
X534823Y591847D01*
X534695Y591502D01*
X534558Y591160D01*
X534413Y590821D01*
X534260Y590487D01*
X534098Y590156D01*
X533929Y589829D01*
X533751Y589507D01*
X533566Y589188D01*
X533373Y588875D01*
X533172Y588566D01*
X532964Y588263D01*
X532748Y587965D01*
X532525Y587672D01*
X532295Y587384D01*
X532058Y587102D01*
X531814Y586827D01*
X531564Y586557D01*
X531307Y586293D01*
X531043Y586036D01*
X530773Y585786D01*
X530498Y585542D01*
X530216Y585305D01*
X529928Y585075D01*
X529635Y584852D01*
X529337Y584636D01*
X529034Y584428D01*
X528725Y584227D01*
X528412Y584034D01*
X528093Y583849D01*
X527771Y583671D01*
X527444Y583502D01*
X527113Y583340D01*
X526779Y583187D01*
X526440Y583042D01*
X526098Y582905D01*
X525753Y582777D01*
X525405Y582657D01*
X525054Y582546D01*
X524701Y582443D01*
X524345Y582350D01*
X523987Y582264D01*
X523626Y582188D01*
X523264Y582121D01*
X522901Y582062D01*
X522536Y582013D01*
X522170Y581972D01*
X521803Y581941D01*
X521436Y581918D01*
X521068Y581905D01*
X520700Y581900D01*
X520332Y581905D01*
X519964Y581918D01*
X519597Y581941D01*
X519230Y581972D01*
X518864Y582013D01*
X518499Y582062D01*
X518136Y582121D01*
X517774Y582188D01*
X517413Y582264D01*
X517055Y582350D01*
X516699Y582443D01*
X516346Y582546D01*
X515995Y582657D01*
X515647Y582777D01*
X515302Y582905D01*
X514960Y583042D01*
X514621Y583187D01*
X514287Y583340D01*
X513956Y583502D01*
X513629Y583671D01*
X513307Y583849D01*
X512988Y584034D01*
X512675Y584227D01*
X512366Y584428D01*
X512063Y584636D01*
X511765Y584852D01*
X511472Y585075D01*
X511184Y585305D01*
X510902Y585542D01*
X510627Y585786D01*
X510357Y586036D01*
X510093Y586293D01*
X509836Y586557D01*
X509586Y586827D01*
X509342Y587102D01*
X509105Y587384D01*
X508875Y587672D01*
X508652Y587965D01*
X508436Y588263D01*
X508228Y588566D01*
X508027Y588875D01*
X507834Y589188D01*
X507649Y589507D01*
X507471Y589829D01*
X507302Y590156D01*
X507140Y590487D01*
X506987Y590821D01*
X506842Y591160D01*
X506705Y591502D01*
X506577Y591847D01*
X506457Y592195D01*
X506346Y592546D01*
X506243Y592899D01*
X506150Y593255D01*
X506064Y593613D01*
X505988Y593974D01*
X505921Y594336D01*
X505862Y594699D01*
X505813Y595064D01*
X505772Y595430D01*
X505741Y595797D01*
X505718Y596164D01*
X505705Y596532D01*
X505700Y596900D01*
X10400Y596900D02*
X10405Y597268D01*
X10418Y597636D01*
X10441Y598003D01*
X10472Y598370D01*
X10513Y598736D01*
X10562Y599101D01*
X10621Y599464D01*
X10688Y599826D01*
X10764Y600187D01*
X10850Y600545D01*
X10943Y600901D01*
X11046Y601254D01*
X11157Y601605D01*
X11277Y601953D01*
X11405Y602298D01*
X11542Y602640D01*
X11687Y602979D01*
X11840Y603313D01*
X12002Y603644D01*
X12171Y603971D01*
X12349Y604293D01*
X12534Y604612D01*
X12727Y604925D01*
X12928Y605234D01*
X13136Y605537D01*
X13352Y605835D01*
X13575Y606128D01*
X13805Y606416D01*
X14042Y606698D01*
X14286Y606973D01*
X14536Y607243D01*
X14793Y607507D01*
X15057Y607764D01*
X15327Y608014D01*
X15602Y608258D01*
X15884Y608495D01*
X16172Y608725D01*
X16465Y608948D01*
X16763Y609164D01*
X17066Y609372D01*
X17375Y609573D01*
X17688Y609766D01*
X18007Y609951D01*
X18329Y610129D01*
X18656Y610298D01*
X18987Y610460D01*
X19321Y610613D01*
X19660Y610758D01*
X20002Y610895D01*
X20347Y611023D01*
X20695Y611143D01*
X21046Y611254D01*
X21399Y611357D01*
X21755Y611450D01*
X22113Y611536D01*
X22474Y611612D01*
X22836Y611679D01*
X23199Y611738D01*
X23564Y611787D01*
X23930Y611828D01*
X24297Y611859D01*
X24664Y611882D01*
X25032Y611895D01*
X25400Y611900D01*
X25768Y611895D01*
X26136Y611882D01*
X26503Y611859D01*
X26870Y611828D01*
X27236Y611787D01*
X27601Y611738D01*
X27964Y611679D01*
X28326Y611612D01*
X28687Y611536D01*
X29045Y611450D01*
X29401Y611357D01*
X29754Y611254D01*
X30105Y611143D01*
X30453Y611023D01*
X30798Y610895D01*
X31140Y610758D01*
X31479Y610613D01*
X31813Y610460D01*
X32144Y610298D01*
X32471Y610129D01*
X32793Y609951D01*
X33112Y609766D01*
X33425Y609573D01*
X33734Y609372D01*
X34037Y609164D01*
X34335Y608948D01*
X34628Y608725D01*
X34916Y608495D01*
X35198Y608258D01*
X35473Y608014D01*
X35743Y607764D01*
X36007Y607507D01*
X36264Y607243D01*
X36514Y606973D01*
X36758Y606698D01*
X36995Y606416D01*
X37225Y606128D01*
X37448Y605835D01*
X37664Y605537D01*
X37872Y605234D01*
X38073Y604925D01*
X38266Y604612D01*
X38451Y604293D01*
X38629Y603971D01*
X38798Y603644D01*
X38960Y603313D01*
X39113Y602979D01*
X39258Y602640D01*
X39395Y602298D01*
X39523Y601953D01*
X39643Y601605D01*
X39754Y601254D01*
X39857Y600901D01*
X39950Y600545D01*
X40036Y600187D01*
X40112Y599826D01*
X40179Y599464D01*
X40238Y599101D01*
X40287Y598736D01*
X40328Y598370D01*
X40359Y598003D01*
X40382Y597636D01*
X40395Y597268D01*
X40400Y596900D01*
X40395Y596532D01*
X40382Y596164D01*
X40359Y595797D01*
X40328Y595430D01*
X40287Y595064D01*
X40238Y594699D01*
X40179Y594336D01*
X40112Y593974D01*
X40036Y593613D01*
X39950Y593255D01*
X39857Y592899D01*
X39754Y592546D01*
X39643Y592195D01*
X39523Y591847D01*
X39395Y591502D01*
X39258Y591160D01*
X39113Y590821D01*
X38960Y590487D01*
X38798Y590156D01*
X38629Y589829D01*
X38451Y589507D01*
X38266Y589188D01*
X38073Y588875D01*
X37872Y588566D01*
X37664Y588263D01*
X37448Y587965D01*
X37225Y587672D01*
X36995Y587384D01*
X36758Y587102D01*
X36514Y586827D01*
X36264Y586557D01*
X36007Y586293D01*
X35743Y586036D01*
X35473Y585786D01*
X35198Y585542D01*
X34916Y585305D01*
X34628Y585075D01*
X34335Y584852D01*
X34037Y584636D01*
X33734Y584428D01*
X33425Y584227D01*
X33112Y584034D01*
X32793Y583849D01*
X32471Y583671D01*
X32144Y583502D01*
X31813Y583340D01*
X31479Y583187D01*
X31140Y583042D01*
X30798Y582905D01*
X30453Y582777D01*
X30105Y582657D01*
X29754Y582546D01*
X29401Y582443D01*
X29045Y582350D01*
X28687Y582264D01*
X28326Y582188D01*
X27964Y582121D01*
X27601Y582062D01*
X27236Y582013D01*
X26870Y581972D01*
X26503Y581941D01*
X26136Y581918D01*
X25768Y581905D01*
X25400Y581900D01*
X25032Y581905D01*
X24664Y581918D01*
X24297Y581941D01*
X23930Y581972D01*
X23564Y582013D01*
X23199Y582062D01*
X22836Y582121D01*
X22474Y582188D01*
X22113Y582264D01*
X21755Y582350D01*
X21399Y582443D01*
X21046Y582546D01*
X20695Y582657D01*
X20347Y582777D01*
X20002Y582905D01*
X19660Y583042D01*
X19321Y583187D01*
X18987Y583340D01*
X18656Y583502D01*
X18329Y583671D01*
X18007Y583849D01*
X17688Y584034D01*
X17375Y584227D01*
X17066Y584428D01*
X16763Y584636D01*
X16465Y584852D01*
X16172Y585075D01*
X15884Y585305D01*
X15602Y585542D01*
X15327Y585786D01*
X15057Y586036D01*
X14793Y586293D01*
X14536Y586557D01*
X14286Y586827D01*
X14042Y587102D01*
X13805Y587384D01*
X13575Y587672D01*
X13352Y587965D01*
X13136Y588263D01*
X12928Y588566D01*
X12727Y588875D01*
X12534Y589188D01*
X12349Y589507D01*
X12171Y589829D01*
X12002Y590156D01*
X11840Y590487D01*
X11687Y590821D01*
X11542Y591160D01*
X11405Y591502D01*
X11277Y591847D01*
X11157Y592195D01*
X11046Y592546D01*
X10943Y592899D01*
X10850Y593255D01*
X10764Y593613D01*
X10688Y593974D01*
X10621Y594336D01*
X10562Y594699D01*
X10513Y595064D01*
X10472Y595430D01*
X10441Y595797D01*
X10418Y596164D01*
X10405Y596532D01*
X10400Y596900D01*
X10400Y25400D02*
X10405Y25768D01*
X10418Y26136D01*
X10441Y26503D01*
X10472Y26870D01*
X10513Y27236D01*
X10562Y27601D01*
X10621Y27964D01*
X10688Y28326D01*
X10764Y28687D01*
X10850Y29045D01*
X10943Y29401D01*
X11046Y29754D01*
X11157Y30105D01*
X11277Y30453D01*
X11405Y30798D01*
X11542Y31140D01*
X11687Y31479D01*
X11840Y31813D01*
X12002Y32144D01*
X12171Y32471D01*
X12349Y32793D01*
X12534Y33112D01*
X12727Y33425D01*
X12928Y33734D01*
X13136Y34037D01*
X13352Y34335D01*
X13575Y34628D01*
X13805Y34916D01*
X14042Y35198D01*
X14286Y35473D01*
X14536Y35743D01*
X14793Y36007D01*
X15057Y36264D01*
X15327Y36514D01*
X15602Y36758D01*
X15884Y36995D01*
X16172Y37225D01*
X16465Y37448D01*
X16763Y37664D01*
X17066Y37872D01*
X17375Y38073D01*
X17688Y38266D01*
X18007Y38451D01*
X18329Y38629D01*
X18656Y38798D01*
X18987Y38960D01*
X19321Y39113D01*
X19660Y39258D01*
X20002Y39395D01*
X20347Y39523D01*
X20695Y39643D01*
X21046Y39754D01*
X21399Y39857D01*
X21755Y39950D01*
X22113Y40036D01*
X22474Y40112D01*
X22836Y40179D01*
X23199Y40238D01*
X23564Y40287D01*
X23930Y40328D01*
X24297Y40359D01*
X24664Y40382D01*
X25032Y40395D01*
X25400Y40400D01*
X25768Y40395D01*
X26136Y40382D01*
X26503Y40359D01*
X26870Y40328D01*
X27236Y40287D01*
X27601Y40238D01*
X27964Y40179D01*
X28326Y40112D01*
X28687Y40036D01*
X29045Y39950D01*
X29401Y39857D01*
X29754Y39754D01*
X30105Y39643D01*
X30453Y39523D01*
X30798Y39395D01*
X31140Y39258D01*
X31479Y39113D01*
X31813Y38960D01*
X32144Y38798D01*
X32471Y38629D01*
X32793Y38451D01*
X33112Y38266D01*
X33425Y38073D01*
X33734Y37872D01*
X34037Y37664D01*
X34335Y37448D01*
X34628Y37225D01*
X34916Y36995D01*
X35198Y36758D01*
X35473Y36514D01*
X35743Y36264D01*
X36007Y36007D01*
X36264Y35743D01*
X36514Y35473D01*
X36758Y35198D01*
X36995Y34916D01*
X37225Y34628D01*
X37448Y34335D01*
X37664Y34037D01*
X37872Y33734D01*
X38073Y33425D01*
X38266Y33112D01*
X38451Y32793D01*
X38629Y32471D01*
X38798Y32144D01*
X38960Y31813D01*
X39113Y31479D01*
X39258Y31140D01*
X39395Y30798D01*
X39523Y30453D01*
X39643Y30105D01*
X39754Y29754D01*
X39857Y29401D01*
X39950Y29045D01*
X40036Y28687D01*
X40112Y28326D01*
X40179Y27964D01*
X40238Y27601D01*
X40287Y27236D01*
X40328Y26870D01*
X40359Y26503D01*
X40382Y26136D01*
X40395Y25768D01*
X40400Y25400D01*
X40395Y25032D01*
X40382Y24664D01*
X40359Y24297D01*
X40328Y23930D01*
X40287Y23564D01*
X40238Y23199D01*
X40179Y22836D01*
X40112Y22474D01*
X40036Y22113D01*
X39950Y21755D01*
X39857Y21399D01*
X39754Y21046D01*
X39643Y20695D01*
X39523Y20347D01*
X39395Y20002D01*
X39258Y19660D01*
X39113Y19321D01*
X38960Y18987D01*
X38798Y18656D01*
X38629Y18329D01*
X38451Y18007D01*
X38266Y17688D01*
X38073Y17375D01*
X37872Y17066D01*
X37664Y16763D01*
X37448Y16465D01*
X37225Y16172D01*
X36995Y15884D01*
X36758Y15602D01*
X36514Y15327D01*
X36264Y15057D01*
X36007Y14793D01*
X35743Y14536D01*
X35473Y14286D01*
X35198Y14042D01*
X34916Y13805D01*
X34628Y13575D01*
X34335Y13352D01*
X34037Y13136D01*
X33734Y12928D01*
X33425Y12727D01*
X33112Y12534D01*
X32793Y12349D01*
X32471Y12171D01*
X32144Y12002D01*
X31813Y11840D01*
X31479Y11687D01*
X31140Y11542D01*
X30798Y11405D01*
X30453Y11277D01*
X30105Y11157D01*
X29754Y11046D01*
X29401Y10943D01*
X29045Y10850D01*
X28687Y10764D01*
X28326Y10688D01*
X27964Y10621D01*
X27601Y10562D01*
X27236Y10513D01*
X26870Y10472D01*
X26503Y10441D01*
X26136Y10418D01*
X25768Y10405D01*
X25400Y10400D01*
X25032Y10405D01*
X24664Y10418D01*
X24297Y10441D01*
X23930Y10472D01*
X23564Y10513D01*
X23199Y10562D01*
X22836Y10621D01*
X22474Y10688D01*
X22113Y10764D01*
X21755Y10850D01*
X21399Y10943D01*
X21046Y11046D01*
X20695Y11157D01*
X20347Y11277D01*
X20002Y11405D01*
X19660Y11542D01*
X19321Y11687D01*
X18987Y11840D01*
X18656Y12002D01*
X18329Y12171D01*
X18007Y12349D01*
X17688Y12534D01*
X17375Y12727D01*
X17066Y12928D01*
X16763Y13136D01*
X16465Y13352D01*
X16172Y13575D01*
X15884Y13805D01*
X15602Y14042D01*
X15327Y14286D01*
X15057Y14536D01*
X14793Y14793D01*
X14536Y15057D01*
X14286Y15327D01*
X14042Y15602D01*
X13805Y15884D01*
X13575Y16172D01*
X13352Y16465D01*
X13136Y16763D01*
X12928Y17066D01*
X12727Y17375D01*
X12534Y17688D01*
X12349Y18007D01*
X12171Y18329D01*
X12002Y18656D01*
X11840Y18987D01*
X11687Y19321D01*
X11542Y19660D01*
X11405Y20002D01*
X11277Y20347D01*
X11157Y20695D01*
X11046Y21046D01*
X10943Y21399D01*
X10850Y21755D01*
X10764Y22113D01*
X10688Y22474D01*
X10621Y22836D01*
X10562Y23199D01*
X10513Y23564D01*
X10472Y23930D01*
X10441Y24297D01*
X10418Y24664D01*
X10405Y25032D01*
X10400Y25400D01*
X505700Y25400D02*
X505705Y25768D01*
X505718Y26136D01*
X505741Y26503D01*
X505772Y26870D01*
X505813Y27236D01*
X505862Y27601D01*
X505921Y27964D01*
X505988Y28326D01*
X506064Y28687D01*
X506150Y29045D01*
X506243Y29401D01*
X506346Y29754D01*
X506457Y30105D01*
X506577Y30453D01*
X506705Y30798D01*
X506842Y31140D01*
X506987Y31479D01*
X507140Y31813D01*
X507302Y32144D01*
X507471Y32471D01*
X507649Y32793D01*
X507834Y33112D01*
X508027Y33425D01*
X508228Y33734D01*
X508436Y34037D01*
X508652Y34335D01*
X508875Y34628D01*
X509105Y34916D01*
X509342Y35198D01*
X509586Y35473D01*
X509836Y35743D01*
X510093Y36007D01*
X510357Y36264D01*
X510627Y36514D01*
X510902Y36758D01*
X511184Y36995D01*
X511472Y37225D01*
X511765Y37448D01*
X512063Y37664D01*
X512366Y37872D01*
X512675Y38073D01*
X512988Y38266D01*
X513307Y38451D01*
X513629Y38629D01*
X513956Y38798D01*
X514287Y38960D01*
X514621Y39113D01*
X514960Y39258D01*
X515302Y39395D01*
X515647Y39523D01*
X515995Y39643D01*
X516346Y39754D01*
X516699Y39857D01*
X517055Y39950D01*
X517413Y40036D01*
X517774Y40112D01*
X518136Y40179D01*
X518499Y40238D01*
X518864Y40287D01*
X519230Y40328D01*
X519597Y40359D01*
X519964Y40382D01*
X520332Y40395D01*
X520700Y40400D01*
X521068Y40395D01*
X521436Y40382D01*
X521803Y40359D01*
X522170Y40328D01*
X522536Y40287D01*
X522901Y40238D01*
X523264Y40179D01*
X523626Y40112D01*
X523987Y40036D01*
X524345Y39950D01*
X524701Y39857D01*
X525054Y39754D01*
X525405Y39643D01*
X525753Y39523D01*
X526098Y39395D01*
X526440Y39258D01*
X526779Y39113D01*
X527113Y38960D01*
X527444Y38798D01*
X527771Y38629D01*
X528093Y38451D01*
X528412Y38266D01*
X528725Y38073D01*
X529034Y37872D01*
X529337Y37664D01*
X529635Y37448D01*
X529928Y37225D01*
X530216Y36995D01*
X530498Y36758D01*
X530773Y36514D01*
X531043Y36264D01*
X531307Y36007D01*
X531564Y35743D01*
X531814Y35473D01*
X532058Y35198D01*
X532295Y34916D01*
X532525Y34628D01*
X532748Y34335D01*
X532964Y34037D01*
X533172Y33734D01*
X533373Y33425D01*
X533566Y33112D01*
X533751Y32793D01*
X533929Y32471D01*
X534098Y32144D01*
X534260Y31813D01*
X534413Y31479D01*
X534558Y31140D01*
X534695Y30798D01*
X534823Y30453D01*
X534943Y30105D01*
X535054Y29754D01*
X535157Y29401D01*
X535250Y29045D01*
X535336Y28687D01*
X535412Y28326D01*
X535479Y27964D01*
X535538Y27601D01*
X535587Y27236D01*
X535628Y26870D01*
X535659Y26503D01*
X535682Y26136D01*
X535695Y25768D01*
X535700Y25400D01*
X535695Y25032D01*
X535682Y24664D01*
X535659Y24297D01*
X535628Y23930D01*
X535587Y23564D01*
X535538Y23199D01*
X535479Y22836D01*
X535412Y22474D01*
X535336Y22113D01*
X535250Y21755D01*
X535157Y21399D01*
X535054Y21046D01*
X534943Y20695D01*
X534823Y20347D01*
X534695Y20002D01*
X534558Y19660D01*
X534413Y19321D01*
X534260Y18987D01*
X534098Y18656D01*
X533929Y18329D01*
X533751Y18007D01*
X533566Y17688D01*
X533373Y17375D01*
X533172Y17066D01*
X532964Y16763D01*
X532748Y16465D01*
X532525Y16172D01*
X532295Y15884D01*
X532058Y15602D01*
X531814Y15327D01*
X531564Y15057D01*
X531307Y14793D01*
X531043Y14536D01*
X530773Y14286D01*
X530498Y14042D01*
X530216Y13805D01*
X529928Y13575D01*
X529635Y13352D01*
X529337Y13136D01*
X529034Y12928D01*
X528725Y12727D01*
X528412Y12534D01*
X528093Y12349D01*
X527771Y12171D01*
X527444Y12002D01*
X527113Y11840D01*
X526779Y11687D01*
X526440Y11542D01*
X526098Y11405D01*
X525753Y11277D01*
X525405Y11157D01*
X525054Y11046D01*
X524701Y10943D01*
X524345Y10850D01*
X523987Y10764D01*
X523626Y10688D01*
X523264Y10621D01*
X522901Y10562D01*
X522536Y10513D01*
X522170Y10472D01*
X521803Y10441D01*
X521436Y10418D01*
X521068Y10405D01*
X520700Y10400D01*
X520332Y10405D01*
X519964Y10418D01*
X519597Y10441D01*
X519230Y10472D01*
X518864Y10513D01*
X518499Y10562D01*
X518136Y10621D01*
X517774Y10688D01*
X517413Y10764D01*
X517055Y10850D01*
X516699Y10943D01*
X516346Y11046D01*
X515995Y11157D01*
X515647Y11277D01*
X515302Y11405D01*
X514960Y11542D01*
X514621Y11687D01*
X514287Y11840D01*
X513956Y12002D01*
X513629Y12171D01*
X513307Y12349D01*
X512988Y12534D01*
X512675Y12727D01*
X512366Y12928D01*
X512063Y13136D01*
X511765Y13352D01*
X511472Y13575D01*
X511184Y13805D01*
X510902Y14042D01*
X510627Y14286D01*
X510357Y14536D01*
X510093Y14793D01*
X509836Y15057D01*
X509586Y15327D01*
X509342Y15602D01*
X509105Y15884D01*
X508875Y16172D01*
X508652Y16465D01*
X508436Y16763D01*
X508228Y17066D01*
X508027Y17375D01*
X507834Y17688D01*
X507649Y18007D01*
X507471Y18329D01*
X507302Y18656D01*
X507140Y18987D01*
X506987Y19321D01*
X506842Y19660D01*
X506705Y20002D01*
X506577Y20347D01*
X506457Y20695D01*
X506346Y21046D01*
X506243Y21399D01*
X506150Y21755D01*
X506064Y22113D01*
X505988Y22474D01*
X505921Y22836D01*
X505862Y23199D01*
X505813Y23564D01*
X505772Y23930D01*
X505741Y24297D01*
X505718Y24664D01*
X505705Y25032D01*
X505700Y25400D01*
D12*
X418220Y513080D03*
X435220Y513080D03*
D13*
X48260Y440440D03*
X48260Y468880D03*
D14*
X204216Y586740D02*
X217424Y586740D01*
X217424Y561340D02*
X204216Y561340D01*
X204216Y434340D02*
X217424Y434340D01*
X217424Y408940D02*
X204216Y408940D01*
X204216Y535940D02*
X217424Y535940D01*
X217424Y510540D02*
X204216Y510540D01*
X204216Y459740D02*
X217424Y459740D01*
X217424Y485140D02*
X204216Y485140D01*
X280416Y408940D02*
X293624Y408940D01*
X293624Y434340D02*
X280416Y434340D01*
X280416Y459740D02*
X293624Y459740D01*
X293624Y485140D02*
X280416Y485140D01*
X280416Y510540D02*
X293624Y510540D01*
X293624Y535940D02*
X280416Y535940D01*
X280416Y561340D02*
X293624Y561340D01*
X293624Y586740D02*
X280416Y586740D01*
D15*
X435970Y569945D02*
X435970Y556865D01*
X415970Y556865D02*
X415970Y569945D01*
D16*
X48260Y494420D03*
X48260Y511420D03*
D17*
X289560Y54610D03*
X289560Y130810D03*
D18*
X33020Y210820D03*
D19*
X58420Y210820D03*
X83820Y210820D03*
X109220Y210820D03*
X134620Y210820D03*
X160020Y210820D03*
X185420Y210820D03*
X210820Y210820D03*
X236220Y210820D03*
X261620Y210820D03*
X287020Y210820D03*
X312420Y210820D03*
X337820Y210820D03*
X363220Y210820D03*
X388620Y210820D03*
X414020Y210820D03*
X439420Y210820D03*
X464820Y210820D03*
X490220Y210820D03*
X515620Y210820D03*
X515620Y363220D03*
X490220Y363220D03*
X464820Y363220D03*
X439420Y363220D03*
X414020Y363220D03*
X388620Y363220D03*
X363220Y363220D03*
X337820Y363220D03*
X312420Y363220D03*
X287020Y363220D03*
X261620Y363220D03*
X236220Y363220D03*
X210820Y363220D03*
X185420Y363220D03*
X160020Y363220D03*
X134620Y363220D03*
X109220Y363220D03*
X83820Y363220D03*
X58420Y363220D03*
X33020Y363220D03*
D20*
X492760Y168910D03*
D21*
X518160Y168910D03*
D20*
X467360Y168910D03*
X441960Y168910D03*
X416560Y168910D03*
X391160Y168910D03*
D22*
X348280Y459500D03*
X348280Y474500D03*
X348280Y489500D03*
X348280Y504500D03*
X348280Y519500D03*
X348280Y534500D03*
X140000Y459500D03*
X140000Y474500D03*
X140000Y489500D03*
X140000Y504500D03*
X140000Y519500D03*
X140000Y534500D03*
D23*
X15240Y170180D03*
X40640Y170180D03*
X66040Y170180D03*
X91440Y170180D03*
X116840Y170180D03*
X142240Y170180D03*
X167640Y170180D03*
X193040Y170180D03*
D11*
X165240Y41180D02*
X165246Y41671D01*
X165264Y42161D01*
X165294Y42651D01*
X165336Y43140D01*
X165390Y43628D01*
X165456Y44115D01*
X165534Y44599D01*
X165624Y45082D01*
X165726Y45562D01*
X165839Y46040D01*
X165964Y46514D01*
X166101Y46986D01*
X166249Y47454D01*
X166409Y47918D01*
X166580Y48378D01*
X166762Y48834D01*
X166956Y49285D01*
X167160Y49731D01*
X167376Y50172D01*
X167602Y50608D01*
X167838Y51038D01*
X168085Y51462D01*
X168343Y51880D01*
X168611Y52291D01*
X168888Y52696D01*
X169176Y53094D01*
X169473Y53485D01*
X169780Y53868D01*
X170096Y54243D01*
X170421Y54611D01*
X170755Y54971D01*
X171098Y55322D01*
X171449Y55665D01*
X171809Y55999D01*
X172177Y56324D01*
X172552Y56640D01*
X172935Y56947D01*
X173326Y57244D01*
X173724Y57532D01*
X174129Y57809D01*
X174540Y58077D01*
X174958Y58335D01*
X175382Y58582D01*
X175812Y58818D01*
X176248Y59044D01*
X176689Y59260D01*
X177135Y59464D01*
X177586Y59658D01*
X178042Y59840D01*
X178502Y60011D01*
X178966Y60171D01*
X179434Y60319D01*
X179906Y60456D01*
X180380Y60581D01*
X180858Y60694D01*
X181338Y60796D01*
X181821Y60886D01*
X182305Y60964D01*
X182792Y61030D01*
X183280Y61084D01*
X183769Y61126D01*
X184259Y61156D01*
X184749Y61174D01*
X185240Y61180D01*
X185731Y61174D01*
X186221Y61156D01*
X186711Y61126D01*
X187200Y61084D01*
X187688Y61030D01*
X188175Y60964D01*
X188659Y60886D01*
X189142Y60796D01*
X189622Y60694D01*
X190100Y60581D01*
X190574Y60456D01*
X191046Y60319D01*
X191514Y60171D01*
X191978Y60011D01*
X192438Y59840D01*
X192894Y59658D01*
X193345Y59464D01*
X193791Y59260D01*
X194232Y59044D01*
X194668Y58818D01*
X195098Y58582D01*
X195522Y58335D01*
X195940Y58077D01*
X196351Y57809D01*
X196756Y57532D01*
X197154Y57244D01*
X197545Y56947D01*
X197928Y56640D01*
X198303Y56324D01*
X198671Y55999D01*
X199031Y55665D01*
X199382Y55322D01*
X199725Y54971D01*
X200059Y54611D01*
X200384Y54243D01*
X200700Y53868D01*
X201007Y53485D01*
X201304Y53094D01*
X201592Y52696D01*
X201869Y52291D01*
X202137Y51880D01*
X202395Y51462D01*
X202642Y51038D01*
X202878Y50608D01*
X203104Y50172D01*
X203320Y49731D01*
X203524Y49285D01*
X203718Y48834D01*
X203900Y48378D01*
X204071Y47918D01*
X204231Y47454D01*
X204379Y46986D01*
X204516Y46514D01*
X204641Y46040D01*
X204754Y45562D01*
X204856Y45082D01*
X204946Y44599D01*
X205024Y44115D01*
X205090Y43628D01*
X205144Y43140D01*
X205186Y42651D01*
X205216Y42161D01*
X205234Y41671D01*
X205240Y41180D01*
X205234Y40689D01*
X205216Y40199D01*
X205186Y39709D01*
X205144Y39220D01*
X205090Y38732D01*
X205024Y38245D01*
X204946Y37761D01*
X204856Y37278D01*
X204754Y36798D01*
X204641Y36320D01*
X204516Y35846D01*
X204379Y35374D01*
X204231Y34906D01*
X204071Y34442D01*
X203900Y33982D01*
X203718Y33526D01*
X203524Y33075D01*
X203320Y32629D01*
X203104Y32188D01*
X202878Y31752D01*
X202642Y31322D01*
X202395Y30898D01*
X202137Y30480D01*
X201869Y30069D01*
X201592Y29664D01*
X201304Y29266D01*
X201007Y28875D01*
X200700Y28492D01*
X200384Y28117D01*
X200059Y27749D01*
X199725Y27389D01*
X199382Y27038D01*
X199031Y26695D01*
X198671Y26361D01*
X198303Y26036D01*
X197928Y25720D01*
X197545Y25413D01*
X197154Y25116D01*
X196756Y24828D01*
X196351Y24551D01*
X195940Y24283D01*
X195522Y24025D01*
X195098Y23778D01*
X194668Y23542D01*
X194232Y23316D01*
X193791Y23100D01*
X193345Y22896D01*
X192894Y22702D01*
X192438Y22520D01*
X191978Y22349D01*
X191514Y22189D01*
X191046Y22041D01*
X190574Y21904D01*
X190100Y21779D01*
X189622Y21666D01*
X189142Y21564D01*
X188659Y21474D01*
X188175Y21396D01*
X187688Y21330D01*
X187200Y21276D01*
X186711Y21234D01*
X186221Y21204D01*
X185731Y21186D01*
X185240Y21180D01*
X184749Y21186D01*
X184259Y21204D01*
X183769Y21234D01*
X183280Y21276D01*
X182792Y21330D01*
X182305Y21396D01*
X181821Y21474D01*
X181338Y21564D01*
X180858Y21666D01*
X180380Y21779D01*
X179906Y21904D01*
X179434Y22041D01*
X178966Y22189D01*
X178502Y22349D01*
X178042Y22520D01*
X177586Y22702D01*
X177135Y22896D01*
X176689Y23100D01*
X176248Y23316D01*
X175812Y23542D01*
X175382Y23778D01*
X174958Y24025D01*
X174540Y24283D01*
X174129Y24551D01*
X173724Y24828D01*
X173326Y25116D01*
X172935Y25413D01*
X172552Y25720D01*
X172177Y26036D01*
X171809Y26361D01*
X171449Y26695D01*
X171098Y27038D01*
X170755Y27389D01*
X170421Y27749D01*
X170096Y28117D01*
X169780Y28492D01*
X169473Y28875D01*
X169176Y29266D01*
X168888Y29664D01*
X168611Y30069D01*
X168343Y30480D01*
X168085Y30898D01*
X167838Y31322D01*
X167602Y31752D01*
X167376Y32188D01*
X167160Y32629D01*
X166956Y33075D01*
X166762Y33526D01*
X166580Y33982D01*
X166409Y34442D01*
X166249Y34906D01*
X166101Y35374D01*
X165964Y35846D01*
X165839Y36320D01*
X165726Y36798D01*
X165624Y37278D01*
X165534Y37761D01*
X165456Y38245D01*
X165390Y38732D01*
X165336Y39220D01*
X165294Y39709D01*
X165264Y40199D01*
X165246Y40689D01*
X165240Y41180D01*
D12*
X420760Y408940D03*
X437760Y408940D03*
D24*
X494900Y459740D03*
D25*
X421900Y482540D03*
X421900Y436940D03*
D26*
X496820Y111760D03*
X468380Y111760D03*
D16*
X441960Y118500D03*
X441960Y135500D03*
X383540Y474100D03*
X383540Y491100D03*
X114300Y474100D03*
X114300Y491100D03*
X182880Y410600D03*
X182880Y427600D03*
D27*
X48260Y468880D02*
X48260Y494420D01*
X114300Y474100D02*
X138820Y474100D01*
X139700Y474980D01*
X139700Y474800D02*
X139700Y472440D01*
X139700Y474800D02*
X139700Y474980D01*
X139700Y474800D02*
X140000Y474500D01*
X348280Y474500D02*
X383140Y474500D01*
X383540Y474100D01*
X210820Y408940D02*
X184540Y408940D01*
X182880Y410600D01*
X145660Y410600D01*
X114300Y441960D01*
X114300Y474100D01*
X210820Y408940D02*
X210820Y396240D01*
X215900Y391160D01*
X368300Y391160D01*
X386080Y408940D01*
X386080Y411480D01*
X386080Y471560D01*
X383540Y474100D01*
X421900Y436940D02*
X421900Y410080D01*
X420760Y408940D01*
X388620Y408940D01*
X386080Y411480D01*
X515620Y383540D02*
X515620Y363220D01*
X515620Y383540D02*
X508000Y391160D01*
X426720Y391160D01*
X419100Y398780D01*
X419100Y407280D01*
X420760Y408940D01*
X112780Y440440D02*
X48260Y440440D01*
X112780Y440440D02*
X114300Y441960D01*
X471170Y190500D02*
X492760Y168910D01*
X471170Y190500D02*
X401320Y190500D01*
X388620Y203200D01*
X388620Y210820D01*
X453390Y182880D02*
X467360Y168910D01*
X453390Y182880D02*
X375920Y182880D01*
X363220Y195580D01*
X363220Y210820D01*
D28*
X33020Y251460D02*
X33020Y363220D01*
X33020Y251460D02*
X15240Y233680D01*
X15240Y198120D01*
X27940Y185420D01*
X27940Y157480D01*
X33020Y152400D01*
X154940Y152400D01*
X167640Y165100D01*
X167640Y170180D01*
D27*
X418220Y486220D02*
X418220Y513080D01*
X418220Y486220D02*
X421900Y482540D01*
D29*
X287900Y585860D02*
X287020Y586740D01*
D27*
X415970Y563405D02*
X415970Y516210D01*
X419100Y513080D01*
X418220Y513080D01*
X441960Y168910D02*
X441960Y135500D01*
D30*
X348280Y519500D02*
X339160Y519500D01*
X327660Y510540D01*
X287020Y510540D01*
X287020Y485140D01*
X251460Y485140D01*
X210820Y485140D01*
X210820Y510540D01*
X153600Y519500D02*
X140000Y519500D01*
X153600Y519500D02*
X162560Y510540D01*
X210820Y510540D01*
D29*
X435970Y563405D02*
X435970Y587650D01*
X414020Y604520D01*
X251460Y604520D01*
X248920Y604520D01*
X248920Y487680D01*
X251460Y485140D01*
D27*
X114300Y491100D02*
X114300Y502920D01*
X129540Y518160D01*
X138660Y518160D01*
X140000Y519500D01*
X383540Y505460D02*
X383540Y491100D01*
X383540Y505460D02*
X370840Y518160D01*
X349620Y518160D01*
X348280Y519500D01*
X182880Y472050D02*
X182880Y427600D01*
X182880Y472050D02*
X193040Y482210D01*
X207890Y482210D01*
X210820Y485140D01*
X437760Y408940D02*
X482600Y408940D01*
X492760Y419100D01*
X492760Y457200D02*
X492760Y457600D01*
X494900Y459740D01*
X477520Y513080D02*
X435220Y513080D01*
X477520Y513080D02*
X480060Y510540D01*
X492760Y457200D02*
X492760Y454660D01*
X435220Y562655D02*
X435970Y563405D01*
X93100Y511420D02*
X48260Y511420D01*
X93100Y511420D02*
X114300Y490220D01*
X114300Y491100D01*
X58420Y381000D02*
X58420Y363220D01*
X58420Y381000D02*
X25400Y414020D01*
X25400Y528320D01*
X111760Y607060D01*
X243840Y607060D01*
X251460Y604520D01*
D31*
X492760Y500380D02*
X492760Y457200D01*
X485140Y505460D02*
X480060Y510540D01*
X510540Y510540D01*
X515620Y505460D01*
X515620Y474980D01*
X515620Y416560D02*
X515620Y414020D01*
X515620Y416560D02*
X515620Y474980D01*
X525780Y474980D01*
X525780Y444500D01*
X492760Y444500D01*
X492760Y416560D01*
X492760Y414020D01*
X513080Y414020D01*
X515620Y416560D01*
X492760Y416560D01*
X469900Y416560D01*
X469900Y510540D01*
X482600Y510540D01*
X485140Y508000D01*
X485140Y505460D01*
X492760Y500380D01*
D29*
X435220Y537600D02*
X435220Y562655D01*
X435220Y537600D02*
X439420Y533400D01*
D27*
X439420Y528320D01*
X434340Y523240D01*
X434340Y513080D01*
X91440Y193040D02*
X91440Y170180D01*
X91440Y193040D02*
X109220Y210820D01*
X116840Y193040D02*
X116840Y170180D01*
X116840Y193040D02*
X134620Y210820D01*
X518160Y168910D02*
X518160Y133100D01*
X496820Y111760D01*
X468380Y111760D02*
X448700Y111760D01*
X441960Y118500D01*
X391160Y168910D02*
X328930Y168910D01*
X287020Y210820D01*
M02*
