G04 EAGLE Gerber X2 export*
G75*
%MOMM*%
%FSLAX34Y34*%
%LPD*%
%AMOC8*
5,1,8,0,0,1.08239X$1,22.5*%
G01*
%ADD10C,0.152400*%
%ADD11C,0.203200*%
%ADD12C,0.127000*%
%ADD13C,0.076200*%
%ADD14R,0.635000X0.635000*%
%ADD15C,0.254000*%
%ADD16C,0.101600*%
%ADD17R,0.762000X0.863600*%


D10*
X89771Y598520D02*
X87059Y601232D01*
X81636Y601232D01*
X78924Y598520D01*
X78924Y587674D01*
X81636Y584962D01*
X87059Y584962D01*
X89771Y587674D01*
X95296Y587674D02*
X95296Y601232D01*
X95296Y587674D02*
X98007Y584962D01*
X103431Y584962D01*
X106142Y587674D01*
X106142Y601232D01*
X111667Y601232D02*
X111667Y584962D01*
X111667Y601232D02*
X119802Y601232D01*
X122514Y598520D01*
X122514Y595809D01*
X119802Y593097D01*
X122514Y590385D01*
X122514Y587674D01*
X119802Y584962D01*
X111667Y584962D01*
X111667Y593097D02*
X119802Y593097D01*
X128039Y584962D02*
X133462Y584962D01*
X130750Y584962D02*
X130750Y601232D01*
X128039Y601232D02*
X133462Y601232D01*
X78924Y574562D02*
X78924Y558292D01*
X78924Y574562D02*
X87059Y574562D01*
X89771Y571850D01*
X89771Y566427D01*
X87059Y563715D01*
X78924Y563715D01*
X84347Y563715D02*
X89771Y558292D01*
X95296Y574562D02*
X106142Y574562D01*
X95296Y574562D02*
X95296Y558292D01*
X106142Y558292D01*
X100719Y566427D02*
X95296Y566427D01*
X111667Y563715D02*
X111667Y574562D01*
X111667Y563715D02*
X117090Y558292D01*
X122514Y563715D01*
X122514Y574562D01*
X144410Y571850D02*
X144410Y561004D01*
X144410Y571850D02*
X147122Y574562D01*
X152545Y574562D01*
X155257Y571850D01*
X155257Y561004D01*
X152545Y558292D01*
X147122Y558292D01*
X144410Y561004D01*
X155257Y571850D01*
X330962Y585477D02*
X341809Y585477D01*
X347334Y574630D02*
X358180Y574630D01*
X363705Y585477D02*
X374552Y585477D01*
X382788Y590900D02*
X382788Y596324D01*
X382788Y590900D02*
X380077Y588189D01*
X475728Y514529D02*
X483863Y503682D01*
X491998Y514529D01*
X491998Y520054D02*
X475728Y520054D01*
X475728Y528222D02*
X475728Y533646D01*
X475728Y528222D02*
X478440Y525511D01*
X489286Y525511D01*
X491998Y528222D01*
X491998Y533646D01*
X489286Y536357D01*
X478440Y536357D01*
X475728Y533646D01*
X494710Y541882D02*
X494710Y552729D01*
X475728Y560966D02*
X475728Y566389D01*
X475728Y560966D02*
X478440Y558254D01*
X489286Y558254D01*
X491998Y560966D01*
X491998Y566389D01*
X489286Y569100D01*
X478440Y569100D01*
X475728Y566389D01*
X475728Y574625D02*
X491998Y574625D01*
X475728Y580083D02*
X483863Y590929D01*
X491998Y580083D01*
D11*
X57785Y480060D02*
X38735Y480060D01*
D10*
X278130Y396240D02*
X278130Y599440D01*
X219710Y599440D02*
X219710Y396240D01*
X278130Y396240D01*
X278130Y599440D02*
X259080Y599440D01*
X238760Y599440D02*
X219710Y599440D01*
X238760Y599440D02*
X238763Y599193D01*
X238772Y598945D01*
X238787Y598698D01*
X238808Y598452D01*
X238835Y598206D01*
X238868Y597961D01*
X238907Y597716D01*
X238952Y597473D01*
X239003Y597231D01*
X239060Y596990D01*
X239122Y596751D01*
X239191Y596513D01*
X239265Y596277D01*
X239345Y596043D01*
X239430Y595811D01*
X239522Y595581D01*
X239618Y595353D01*
X239721Y595128D01*
X239828Y594905D01*
X239942Y594685D01*
X240060Y594468D01*
X240184Y594253D01*
X240313Y594042D01*
X240447Y593834D01*
X240586Y593629D01*
X240730Y593428D01*
X240878Y593230D01*
X241032Y593036D01*
X241190Y592846D01*
X241353Y592660D01*
X241520Y592478D01*
X241692Y592300D01*
X241868Y592126D01*
X242048Y591956D01*
X242233Y591791D01*
X242421Y591631D01*
X242613Y591475D01*
X242809Y591323D01*
X243008Y591177D01*
X243211Y591035D01*
X243418Y590899D01*
X243627Y590767D01*
X243840Y590641D01*
X244056Y590520D01*
X244274Y590404D01*
X244496Y590294D01*
X244720Y590189D01*
X244946Y590089D01*
X245175Y589995D01*
X245406Y589907D01*
X245640Y589824D01*
X245875Y589747D01*
X246112Y589676D01*
X246350Y589610D01*
X246590Y589551D01*
X246832Y589497D01*
X247075Y589449D01*
X247318Y589407D01*
X247563Y589371D01*
X247809Y589341D01*
X248055Y589317D01*
X248302Y589299D01*
X248549Y589287D01*
X248796Y589281D01*
X249044Y589281D01*
X249291Y589287D01*
X249538Y589299D01*
X249785Y589317D01*
X250031Y589341D01*
X250277Y589371D01*
X250522Y589407D01*
X250765Y589449D01*
X251008Y589497D01*
X251250Y589551D01*
X251490Y589610D01*
X251728Y589676D01*
X251965Y589747D01*
X252200Y589824D01*
X252434Y589907D01*
X252665Y589995D01*
X252894Y590089D01*
X253120Y590189D01*
X253344Y590294D01*
X253566Y590404D01*
X253784Y590520D01*
X254000Y590641D01*
X254213Y590767D01*
X254422Y590899D01*
X254629Y591035D01*
X254832Y591177D01*
X255031Y591323D01*
X255227Y591475D01*
X255419Y591631D01*
X255607Y591791D01*
X255792Y591956D01*
X255972Y592126D01*
X256148Y592300D01*
X256320Y592478D01*
X256487Y592660D01*
X256650Y592846D01*
X256808Y593036D01*
X256962Y593230D01*
X257110Y593428D01*
X257254Y593629D01*
X257393Y593834D01*
X257527Y594042D01*
X257656Y594253D01*
X257780Y594468D01*
X257898Y594685D01*
X258012Y594905D01*
X258119Y595128D01*
X258222Y595353D01*
X258318Y595581D01*
X258410Y595811D01*
X258495Y596043D01*
X258575Y596277D01*
X258649Y596513D01*
X258718Y596751D01*
X258780Y596990D01*
X258837Y597231D01*
X258888Y597473D01*
X258933Y597716D01*
X258972Y597961D01*
X259005Y598206D01*
X259032Y598452D01*
X259053Y598698D01*
X259068Y598945D01*
X259077Y599193D01*
X259080Y599440D01*
D12*
X396970Y540055D02*
X455470Y540055D01*
X396970Y540055D02*
X396970Y585055D01*
X455470Y585055D01*
X455470Y540055D01*
D13*
X413324Y579855D02*
X410867Y577398D01*
X413324Y579855D02*
X413324Y572483D01*
X410867Y572483D02*
X415782Y572483D01*
D14*
X426720Y581310D03*
D15*
X259080Y137160D02*
X259080Y124460D01*
X252730Y130810D02*
X265430Y130810D01*
D10*
X219710Y92710D02*
X219731Y94424D01*
X219794Y96137D01*
X219899Y97848D01*
X220046Y99556D01*
X220235Y101260D01*
X220466Y102959D01*
X220738Y104652D01*
X221052Y106337D01*
X221407Y108014D01*
X221803Y109682D01*
X222240Y111340D01*
X222718Y112986D01*
X223235Y114621D01*
X223793Y116242D01*
X224390Y117849D01*
X225027Y119440D01*
X225702Y121016D01*
X226416Y122575D01*
X227168Y124115D01*
X227958Y125637D01*
X228784Y127139D01*
X229648Y128620D01*
X230547Y130080D01*
X231482Y131517D01*
X232452Y132930D01*
X233456Y134320D01*
X234494Y135684D01*
X235565Y137022D01*
X236669Y138334D01*
X237805Y139618D01*
X238971Y140874D01*
X240169Y142101D01*
X241396Y143299D01*
X242652Y144465D01*
X243936Y145601D01*
X245248Y146705D01*
X246586Y147776D01*
X247950Y148814D01*
X249340Y149818D01*
X250753Y150788D01*
X252190Y151723D01*
X253650Y152622D01*
X255131Y153486D01*
X256633Y154312D01*
X258155Y155102D01*
X259695Y155854D01*
X261254Y156568D01*
X262830Y157243D01*
X264421Y157880D01*
X266028Y158477D01*
X267649Y159035D01*
X269284Y159552D01*
X270930Y160030D01*
X272588Y160467D01*
X274256Y160863D01*
X275933Y161218D01*
X277618Y161532D01*
X279311Y161804D01*
X281010Y162035D01*
X282714Y162224D01*
X284422Y162371D01*
X286133Y162476D01*
X287846Y162539D01*
X289560Y162560D01*
X291274Y162539D01*
X292987Y162476D01*
X294698Y162371D01*
X296406Y162224D01*
X298110Y162035D01*
X299809Y161804D01*
X301502Y161532D01*
X303187Y161218D01*
X304864Y160863D01*
X306532Y160467D01*
X308190Y160030D01*
X309836Y159552D01*
X311471Y159035D01*
X313092Y158477D01*
X314699Y157880D01*
X316290Y157243D01*
X317866Y156568D01*
X319425Y155854D01*
X320965Y155102D01*
X322487Y154312D01*
X323989Y153486D01*
X325470Y152622D01*
X326930Y151723D01*
X328367Y150788D01*
X329780Y149818D01*
X331170Y148814D01*
X332534Y147776D01*
X333872Y146705D01*
X335184Y145601D01*
X336468Y144465D01*
X337724Y143299D01*
X338951Y142101D01*
X340149Y140874D01*
X341315Y139618D01*
X342451Y138334D01*
X343555Y137022D01*
X344626Y135684D01*
X345664Y134320D01*
X346668Y132930D01*
X347638Y131517D01*
X348573Y130080D01*
X349472Y128620D01*
X350336Y127139D01*
X351162Y125637D01*
X351952Y124115D01*
X352704Y122575D01*
X353418Y121016D01*
X354093Y119440D01*
X354730Y117849D01*
X355327Y116242D01*
X355885Y114621D01*
X356402Y112986D01*
X356880Y111340D01*
X357317Y109682D01*
X357713Y108014D01*
X358068Y106337D01*
X358382Y104652D01*
X358654Y102959D01*
X358885Y101260D01*
X359074Y99556D01*
X359221Y97848D01*
X359326Y96137D01*
X359389Y94424D01*
X359410Y92710D01*
X359389Y90996D01*
X359326Y89283D01*
X359221Y87572D01*
X359074Y85864D01*
X358885Y84160D01*
X358654Y82461D01*
X358382Y80768D01*
X358068Y79083D01*
X357713Y77406D01*
X357317Y75738D01*
X356880Y74080D01*
X356402Y72434D01*
X355885Y70799D01*
X355327Y69178D01*
X354730Y67571D01*
X354093Y65980D01*
X353418Y64404D01*
X352704Y62845D01*
X351952Y61305D01*
X351162Y59783D01*
X350336Y58281D01*
X349472Y56800D01*
X348573Y55340D01*
X347638Y53903D01*
X346668Y52490D01*
X345664Y51100D01*
X344626Y49736D01*
X343555Y48398D01*
X342451Y47086D01*
X341315Y45802D01*
X340149Y44546D01*
X338951Y43319D01*
X337724Y42121D01*
X336468Y40955D01*
X335184Y39819D01*
X333872Y38715D01*
X332534Y37644D01*
X331170Y36606D01*
X329780Y35602D01*
X328367Y34632D01*
X326930Y33697D01*
X325470Y32798D01*
X323989Y31934D01*
X322487Y31108D01*
X320965Y30318D01*
X319425Y29566D01*
X317866Y28852D01*
X316290Y28177D01*
X314699Y27540D01*
X313092Y26943D01*
X311471Y26385D01*
X309836Y25868D01*
X308190Y25390D01*
X306532Y24953D01*
X304864Y24557D01*
X303187Y24202D01*
X301502Y23888D01*
X299809Y23616D01*
X298110Y23385D01*
X296406Y23196D01*
X294698Y23049D01*
X292987Y22944D01*
X291274Y22881D01*
X289560Y22860D01*
X287846Y22881D01*
X286133Y22944D01*
X284422Y23049D01*
X282714Y23196D01*
X281010Y23385D01*
X279311Y23616D01*
X277618Y23888D01*
X275933Y24202D01*
X274256Y24557D01*
X272588Y24953D01*
X270930Y25390D01*
X269284Y25868D01*
X267649Y26385D01*
X266028Y26943D01*
X264421Y27540D01*
X262830Y28177D01*
X261254Y28852D01*
X259695Y29566D01*
X258155Y30318D01*
X256633Y31108D01*
X255131Y31934D01*
X253650Y32798D01*
X252190Y33697D01*
X250753Y34632D01*
X249340Y35602D01*
X247950Y36606D01*
X246586Y37644D01*
X245248Y38715D01*
X243936Y39819D01*
X242652Y40955D01*
X241396Y42121D01*
X240169Y43319D01*
X238971Y44546D01*
X237805Y45802D01*
X236669Y47086D01*
X235565Y48398D01*
X234494Y49736D01*
X233456Y51100D01*
X232452Y52490D01*
X231482Y53903D01*
X230547Y55340D01*
X229648Y56800D01*
X228784Y58281D01*
X227958Y59783D01*
X227168Y61305D01*
X226416Y62845D01*
X225702Y64404D01*
X225027Y65980D01*
X224390Y67571D01*
X223793Y69178D01*
X223235Y70799D01*
X222718Y72434D01*
X222240Y74080D01*
X221803Y75738D01*
X221407Y77406D01*
X221052Y79083D01*
X220738Y80768D01*
X220466Y82461D01*
X220235Y84160D01*
X220046Y85864D01*
X219899Y87572D01*
X219794Y89283D01*
X219731Y90996D01*
X219710Y92710D01*
X276860Y92710D02*
X276864Y93022D01*
X276875Y93333D01*
X276894Y93644D01*
X276921Y93955D01*
X276956Y94265D01*
X276997Y94573D01*
X277047Y94881D01*
X277104Y95188D01*
X277169Y95493D01*
X277241Y95796D01*
X277320Y96097D01*
X277407Y96397D01*
X277501Y96694D01*
X277602Y96989D01*
X277711Y97281D01*
X277827Y97570D01*
X277950Y97857D01*
X278079Y98140D01*
X278216Y98420D01*
X278360Y98697D01*
X278510Y98970D01*
X278667Y99239D01*
X278830Y99504D01*
X279000Y99766D01*
X279177Y100023D01*
X279359Y100275D01*
X279548Y100523D01*
X279743Y100767D01*
X279943Y101005D01*
X280150Y101239D01*
X280362Y101467D01*
X280580Y101690D01*
X280803Y101908D01*
X281031Y102120D01*
X281265Y102327D01*
X281503Y102527D01*
X281747Y102722D01*
X281995Y102911D01*
X282247Y103093D01*
X282504Y103270D01*
X282766Y103440D01*
X283031Y103603D01*
X283300Y103760D01*
X283573Y103910D01*
X283850Y104054D01*
X284130Y104191D01*
X284413Y104320D01*
X284700Y104443D01*
X284989Y104559D01*
X285281Y104668D01*
X285576Y104769D01*
X285873Y104863D01*
X286173Y104950D01*
X286474Y105029D01*
X286777Y105101D01*
X287082Y105166D01*
X287389Y105223D01*
X287697Y105273D01*
X288005Y105314D01*
X288315Y105349D01*
X288626Y105376D01*
X288937Y105395D01*
X289248Y105406D01*
X289560Y105410D01*
X289872Y105406D01*
X290183Y105395D01*
X290494Y105376D01*
X290805Y105349D01*
X291115Y105314D01*
X291423Y105273D01*
X291731Y105223D01*
X292038Y105166D01*
X292343Y105101D01*
X292646Y105029D01*
X292947Y104950D01*
X293247Y104863D01*
X293544Y104769D01*
X293839Y104668D01*
X294131Y104559D01*
X294420Y104443D01*
X294707Y104320D01*
X294990Y104191D01*
X295270Y104054D01*
X295547Y103910D01*
X295820Y103760D01*
X296089Y103603D01*
X296354Y103440D01*
X296616Y103270D01*
X296873Y103093D01*
X297125Y102911D01*
X297373Y102722D01*
X297617Y102527D01*
X297855Y102327D01*
X298089Y102120D01*
X298317Y101908D01*
X298540Y101690D01*
X298758Y101467D01*
X298970Y101239D01*
X299177Y101005D01*
X299377Y100767D01*
X299572Y100523D01*
X299761Y100275D01*
X299943Y100023D01*
X300120Y99766D01*
X300290Y99504D01*
X300453Y99239D01*
X300610Y98970D01*
X300760Y98697D01*
X300904Y98420D01*
X301041Y98140D01*
X301170Y97857D01*
X301293Y97570D01*
X301409Y97281D01*
X301518Y96989D01*
X301619Y96694D01*
X301713Y96397D01*
X301800Y96097D01*
X301879Y95796D01*
X301951Y95493D01*
X302016Y95188D01*
X302073Y94881D01*
X302123Y94573D01*
X302164Y94265D01*
X302199Y93955D01*
X302226Y93644D01*
X302245Y93333D01*
X302256Y93022D01*
X302260Y92710D01*
X302256Y92398D01*
X302245Y92087D01*
X302226Y91776D01*
X302199Y91465D01*
X302164Y91155D01*
X302123Y90847D01*
X302073Y90539D01*
X302016Y90232D01*
X301951Y89927D01*
X301879Y89624D01*
X301800Y89323D01*
X301713Y89023D01*
X301619Y88726D01*
X301518Y88431D01*
X301409Y88139D01*
X301293Y87850D01*
X301170Y87563D01*
X301041Y87280D01*
X300904Y87000D01*
X300760Y86723D01*
X300610Y86450D01*
X300453Y86181D01*
X300290Y85916D01*
X300120Y85654D01*
X299943Y85397D01*
X299761Y85145D01*
X299572Y84897D01*
X299377Y84653D01*
X299177Y84415D01*
X298970Y84181D01*
X298758Y83953D01*
X298540Y83730D01*
X298317Y83512D01*
X298089Y83300D01*
X297855Y83093D01*
X297617Y82893D01*
X297373Y82698D01*
X297125Y82509D01*
X296873Y82327D01*
X296616Y82150D01*
X296354Y81980D01*
X296089Y81817D01*
X295820Y81660D01*
X295547Y81510D01*
X295270Y81366D01*
X294990Y81229D01*
X294707Y81100D01*
X294420Y80977D01*
X294131Y80861D01*
X293839Y80752D01*
X293544Y80651D01*
X293247Y80557D01*
X292947Y80470D01*
X292646Y80391D01*
X292343Y80319D01*
X292038Y80254D01*
X291731Y80197D01*
X291423Y80147D01*
X291115Y80106D01*
X290805Y80071D01*
X290494Y80044D01*
X290183Y80025D01*
X289872Y80014D01*
X289560Y80010D01*
X289248Y80014D01*
X288937Y80025D01*
X288626Y80044D01*
X288315Y80071D01*
X288005Y80106D01*
X287697Y80147D01*
X287389Y80197D01*
X287082Y80254D01*
X286777Y80319D01*
X286474Y80391D01*
X286173Y80470D01*
X285873Y80557D01*
X285576Y80651D01*
X285281Y80752D01*
X284989Y80861D01*
X284700Y80977D01*
X284413Y81100D01*
X284130Y81229D01*
X283850Y81366D01*
X283573Y81510D01*
X283300Y81660D01*
X283031Y81817D01*
X282766Y81980D01*
X282504Y82150D01*
X282247Y82327D01*
X281995Y82509D01*
X281747Y82698D01*
X281503Y82893D01*
X281265Y83093D01*
X281031Y83300D01*
X280803Y83512D01*
X280580Y83730D01*
X280362Y83953D01*
X280150Y84181D01*
X279943Y84415D01*
X279743Y84653D01*
X279548Y84897D01*
X279359Y85145D01*
X279177Y85397D01*
X279000Y85654D01*
X278830Y85916D01*
X278667Y86181D01*
X278510Y86450D01*
X278360Y86723D01*
X278216Y87000D01*
X278079Y87280D01*
X277950Y87563D01*
X277827Y87850D01*
X277711Y88139D01*
X277602Y88431D01*
X277501Y88726D01*
X277407Y89023D01*
X277320Y89323D01*
X277241Y89624D01*
X277169Y89927D01*
X277104Y90232D01*
X277047Y90539D01*
X276997Y90847D01*
X276956Y91155D01*
X276921Y91465D01*
X276894Y91776D01*
X276875Y92087D01*
X276864Y92398D01*
X276860Y92710D01*
X246380Y130810D02*
X246384Y131122D01*
X246395Y131433D01*
X246414Y131744D01*
X246441Y132055D01*
X246476Y132365D01*
X246517Y132673D01*
X246567Y132981D01*
X246624Y133288D01*
X246689Y133593D01*
X246761Y133896D01*
X246840Y134197D01*
X246927Y134497D01*
X247021Y134794D01*
X247122Y135089D01*
X247231Y135381D01*
X247347Y135670D01*
X247470Y135957D01*
X247599Y136240D01*
X247736Y136520D01*
X247880Y136797D01*
X248030Y137070D01*
X248187Y137339D01*
X248350Y137604D01*
X248520Y137866D01*
X248697Y138123D01*
X248879Y138375D01*
X249068Y138623D01*
X249263Y138867D01*
X249463Y139105D01*
X249670Y139339D01*
X249882Y139567D01*
X250100Y139790D01*
X250323Y140008D01*
X250551Y140220D01*
X250785Y140427D01*
X251023Y140627D01*
X251267Y140822D01*
X251515Y141011D01*
X251767Y141193D01*
X252024Y141370D01*
X252286Y141540D01*
X252551Y141703D01*
X252820Y141860D01*
X253093Y142010D01*
X253370Y142154D01*
X253650Y142291D01*
X253933Y142420D01*
X254220Y142543D01*
X254509Y142659D01*
X254801Y142768D01*
X255096Y142869D01*
X255393Y142963D01*
X255693Y143050D01*
X255994Y143129D01*
X256297Y143201D01*
X256602Y143266D01*
X256909Y143323D01*
X257217Y143373D01*
X257525Y143414D01*
X257835Y143449D01*
X258146Y143476D01*
X258457Y143495D01*
X258768Y143506D01*
X259080Y143510D01*
X259392Y143506D01*
X259703Y143495D01*
X260014Y143476D01*
X260325Y143449D01*
X260635Y143414D01*
X260943Y143373D01*
X261251Y143323D01*
X261558Y143266D01*
X261863Y143201D01*
X262166Y143129D01*
X262467Y143050D01*
X262767Y142963D01*
X263064Y142869D01*
X263359Y142768D01*
X263651Y142659D01*
X263940Y142543D01*
X264227Y142420D01*
X264510Y142291D01*
X264790Y142154D01*
X265067Y142010D01*
X265340Y141860D01*
X265609Y141703D01*
X265874Y141540D01*
X266136Y141370D01*
X266393Y141193D01*
X266645Y141011D01*
X266893Y140822D01*
X267137Y140627D01*
X267375Y140427D01*
X267609Y140220D01*
X267837Y140008D01*
X268060Y139790D01*
X268278Y139567D01*
X268490Y139339D01*
X268697Y139105D01*
X268897Y138867D01*
X269092Y138623D01*
X269281Y138375D01*
X269463Y138123D01*
X269640Y137866D01*
X269810Y137604D01*
X269973Y137339D01*
X270130Y137070D01*
X270280Y136797D01*
X270424Y136520D01*
X270561Y136240D01*
X270690Y135957D01*
X270813Y135670D01*
X270929Y135381D01*
X271038Y135089D01*
X271139Y134794D01*
X271233Y134497D01*
X271320Y134197D01*
X271399Y133896D01*
X271471Y133593D01*
X271536Y133288D01*
X271593Y132981D01*
X271643Y132673D01*
X271684Y132365D01*
X271719Y132055D01*
X271746Y131744D01*
X271765Y131433D01*
X271776Y131122D01*
X271780Y130810D01*
X271776Y130498D01*
X271765Y130187D01*
X271746Y129876D01*
X271719Y129565D01*
X271684Y129255D01*
X271643Y128947D01*
X271593Y128639D01*
X271536Y128332D01*
X271471Y128027D01*
X271399Y127724D01*
X271320Y127423D01*
X271233Y127123D01*
X271139Y126826D01*
X271038Y126531D01*
X270929Y126239D01*
X270813Y125950D01*
X270690Y125663D01*
X270561Y125380D01*
X270424Y125100D01*
X270280Y124823D01*
X270130Y124550D01*
X269973Y124281D01*
X269810Y124016D01*
X269640Y123754D01*
X269463Y123497D01*
X269281Y123245D01*
X269092Y122997D01*
X268897Y122753D01*
X268697Y122515D01*
X268490Y122281D01*
X268278Y122053D01*
X268060Y121830D01*
X267837Y121612D01*
X267609Y121400D01*
X267375Y121193D01*
X267137Y120993D01*
X266893Y120798D01*
X266645Y120609D01*
X266393Y120427D01*
X266136Y120250D01*
X265874Y120080D01*
X265609Y119917D01*
X265340Y119760D01*
X265067Y119610D01*
X264790Y119466D01*
X264510Y119329D01*
X264227Y119200D01*
X263940Y119077D01*
X263651Y118961D01*
X263359Y118852D01*
X263064Y118751D01*
X262767Y118657D01*
X262467Y118570D01*
X262166Y118491D01*
X261863Y118419D01*
X261558Y118354D01*
X261251Y118297D01*
X260943Y118247D01*
X260635Y118206D01*
X260325Y118171D01*
X260014Y118144D01*
X259703Y118125D01*
X259392Y118114D01*
X259080Y118110D01*
X258768Y118114D01*
X258457Y118125D01*
X258146Y118144D01*
X257835Y118171D01*
X257525Y118206D01*
X257217Y118247D01*
X256909Y118297D01*
X256602Y118354D01*
X256297Y118419D01*
X255994Y118491D01*
X255693Y118570D01*
X255393Y118657D01*
X255096Y118751D01*
X254801Y118852D01*
X254509Y118961D01*
X254220Y119077D01*
X253933Y119200D01*
X253650Y119329D01*
X253370Y119466D01*
X253093Y119610D01*
X252820Y119760D01*
X252551Y119917D01*
X252286Y120080D01*
X252024Y120250D01*
X251767Y120427D01*
X251515Y120609D01*
X251267Y120798D01*
X251023Y120993D01*
X250785Y121193D01*
X250551Y121400D01*
X250323Y121612D01*
X250100Y121830D01*
X249882Y122053D01*
X249670Y122281D01*
X249463Y122515D01*
X249263Y122753D01*
X249068Y122997D01*
X248879Y123245D01*
X248697Y123497D01*
X248520Y123754D01*
X248350Y124016D01*
X248187Y124281D01*
X248030Y124550D01*
X247880Y124823D01*
X247736Y125100D01*
X247599Y125380D01*
X247470Y125663D01*
X247347Y125950D01*
X247231Y126239D01*
X247122Y126531D01*
X247021Y126826D01*
X246927Y127123D01*
X246840Y127423D01*
X246761Y127724D01*
X246689Y128027D01*
X246624Y128332D01*
X246567Y128639D01*
X246517Y128947D01*
X246476Y129255D01*
X246441Y129565D01*
X246414Y129876D01*
X246395Y130187D01*
X246384Y130498D01*
X246380Y130810D01*
D12*
X524510Y181610D02*
X537210Y181610D01*
X524510Y181610D02*
X511810Y181610D01*
X499110Y181610D01*
X486410Y181610D01*
X473710Y181610D01*
X461010Y181610D01*
X372110Y181610D01*
X372110Y-186690D01*
X388620Y-186690D01*
X520700Y-186690D01*
X537210Y-186690D01*
X537210Y181610D01*
X454660Y162560D02*
X448310Y156210D01*
X435610Y156210D01*
X429260Y162560D01*
X422910Y156210D01*
X410210Y156210D01*
X403860Y162560D01*
X397510Y156210D01*
X384810Y156210D01*
X378460Y175260D02*
X384810Y181610D01*
X397510Y181610D02*
X403860Y175260D01*
X410210Y181610D01*
X422910Y181610D02*
X429260Y175260D01*
X435610Y181610D01*
X448310Y181610D02*
X454660Y175260D01*
X378460Y175260D02*
X378460Y162560D01*
X384810Y156210D01*
X454660Y162560D02*
X461010Y156210D01*
X473710Y156210D01*
X480060Y162560D01*
X486410Y156210D01*
X499110Y156210D01*
X505460Y162560D01*
X511810Y156210D01*
X524510Y156210D01*
X530860Y162560D01*
X530860Y175260D01*
X524510Y181610D01*
X511810Y181610D02*
X505460Y175260D01*
X499110Y181610D01*
X486410Y181610D02*
X480060Y175260D01*
X473710Y181610D01*
X461010Y181610D02*
X454660Y175260D01*
X520700Y-148590D02*
X520700Y-186690D01*
X520700Y-148590D02*
X520700Y80010D01*
X388620Y80010D01*
X388620Y-148590D01*
D16*
X512308Y97745D02*
X514257Y99694D01*
X512308Y97745D02*
X512308Y93847D01*
X514257Y91898D01*
X516206Y91898D01*
X518155Y93847D01*
X518155Y97745D01*
X520104Y99694D01*
X522053Y99694D01*
X524002Y97745D01*
X524002Y93847D01*
X522053Y91898D01*
X524002Y107490D02*
X512308Y107490D01*
X512308Y103592D02*
X512308Y111388D01*
X516206Y115286D02*
X524002Y115286D01*
X516206Y115286D02*
X512308Y119184D01*
X516206Y123082D01*
X524002Y123082D01*
X518155Y123082D02*
X518155Y115286D01*
X524002Y130878D02*
X512308Y130878D01*
X512308Y126980D02*
X512308Y134776D01*
X512308Y138674D02*
X512308Y146470D01*
X512308Y138674D02*
X524002Y138674D01*
X524002Y146470D01*
X518155Y142572D02*
X518155Y138674D01*
X498602Y126980D02*
X486908Y126980D01*
X486908Y132827D01*
X488857Y134776D01*
X492755Y134776D01*
X494704Y132827D01*
X494704Y126980D01*
X494704Y130878D02*
X498602Y134776D01*
X498602Y146470D02*
X486908Y138674D01*
X486908Y146470D02*
X498602Y138674D01*
X473202Y130878D02*
X461508Y130878D01*
X461508Y126980D02*
X461508Y134776D01*
X461508Y138674D02*
X473202Y146470D01*
X473202Y138674D02*
X461508Y146470D01*
X438057Y123082D02*
X436108Y121133D01*
X436108Y117235D01*
X438057Y115286D01*
X445853Y115286D01*
X447802Y117235D01*
X447802Y121133D01*
X445853Y123082D01*
X441955Y123082D01*
X441955Y119184D01*
X447802Y126980D02*
X436108Y126980D01*
X447802Y134776D01*
X436108Y134776D01*
X436108Y138674D02*
X447802Y138674D01*
X447802Y144521D01*
X445853Y146470D01*
X438057Y146470D01*
X436108Y144521D01*
X436108Y138674D01*
X416555Y123082D02*
X416555Y115286D01*
X412657Y119184D02*
X420453Y119184D01*
X410708Y126980D02*
X410708Y134776D01*
X410708Y126980D02*
X416555Y126980D01*
X414606Y130878D01*
X414606Y132827D01*
X416555Y134776D01*
X420453Y134776D01*
X422402Y132827D01*
X422402Y128929D01*
X420453Y126980D01*
X418504Y138674D02*
X410708Y138674D01*
X418504Y138674D02*
X422402Y142572D01*
X418504Y146470D01*
X410708Y146470D01*
X385308Y134776D02*
X385308Y126980D01*
X397002Y126980D01*
X397002Y134776D01*
X391155Y130878D02*
X391155Y126980D01*
X397002Y138674D02*
X385308Y138674D01*
X397002Y146470D01*
X385308Y146470D01*
D12*
X388620Y-148590D02*
X388620Y-186690D01*
X388620Y-148590D02*
X520700Y-148590D01*
X406180Y-165304D02*
X406180Y-174625D01*
X406180Y-165304D02*
X410841Y-160643D01*
X415502Y-165304D01*
X415502Y-174625D01*
X415502Y-167634D02*
X406180Y-167634D01*
X420213Y-174625D02*
X420213Y-160643D01*
X429534Y-174625D01*
X429534Y-160643D01*
X438906Y-160643D02*
X438906Y-174625D01*
X434246Y-160643D02*
X443567Y-160643D01*
X448279Y-160643D02*
X457600Y-160643D01*
X448279Y-160643D02*
X448279Y-174625D01*
X457600Y-174625D01*
X452939Y-167634D02*
X448279Y-167634D01*
X462311Y-174625D02*
X462311Y-160643D01*
X471633Y-174625D01*
X471633Y-160643D01*
X476344Y-160643D02*
X476344Y-174625D01*
X485665Y-174625D02*
X476344Y-160643D01*
X485665Y-160643D02*
X485665Y-174625D01*
X490377Y-174625D02*
X490377Y-165304D01*
X495038Y-160643D01*
X499698Y-165304D01*
X499698Y-174625D01*
X499698Y-167634D02*
X490377Y-167634D01*
X334580Y444500D02*
X334580Y549500D01*
X369580Y549500D01*
X369580Y444500D01*
X334580Y444500D01*
X126300Y444500D02*
X126300Y549500D01*
X161300Y549500D01*
X161300Y444500D01*
X126300Y444500D01*
D16*
X193538Y79022D02*
X201334Y79022D01*
X205232Y82920D01*
X201334Y86818D01*
X193538Y86818D01*
X193538Y96563D02*
X195487Y98512D01*
X193538Y96563D02*
X193538Y92665D01*
X195487Y90716D01*
X203283Y90716D01*
X205232Y92665D01*
X205232Y96563D01*
X203283Y98512D01*
X193538Y108257D02*
X195487Y110206D01*
X193538Y108257D02*
X193538Y104359D01*
X195487Y102410D01*
X203283Y102410D01*
X205232Y104359D01*
X205232Y108257D01*
X203283Y110206D01*
X207181Y114104D02*
X207181Y121900D01*
X205232Y125798D02*
X205232Y129696D01*
X205232Y127747D02*
X193538Y127747D01*
X193538Y125798D02*
X193538Y129696D01*
X193538Y133594D02*
X205232Y133594D01*
X205232Y141390D02*
X193538Y133594D01*
X193538Y141390D02*
X205232Y141390D01*
X170087Y104359D02*
X168138Y106308D01*
X168138Y110206D01*
X170087Y112155D01*
X172036Y112155D01*
X173985Y110206D01*
X173985Y108257D01*
X173985Y110206D02*
X175934Y112155D01*
X177883Y112155D01*
X179832Y110206D01*
X179832Y106308D01*
X177883Y104359D01*
X177883Y116053D02*
X179832Y116053D01*
X177883Y116053D02*
X177883Y118002D01*
X179832Y118002D01*
X179832Y116053D01*
X170087Y121900D02*
X168138Y123849D01*
X168138Y127747D01*
X170087Y129696D01*
X172036Y129696D01*
X173985Y127747D01*
X173985Y125798D01*
X173985Y127747D02*
X175934Y129696D01*
X177883Y129696D01*
X179832Y127747D01*
X179832Y123849D01*
X177883Y121900D01*
X175934Y133594D02*
X168138Y133594D01*
X175934Y133594D02*
X179832Y137492D01*
X175934Y141390D01*
X168138Y141390D01*
X144687Y118002D02*
X142738Y116053D01*
X142738Y112155D01*
X144687Y110206D01*
X152483Y110206D01*
X154432Y112155D01*
X154432Y116053D01*
X152483Y118002D01*
X148585Y118002D01*
X148585Y114104D01*
X154432Y121900D02*
X142738Y121900D01*
X154432Y129696D01*
X142738Y129696D01*
X142738Y133594D02*
X154432Y133594D01*
X154432Y139441D01*
X152483Y141390D01*
X144687Y141390D01*
X142738Y139441D01*
X142738Y133594D01*
X119287Y118002D02*
X117338Y116053D01*
X117338Y112155D01*
X119287Y110206D01*
X121236Y110206D01*
X123185Y112155D01*
X123185Y116053D01*
X125134Y118002D01*
X127083Y118002D01*
X129032Y116053D01*
X129032Y112155D01*
X127083Y110206D01*
X117338Y127747D02*
X119287Y129696D01*
X117338Y127747D02*
X117338Y123849D01*
X119287Y121900D01*
X127083Y121900D01*
X129032Y123849D01*
X129032Y127747D01*
X127083Y129696D01*
X129032Y133594D02*
X117338Y133594D01*
X129032Y133594D02*
X129032Y141390D01*
X93887Y118002D02*
X91938Y116053D01*
X91938Y112155D01*
X93887Y110206D01*
X95836Y110206D01*
X97785Y112155D01*
X97785Y116053D01*
X99734Y118002D01*
X101683Y118002D01*
X103632Y116053D01*
X103632Y112155D01*
X101683Y110206D01*
X103632Y121900D02*
X91938Y121900D01*
X103632Y121900D02*
X103632Y127747D01*
X101683Y129696D01*
X93887Y129696D01*
X91938Y127747D01*
X91938Y121900D01*
X95836Y133594D02*
X103632Y133594D01*
X95836Y133594D02*
X91938Y137492D01*
X95836Y141390D01*
X103632Y141390D01*
X97785Y141390D02*
X97785Y133594D01*
X78232Y75124D02*
X66538Y75124D01*
X70436Y79022D01*
X66538Y82920D01*
X78232Y82920D01*
X80181Y86818D02*
X80181Y94614D01*
X78232Y98512D02*
X66538Y98512D01*
X78232Y98512D02*
X78232Y104359D01*
X76283Y106308D01*
X68487Y106308D01*
X66538Y104359D01*
X66538Y98512D01*
X66538Y110206D02*
X78232Y110206D01*
X66538Y110206D02*
X66538Y116053D01*
X68487Y118002D01*
X72385Y118002D01*
X74334Y116053D01*
X74334Y110206D01*
X74334Y114104D02*
X78232Y118002D01*
X78232Y121900D02*
X66538Y121900D01*
X78232Y121900D02*
X78232Y127747D01*
X76283Y129696D01*
X68487Y129696D01*
X66538Y127747D01*
X66538Y121900D01*
X66538Y133594D02*
X68487Y133594D01*
X72385Y137492D01*
X68487Y141390D01*
X66538Y141390D01*
X72385Y137492D02*
X78232Y137492D01*
X52832Y79022D02*
X45036Y79022D01*
X41138Y82920D01*
X45036Y86818D01*
X52832Y86818D01*
X46985Y86818D02*
X46985Y79022D01*
X54781Y90716D02*
X54781Y98512D01*
X52832Y102410D02*
X52832Y106308D01*
X52832Y104359D02*
X41138Y104359D01*
X41138Y102410D02*
X41138Y106308D01*
X41138Y110206D02*
X52832Y110206D01*
X52832Y118002D02*
X41138Y110206D01*
X41138Y118002D02*
X52832Y118002D01*
X52832Y125798D02*
X41138Y125798D01*
X41138Y121900D02*
X41138Y129696D01*
X45036Y133594D02*
X41138Y137492D01*
X52832Y137492D01*
X52832Y133594D02*
X52832Y141390D01*
X17687Y98512D02*
X15738Y96563D01*
X15738Y92665D01*
X17687Y90716D01*
X25483Y90716D01*
X27432Y92665D01*
X27432Y96563D01*
X25483Y98512D01*
X21585Y98512D01*
X21585Y94614D01*
X29381Y102410D02*
X29381Y110206D01*
X27432Y114104D02*
X27432Y118002D01*
X27432Y116053D02*
X15738Y116053D01*
X15738Y114104D02*
X15738Y118002D01*
X15738Y121900D02*
X27432Y121900D01*
X27432Y129696D02*
X15738Y121900D01*
X15738Y129696D02*
X27432Y129696D01*
X27432Y137492D02*
X15738Y137492D01*
X15738Y133594D02*
X15738Y141390D01*
D12*
X2540Y182880D02*
X205740Y182880D01*
X205740Y5080D01*
X2540Y5080D01*
X2540Y182880D01*
D11*
X448310Y426970D02*
X508254Y426974D01*
X448310Y426970D02*
X448310Y492510D01*
X508254Y492506D01*
D17*
X443484Y459740D03*
D11*
X457200Y121285D02*
X457200Y102235D01*
M02*
