G04 EAGLE Gerber X2 export*
G75*
%MOMM*%
%FSLAX34Y34*%
%LPD*%
%AMOC8*
5,1,8,0,0,1.08239X$1,22.5*%
G01*
%ADD10C,3.203200*%
%ADD11R,1.303200X1.203200*%
%ADD12R,2.006200X1.803200*%
%ADD13C,1.524000*%
%ADD14C,1.511200*%
%ADD15R,1.203200X1.303200*%
%ADD16P,2.969212X8X112.500000*%
%ADD17R,2.082800X2.082800*%
%ADD18C,2.082800*%
%ADD19C,1.711200*%
%ADD20R,1.711200X1.711200*%
%ADD21C,1.411200*%
%ADD22R,1.981200X1.981200*%
%ADD23C,4.203200*%
%ADD24R,6.403200X5.603200*%
%ADD25R,1.803200X1.203200*%
%ADD26R,1.803200X2.006200*%


D10*
X520700Y596900D03*
X25400Y596900D03*
X25400Y25400D03*
X520700Y25400D03*
D11*
X418220Y513080D03*
X435220Y513080D03*
D12*
X48260Y440440D03*
X48260Y468880D03*
D13*
X204216Y586740D02*
X217424Y586740D01*
X217424Y561340D02*
X204216Y561340D01*
X204216Y434340D02*
X217424Y434340D01*
X217424Y408940D02*
X204216Y408940D01*
X204216Y535940D02*
X217424Y535940D01*
X217424Y510540D02*
X204216Y510540D01*
X204216Y459740D02*
X217424Y459740D01*
X217424Y485140D02*
X204216Y485140D01*
X280416Y408940D02*
X293624Y408940D01*
X293624Y434340D02*
X280416Y434340D01*
X280416Y459740D02*
X293624Y459740D01*
X293624Y485140D02*
X280416Y485140D01*
X280416Y510540D02*
X293624Y510540D01*
X293624Y535940D02*
X280416Y535940D01*
X280416Y561340D02*
X293624Y561340D01*
X293624Y586740D02*
X280416Y586740D01*
D14*
X435970Y569945D02*
X435970Y556865D01*
X415970Y556865D02*
X415970Y569945D01*
D15*
X48260Y494420D03*
X48260Y511420D03*
D16*
X289560Y54610D03*
X289560Y130810D03*
D17*
X33020Y210820D03*
D18*
X58420Y210820D03*
X83820Y210820D03*
X109220Y210820D03*
X134620Y210820D03*
X160020Y210820D03*
X185420Y210820D03*
X210820Y210820D03*
X236220Y210820D03*
X261620Y210820D03*
X287020Y210820D03*
X312420Y210820D03*
X337820Y210820D03*
X363220Y210820D03*
X388620Y210820D03*
X414020Y210820D03*
X439420Y210820D03*
X464820Y210820D03*
X490220Y210820D03*
X515620Y210820D03*
X515620Y363220D03*
X490220Y363220D03*
X464820Y363220D03*
X439420Y363220D03*
X414020Y363220D03*
X388620Y363220D03*
X363220Y363220D03*
X337820Y363220D03*
X312420Y363220D03*
X287020Y363220D03*
X261620Y363220D03*
X236220Y363220D03*
X210820Y363220D03*
X185420Y363220D03*
X160020Y363220D03*
X134620Y363220D03*
X109220Y363220D03*
X83820Y363220D03*
X58420Y363220D03*
X33020Y363220D03*
D19*
X492760Y168910D03*
D20*
X518160Y168910D03*
D19*
X467360Y168910D03*
X441960Y168910D03*
X416560Y168910D03*
X391160Y168910D03*
D21*
X348280Y459500D03*
X348280Y474500D03*
X348280Y489500D03*
X348280Y504500D03*
X348280Y519500D03*
X348280Y534500D03*
X140000Y459500D03*
X140000Y474500D03*
X140000Y489500D03*
X140000Y504500D03*
X140000Y519500D03*
X140000Y534500D03*
D22*
X15240Y170180D03*
X40640Y170180D03*
X66040Y170180D03*
X91440Y170180D03*
X116840Y170180D03*
X142240Y170180D03*
X167640Y170180D03*
X193040Y170180D03*
D23*
X185240Y41180D03*
D11*
X420760Y408940D03*
X437760Y408940D03*
D24*
X494900Y459740D03*
D25*
X421900Y482540D03*
X421900Y436940D03*
D26*
X496820Y111760D03*
X468380Y111760D03*
D15*
X441960Y118500D03*
X441960Y135500D03*
X383540Y474100D03*
X383540Y491100D03*
X114300Y474100D03*
X114300Y491100D03*
X182880Y410600D03*
X182880Y427600D03*
M02*
