M48
;GenerationSoftware,Autodesk,EAGLE,8.7.0*%
;CreationDate,2018-04-08T21:10:38Z*%
FMAT,2
ICI,OFF
METRIC,TZ,000.000
T8C0.700
T7C0.800
T6C0.813
T5C1.000
T4C1.016
T3C3.000
T2C4.000
%
G90
M71
T2
X18524Y4118
T3
X52070Y59690
X2540Y59690
X2540Y2540
X52070Y2540
T4
X28702Y36322
X38862Y21082
X31242Y36322
X33782Y36322
X36322Y36322
X38862Y36322
X41402Y36322
X43942Y36322
X46482Y36322
X49022Y36322
X51562Y36322
X51562Y21082
X49022Y21082
X46482Y21082
X43942Y21082
X41402Y21082
X19304Y17018
X5842Y36322
X16764Y17018
X14224Y17018
X11684Y17018
X9144Y17018
X6604Y17018
X4064Y17018
X1524Y17018
X3302Y36322
X26162Y36322
X8382Y36322
X10922Y36322
X13462Y36322
X16002Y36322
X18542Y36322
X21082Y36322
X23622Y36322
X8382Y21082
X36322Y21082
X28956Y5461
X28956Y13081
X3302Y21082
X5842Y21082
X10922Y21082
X13462Y21082
X16002Y21082
X18542Y21082
X21082Y21082
X23622Y21082
X26162Y21082
X28702Y21082
X31242Y21082
X33782Y21082
T5
X49276Y16891
X39116Y16891
X41656Y16891
X44196Y16891
X46736Y16891
X51816Y16891
T6
X28702Y45974
X21082Y58674
X21082Y56134
X21082Y43434
X21082Y40894
X21082Y53594
X21082Y51054
X21082Y45974
X21082Y48514
X28702Y48514
X28702Y43434
X28702Y40894
X28702Y51054
X28702Y53594
X28702Y56134
X28702Y58674
T7
X43597Y56340
X41597Y56340
T8
X14000Y50450
X14000Y53450
X14000Y51950
X14000Y48950
X14000Y47450
X14000Y45950
X34828Y53450
X34828Y51950
X34828Y50450
X34828Y48950
X34828Y47450
X34828Y45950
M30