<?xml version="1.0" encoding="UTF-8" standalone="no"?>
<!-- 2017-11-03 18:00:41 Generated by QCAD SVG Exporter -->

<svg
   xmlns:dc="http://purl.org/dc/elements/1.1/"
   xmlns:cc="http://creativecommons.org/ns#"
   xmlns:rdf="http://www.w3.org/1999/02/22-rdf-syntax-ns#"
   xmlns:svg="http://www.w3.org/2000/svg"
   xmlns="http://www.w3.org/2000/svg"
   xmlns:sodipodi="http://sodipodi.sourceforge.net/DTD/sodipodi-0.dtd"
   xmlns:inkscape="http://www.inkscape.org/namespaces/inkscape"
   width="85mm"
   height="84.79999999999998mm"
   viewBox="-2.495000000000006 -84.79999999999998 85 84.79999999999998"
   version="1.1"
   style="stroke-linecap:round;stroke-linejoin:round;fill:none"
   id="svg38"
   sodipodi:docname="derriere.svg"
   inkscape:version="0.92.0 r15299">
  <metadata
     id="metadata44">
    <rdf:RDF>
      <cc:Work
         rdf:about="">
        <dc:format>image/svg+xml</dc:format>
        <dc:type
           rdf:resource="http://purl.org/dc/dcmitype/StillImage" />
      </cc:Work>
    </rdf:RDF>
  </metadata>
  <defs
     id="defs42" />
  <sodipodi:namedview
     pagecolor="#ffffff"
     bordercolor="#666666"
     borderopacity="1"
     objecttolerance="10"
     gridtolerance="10"
     guidetolerance="10"
     inkscape:pageopacity="0"
     inkscape:pageshadow="2"
     inkscape:window-width="1920"
     inkscape:window-height="1018"
     id="namedview40"
     showgrid="false"
     inkscape:zoom="1.0413426"
     inkscape:cx="231.44342"
     inkscape:cy="110.77417"
     inkscape:window-x="-8"
     inkscape:window-y="-8"
     inkscape:window-maximized="1"
     inkscape:current-layer="svg38" />
  <g
     transform="scale(1,-1)"
     id="g36"
     style="fill:none;stroke:#ff0000;stroke-opacity:1;stroke-width:0.1;stroke-miterlimit:4;stroke-dasharray:none">
    <!-- Polyligne -->
    <path
       d="M25.73833333333315,23.88000000000003 L25.73833333333315,19.09000000000003 L15.93708333333314,19.09000000000003 L15.93708333333314,23.88000000000003 Z"
       style="stroke:#ff0000;stroke-width:0.1;fill:none;stroke-opacity:1;stroke-miterlimit:4;stroke-dasharray:none"
       id="path2" />
    <!-- Polyligne -->
    <path
       d="M64.27291666666639,19.09000000000004 L54.47166666666639,19.09000000000004 L54.47166666666639,23.88000000000003 L64.27291666666639,23.88000000000003 Z"
       style="stroke:#ff0000;stroke-width:0.1;fill:none;stroke-opacity:1;stroke-miterlimit:4;stroke-dasharray:none"
       id="path4" />
    <!-- Polyligne -->
    <path
       d="M4.889999999999998,81.13999999999997 L4.889999999999998,71.33874999999998 L0.0999999999999979,71.33874999999998 L0.0999999999999979,81.13999999999997 Z"
       style="stroke:#ff0000;stroke-width:0.1;fill:none;stroke-opacity:1;stroke-miterlimit:4;stroke-dasharray:none"
       id="path6" />
    <!-- Polyligne -->
    <path
       d="M4.889999999999998,60.73749999999995 L4.889999999999998,50.93624999999995 L0.1000000000000067,50.93624999999995 L0.1000000000000067,60.73749999999995 Z"
       style="stroke:#ff0000;stroke-width:0.1;fill:none;stroke-opacity:1;stroke-miterlimit:4;stroke-dasharray:none"
       id="path8" />
    <!-- Polyligne -->
    <path
       d="M4.889999999999998,40.33499999999992 L4.889999999999998,30.53374999999994 L0.099999999999989,30.53374999999992 L0.099999999999989,40.33499999999995 Z"
       style="stroke:#ff0000;stroke-width:0.1;fill:none;stroke-opacity:1;stroke-miterlimit:4;stroke-dasharray:none"
       id="path10" />
    <!-- Polyligne -->
    <path
       d="M4.890000000000007,19.93249999999994 L4.890000000000007,10.13124999999994 L0.1000000000000156,10.13124999999992 L0.1000000000000156,19.93249999999996 Z"
       style="stroke:#ff0000;stroke-width:0.1;fill:none;stroke-opacity:1;stroke-miterlimit:4;stroke-dasharray:none"
       id="path12" />
    <!-- Polyligne -->
    <path
       d="M79.90999999999998,40.33499999999995 L79.90999999999998,30.53374999999993 L75.11999999999998,30.53374999999993 L75.11999999999998,40.33499999999995 Z"
       style="stroke:#ff0000;stroke-width:0.1;fill:none;stroke-opacity:1;stroke-miterlimit:4;stroke-dasharray:none"
       id="path14" />
    <!-- Polyligne -->
    <path
       d="M79.90999999999995,19.93249999999995 L79.90999999999995,10.13124999999993 L75.11999999999999,10.13124999999993 L75.11999999999999,19.93249999999995 Z"
       style="stroke:#ff0000;stroke-width:0.1;fill:none;stroke-opacity:1;stroke-miterlimit:4;stroke-dasharray:none"
       id="path16" />
    <!-- Polyligne -->
    <path
       d="M79.90999999999995,60.73749999999996 L79.90999999999995,50.93624999999995 L75.11999999999998,50.93624999999995 L75.11999999999998,60.73749999999996 Z"
       style="stroke:#ff0000;stroke-width:0.1;fill:none;stroke-opacity:1;stroke-miterlimit:4;stroke-dasharray:none"
       id="path18" />
    <!-- Polyligne -->
    <path
       d="M75.11999999999998,81.13999999999997 L79.90999999999995,81.13999999999997 L79.90999999999995,71.33874999999999 L75.11999999999998,71.33874999999999 Z"
       style="stroke:#ff0000;stroke-width:0.1;fill:none;stroke-opacity:1;stroke-miterlimit:4;stroke-dasharray:none"
       id="path20" />
    <!-- Polyligne -->
    <path
       d="M-0.2000000000000085,1.000000000000001 C-0.2000000000000084,0.4477152502000007 0.24771525019999174,6.661338147750939e-16 0.7999999999999918,6.661338147750939e-16 L9.00125000000001,-4.4e-15 C9.55353474980001,-4.440892098500626e-15 10.00125000000001,0.4477152501999957 10.00125000000001,0.9999999999999958 L10.00125,4.989999999999978 L23.20291666666666,4.989999999999995 L23.20291666666666,1.000000000000003 C23.20291666666666,0.4477152502000028 23.65063191686666,2.886579864025407e-15 24.20291666666666,2.7755575615628914e-15 L32.40416666666667,1.1e-15 C32.95645141646667,1.3322676295501878e-15 33.40416666666667,0.4477152502000018 33.40416666666667,1.0000000000000022 L33.40416666666666,4.989999999999995 L46.60583333333334,4.989999999999995 L46.60583333333334,1.000000000000016 C46.605833333333344,0.44771525020001446 47.05354858353334,1.609823385706477e-14 47.60583333333334,1.5987211554602254e-14 L55.80708333333333,1.55e-14 C56.35936808313334,1.532107773982716e-14 56.807083333333345,0.4477152502000171 56.807083333333345,1.0000000000000193 L56.80708333333334,4.989999999999995 L70.00874999999999,4.989999999999995 L70.00874999999999,1.000000000000025 C70.00874999999999,0.4477152502000281 70.4564652502,2.4868995751603507e-14 71.00874999999999,2.4868995751603507e-14 L79.21000000000001,2.44e-14 C79.7622847498,2.4646951146678475e-14 80.21000000000001,0.4477152502000217 80.21000000000001,1.0000000000000178 L80.21,4.989999999999995 L82.505,4.989999999999995 L82.50499999999995,83.79999999999998 C82.50499999999995,84.35228474979998 82.05728474979995,84.79999999999998 81.50499999999995,84.79999999999998 L68.785,84.79999999999998 C68.2327152502,84.79999999999998 67.785,84.35228474979998 67.785,83.79999999999998 L67.78499999999998,82.19999999999997 L43.68499999999998,82.19999999999997 L43.68499999999998,84.29999999999995 C43.68499999999998,84.57614237489996 43.461142374899985,84.79999999999995 43.18499999999999,84.79999999999995 L37.32499999999999,84.79999999999998 C36.77271525019999,84.79999999999998 36.32499999999999,84.35228474979998 36.32499999999999,83.79999999999998 L36.32499999999999,82.19999999999997 L12.22499999999998,82.19999999999997 L12.22499999999998,83.79999999999998 C12.22499999999998,84.35228474979998 11.777284749799982,84.79999999999998 11.224999999999985,84.79999999999998 L-1.494999999999997,84.79999999999998 C-2.0472847498000037,84.79999999999998 -2.495000000000006,84.35228474979998 -2.495000000000006,83.79999999999998 L-2.494999999999993,4.989999999999978 L-0.1999999999999957,4.989999999999978 Z"
       style="stroke:#ff0000;stroke-width:0.1;fill:none;stroke-opacity:1;stroke-miterlimit:4;stroke-dasharray:none"
       id="path22" />
    <!-- Cercle -->
    <circle
       cx="70.11999999999998"
       cy="66.038125"
       r="3"
       style="stroke:#ff0000;stroke-width:0.1;fill:none;stroke-opacity:1;stroke-miterlimit:4;stroke-dasharray:none"
       id="circle24" />
    <!-- Cercle -->
    <circle
       cx="70.11999999999998"
       cy="50.03812500000002"
       r="2.449999999999999"
       style="stroke:#ff0000;stroke-width:0.1;fill:none;stroke-opacity:1;stroke-miterlimit:4;stroke-dasharray:none"
       id="circle26" />
    <!-- Cercle -->
    <circle
       cx="64.41083603473936"
       cy="76.52417132703373"
       r="0.625"
       style="stroke:#ff0000;stroke-width:0.1;fill:none;stroke-opacity:1;stroke-miterlimit:4;stroke-dasharray:none"
       id="circle28" />
    <!-- Cercle -->
    <circle
       cx="15.67499999999999"
       cy="76.54999999999997"
       r="0.625"
       style="stroke:#ff0000;stroke-width:0.1;fill:none;stroke-opacity:1;stroke-miterlimit:4;stroke-dasharray:none"
       id="circle30" />
    <!-- Cercle -->
    <circle
       cx="32.87499999999999"
       cy="76.54999999999997"
       r="0.625"
       style="stroke:#ff0000;stroke-width:0.1;fill:none;stroke-opacity:1;stroke-miterlimit:4;stroke-dasharray:none"
       id="circle32" />
    <!-- Cercle -->
    <circle
       cx="47.21084569670896"
       cy="76.54240239010299"
       r="0.625"
       style="stroke:#ff0000;stroke-width:0.1;fill:none;stroke-opacity:1;stroke-miterlimit:4;stroke-dasharray:none"
       id="circle34" />
  </g>
</svg>
