<?xml version="1.0" encoding="UTF-8" standalone="no"?>
<!-- 2017-11-03 17:03:13 Generated by QCAD SVG Exporter -->

<svg
   xmlns:dc="http://purl.org/dc/elements/1.1/"
   xmlns:cc="http://creativecommons.org/ns#"
   xmlns:rdf="http://www.w3.org/1999/02/22-rdf-syntax-ns#"
   xmlns:svg="http://www.w3.org/2000/svg"
   xmlns="http://www.w3.org/2000/svg"
   xmlns:sodipodi="http://sodipodi.sourceforge.net/DTD/sodipodi-0.dtd"
   xmlns:inkscape="http://www.inkscape.org/namespaces/inkscape"
   width="80.61000000000013mm"
   height="80.91000000000022mm"
   viewBox="-12.454999999999611 -62.73000000000036 80.61000000000013 80.91000000000022"
   version="1.1"
   style="stroke-linecap:round;stroke-linejoin:round;fill:none"
   id="svg6258"
   sodipodi:docname="etage.svg"
   inkscape:version="0.92.0 r15299">
  <metadata
     id="metadata6264">
    <rdf:RDF>
      <cc:Work
         rdf:about="">
        <dc:format>image/svg+xml</dc:format>
        <dc:type
           rdf:resource="http://purl.org/dc/dcmitype/StillImage" />
      </cc:Work>
    </rdf:RDF>
  </metadata>
  <defs
     id="defs6262" />
  <sodipodi:namedview
     pagecolor="#ffffff"
     bordercolor="#666666"
     borderopacity="1"
     objecttolerance="10"
     gridtolerance="10"
     guidetolerance="10"
     inkscape:pageopacity="0"
     inkscape:pageshadow="2"
     inkscape:window-width="1920"
     inkscape:window-height="1018"
     id="namedview6260"
     showgrid="false"
     inkscape:zoom="0.77174223"
     inkscape:cx="152.33386"
     inkscape:cy="152.90079"
     inkscape:window-x="-8"
     inkscape:window-y="-8"
     inkscape:window-maximized="1"
     inkscape:current-layer="svg6258" />
  <g
     transform="scale(1,-1)"
     id="g6256"
     style="fill:none;stroke:#ff0000;stroke-opacity:1;stroke-width:0.1;stroke-miterlimit:4;stroke-dasharray:none">
    <!-- Polyligne -->
    <path
       d="M-12.45499999999954,21.39937499999963 C-12.45499999999954,20.847090250199642 -12.007284749799542,20.399374999999644 -11.454999999999544,20.399374999999644 L-7.264999999999561,20.39937499999967 L-7.264999999999339,-12.99000000000047 L3.482083333333054,-12.98999999999987 L3.482083333333712,-17.18000000000001 C3.482083333333712,-17.73228474979986 3.9297985835337124,-18.17999999999986 4.482083333333713,-18.17999999999986 L12.68333333333385,-18.17999999999987 C13.235618083133847,-18.179999999999865 13.683333333333849,-17.732284749799863 13.683333333333849,-17.17999999999986 L13.68333333333378,-12.98999999999987 L42.01666666666712,-12.98999999999987 L42.0166666666671,-17.17999999999985 C42.0166666666671,-17.73228474979986 42.464381916867104,-18.17999999999986 43.016666666667106,-18.17999999999986 L51.21791666666724,-18.17999999999987 C51.77020141646725,-18.17999999999987 52.21791666666726,-17.732284749799867 52.21791666666726,-17.17999999999986 L52.21791666666786,-12.98999999999987 L62.96500000000065,-12.9899999999998 L62.96500000000053,20.3993750000004 L67.15500000000051,20.39937500000044 C67.70728474980051,20.399375000000443 68.15500000000051,20.847090250200445 68.15500000000051,21.399375000000443 L68.15500000000044,29.60062500000042 C68.15500000000043,30.152909749800397 67.70728474980042,30.6006250000004 67.15500000000043,30.6006250000004 L62.96500000000043,30.60062500000036 L62.96500000000033,57.54000000000047 L52.21791666666786,57.54000000000039 L52.21791666666786,61.73000000000036 C52.21791666666786,62.28228474980033 51.77020141646786,62.73000000000033 51.21791666666787,62.73000000000033 L43.01666666666784,62.73000000000019 C42.464381916867865,62.73000000000018 42.01666666666787,62.28228474980018 42.01666666666787,61.73000000000018 L42.01666666666781,57.54000000000001 L13.68333333333309,57.54000000000002 L13.68333333333307,61.73000000000019 C13.68333333333307,62.28228474980017 13.23561808313307,62.73000000000017 12.683333333333072,62.73000000000017 L4.482083333333095,62.73000000000036 C3.9297985835330853,62.73000000000036 3.482083333333077,62.28228474980035 3.482083333333077,61.73000000000034 L3.482083333333054,57.54000000000037 L-7.264999999999695,57.5399999999998 L-7.264999999999668,30.6006249999997 L-11.45499999999962,30.60062499999965 C-12.00728474979961,30.60062499999965 -12.454999999999611,30.152909749799647 -12.454999999999611,29.600624999999646 Z"
       style="stroke:#ff0000;stroke-width:0.1;fill:none;stroke-opacity:1;stroke-miterlimit:4;stroke-dasharray:none"
       id="path6238" />
    <!-- Polyligne -->
    <path
       d="M10.35000000000045,16.00000000000024 L10.35000000000045,31.00000000000026 L45.35000000000048,31.00000000000026 L45.35000000000048,16.00000000000025 Z"
       style="stroke:#ff0000;stroke-width:0.1;fill:none;stroke-opacity:1;stroke-miterlimit:4;stroke-dasharray:none"
       id="path6240" />
    <!-- Polyligne -->
    <path
       d="M7.149999999999998,0.149999999999999 L7.149999999999998,13 L14.5,13 L14.5,0.1500000000000012 Z"
       style="stroke:#ff0000;stroke-width:0.1;fill:none;stroke-opacity:1;stroke-miterlimit:4;stroke-dasharray:none"
       id="path6242" />
    <!-- Polyligne -->
    <path
       d="M41.00000000000095,0.1500000000002399 L41.00000000000095,13.00000000000024 L48.35000000000096,13.00000000000024 L48.35000000000096,0.1500000000002388 Z"
       style="stroke:#ff0000;stroke-width:0.1;fill:none;stroke-opacity:1;stroke-miterlimit:4;stroke-dasharray:none"
       id="path6244" />
    <!-- Cercle -->
    <circle
       cx="-3.000000000000007"
       cy="16.25"
       r="1.399999999999999"
       style="stroke:#ff0000;stroke-width:0.1;fill:none;stroke-opacity:1;stroke-miterlimit:4;stroke-dasharray:none"
       id="circle6246" />
    <!-- Cercle -->
    <circle
       cx="-3.000000000000007"
       cy="-3.249999999999993"
       r="1.399999999999999"
       style="stroke:#ff0000;stroke-width:0.1;fill:none;stroke-opacity:1;stroke-miterlimit:4;stroke-dasharray:none"
       id="circle6248" />
    <!-- Cercle -->
    <circle
       cx="58.50000000000094"
       cy="16.25000000000024"
       r="1.399999999999999"
       style="stroke:#ff0000;stroke-width:0.1;fill:none;stroke-opacity:1;stroke-miterlimit:4;stroke-dasharray:none"
       id="circle6250" />
    <!-- Cercle -->
    <circle
       cx="58.50000000000094"
       cy="-3.249999999999756"
       r="1.399999999999999"
       style="stroke:#ff0000;stroke-width:0.1;fill:none;stroke-opacity:1;stroke-miterlimit:4;stroke-dasharray:none"
       id="circle6252" />
    <!-- Cercle -->
    <circle
       cx="27.75000000000057"
       cy="6.500000000000022"
       r="4.999999999999999"
       style="stroke:#ff0000;stroke-width:0.1;fill:none;stroke-opacity:1;stroke-miterlimit:4;stroke-dasharray:none"
       id="circle6254" />
  </g>
</svg>
