<?xml version="1.0" encoding="UTF-8" standalone="no"?>
<!-- Created with Inkscape (http://www.inkscape.org/) -->

<svg
   xmlns:dc="http://purl.org/dc/elements/1.1/"
   xmlns:cc="http://creativecommons.org/ns#"
   xmlns:rdf="http://www.w3.org/1999/02/22-rdf-syntax-ns#"
   xmlns:svg="http://www.w3.org/2000/svg"
   xmlns="http://www.w3.org/2000/svg"
   xmlns:sodipodi="http://sodipodi.sourceforge.net/DTD/sodipodi-0.dtd"
   xmlns:inkscape="http://www.inkscape.org/namespaces/inkscape"
   width="210mm"
   height="297mm"
   viewBox="0 0 210 297"
   version="1.1"
   id="svg4514"
   inkscape:version="0.92.1 r15371"
   sodipodi:docname="roues.svg">
  <defs
     id="defs4508" />
  <sodipodi:namedview
     id="base"
     pagecolor="#ffffff"
     bordercolor="#666666"
     borderopacity="1.0"
     inkscape:pageopacity="0.0"
     inkscape:pageshadow="2"
     inkscape:zoom="1.0770244"
     inkscape:cx="89.61516"
     inkscape:cy="908.26943"
     inkscape:document-units="mm"
     inkscape:current-layer="layer1"
     showgrid="false"
     inkscape:window-width="3840"
     inkscape:window-height="2028"
     inkscape:window-x="-16"
     inkscape:window-y="2144"
     inkscape:window-maximized="1" />
  <metadata
     id="metadata4511">
    <rdf:RDF>
      <cc:Work
         rdf:about="">
        <dc:format>image/svg+xml</dc:format>
        <dc:type
           rdf:resource="http://purl.org/dc/dcmitype/StillImage" />
        <dc:title></dc:title>
      </cc:Work>
    </rdf:RDF>
  </metadata>
  <g
     inkscape:label="Calque 1"
     inkscape:groupmode="layer"
     id="layer1">
    <path
       style="fill:none;stroke:#ff0000;stroke-width:0.09066628;stroke-miterlimit:4;stroke-dasharray:none;stroke-opacity:1"
       d="M 30.499731,0.36725062 C 25.459386,0.31203076 21.346285,1.2502665 16.982726,3.4285626 8.5606284,7.6328904 2.4410171,15.810807 0.81937262,25.029311 0.34553828,27.723095 0.35535167,33.048813 0.83849141,35.596624 3.2149974,48.129632 12.74481,57.615714 25.164656,59.81065 34.851708,61.522615 44.557392,58.442416 51.563561,51.433384 56.970007,46.024739 59.867756,39.481472 60.335635,31.624773 60.694338,25.601364 58.784169,18.802983 55.229487,13.45379 53.704855,11.159474 50.331412,7.6775875 48.037161,6.0309875 42.856195,2.3125495 37.903614,0.62146996 31.52034,0.39102184 31.175724,0.37858193 30.835753,0.37093071 30.499731,0.36725062 Z M 30.340567,6.3338114 c 0.615689,3.812e-4 1.242369,0.1221716 2.249475,0.3653525 l 1.617473,0.3906737 0.382405,3.9883874 0.381889,3.98787 -1.35599,1.377178 c -0.745904,0.757563 -1.425746,1.297662 -1.510502,1.199925 -0.08476,-0.09773 -0.452482,-1.473594 -0.817004,-3.057176 -0.364531,-1.583583 -0.736383,-3.015068 -0.826306,-3.181719 -0.08992,-0.16666 -0.530371,1.210038 -0.979269,3.059246 -0.448886,1.849213 -0.892138,3.362068 -0.984436,3.362068 -0.09231,0 -0.717815,-0.602493 -1.390612,-1.338937 -1.383331,-1.5142 -1.373479,-1.458629 -0.976685,-5.429643 0.426805,-4.2714517 0.262056,-3.917 2.02675,-4.360457 0.962409,-0.241984 1.567124,-0.3631491 2.182812,-0.3627686 z m 5.734534,0.2997234 c 0.428709,-0.0085 2.986335,0.863574 4.480863,1.541508 1.96684,0.8921649 4.496863,2.5644452 6.243547,4.1268802 1.238466,1.107831 4.26744,4.828689 4.26744,5.242056 0,0.09283 -2.045574,0.534331 -4.545976,0.980818 l -4.545976,0.811321 -1.236617,2.423626 c -0.68033,1.333058 -1.305975,2.494333 -1.390096,2.580719 -0.08412,0.08639 -0.629291,-0.382185 -1.211296,-1.041278 -1.160763,-1.314474 -2.469607,-2.232438 -4.037479,-2.831354 l -1.019059,-0.388607 2.0314,-2.178161 2.030884,-2.177645 -0.601514,-4.498432 C 36.210258,8.7507687 35.97509,6.6906806 36.018774,6.6469706 c 0.0091,-0.0087 0.02777,-0.012866 0.05633,-0.013436 z m -11.495939,0.016536 c 0.03327,0.002 0.05591,0.0083 0.0677,0.020154 0.06645,0.0665 -0.144294,2.170172 -0.468705,4.6746502 l -0.589628,4.553726 1.987475,1.977658 c 1.986212,1.976696 2.250685,2.346084 1.687236,2.351794 -0.164888,0.0016 -0.947439,0.329377 -1.738912,0.728638 -0.845418,0.426485 -1.987993,1.303901 -2.769857,2.127001 l -1.330668,1.401467 -1.116728,-2.190565 c -0.61423,-1.204492 -1.256513,-2.368129 -1.427303,-2.585889 -0.219014,-0.279242 -1.618622,-0.62841 -4.74803,-1.185974 -2.44036,-0.434795 -4.4764503,-0.818989 -4.5253083,-0.853178 -0.2363099,-0.165243 2.2869053,-3.28676 3.9604813,-4.899442 2.171684,-2.092669 3.483899,-3.0324126 5.909199,-4.2328163 1.796269,-0.8890641 4.603851,-1.9174775 5.103048,-1.8872239 z M 9.7945339,19.580548 c 0.046411,-0.0041 0.092403,-6.48e-4 0.140044,0.0093 3.0445971,0.634095 6.5763071,1.441548 6.9727011,1.594218 0.277591,0.106915 0.90129,0.959768 1.4118,1.931664 l 0.913639,1.739945 -1.830379,-0.156061 c -1.006925,-0.08578 -2.667887,-0.219226 -3.690215,-0.296625 l -1.858801,-0.14056 2.158525,1.350823 c 1.187205,0.743238 2.563546,1.582787 3.058212,1.865003 0.494664,0.282212 0.89917,0.586448 0.89917,0.676444 0,0.09 -0.755973,0.502142 -1.680518,0.915707 -0.924535,0.413562 -1.814963,0.743677 -1.978691,0.733287 -0.163729,-0.01038 -1.377359,-0.504094 -2.696477,-1.097089 C 10.294427,28.113609 8.7445271,27.446968 8.1687937,27.225559 L 7.1218296,26.823001 7.2804764,24.859295 C 7.4202452,23.129 7.5585032,22.693538 8.4468126,21.192853 9.1477574,20.008702 9.4697447,19.608883 9.7945339,19.580548 Z m 40.7298141,0.108003 c 0.08683,-0.0045 0.167214,-0.0047 0.241846,0 0.767634,0.04807 0.94941,0.593566 1.76785,1.940452 0.672844,1.107284 0.794206,1.554535 0.88005,3.239595 l 0.09974,1.954403 -3.500561,1.499648 c -1.925224,0.824783 -3.635732,1.49076 -3.801318,1.480013 -0.408305,-0.02653 -3.54037,-1.490655 -3.533118,-1.651577 0.0036,-0.07055 1.362584,-0.934289 3.021004,-1.91978 1.658411,-0.98549 2.895782,-1.832308 2.749703,-1.881023 -0.146079,-0.04871 -1.551064,0.02916 -3.12229,0.172601 -4.246532,0.387673 -3.943231,0.551286 -2.848405,-1.538925 0.518415,-0.98974 0.97222,-1.799373 1.008207,-1.799373 0.03599,0 1.76824,-0.381995 3.849895,-0.848527 1.645245,-0.368729 2.579573,-0.616334 3.187402,-0.647507 z M 6.1575477,28.377944 c 0.098941,-0.0027 2.0239725,0.870286 4.2782913,1.940449 l 4.098975,1.945619 2.676839,-1.34307 2.676323,-1.342554 v 1.209228 c 0,1.406241 0.715548,3.696075 1.585432,5.074626 0.334399,0.529939 0.56536,1.006604 0.513147,1.058849 -0.05221,0.05224 -1.314918,0.306848 -2.805513,0.566375 -1.490595,0.259525 -2.740261,0.503417 -2.777608,0.542084 -0.03734,0.03866 -1.005366,1.797883 -2.150774,3.909322 -1.145408,2.111446 -2.166271,3.927281 -2.268596,4.034895 C 11.501258,46.481561 8.1180308,40.674489 7.1807417,37.729311 6.2859182,34.917566 5.5721888,28.394094 6.1575477,28.377944 Z m 48.3308993,0.0047 c 0.317548,0 0.184659,4.220271 -0.195854,6.227009 -0.527489,2.781834 -1.618521,5.712907 -2.978113,7.999513 -0.643998,1.08309 -1.475341,2.327984 -1.847949,2.766756 l -0.677995,0.798401 -2.023132,-3.75326 c -1.112964,-2.063922 -2.138227,-3.907007 -2.278414,-4.09639 -0.148436,-0.200536 -1.406964,-0.553858 -3.013252,-0.845945 -1.516982,-0.275852 -2.802466,-0.545174 -2.856673,-0.598413 -0.05412,-0.05324 0.0755,-0.289706 0.288354,-0.525031 0.820698,-0.90722 1.67776,-3.241358 1.795756,-4.891175 0.06463,-0.903187 0.209858,-1.641761 0.322461,-1.641761 0.112594,0 1.320196,0.555194 2.683557,1.233517 l 2.478918,1.233516 4.062802,-1.953368 c 2.234668,-1.074219 4.142458,-1.953369 4.239534,-1.953369 z m -33.081185,10.8536 c 0.30029,-0.0034 0.139735,0.436907 -0.839742,2.740919 -0.664339,1.562701 -1.308319,3.100277 -1.43092,3.416845 -0.26791,0.691812 -0.394275,0.780249 2.984314,-2.10013 1.29407,-1.103243 2.384183,-1.966835 2.422074,-1.919779 0.03789,0.04705 0.185511,0.944557 0.328146,1.994709 l 0.259415,1.909445 -0.882116,1.014926 c -0.485265,0.558329 -1.638225,1.877605 -2.561601,2.931602 -0.923383,1.053994 -1.786835,1.918427 -1.918746,1.92133 -0.131902,0.0029 -0.979349,-0.294423 -1.883606,-0.66094 -1.374248,-0.557009 -1.856213,-0.916802 -2.935221,-2.192115 l -1.290877,-1.52549 0.505912,-0.854726 c 0.278234,-0.469966 1.154262,-1.964666 1.946651,-3.321761 0.792379,-1.357098 1.61549,-2.558444 1.829346,-2.669088 0.213856,-0.110646 0.928454,-0.276132 1.588017,-0.368453 0.659553,-0.09232 1.435338,-0.224375 1.723409,-0.293005 0.06065,-0.01445 0.112651,-0.0238 0.155545,-0.02429 z m 17.803048,0.01705 h 5.17e-4 c 0.477124,0.001 3.724018,0.586165 3.833357,0.701767 0.23321,0.246555 3.945496,6.677284 3.945496,6.834725 0,0.108939 -0.620241,0.867725 -1.378727,1.685684 -1.078002,1.16251 -1.715145,1.619877 -2.919202,2.094447 -0.847185,0.333909 -1.612743,0.606681 -1.700671,0.606681 -0.08802,0 -0.473872,-0.352255 -0.857829,-0.782899 -0.383948,-0.430638 -1.5475,-1.725631 -2.585372,-2.87786 l -1.886706,-2.094962 0.163814,-1.752349 c 0.09029,-0.963856 0.239628,-1.874504 0.331763,-2.023647 0.105849,-0.171336 1.130937,0.560498 2.784326,1.988508 1.43926,1.243065 2.651161,2.226058 2.692859,2.184363 0.0417,-0.0417 -0.519123,-1.513888 -1.245919,-3.272153 -0.726787,-1.758259 -1.282077,-3.235997 -1.234033,-3.284037 0.0054,-0.0054 0.02451,-0.0084 0.05633,-0.0083 z m -5.099947,0.91209 c 0.01695,0.0012 0.02809,0.0045 0.03307,0.01033 0.03998,0.04614 -0.123794,1.367915 -0.364319,2.937288 l -0.437699,2.853574 3.246313,3.383772 3.245797,3.383774 -0.711585,0.290939 c -0.391381,0.159761 -1.559929,0.523587 -2.597257,0.808736 -2.126326,0.584499 -8.105164,0.848199 -10.306864,0.454753 -1.642601,-0.293529 -5.130437,-1.406803 -5.130437,-1.637628 0,-0.101534 0.334331,-0.501759 0.742591,-0.889352 0.408241,-0.387591 1.824732,-1.867295 3.148128,-3.288171 l 2.406571,-2.583304 -0.418579,-2.767274 c -0.23001,-1.522016 -0.36634,-2.818977 -0.303341,-2.881993 0.06301,-0.06301 0.42613,0.0119 0.807187,0.166397 0.951611,0.385807 4.568714,0.386635 5.68544,0.001 0.440567,-0.152111 0.836205,-0.251417 0.954981,-0.242879 z m 12.39976,10.29136 c 0.01233,0.01239 -0.05958,0.109963 -0.208773,0.300241 -0.313315,0.399669 -0.510563,0.526656 -0.510563,0.329179 0,-0.04982 0.188769,-0.238496 0.419612,-0.419613 0.190198,-0.149223 0.287341,-0.222192 0.299724,-0.209807 z"
       id="path5070"
       inkscape:connector-curvature="0" />
    <circle
       style="fill:none;fill-opacity:1;stroke:#ff0000;stroke-width:0.09404863;stroke-miterlimit:4;stroke-dasharray:none;stroke-opacity:1"
       id="path5111"
       cx="105"
       cy="28.844793"
       r="28.952976" />
    <circle
       style="fill:none;fill-opacity:1;stroke:#ff0000;stroke-width:0.1;stroke-miterlimit:4;stroke-dasharray:none;stroke-opacity:1"
       id="path5121"
       cx="30.220524"
       cy="23.915398"
       r="1.4197738" />
    <circle
       style="fill:none;fill-opacity:1;stroke:#ff0000;stroke-width:0.1;stroke-miterlimit:4;stroke-dasharray:none;stroke-opacity:1"
       id="path5121-1"
       cx="36.354298"
       cy="28.205132"
       r="1.4197739" />
    <circle
       style="fill:none;fill-opacity:1;stroke:#ff0000;stroke-width:0.1;stroke-miterlimit:4;stroke-dasharray:none;stroke-opacity:1"
       id="path5121-1-9"
       cx="34.884315"
       cy="35.922543"
       r="1.4197739" />
    <circle
       style="fill:none;fill-opacity:1;stroke:#ff0000;stroke-width:0.1;stroke-miterlimit:4;stroke-dasharray:none;stroke-opacity:1"
       id="path5121-1-9-6"
       cx="25.930784"
       cy="35.955952"
       r="1.4197739" />
    <circle
       style="fill:none;fill-opacity:1;stroke:#ff0000;stroke-width:0.1;stroke-miterlimit:4;stroke-dasharray:none;stroke-opacity:1"
       id="path5121-1-9-6-4"
       cx="23.959673"
       cy="28.138321"
       r="1.4197739" />
    <path
       style="fill:none;fill-opacity:1;stroke:#ff0000;stroke-width:0.09518237;stroke-miterlimit:4;stroke-dasharray:none;stroke-opacity:1"
       d="m 30.352825,29.218364 a 1.3513744,1.3513744 0 0 0 -1.351164,1.351163 1.3513744,1.3513744 0 0 0 0.417105,0.9739 h 1.871068 a 1.3513744,1.3513744 0 0 0 0.414645,-0.9739 1.3513744,1.3513744 0 0 0 -1.351654,-1.351163 z"
       id="path5121-1-9-6-4-6"
       inkscape:connector-curvature="0" />
    <path
       inkscape:connector-curvature="0"
       style="fill:none;fill-opacity:1;stroke:#ff0000;stroke-width:0.0951824;stroke-miterlimit:4;stroke-dasharray:none;stroke-opacity:1"
       d="m 104.99975,27.682261 a 1.3513749,1.3513749 0 0 0 -1.35116,1.351163 1.3513749,1.3513749 0 0 0 0.41711,0.973901 l 1.87106,0 a 1.3513749,1.3513749 0 0 0 0.41465,-0.973901 1.3513749,1.3513749 0 0 0 -1.35166,-1.351163 z"
       id="path5121-1-9-6-4-6-7" />
    <path
       style="fill:none;stroke:#ff0000;stroke-width:0.09066629;stroke-miterlimit:4;stroke-dasharray:none;stroke-opacity:1"
       d="m 46.775144,74.708749 c -6.72301,-0.07365 -12.20923,1.177799 -18.02953,4.08329 -11.23374,5.607886 -19.3963199,16.515889 -21.5593299,28.811861 -0.63203,3.59307 -0.61893,10.69671 0.0255,14.09507 3.1698699,16.71698 15.8811399,29.36987 32.4472299,32.29756 12.921,2.28348 25.86683,-1.825 35.21195,-11.17391 7.21134,-7.21425 11.07648,-15.94189 11.70056,-26.42145 0.47845,-8.03424 -2.06941,-17.102169 -6.81079,-24.237117 -2.03362,-3.060243 -6.53326,-7.70451 -9.59343,-9.900804 -6.91057,-4.959789 -13.51654,-7.215413 -22.03081,-7.522793 -0.45967,-0.01659 -0.91313,-0.0268 -1.36133,-0.0317 z m -0.21229,7.958417 c 0.82123,5.27e-4 1.65712,0.162956 3.00045,0.48732 l 2.15745,0.521095 0.51006,5.319856 0.50938,5.319167 -1.80868,1.83693 c -0.99491,1.010465 -1.90171,1.730869 -2.01477,1.600504 -0.1131,-0.130356 -0.60353,-1.965534 -1.08974,-4.077773 -0.48623,-2.112241 -0.98223,-4.021608 -1.10217,-4.243893 -0.11991,-0.222297 -0.70743,1.613993 -1.30619,4.080534 -0.59873,2.466548 -1.18997,4.484449 -1.31307,4.484449 -0.12312,0 -0.95746,-0.803627 -1.85487,-1.785923 -1.84514,-2.019695 -1.83199,-1.945573 -1.30273,-7.242256 0.56928,-5.697417 0.34954,-5.224638 2.70336,-5.816137 1.2837,-0.322767 2.09029,-0.484381 2.91152,-0.483873 z m 7.64895,0.399782 c 0.57183,-0.01134 3.9833,1.151866 5.97676,2.056119 2.62345,1.190002 5.9981,3.42055 8.3279,5.504583 1.65192,1.477666 5.69208,6.440682 5.69208,6.992046 0,0.12382 -2.72846,0.71271 -6.0636,1.308251 l -6.06361,1.082173 -1.64946,3.23272 c -0.90745,1.77808 -1.74195,3.32703 -1.85415,3.44225 -0.11218,0.11523 -0.83938,-0.50977 -1.61569,-1.38889 -1.54827,-1.75329 -3.29406,-2.97771 -5.38535,-3.77656 l -1.35927,-0.51834 2.70957,-2.905312 2.70888,-2.904623 -0.80233,-6.000173 c -0.44145,-3.300201 -0.75513,-6.048021 -0.69685,-6.106323 0.012,-0.0116 0.0371,-0.01717 0.0751,-0.01793 z m -15.33374,0.02206 c 0.0444,0.0027 0.0746,0.01107 0.0903,0.02688 0.0887,0.0887 -0.19247,2.894654 -0.62519,6.235219 l -0.78647,6.073926 2.65098,2.637872 c 2.64929,2.636588 3.00205,3.129288 2.2505,3.136908 -0.21992,0.002 -1.26372,0.43934 -2.31943,0.97188 -1.12766,0.56887 -2.65166,1.7392 -3.69454,2.83708 l -1.7749,1.86932 -1.48954,-2.92185 c -0.81929,-1.6066 -1.67599,-3.1587 -1.90379,-3.44915 -0.29214,-0.37247 -2.159,-0.8382 -6.33312,-1.581899 -3.25505,-0.579945 -5.97087,-1.092397 -6.03604,-1.138 -0.3152,-0.220407 3.05036,-4.384 5.28265,-6.535054 2.89667,-2.791279 4.64697,-4.044742 7.88193,-5.645885 2.39594,-1.185866 6.1408,-2.5576 6.80666,-2.517248 z m -19.72035,17.247142 c 0.0619,-0.005 0.12325,-8.7e-4 0.18679,0.0124 4.06102,0.84578 8.77175,1.92279 9.30048,2.12643 0.37026,0.1426 1.20217,1.28017 1.88311,2.57652 l 1.21865,2.3208 -2.44143,-0.20816 c -1.34307,-0.11441 -3.55853,-0.29241 -4.92216,-0.39564 l -2.47934,-0.18749 2.87912,1.80178 c 1.58355,0.99136 3.41937,2.11118 4.07917,2.48761 0.65981,0.37642 1.19935,0.78222 1.19935,0.90226 0,0.12005 -1.00835,0.66978 -2.24153,1.2214 -1.23319,0.55163 -2.42089,0.99195 -2.63926,0.97809 -0.21839,-0.0139 -1.83718,-0.67238 -3.59668,-1.46334 -1.75949,-0.79096 -3.82681,-1.68015 -4.59475,-1.97547 l -1.39649,-0.53695 0.21162,-2.61926 c 0.18643,-2.30793 0.37084,-2.88876 1.55571,-4.89043 0.93494,-1.57947 1.36442,-2.11276 1.79764,-2.15055 z m 54.32709,0.14405 c 0.11578,-0.006 0.22303,-0.006 0.32259,0 1.0239,0.0641 1.26636,0.79172 2.35803,2.58825 0.89746,1.47694 1.05934,2.0735 1.17385,4.32109 l 0.13298,2.60685 -4.6692,2.00029 c -2.56794,1.10012 -4.84949,1.98843 -5.07034,1.97409 -0.54462,-0.0354 -4.72229,-1.98829 -4.71262,-2.20293 0.005,-0.0941 1.81746,-1.24619 4.02953,-2.56067 2.21205,-1.31448 3.86252,-2.444 3.66766,-2.50898 -0.19483,-0.065 -2.06887,0.0389 -4.16462,0.23022 -5.66421,0.5171 -5.25966,0.73533 -3.79933,-2.05267 0.69149,-1.32015 1.29679,-2.40007 1.34479,-2.40007 0.048,0 2.35855,-0.50952 5.13514,-1.1318 2.19451,-0.49182 3.44074,-0.82209 4.2515,-0.86367 z m -59.17825,11.59023 c 0.13191,-0.004 2.69965,1.16082 5.70655,2.58824 l 5.46739,2.59514 3.57048,-1.79143 3.56979,-1.79075 v 1.61291 c 0,1.8757 0.95443,4.92996 2.11471,6.76872 0.44603,0.70686 0.7541,1.34265 0.68446,1.41234 -0.0696,0.0697 -1.7539,0.40928 -3.74211,0.75545 -1.98822,0.34616 -3.65507,0.67147 -3.70489,0.72305 -0.0497,0.0516 -1.341,2.39808 -2.86879,5.21439 -1.52779,2.81633 -2.88946,5.23836 -3.02594,5.38189 -0.644,0.67732 -5.15667,-7.06837 -6.40687,-10.99675 -1.19356,-3.75041 -2.14556,-12.45165 -1.36478,-12.4732 z m 64.46573,0.006 c 0.42356,0 0.24631,5.62916 -0.26124,8.30582 -0.70359,3.71051 -2.15885,7.62008 -3.97233,10.67004 -0.85899,1.44467 -1.96787,3.10515 -2.46487,3.6904 l -0.90433,1.06493 -2.69854,-5.00623 c -1.48452,-2.75293 -2.85205,-5.21131 -3.03905,-5.46392 -0.19799,-0.26748 -1.87666,-0.73875 -4.01919,-1.12835 -2.02341,-0.36794 -3.73805,-0.72717 -3.81035,-0.79818 -0.0722,-0.071 0.10071,-0.38642 0.38462,-0.70031 1.09468,-1.21008 2.23786,-4.32344 2.39526,-6.52402 0.0862,-1.20471 0.2799,-2.18985 0.43011,-2.18985 0.15017,0 1.76092,0.74054 3.57944,1.64531 l 3.30647,1.64531 5.41913,-2.60547 c 2.98069,-1.43283 5.52538,-2.60548 5.65487,-2.60548 z m -44.12503,14.47693 c 0.40054,-0.004 0.18637,0.58277 -1.1201,3.65594 -0.88611,2.08439 -1.74507,4.13526 -1.90862,4.55751 -0.35734,0.92277 -0.52589,1.04073 3.98061,-2.80123 1.72609,-1.47155 3.18012,-2.62343 3.23066,-2.56067 0.0505,0.0628 0.24744,1.25989 0.4377,2.66062 l 0.34601,2.54688 -1.17659,1.35375 c -0.64728,0.74472 -2.18514,2.50442 -3.41677,3.91028 -1.23166,1.40585 -2.38336,2.55887 -2.55931,2.56274 -0.17593,0.004 -1.3063,-0.39272 -2.51243,-0.88159 -1.83302,-0.74296 -2.47589,-1.22286 -3.91512,-2.92392 l -1.72182,-2.03475 0.67481,-1.14007 c 0.37111,-0.62686 1.5396,-2.62055 2.59652,-4.43069 1.05691,-1.81014 2.15481,-3.41254 2.44006,-3.56012 0.28524,-0.14759 1.23841,-0.36832 2.11815,-0.49146 0.87975,-0.12314 1.91452,-0.29928 2.29876,-0.39082 0.0808,-0.0193 0.15026,-0.0317 0.20748,-0.0324 z m 23.74642,0.0227 h 7.6e-4 c 0.6364,0.001 4.96724,0.78185 5.11308,0.93605 0.31107,0.32886 5.26267,8.9064 5.26267,9.1164 0,0.14531 -0.8273,1.1574 -1.83901,2.24843 -1.43788,1.55059 -2.28772,2.16065 -3.89374,2.79365 -1.13001,0.44538 -2.15114,0.80921 -2.26843,0.80921 -0.11738,0 -0.63206,-0.46985 -1.14421,-1.04426 -0.51212,-0.5744 -2.06412,-2.30171 -3.44847,-3.83859 l -2.51657,-2.79434 0.21851,-2.33735 c 0.12045,-1.28562 0.31963,-2.50028 0.44252,-2.69921 0.14118,-0.22854 1.50849,0.74761 3.71385,2.65234 1.91974,1.65805 3.53622,2.9692 3.59185,2.91359 0.0556,-0.0556 -0.69244,-2.01928 -1.66188,-4.36452 -0.96941,-2.34523 -1.71007,-4.31629 -1.646,-4.38037 0.007,-0.007 0.0327,-0.0112 0.0751,-0.0111 z m -6.80252,1.21658 c 0.0227,0.001 0.0375,0.006 0.0442,0.0138 0.0533,0.0615 -0.16512,1.82458 -0.48595,3.91787 l -0.58382,3.8062 4.33008,4.5134 4.32938,4.5134 -0.94915,0.38806 c -0.52204,0.2131 -2.0807,0.69838 -3.46433,1.07872 -2.83617,0.77963 -10.811,1.13136 -13.74771,0.60657 -2.19097,-0.39152 -6.84318,-1.87644 -6.84318,-2.18433 0,-0.13543 0.44594,-0.66926 0.9905,-1.18625 0.54452,-0.51698 2.43389,-2.49066 4.19909,-4.38588 l 3.20999,-3.44571 -0.55832,-3.69109 c -0.30679,-2.03012 -0.48864,-3.76006 -0.4046,-3.84411 0.084,-0.084 0.56838,0.0159 1.07665,0.22194 1.26929,0.51461 6.09394,0.51571 7.58347,0.001 0.58765,-0.20289 1.11537,-0.33535 1.27379,-0.32396 z m 16.53932,13.72699 c 0.0164,0.0165 -0.0795,0.14667 -0.27848,0.40047 -0.4179,0.53309 -0.681,0.70248 -0.681,0.43907 0,-0.0665 0.25179,-0.31811 0.55969,-0.55969 0.2537,-0.19904 0.38326,-0.29637 0.39979,-0.27985 z"
       id="path5070-4"
       inkscape:connector-curvature="0" />
    <circle
       style="fill:none;fill-opacity:1;stroke:#ff0000;stroke-width:0.0940486;stroke-miterlimit:4;stroke-dasharray:none;stroke-opacity:1"
       id="path5111-1"
       cx="136.4763"
       cy="102.69189"
       r="38.702976" />
    <ellipse
       style="fill:none;fill-opacity:1;stroke:#ff0000;stroke-width:0.10000001;stroke-miterlimit:4;stroke-dasharray:none;stroke-opacity:1"
       id="path5121-4"
       cx="46.402744"
       cy="106.11813"
       rx="1.8937526"
       ry="1.8937461" />
    <ellipse
       style="fill:none;fill-opacity:1;stroke:#ff0000;stroke-width:0.10000001;stroke-miterlimit:4;stroke-dasharray:none;stroke-opacity:1"
       id="path5121-1-4"
       cx="54.584217"
       cy="111.83993"
       rx="1.8937527"
       ry="1.8937463" />
    <ellipse
       style="fill:none;fill-opacity:1;stroke:#ff0000;stroke-width:0.10000001;stroke-miterlimit:4;stroke-dasharray:none;stroke-opacity:1"
       id="path5121-1-9-4"
       cx="52.623493"
       cy="122.1337"
       rx="1.8937527"
       ry="1.8937463" />
    <ellipse
       style="fill:none;fill-opacity:1;stroke:#ff0000;stroke-width:0.10000001;stroke-miterlimit:4;stroke-dasharray:none;stroke-opacity:1"
       id="path5121-1-9-6-2"
       cx="40.680897"
       cy="122.17826"
       rx="1.8937527"
       ry="1.8937463" />
    <ellipse
       style="fill:none;fill-opacity:1;stroke:#ff0000;stroke-width:0.10000001;stroke-miterlimit:4;stroke-dasharray:none;stroke-opacity:1"
       id="path5121-1-9-6-4-51"
       cx="38.051762"
       cy="111.75082"
       rx="1.8937527"
       ry="1.8937463" />
    <path
       style="fill:none;fill-opacity:1;stroke:#ff0000;stroke-width:0.09518237;stroke-miterlimit:4;stroke-dasharray:none;stroke-opacity:1"
       d="m 46.673864,113.49782 a 1.3513744,1.3513744 0 0 0 -1.35116,1.35117 1.3513744,1.3513744 0 0 0 0.4171,0.9739 h 1.87107 a 1.3513744,1.3513744 0 0 0 0.41464,-0.9739 1.3513744,1.3513744 0 0 0 -1.35165,-1.35117 z"
       id="path5121-1-9-6-4-6-1"
       inkscape:connector-curvature="0" />
    <path
       inkscape:connector-curvature="0"
       style="fill:none;fill-opacity:1;stroke:#ff0000;stroke-width:0.09518239;stroke-miterlimit:4;stroke-dasharray:none;stroke-opacity:1"
       d="m 136.47606,101.5218 a 1.3601607,1.3601607 0 0 0 -1.35995,1.35994 1.3601607,1.3601607 0 0 0 0.41982,0.98024 h 1.88323 a 1.3601607,1.3601607 0 0 0 0.41734,-0.98024 1.3601607,1.3601607 0 0 0 -1.36044,-1.35994 z"
       id="path5121-1-9-6-4-6-7-57" />
  </g>
</svg>
